<svg width="51" height="51" viewBox="0 0 51 51" fill="none" xmlns="http://www.w3.org/2000/svg">
<path d="M12.0557 23.5307C11.9667 23.5449 11.8761 23.5449 11.7872 23.5307C11.5903 23.4713 11.4189 23.348 11.2998 23.1804C11.1808 23.0127 11.121 22.8102 11.1298 22.6048V21.6789C11.1298 21.4333 11.2273 21.1978 11.4009 21.0241C11.5746 20.8505 11.8101 20.7529 12.0557 20.7529H12.9816C13.1802 20.7525 13.3737 20.8159 13.5335 20.9339C13.6933 21.0518 13.811 21.218 13.8691 21.4079C13.9272 21.5978 13.9227 21.8014 13.8563 21.9886C13.7898 22.1757 13.665 22.3366 13.5001 22.4474C13.245 22.6408 13.0176 22.8682 12.8242 23.1233C12.7393 23.249 12.6248 23.3518 12.4908 23.4229C12.3567 23.4939 12.2073 23.5309 12.0557 23.5307V23.5307Z" fill="#F672C2"/>
<path d="M49.0906 30.9381H20.3869C20.1413 30.9381 19.9058 30.8406 19.7321 30.6669C19.5585 30.4933 19.4609 30.2578 19.4609 30.0122V27.8177C19.4606 27.6604 19.5004 27.5055 19.5766 27.3678C19.6527 27.2301 19.7627 27.1141 19.8961 27.0307L26.6646 22.79C26.854 22.6742 27.0093 22.5105 27.115 22.3154C27.2207 22.1202 27.273 21.9007 27.2665 21.6789C27.2665 21.4333 27.364 21.1978 27.5377 21.0241C27.7113 20.8505 27.9468 20.7529 28.1924 20.7529H49.0906C49.5817 20.7529 50.0527 20.948 50.4 21.2953C50.7473 21.6426 50.9424 22.1136 50.9424 22.6048V29.0863C50.9424 29.5774 50.7473 30.0484 50.4 30.3957C50.0527 30.743 49.5817 30.9381 49.0906 30.9381ZM21.3128 29.0863H49.0906V22.6048H28.9887C28.7666 23.3332 28.2901 23.9576 27.6461 24.364L21.3128 28.327V29.0863Z" fill="#F672C2"/>
<path d="M12.7493 22.6045H12.0548C11.8093 22.6045 11.5737 22.507 11.4001 22.3333C11.2265 22.1597 11.1289 21.9242 11.1289 21.6786V2.23418C11.1289 1.74303 11.324 1.27201 11.6713 0.924719C12.0186 0.577429 12.4896 0.382324 12.9808 0.382324H19.4622C19.9534 0.382324 20.4244 0.577429 20.7717 0.924719C21.119 1.27201 21.3141 1.74303 21.3141 2.23418V13.1601C21.3138 13.315 21.2747 13.4674 21.2003 13.6033C21.1259 13.7392 21.0186 13.8542 20.8882 13.9379C20.7523 14.0278 20.5952 14.0802 20.4327 14.09C20.2701 14.0997 20.1078 14.0664 19.9622 13.9934C19.6778 13.8573 19.3531 13.8312 19.0505 13.9201C18.748 14.009 18.489 14.2066 18.3234 14.4749L13.5085 22.1694C13.4277 22.2989 13.316 22.4064 13.1836 22.4823C13.0511 22.5582 12.9019 22.6002 12.7493 22.6045ZM12.9808 2.23418V19.5675L16.7771 13.4934C17.0617 13.0392 17.4579 12.6654 17.9279 12.4077C18.398 12.1499 18.9262 12.0169 19.4622 12.0212V2.23418H12.9808Z" fill="#F672C2"/>
<path d="M21.3141 47.6045V48.5304C21.3141 49.0216 21.119 49.4926 20.7717 49.8399C20.4244 50.1872 19.9534 50.3823 19.4622 50.3823H12.9808C12.4896 50.3823 12.0186 50.1872 11.6713 49.8399C11.324 49.4926 11.1289 49.0216 11.1289 48.5304V47.6045H12.9808V48.5304H19.4622V47.6045H21.3141Z" fill="#F672C2"/>
<path d="M12.0557 23.5307C11.9667 23.5449 11.8761 23.5449 11.7872 23.5307C11.5903 23.4713 11.4189 23.348 11.2998 23.1804C11.1808 23.0127 11.121 22.8102 11.1298 22.6048V21.6789C11.1298 21.4333 11.2273 21.1978 11.4009 21.0241C11.5746 20.8505 11.8101 20.7529 12.0557 20.7529H12.9816C13.1802 20.7525 13.3737 20.8159 13.5335 20.9339C13.6933 21.0518 13.811 21.218 13.8691 21.4079C13.9272 21.5978 13.9227 21.8014 13.8563 21.9886C13.7898 22.1757 13.665 22.3366 13.5001 22.4474C13.245 22.6408 13.0176 22.8682 12.8242 23.1233C12.7393 23.249 12.6248 23.3518 12.4908 23.4229C12.3567 23.4939 12.2073 23.5309 12.0557 23.5307V23.5307Z" fill="#F672C2"/>
<path d="M12.4801 23.0307C12.2712 23.0295 12.0689 22.9577 11.906 22.827C11.728 22.6861 11.6079 22.4847 11.5686 22.2611C11.5294 22.0374 11.5737 21.8072 11.693 21.614L11.9616 21.1881C12.045 21.0547 12.161 20.9447 12.2987 20.8686C12.4364 20.7924 12.5912 20.7526 12.7486 20.7529H12.9801C13.1787 20.7525 13.3722 20.8159 13.532 20.9339C13.6918 21.0518 13.8094 21.218 13.8676 21.4079C13.9257 21.5978 13.9212 21.8014 13.8547 21.9886C13.7883 22.1757 13.6634 22.3366 13.4986 22.4474C13.3655 22.5368 13.2442 22.6426 13.1375 22.7622C13.051 22.848 12.9484 22.9159 12.8356 22.962C12.7227 23.0081 12.6019 23.0314 12.4801 23.0307Z" fill="#F672C2"/>
<path d="M12.0538 23.5304C11.9618 23.5443 11.8681 23.5443 11.7761 23.5304C11.581 23.4693 11.4116 23.3453 11.2943 23.1778C11.1771 23.0103 11.1186 22.8087 11.1279 22.6045V22.373C11.1276 22.2156 11.1674 22.0608 11.2435 21.9231C11.3197 21.7854 11.4297 21.6693 11.5631 21.5859L11.989 21.3174C12.1822 21.189 12.4166 21.1378 12.6457 21.1739C12.8749 21.21 13.0821 21.3308 13.2264 21.5124C13.3708 21.694 13.4417 21.9231 13.4252 22.1545C13.4086 22.3859 13.3059 22.6026 13.1372 22.7619C13.0176 22.8686 12.9118 22.9899 12.8224 23.123C12.7374 23.2486 12.6229 23.3515 12.4889 23.4225C12.3549 23.4936 12.2055 23.5306 12.0538 23.5304V23.5304Z" fill="#F672C2"/>
<path d="M3.53595 30.9381H2.79521C2.30407 30.9381 1.83304 30.743 1.48575 30.3957C1.13846 30.0484 0.943359 29.5774 0.943359 29.0863V22.6048C0.943359 22.1136 1.13846 21.6426 1.48575 21.2953C1.83304 20.948 2.30407 20.7529 2.79521 20.7529H12.0545C12.3 20.7529 12.5356 20.8505 12.7092 21.0241C12.8828 21.1978 12.9804 21.4333 12.9804 21.6789V22.3733C12.9807 22.5307 12.9409 22.6855 12.8648 22.8232C12.7886 22.9609 12.6786 23.0769 12.5452 23.1603L4.85077 27.9752C4.58243 28.1408 4.38481 28.3998 4.29593 28.7023C4.20704 29.0049 4.23317 29.3296 4.36928 29.614C4.44227 29.7596 4.47557 29.9219 4.46582 30.0845C4.45606 30.247 4.4036 30.4041 4.31373 30.54C4.22687 30.6652 4.11044 30.7671 3.97476 30.8366C3.83908 30.906 3.68835 30.9409 3.53595 30.9381V30.9381ZM2.79521 22.6048V27.5307C3.04956 27.0676 3.41962 26.6784 3.86928 26.4011L9.94336 22.6048H2.79521Z" fill="#F672C2"/>
<path d="M12.0543 22.6047H2.79507C2.5495 22.6047 2.31398 22.5072 2.14034 22.3335C1.96669 22.1599 1.86914 21.9244 1.86914 21.6788V5.01215C1.86914 4.27544 2.1618 3.5689 2.68273 3.04797C3.20367 2.52703 3.91021 2.23438 4.64692 2.23438H12.0543C12.2999 2.23438 12.5354 2.33193 12.7091 2.50557C12.8827 2.67922 12.9803 2.91473 12.9803 3.1603V21.6788C12.9803 21.9244 12.8827 22.1599 12.7091 22.3335C12.5354 22.5072 12.2999 22.6047 12.0543 22.6047ZM3.72099 20.7529H11.1284V4.08623H4.64692C4.40135 4.08623 4.16583 4.18378 3.99219 4.35742C3.81855 4.53107 3.72099 4.76658 3.72099 5.01215V20.7529Z" fill="#F672C2"/>
<path d="M15.7572 30.9378C15.0269 30.9396 14.3035 30.7974 13.6283 30.5194C12.953 30.2413 12.3392 29.8329 11.822 29.3174C11.6265 29.1189 11.4469 28.9052 11.285 28.6785C11.0179 28.3253 10.7969 27.9395 10.6275 27.5304C10.6275 27.4285 10.5535 27.3267 10.5257 27.2341C10.5032 27.1895 10.4846 27.143 10.4701 27.0952C10.4701 26.9748 10.4053 26.8637 10.3775 26.7619C10.3212 26.5617 10.281 26.3573 10.2572 26.1508C10.2486 26.0367 10.2486 25.9222 10.2572 25.8082C10.2294 25.5249 10.2294 25.2396 10.2572 24.9563C10.2486 24.8423 10.2486 24.7278 10.2572 24.6137C10.281 24.4071 10.3212 24.2028 10.3775 24.0026L10.4609 23.6878L10.5164 23.5304L10.6275 23.2434C10.8016 22.8164 11.0321 22.4147 11.3127 22.0489C11.4665 21.8353 11.6368 21.6341 11.822 21.4471C12.0181 21.2489 12.232 21.0692 12.4609 20.91C13.0084 20.478 13.6387 20.1629 14.3127 19.9841C14.4614 19.9398 14.613 19.9057 14.7664 19.8822C15.4086 19.7574 16.0687 19.7574 16.7109 19.8822C16.8702 19.9067 17.0279 19.9407 17.1831 19.9841C17.8565 20.1646 18.4865 20.4796 19.035 20.91C19.2481 21.0573 19.4465 21.2247 19.6275 21.41C20.4161 22.1811 20.9574 23.1695 21.1823 24.2492C21.4073 25.329 21.3057 26.4513 20.8906 27.4731C20.4755 28.495 19.7657 29.3701 18.8515 29.9871C17.9373 30.6041 16.8601 30.9351 15.7572 30.9378ZM15.7572 21.6785C15.5461 21.6782 15.3353 21.6968 15.1275 21.7341L14.8498 21.7989C14.3794 21.9089 13.9377 22.1172 13.5535 22.41C13.4042 22.5108 13.2675 22.6289 13.1461 22.7619C13.0264 22.8686 12.9207 22.9899 12.8313 23.123C12.6389 23.3727 12.4801 23.6467 12.359 23.9378C12.3288 23.9972 12.304 24.0591 12.285 24.123C12.2674 24.18 12.2457 24.2357 12.2201 24.2896C12.2201 24.2896 12.2201 24.3452 12.2201 24.41C12.2255 24.4438 12.2255 24.4781 12.2201 24.5119C12.1896 24.6273 12.1679 24.745 12.1553 24.8637C12.1553 24.8637 12.1553 24.9285 12.1553 24.9563C12.1598 25.0087 12.1598 25.0613 12.1553 25.1137C12.1368 25.2923 12.1368 25.4722 12.1553 25.6508C12.1599 25.6846 12.1599 25.7188 12.1553 25.7526C12.1598 25.8019 12.1598 25.8515 12.1553 25.9008C12.1679 26.0195 12.1896 26.1371 12.2201 26.2526C12.2255 26.2863 12.2255 26.3207 12.2201 26.3545C12.2344 26.4174 12.253 26.4793 12.2757 26.5396C12.2795 26.5735 12.2795 26.6077 12.2757 26.6415C12.2947 26.7053 12.3195 26.7673 12.3498 26.8267C12.4639 27.104 12.6133 27.3654 12.7942 27.6045C12.8915 27.7508 13.0066 27.8845 13.1368 28.0026C13.8318 28.6976 14.7743 29.088 15.7572 29.088C16.74 29.088 17.6826 28.6976 18.3775 28.0026C19.0725 27.3076 19.4629 26.3651 19.4629 25.3822C19.4629 24.3994 19.0725 23.4568 18.3775 22.7619C18.2708 22.6422 18.1495 22.5365 18.0164 22.4471C17.6342 22.1451 17.1925 21.9273 16.7201 21.8082L16.4331 21.7433C16.2104 21.6999 15.9841 21.6782 15.7572 21.6785V21.6785Z" fill="#F672C2"/>
<path d="M12.0557 23.5307C11.9667 23.5449 11.8761 23.5449 11.7872 23.5307C11.5903 23.4713 11.4189 23.348 11.2998 23.1804C11.1808 23.0127 11.121 22.8102 11.1298 22.6048V21.6789C11.1298 21.4333 11.2273 21.1978 11.4009 21.0241C11.5746 20.8505 11.8101 20.7529 12.0557 20.7529H12.9816C13.1802 20.7525 13.3737 20.8159 13.5335 20.9339C13.6933 21.0518 13.811 21.218 13.8691 21.4079C13.9272 21.5978 13.9227 21.8014 13.8563 21.9886C13.7898 22.1757 13.665 22.3366 13.5001 22.4474C13.245 22.6408 13.0176 22.8682 12.8242 23.1233C12.7393 23.249 12.6248 23.3518 12.4908 23.4229C12.3567 23.4939 12.2073 23.5309 12.0557 23.5307V23.5307Z" fill="#F672C2"/>
<path d="M19.0351 29.5863C18.8961 29.5856 18.7589 29.5536 18.6339 29.4927C18.5088 29.4318 18.3991 29.3435 18.3129 29.2344C18.1706 29.057 18.0985 28.8334 18.1105 28.6063C18.1224 28.3792 18.2176 28.1644 18.3777 28.0029C18.7221 27.6589 18.9953 27.2505 19.1816 26.8008C19.368 26.3512 19.464 25.8693 19.464 25.3825C19.464 24.8958 19.368 24.4139 19.1816 23.9642C18.9953 23.5146 18.7221 23.1062 18.3777 22.7622C18.271 22.6425 18.1497 22.5368 18.0166 22.4474C17.6344 22.1454 17.1926 21.9276 16.7203 21.8085L16.4333 21.7437C15.9985 21.6652 15.5532 21.6652 15.1185 21.7437L14.8407 21.8085C14.3703 21.9185 13.9286 22.1268 13.5444 22.4196C13.3816 22.5417 13.1831 22.6068 12.9796 22.6048H12.7481C12.5827 22.6051 12.4201 22.5611 12.2775 22.4773C12.1348 22.3936 12.0172 22.2731 11.9368 22.1285C11.8565 21.9839 11.8164 21.8204 11.8206 21.655C11.8249 21.4896 11.8734 21.3284 11.9611 21.1881L16.7759 13.4937C17.1848 12.8414 17.8192 12.3621 18.5584 12.147C19.2976 11.9319 20.0901 11.9959 20.7851 12.327C21.1061 12.4828 21.4 12.6891 21.6555 12.9381L28.2018 19.4844C28.7766 20.0651 29.1079 20.8435 29.1277 21.6603V21.6788C29.1291 22.2105 28.9945 22.7337 28.7369 23.1988C28.4792 23.6639 28.107 24.0554 27.6555 24.3363L19.5351 29.4196C19.3881 29.5224 19.2144 29.5803 19.0351 29.5863V29.5863ZM15.7574 19.827C16.0929 19.8257 16.4278 19.8567 16.7574 19.9196C16.9167 19.944 17.0744 19.978 17.2296 20.0214C17.903 20.202 18.5329 20.5169 19.0814 20.9474C19.2945 21.0946 19.493 21.2621 19.674 21.4474C20.1928 21.9631 20.6047 22.5762 20.8859 23.2515C21.1672 23.9268 21.3123 24.651 21.3129 25.3825C21.3132 25.649 21.2946 25.9151 21.2574 26.1788L26.6648 22.79C26.8541 22.6742 27.0095 22.5105 27.1151 22.3154C27.2208 22.1202 27.2731 21.9007 27.2666 21.6788H28.1925H27.2666C27.2684 21.507 27.2357 21.3365 27.1705 21.1775C27.1053 21.0184 27.0089 20.8741 26.887 20.7529L20.387 14.2714C20.2814 14.1596 20.1558 14.0685 20.0166 14.0029C19.7332 13.8729 19.4119 13.851 19.1135 13.9414C18.815 14.0318 18.5599 14.2282 18.3962 14.4937L15.0074 19.9011C15.2554 19.8596 15.506 19.8349 15.7574 19.827V19.827Z" fill="#F672C2"/>
<path d="M12.0531 38.7435C11.2215 38.7288 10.4268 38.3977 9.83085 37.8175L3.31234 31.2805C3.0648 31.0328 2.86127 30.7447 2.71048 30.4287C2.37332 29.7326 2.30498 28.9366 2.51857 28.1933C2.73217 27.45 3.21266 26.8117 3.86789 26.4009L11.5623 21.5861C11.7026 21.4984 11.8639 21.4499 12.0292 21.4456C12.1946 21.4414 12.3581 21.4815 12.5027 21.5618C12.6474 21.6422 12.7678 21.7598 12.8516 21.9025C12.9353 22.0451 12.9793 22.2077 12.979 22.3731V22.6046C12.979 22.8049 12.914 22.9999 12.7938 23.1601C12.6129 23.3992 12.4635 23.6606 12.3494 23.9379C12.3191 23.9973 12.2943 24.0593 12.2753 24.1231C12.2577 24.1801 12.2361 24.2358 12.2105 24.2898C12.2105 24.2898 12.2105 24.3453 12.2105 24.4101C12.2159 24.4439 12.2159 24.4782 12.2105 24.512C12.1799 24.6274 12.1583 24.7451 12.1457 24.8638C12.1457 24.8638 12.1457 24.9287 12.1457 24.9564C12.1501 25.0088 12.1501 25.0615 12.1457 25.1138C12.1271 25.2924 12.1271 25.4723 12.1457 25.6509C12.1502 25.6847 12.1502 25.7189 12.1457 25.7527C12.1502 25.802 12.1502 25.8516 12.1457 25.9009C12.1583 26.0196 12.1799 26.1373 12.2105 26.2527C12.2159 26.2865 12.2159 26.3208 12.2105 26.3546C12.2247 26.4175 12.2433 26.4794 12.266 26.5398C12.2699 26.5736 12.2699 26.6078 12.266 26.6416C12.2851 26.7055 12.3099 26.7674 12.3401 26.8268C12.4542 27.1041 12.6036 27.3655 12.7846 27.6046C12.8819 27.7509 12.997 27.8847 13.1271 28.0027C13.4711 28.3471 13.8796 28.6203 14.3292 28.8066C14.7788 28.993 15.2608 29.089 15.7475 29.089C16.2342 29.089 16.7162 28.993 17.1658 28.8066C17.6154 28.6203 18.0239 28.3471 18.3679 28.0027C18.5271 27.834 18.7439 27.7313 18.9752 27.7147C19.2066 27.6982 19.4358 27.7691 19.6174 27.9135C19.799 28.0578 19.9198 28.2651 19.9559 28.4942C19.992 28.7233 19.9407 28.9577 19.8123 29.1509L14.7383 37.2712C14.455 37.7267 14.059 38.1015 13.5887 38.3594C13.1183 38.6173 12.5894 38.7496 12.0531 38.7435ZM10.2012 24.5861L4.84937 27.9749C4.58104 28.1406 4.38342 28.3996 4.29453 28.7021C4.20565 29.0047 4.23178 29.3294 4.36789 29.6138C4.43225 29.7642 4.5268 29.8997 4.64567 30.012L11.1734 36.4935C11.2946 36.6154 11.439 36.7118 11.598 36.777C11.757 36.8422 11.9275 36.8748 12.0994 36.8731C12.3181 36.8763 12.5338 36.8225 12.7254 36.717C12.917 36.6114 13.0778 36.4578 13.192 36.2712L16.5809 30.8638C15.725 30.9823 14.8535 30.9028 14.0332 30.6315C13.2129 30.3602 12.4658 29.9044 11.8494 29.299C11.6539 29.1005 11.4743 28.8868 11.3123 28.6601C11.0452 28.3069 10.8243 27.9211 10.6549 27.512C10.6549 27.4101 10.5809 27.3083 10.5531 27.2157C10.5306 27.1711 10.512 27.1246 10.4975 27.0768C10.4975 26.9564 10.4327 26.8453 10.4049 26.7435C10.3486 26.5433 10.3084 26.3389 10.2846 26.1324C10.276 26.0183 10.276 25.9038 10.2846 25.7898C10.2568 25.5065 10.2568 25.2212 10.2846 24.9379C10.276 24.8239 10.276 24.7094 10.2846 24.5953L10.2012 24.5861Z" fill="#F672C2"/>
<path d="M20.8409 27.0117C20.7002 26.9305 20.5405 26.8877 20.378 26.8877C20.2154 26.8877 20.0558 26.9305 19.915 27.0117L18.5354 27.8729C18.4153 27.9477 18.3139 28.049 18.2391 28.1692L13.165 36.2895C13.0482 36.4736 12.8868 36.6253 12.6959 36.7305C12.5049 36.8357 12.2904 36.891 12.0724 36.8914V36.8914C11.8268 36.8914 11.5913 36.9889 11.4177 37.1626C11.244 37.3362 11.1465 37.5717 11.1465 37.8173V48.5303C11.1465 48.7758 11.244 49.0113 11.4177 49.185C11.5913 49.3586 11.8268 49.4562 12.0724 49.4562H20.4057C20.6513 49.4562 20.8868 49.3586 21.0605 49.185C21.2341 49.0113 21.3317 48.7758 21.3317 48.5303V27.8173C21.3296 27.6514 21.2829 27.4891 21.1966 27.3473C21.1102 27.2056 20.9874 27.0897 20.8409 27.0117ZM19.4613 48.5303H12.9798V38.6136C13.7086 38.3922 14.3332 37.9155 14.7391 37.271L19.4613 29.7247V48.5303Z" fill="#F672C2"/>
<path d="M12.0543 36.8915C11.7234 36.8819 11.4087 36.7461 11.1747 36.5119L4.64692 30.0119C4.53507 29.9063 4.44399 29.7806 4.3784 29.6415C4.30675 29.4773 4.18901 29.3374 4.03945 29.2388C3.88989 29.1402 3.71494 29.0871 3.53581 29.0859H2.79507C2.5495 29.0859 2.31398 29.1835 2.14034 29.3571C1.96669 29.5308 1.86914 29.7663 1.86914 30.0119V46.6785C1.86914 47.4152 2.1618 48.1218 2.68273 48.6427C3.20367 49.1636 3.91021 49.4563 4.64692 49.4563H12.0543C12.2999 49.4563 12.5354 49.3588 12.7091 49.1851C12.8827 49.0115 12.9803 48.776 12.9803 48.5304V37.8174C12.9803 37.5718 12.8827 37.3363 12.7091 37.1627C12.5354 36.989 12.2999 36.8915 12.0543 36.8915ZM4.64692 47.6045C4.40135 47.6045 4.16583 47.5069 3.99219 47.3333C3.81855 47.1596 3.72099 46.9241 3.72099 46.6785V31.6785L9.85988 37.8267C10.2178 38.1772 10.652 38.4402 11.1284 38.5952V47.6045H4.64692Z" fill="#F672C2"/>
<path d="M48.1646 22.6047H28.1924C27.9468 22.6047 27.7113 22.5072 27.5377 22.3335C27.364 22.1599 27.2665 21.9244 27.2665 21.6788C27.2682 21.507 27.2356 21.3365 27.1704 21.1774C27.1052 21.0184 27.0088 20.8741 26.8869 20.7529L20.3869 14.2714C20.2813 14.1596 20.1556 14.0685 20.0165 14.0029C19.8523 13.9312 19.7124 13.8135 19.6138 13.6639C19.5152 13.5144 19.4621 13.3394 19.4609 13.1603V3.1603C19.4609 2.91473 19.5585 2.67922 19.7321 2.50557C19.9058 2.33193 20.1413 2.23437 20.3869 2.23438H46.3128C47.0495 2.23438 47.756 2.52703 48.277 3.04797C48.7979 3.5689 49.0906 4.27544 49.0906 5.01215V21.6788C49.0906 21.9244 48.993 22.1599 48.8194 22.3335C48.6457 22.5072 48.4102 22.6047 48.1646 22.6047ZM28.9702 20.7529H47.2387V5.01215C47.2387 4.76658 47.1412 4.53107 46.9675 4.35742C46.7939 4.18378 46.5584 4.08623 46.3128 4.08623H21.3128V12.6418C21.4332 12.7344 21.5443 12.8362 21.6554 12.9381L28.2017 19.4844C28.5522 19.8423 28.8152 20.2765 28.9702 20.7529V20.7529Z" fill="#F672C2"/>
<path d="M48.1646 29.0859H20.3869C20.1413 29.0859 19.9058 29.1835 19.7321 29.3571C19.5585 29.5308 19.4609 29.7663 19.4609 30.0119V48.5304C19.4609 48.776 19.5585 49.0115 19.7321 49.1851C19.9058 49.3588 20.1413 49.4563 20.3869 49.4563H46.3128C47.0495 49.4563 47.756 49.1636 48.277 48.6427C48.7979 48.1218 49.0906 47.4152 49.0906 46.6785V30.0119C49.0906 29.7663 48.993 29.5308 48.8194 29.3571C48.6457 29.1835 48.4102 29.0859 48.1646 29.0859ZM47.2387 46.6785C47.2387 46.9241 47.1412 47.1596 46.9675 47.3333C46.7939 47.5069 46.5584 47.6045 46.3128 47.6045H21.3128V30.9378H47.2387V46.6785Z" fill="#F672C2"/>
<path d="M10.2028 31.8637C10.0809 31.8644 9.96012 31.8411 9.84731 31.795C9.7345 31.7489 9.63189 31.681 9.54537 31.5952C9.45859 31.5091 9.3897 31.4067 9.34269 31.2939C9.29569 31.1811 9.27148 31.0601 9.27148 30.9378C9.27148 30.8156 9.29569 30.6946 9.34269 30.5817C9.3897 30.4689 9.45859 30.3665 9.54537 30.2804L11.3972 28.4286C11.4836 28.3422 11.586 28.2737 11.6988 28.227C11.8116 28.1803 11.9325 28.1562 12.0546 28.1562C12.1767 28.1562 12.2976 28.1803 12.4104 28.227C12.5232 28.2737 12.6257 28.3422 12.712 28.4286C12.7984 28.5149 12.8669 28.6174 12.9136 28.7302C12.9603 28.843 12.9843 28.9639 12.9843 29.086C12.9843 29.2081 12.9603 29.329 12.9136 29.4418C12.8669 29.5546 12.7984 29.657 12.712 29.7434L10.8602 31.5952C10.7737 31.681 10.6711 31.7489 10.5582 31.795C10.4454 31.8411 10.3246 31.8644 10.2028 31.8637Z" fill="#F672C2"/>
<path d="M19.4625 22.605C19.3407 22.6057 19.2199 22.5823 19.1071 22.5362C18.9943 22.4901 18.8917 22.4222 18.8051 22.3364C18.7184 22.2504 18.6495 22.1479 18.6025 22.0351C18.5555 21.9223 18.5312 21.8013 18.5312 21.679C18.5312 21.5568 18.5555 21.4358 18.6025 21.3229C18.6495 21.2101 18.7184 21.1077 18.8051 21.0216L20.657 19.1698C20.8313 18.9954 21.0678 18.8975 21.3144 18.8975C21.561 18.8975 21.7974 18.9954 21.9718 19.1698C22.1462 19.3441 22.2441 19.5806 22.2441 19.8272C22.2441 20.0738 22.1462 20.3102 21.9718 20.4846L20.12 22.3364C20.0334 22.4222 19.9308 22.4901 19.818 22.5362C19.7052 22.5823 19.5844 22.6057 19.4625 22.605Z" fill="#F672C2"/>
<path d="M43.5352 33.7158H30.5723V35.5677H43.5352V33.7158Z" fill="#F672C2"/>
<path d="M43.5352 38.3452H30.5723V40.1971H43.5352V38.3452Z" fill="#F672C2"/>
<path d="M43.5352 42.9751H30.5723V44.8269H43.5352V42.9751Z" fill="#F672C2"/>
</svg>
