<svg width="50" height="45" viewBox="0 0 50 45" fill="none" xmlns="http://www.w3.org/2000/svg">
<path d="M48.9583 5.49984H42.1875V3.93734C42.1875 2.9704 41.8034 2.04307 41.1197 1.35934C40.4359 0.675618 39.5086 0.291504 38.5417 0.291504C37.5747 0.291504 36.6474 0.675618 35.9637 1.35934C35.2799 2.04307 34.8958 2.9704 34.8958 3.93734V5.49984H15.1042V3.93734C15.1042 2.9704 14.7201 2.04307 14.0363 1.35934C13.3526 0.675618 12.4253 0.291504 11.4583 0.291504C10.4914 0.291504 9.56407 0.675618 8.88034 1.35934C8.19661 2.04307 7.8125 2.9704 7.8125 3.93734V5.49984H1.04167C0.765399 5.49984 0.500448 5.60958 0.305097 5.80493C0.109747 6.00028 0 6.26524 0 6.5415L0 42.9998C0 43.2761 0.109747 43.5411 0.305097 43.7364C0.500448 43.9318 0.765399 44.0415 1.04167 44.0415H48.9583C49.2346 44.0415 49.4995 43.9318 49.6949 43.7364C49.8903 43.5411 50 43.2761 50 42.9998V6.5415C50 6.26524 49.8903 6.00028 49.6949 5.80493C49.4995 5.60958 49.2346 5.49984 48.9583 5.49984ZM36.9792 3.93734C36.9792 3.52294 37.1438 3.12551 37.4368 2.83248C37.7298 2.53946 38.1273 2.37484 38.5417 2.37484C38.9561 2.37484 39.3535 2.53946 39.6465 2.83248C39.9395 3.12551 40.1042 3.52294 40.1042 3.93734V8.104C40.1042 8.5184 39.9395 8.91583 39.6465 9.20886C39.3535 9.50188 38.9561 9.6665 38.5417 9.6665C38.1273 9.6665 37.7298 9.50188 37.4368 9.20886C37.1438 8.91583 36.9792 8.5184 36.9792 8.104V3.93734ZM9.89583 3.93734C9.89583 3.52294 10.0605 3.12551 10.3535 2.83248C10.6465 2.53946 11.0439 2.37484 11.4583 2.37484C11.8727 2.37484 12.2702 2.53946 12.5632 2.83248C12.8562 3.12551 13.0208 3.52294 13.0208 3.93734V8.104C13.0208 8.5184 12.8562 8.91583 12.5632 9.20886C12.2702 9.50188 11.8727 9.6665 11.4583 9.6665C11.0439 9.6665 10.6465 9.50188 10.3535 9.20886C10.0605 8.91583 9.89583 8.5184 9.89583 8.104V3.93734ZM7.8125 7.58317V8.104C7.8125 9.07094 8.19661 9.99827 8.88034 10.682C9.56407 11.3657 10.4914 11.7498 11.4583 11.7498C12.4253 11.7498 13.3526 11.3657 14.0363 10.682C14.7201 9.99827 15.1042 9.07094 15.1042 8.104V7.58317H34.8958V8.104C34.8958 9.07094 35.2799 9.99827 35.9637 10.682C36.6474 11.3657 37.5747 11.7498 38.5417 11.7498C39.5086 11.7498 40.4359 11.3657 41.1197 10.682C41.8034 9.99827 42.1875 9.07094 42.1875 8.104V7.58317H47.9167V13.8332H2.08333V7.58317H7.8125ZM2.08333 41.9582V15.9165H47.9167V41.9582H2.08333ZM25 19.0415C23.0428 19.0415 21.1295 19.6219 19.5022 20.7093C17.8748 21.7966 16.6064 23.3421 15.8574 25.1504C15.1084 26.9586 14.9125 28.9483 15.2943 30.8679C15.6761 32.7875 16.6186 34.5508 18.0026 35.9347C19.3865 37.3187 21.1498 38.2612 23.0694 38.643C24.989 39.0249 26.9787 38.8289 28.787 38.0799C30.5952 37.3309 32.1407 36.0625 33.2281 34.4352C34.3155 32.8078 34.8958 30.8945 34.8958 28.9373C34.8931 26.3136 33.8496 23.7982 31.9944 21.943C30.1391 20.0877 27.6237 19.0443 25 19.0415ZM25 36.7498C23.4548 36.7498 21.9444 36.2916 20.6596 35.4332C19.3748 34.5747 18.3735 33.3546 17.7822 31.927C17.1909 30.4995 17.0362 28.9287 17.3376 27.4132C17.6391 25.8977 18.3831 24.5057 19.4757 23.4131C20.5683 22.3205 21.9604 21.5764 23.4759 21.275C24.9913 20.9735 26.5622 21.1282 27.9897 21.7195C29.4173 22.3108 30.6374 23.3122 31.4959 24.5969C32.3543 25.8817 32.8125 27.3922 32.8125 28.9373C32.8125 31.0093 31.9894 32.9965 30.5243 34.4616C29.0591 35.9267 27.072 36.7498 25 36.7498ZM31.0104 26.7082C31.0981 26.8134 31.1642 26.935 31.2049 27.0658C31.2456 27.1966 31.26 27.3342 31.2474 27.4706C31.2349 27.6071 31.1955 27.7397 31.1316 27.8609C31.0677 27.9821 30.9805 28.0895 30.875 28.1769L24.625 33.3853C24.4376 33.5405 24.2017 33.6253 23.9583 33.6248H23.8125C23.6671 33.6034 23.528 33.5515 23.4041 33.4726C23.2802 33.3936 23.1745 33.2893 23.0938 33.1665L21.0104 30.0415C20.9195 29.9286 20.8531 29.798 20.8156 29.658C20.778 29.5181 20.7701 29.3718 20.7923 29.2285C20.8145 29.0853 20.8663 28.9483 20.9445 28.8262C21.0226 28.7042 21.1254 28.5998 21.2462 28.5197C21.3671 28.4397 21.5033 28.3857 21.6461 28.3613C21.789 28.3369 21.9354 28.3425 22.0759 28.3779C22.2165 28.4133 22.3481 28.4776 22.4624 28.5668C22.5767 28.6559 22.6711 28.7679 22.7396 28.8957L24.1771 31.0519L29.5417 26.5832C29.6463 26.4949 29.7673 26.428 29.8977 26.3865C30.0282 26.345 30.1655 26.3296 30.302 26.3412C30.4384 26.3528 30.5711 26.3912 30.6927 26.4542C30.8143 26.5171 30.9222 26.6034 31.0104 26.7082Z" fill="#ABCBF1"/>
</svg>
