<svg width="52" height="52" viewBox="0 0 52 52" fill="none" xmlns="http://www.w3.org/2000/svg">
<path d="M46.0171 50.4282L46.0171 50.4283C46.0584 50.8199 46.3883 51.1169 46.782 51.1169H46.8128C47.2408 51.1169 47.5821 50.7631 47.5821 50.3411C47.5821 50.1091 47.4773 49.8891 47.2966 49.7431L47.2966 49.7431C47.1163 49.5973 46.8798 49.5406 46.6527 49.5888L46.6525 49.5888L46.6217 49.5954L46.6217 49.5954C46.2369 49.6776 45.976 50.0369 46.0171 50.4282Z" fill="#9BDCD5" stroke="#9BDCD5" stroke-width="0.4"/>
<path d="M18.3308 9.68973L18.3308 9.68971C18.3141 9.47598 18.3875 9.26495 18.533 9.1075L18.5331 9.10742C18.6786 8.95007 18.8832 8.86055 19.0977 8.86055H35.2008C35.4042 8.86055 35.5993 8.94121 35.7434 9.0845L35.7436 9.08461L41.9537 15.2678L18.3308 9.68973ZM18.3308 9.68973C18.347 9.89568 18.3551 10.1029 18.3551 10.3057C18.3551 14.6978 14.7633 18.273 10.3465 18.273C9.92175 18.273 9.57734 18.6175 9.57734 19.0422V50.3479C9.57734 50.7727 9.92175 51.1171 10.3465 51.1171H45.0542L18.3308 9.68973ZM42.1804 15.813C42.1804 15.6086 42.0991 15.4124 41.9538 15.2679L45.1634 49.7894L45.2018 49.5931C45.2018 49.5931 45.2018 49.5931 45.2018 49.5931C43.4503 49.2509 42.1804 47.7157 42.1804 45.9449V15.813ZM11.1157 19.7807C15.9902 19.3916 19.8451 15.3411 19.8931 10.3987H34.8832L40.642 16.1325V45.9449C40.642 47.3381 41.196 48.6263 42.1117 49.5788H11.1157V19.7807Z" fill="#9BDCD5" stroke="#9BDCD5" stroke-width="0.4"/>
<path d="M41.4124 16.5822H35.2021C34.7772 16.5822 34.4328 16.2378 34.4328 15.8131V9.62979C34.4328 9.31895 34.62 9.03868 34.9069 8.91948L41.4124 16.5822ZM41.4124 16.5822C41.7238 16.5822 42.0045 16.3944 42.1232 16.1067L41.4124 16.5822ZM35.7447 9.08469C35.5247 8.8654 35.1938 8.80014 34.907 8.91946L35.7447 9.08469ZM35.7447 9.08469C35.7447 9.08471 35.7448 9.08476 35.7448 9.08478L41.9549 15.2679C42.1757 15.4877 42.2422 15.8186 42.1233 16.1066L35.7447 9.08469ZM35.9713 11.481L39.5496 15.0438H35.9713V11.481Z" fill="#9BDCD5" stroke="#9BDCD5" stroke-width="0.4"/>
<path d="M15.5067 32.1324H25.895C26.3198 32.1324 26.6642 31.788 26.6642 31.3632C26.6642 30.9384 26.3198 30.5939 25.895 30.5939H15.5067C15.0819 30.5939 14.7375 30.9384 14.7375 31.3632C14.7375 31.7879 15.0818 32.1324 15.5067 32.1324Z" fill="#9BDCD5" stroke="#9BDCD5" stroke-width="0.4"/>
<path d="M15.5067 35.8239H36.2515C36.6764 35.8239 37.0209 35.4795 37.0209 35.0546C37.0209 34.6298 36.6765 34.2854 36.2516 34.2854H15.5067C15.0819 34.2854 14.7375 34.6298 14.7375 35.0546C14.7375 35.4795 15.0817 35.8239 15.5067 35.8239Z" fill="#9BDCD5" stroke="#9BDCD5" stroke-width="0.4"/>
<path d="M37.0209 38.746V38.7459C37.0209 38.3211 36.6764 37.9768 36.2516 37.9768H15.5067C15.0819 37.9768 14.7375 38.3212 14.7375 38.7459C14.7375 39.1707 15.0817 39.5152 15.5067 39.5152H36.2515C36.6765 39.5152 37.0207 39.1709 37.0209 38.746Z" fill="#9BDCD5" stroke="#9BDCD5" stroke-width="0.4"/>
<path d="M37.0209 42.4384V42.4383C37.0209 42.0135 36.6764 41.6691 36.2516 41.6691H15.5067C15.0819 41.6691 14.7375 42.0135 14.7375 42.4383C14.7375 42.8631 15.0817 43.2076 15.5067 43.2076H36.2515C36.6765 43.2076 37.0207 42.8631 37.0209 42.4384Z" fill="#9BDCD5" stroke="#9BDCD5" stroke-width="0.4"/>
<path d="M30.7391 21.9282V21.9281V14.8021C30.7391 14.3773 30.3946 14.0329 29.9698 14.0329H17.8726C17.6034 14.0329 17.3536 14.1737 17.2143 14.4043C15.7502 16.827 13.1839 18.2728 10.3465 18.2728C9.92175 18.2728 9.57734 18.6172 9.57734 19.0419V21.9281C9.57734 22.3528 9.92175 22.6972 10.3465 22.6972H29.9697C30.3947 22.6972 30.7389 22.3528 30.7391 21.9282ZM29.2005 15.5714V21.1589H11.1155V19.7813C14.0408 19.552 16.6605 18.0212 18.2949 15.5714H29.2005Z" fill="#9BDCD5" stroke="#9BDCD5" stroke-width="0.4"/>
<path d="M0.8 10.3056C0.8 15.5482 5.08342 19.8114 10.347 19.8114C15.6106 19.8114 19.894 15.548 19.894 10.3056C19.894 5.06321 15.6106 0.8 10.347 0.8C5.08343 0.8 0.8 5.06321 0.8 10.3056ZM2.33844 10.3055C2.33844 5.91348 5.93025 2.33832 10.347 2.33832C14.7638 2.33832 18.3556 5.91361 18.3556 10.3055C18.3556 14.6975 14.7638 18.2728 10.347 18.2728C5.93038 18.2728 2.33844 14.6976 2.33844 10.3055Z" fill="#9BDCD5" stroke="#9BDCD5" stroke-width="0.4"/>
<path d="M5.27785 10.7693L5.27782 10.7692C5.02178 10.4303 5.08871 9.948 5.42768 9.69185L5.27785 10.7693ZM5.27785 10.7693L7.20141 13.3141C7.20142 13.3141 7.20144 13.3141 7.20145 13.3141C7.35263 13.5142 7.58311 13.6196 7.8156 13.6196C7.97276 13.6196 8.13151 13.5714 8.26776 13.4724L8.26795 13.4723L15.2562 8.38241L15.1384 8.22075L15.2562 8.38241C15.5996 8.1323 15.6753 7.6513 15.4252 7.30778L15.4251 7.30769C15.1749 6.96436 14.6939 6.88879 14.3505 7.13892L7.97312 11.7838L6.50512 9.84169L6.50511 9.84168M5.27785 10.7693L6.50511 9.84168M6.50511 9.84168C6.24893 9.50283 5.76674 9.43555 5.42774 9.69181L6.50511 9.84168Z" fill="#9BDCD5" stroke="#9BDCD5" stroke-width="0.4"/>
<path d="M28.1214 17.3486V17.1486H27.9214H25.8789H25.6789V17.3486V19.3818V19.5818H25.8789H27.9214H28.1214V19.3818V17.3486Z" fill="#9BDCD5" stroke="#9BDCD5" stroke-width="0.4"/>
<path d="M25.0589 17.3486V17.1486H24.8589H22.8164H22.6164V17.3486V19.3818V19.5818H22.8164H24.8589H25.0589V19.3818V17.3486Z" fill="#9BDCD5" stroke="#9BDCD5" stroke-width="0.4"/>
<path d="M21.9965 17.3486V17.1486H21.7965H19.7539H19.5539V17.3486V19.3818V19.5818H19.7539H21.7965H21.9965V19.3818V17.3486Z" fill="#9BDCD5" stroke="#9BDCD5" stroke-width="0.4"/>
<path d="M40.6418 45.9448C40.6418 48.8433 43.0093 51.1998 45.918 51.1998C48.8268 51.1998 51.1943 48.8433 51.1944 45.9447V22.1649C51.1944 21.7401 50.85 21.3957 50.4253 21.3957H41.411C40.9862 21.3957 40.6418 21.7401 40.6418 22.1649V45.9448ZM42.1801 45.9447V22.9341H49.656V45.9447C49.656 47.9928 47.98 49.6613 45.918 49.6613C43.8561 49.6613 42.1801 47.9928 42.1801 45.9447Z" fill="#9BDCD5" stroke="#9BDCD5" stroke-width="0.4"/>
</svg>
