<svg width="40" height="50" viewBox="0 0 40 50" fill="none" xmlns="http://www.w3.org/2000/svg">
<path d="M32.5007 20.8335H11.6673C11.2073 20.8335 10.834 21.206 10.834 21.6668C10.834 22.1277 11.2073 22.5002 11.6673 22.5002H32.5007C32.9607 22.5002 33.334 22.1277 33.334 21.6668C33.334 21.206 32.9607 20.8335 32.5007 20.8335Z" fill="#777DEF"/>
<path d="M11.6673 15.8332H20.0007C20.4607 15.8332 20.834 15.4607 20.834 14.9998C20.834 14.539 20.4607 14.1665 20.0007 14.1665H11.6673C11.2073 14.1665 10.834 14.539 10.834 14.9998C10.834 15.4607 11.2073 15.8332 11.6673 15.8332Z" fill="#777DEF"/>
<path d="M32.5007 27.5H11.6673C11.2073 27.5 10.834 27.8725 10.834 28.3333C10.834 28.7942 11.2073 29.1667 11.6673 29.1667H32.5007C32.9607 29.1667 33.334 28.7942 33.334 28.3333C33.334 27.8725 32.9607 27.5 32.5007 27.5Z" fill="#777DEF"/>
<path d="M32.5007 34.1665H11.6673C11.2073 34.1665 10.834 34.539 10.834 34.9998C10.834 35.4607 11.2073 35.8332 11.6673 35.8332H32.5007C32.9607 35.8332 33.334 35.4607 33.334 34.9998C33.334 34.539 32.9607 34.1665 32.5007 34.1665Z" fill="#777DEF"/>
<path d="M32.5007 40.8335H11.6673C11.2073 40.8335 10.834 41.206 10.834 41.6668C10.834 42.1277 11.2073 42.5002 11.6673 42.5002H32.5007C32.9607 42.5002 33.334 42.1277 33.334 41.6668C33.334 41.206 32.9607 40.8335 32.5007 40.8335Z" fill="#777DEF"/>
<path d="M35.8333 12.155V0H0V45.8333H4.16667V50H40V16.3217L35.8333 12.155ZM28.3333 7.01167L35.8333 14.5117L37.155 15.8333H28.3333V7.01167ZM1.66667 44.1667V1.66667H34.1667V10.4883L27.845 4.16667H4.16667V44.1667H1.66667ZM5.83333 48.3333V45.8333V5.83333H26.6667V17.5H38.3333V48.3333H5.83333Z" fill="#777DEF"/>
</svg>
