<svg width="55" height="50" viewBox="0 0 55 50" fill="none" xmlns="http://www.w3.org/2000/svg">
<path d="M49.0858 28.431C49.0858 28.3178 49.0858 28.2046 49.0858 28.0914C49.101 24.1039 48.0273 20.1879 45.9804 16.7658C43.9334 13.3438 40.9911 10.5455 37.4706 8.67289C37.0683 6.25914 35.8261 4.06514 33.9634 2.47827C32.1006 0.891394 29.7371 0.0137034 27.2901 0.000159128C24.8431 -0.0133852 22.47 0.838088 20.5898 2.40424C18.7096 3.9704 17.4432 6.15051 17.0142 8.55966C13.4468 10.4107 10.4576 13.2078 8.3739 16.6445C6.29022 20.0813 5.19245 24.0251 5.20082 28.0442C5.20082 28.2518 5.20082 28.4593 5.20082 28.6764C2.81346 30.0527 1.07063 32.3211 0.355747 34.9825C-0.359139 37.6438 0.0124753 40.4802 1.38884 42.8675C2.7652 45.2549 5.03357 46.9977 7.69492 47.7126C10.3563 48.4275 13.1926 48.0559 15.58 46.6795C19.0923 48.8718 23.1543 50.023 27.2945 49.9996C31.4348 49.9763 35.4835 48.7792 38.9709 46.5474C41.3656 47.7911 44.1506 48.0533 46.7353 47.2783C49.3201 46.5034 51.5014 44.7523 52.8169 42.3962C54.1324 40.0401 54.4786 37.2643 53.782 34.6573C53.0855 32.0503 51.4011 29.8171 49.0858 28.431ZM27.233 2.01135C28.8173 2.00207 30.3726 2.43618 31.723 3.26459C33.0735 4.09301 34.1653 5.2827 34.8751 6.69918C35.5848 8.11565 35.8841 9.70242 35.7391 11.2801C35.5942 12.8578 35.0108 14.3635 34.0549 15.6269C34.0231 14.6181 33.6012 13.6609 32.8778 12.9569C32.1545 12.2529 31.1862 11.8571 30.1769 11.8527H30.1014C30.4702 11.4799 30.7618 11.0379 30.9593 10.5522C31.1569 10.0664 31.2565 9.54639 31.2525 9.02201C31.2501 8.36319 31.0858 7.71507 30.774 7.13469C30.4622 6.55431 30.0126 6.05946 29.4646 5.69369C28.9167 5.32792 28.2872 5.10244 27.6316 5.0371C26.976 4.97176 26.3145 5.06857 25.7051 5.31899C25.0957 5.56942 24.5573 5.96579 24.1371 6.47322C23.7169 6.98065 23.4279 7.58358 23.2954 8.22896C23.163 8.87434 23.1913 9.54237 23.3777 10.1743C23.5641 10.8062 23.903 11.3825 24.3645 11.8527H24.289C23.2799 11.8548 22.3113 12.2502 21.589 12.9549C20.8666 13.6596 20.4475 14.6181 20.4205 15.6269C19.465 14.3641 18.8818 12.8593 18.7365 11.2825C18.5912 9.70563 18.8897 8.11958 19.5982 6.70344C20.3068 5.28729 21.3972 4.09748 22.7463 3.26835C24.0954 2.43923 25.6495 2.00384 27.233 2.01135ZM25.1005 9.04088C25.1005 8.61912 25.2256 8.20683 25.4599 7.85615C25.6942 7.50547 26.0273 7.23215 26.4169 7.07075C26.8066 6.90935 27.2353 6.86712 27.649 6.9494C28.0626 7.03168 28.4426 7.23478 28.7408 7.53301C29.0391 7.83124 29.2421 8.2112 29.3244 8.62486C29.4067 9.03851 29.3645 9.46727 29.2031 9.85693C29.0417 10.2466 28.7684 10.5796 28.4177 10.8139C28.067 11.0483 27.6547 11.1733 27.233 11.1733C26.6682 11.1708 26.1272 10.9454 25.7278 10.546C25.3285 10.1466 25.103 9.60567 25.1005 9.04088ZM30.1769 13.7587C30.7074 13.7587 31.2162 13.9694 31.5913 14.3446C31.9665 14.7197 32.1772 15.2285 32.1772 15.759V17.4857C30.7363 18.5161 29.0091 19.0701 27.2377 19.0701C25.4662 19.0701 23.7391 18.5161 22.2981 17.4857V15.7402C22.2981 15.2113 22.5076 14.7039 22.8807 14.329C23.2538 13.9542 23.7602 13.7423 24.289 13.7398L30.1769 13.7587ZM2.37014 37.3854C2.38225 36.0472 2.71048 34.7308 3.32805 33.5435C3.94563 32.3562 4.83507 31.3317 5.92385 30.5535C7.01262 29.7753 8.26991 29.2655 9.59318 29.0655C10.9165 28.8656 12.2683 28.9813 13.5383 29.403C14.8084 29.8248 15.9608 30.5409 16.9016 31.4927C17.8424 32.4445 18.5449 33.6052 18.9518 34.8801C19.3587 36.1551 19.4586 37.5081 19.2432 38.829C19.0278 40.1498 18.5033 41.401 17.7124 42.4807C17.6807 41.4718 17.2587 40.5146 16.5354 39.8106C15.812 39.1067 14.8438 38.7108 13.8344 38.7064H13.7589C14.1294 38.3349 14.4221 37.8932 14.6198 37.4071C14.8174 36.921 14.9161 36.4004 14.9101 35.8757C14.9076 35.2169 14.7433 34.5688 14.4315 33.9884C14.1198 33.408 13.6701 32.9132 13.1221 32.5474C12.5742 32.1816 11.9447 31.9562 11.2892 31.8908C10.6336 31.8255 9.972 31.9223 9.36263 32.1727C8.75326 32.4231 8.21479 32.8195 7.7946 33.327C7.37441 33.8344 7.08539 34.4373 6.95298 35.0827C6.82056 35.7281 6.84881 36.3961 7.03523 37.028C7.22166 37.6599 7.56054 38.2363 8.02207 38.7064H7.95602C6.94523 38.7061 5.97425 39.1003 5.24989 39.8053C4.52553 40.5103 4.10504 41.4702 4.07799 42.4807C2.96847 41.0138 2.36874 39.2246 2.37014 37.3854ZM8.75805 35.8946C8.75808 35.4716 8.88389 35.0583 9.11949 34.707C9.35508 34.3557 9.68981 34.0825 10.0811 33.9219C10.4724 33.7614 10.9026 33.7208 11.317 33.8054C11.7314 33.89 12.1113 34.096 12.4084 34.397C12.7055 34.6981 12.9063 35.0807 12.9854 35.4962C13.0644 35.9117 13.0181 36.3413 12.8524 36.7305C12.6866 37.1196 12.4089 37.4506 12.0545 37.6815C11.7001 37.9124 11.2851 38.0327 10.8622 38.0271C10.3023 38.0172 9.76858 37.7885 9.37528 37.3899C8.98199 36.9913 8.76043 36.4546 8.75805 35.8946ZM5.92736 44.3112V42.5844C5.92736 42.0539 6.13811 41.5451 6.51325 41.17C6.88839 40.7949 7.39719 40.5841 7.92771 40.5841H13.8061C14.0712 40.5803 14.3343 40.6293 14.5803 40.7282C14.8263 40.827 15.0501 40.9738 15.2389 41.1599C15.4276 41.346 15.5775 41.5678 15.6798 41.8124C15.7821 42.0569 15.8348 42.3194 15.8347 42.5844V44.3112C14.3938 45.3416 12.6667 45.8955 10.8952 45.8955C9.12374 45.8955 7.39663 45.3416 5.95567 44.3112H5.92736ZM27.1103 48.0854C23.6759 48.089 20.2988 47.2049 17.3067 45.5189C19.0101 44.1848 20.2541 42.3517 20.8645 40.2759C21.4749 38.2001 21.4214 35.9854 20.7113 33.9415C20.0013 31.8976 18.6702 30.1268 16.9043 28.8765C15.1384 27.6263 13.0259 26.9592 10.8622 26.9685C9.56887 26.9728 8.28811 27.2225 7.08794 27.7045C7.13555 24.2926 8.0564 20.9498 9.76267 17.9947C11.4689 15.0397 13.9037 12.5711 16.8349 10.8242C16.8212 13.5769 17.9015 16.2224 19.8382 18.1786C21.775 20.1348 24.4095 21.2415 27.1622 21.2553C29.9149 21.269 32.5604 20.1887 34.5166 18.252C36.4728 16.3152 37.5795 13.6807 37.5933 10.928C40.4492 12.6663 42.8239 15.0928 44.5002 17.9856C46.1766 20.8784 47.1011 24.1452 47.1893 27.4875C46.1244 27.1344 45.0086 26.9591 43.8868 26.9685C41.7416 26.9603 39.6465 27.6169 37.8898 28.8481C36.133 30.0794 34.801 31.8247 34.0768 33.844C33.3527 35.8634 33.272 38.0575 33.846 40.1245C34.4199 42.1915 35.6203 44.0299 37.2819 45.3868C34.2053 47.1861 30.7027 48.1277 27.1386 48.1137L27.1103 48.0854ZM38.8954 44.3112V42.5844C38.8954 42.0539 39.1061 41.5451 39.4813 41.17C39.8564 40.7949 40.3652 40.5841 40.8957 40.5841H46.8118C47.3407 40.5866 47.8471 40.7984 48.2202 41.1733C48.5933 41.5482 48.8028 42.0556 48.8027 42.5844V44.3112C47.3618 45.3416 45.6347 45.8955 43.8632 45.8955C42.0917 45.8955 40.3646 45.3416 38.9237 44.3112H38.8954ZM41.726 35.8946C41.7261 35.4741 41.8505 35.0629 42.0836 34.7129C42.3166 34.3628 42.648 34.0895 43.036 33.9273C43.424 33.7651 43.8513 33.7213 44.2642 33.8013C44.6771 33.8813 45.0571 34.0816 45.3564 34.377C45.6557 34.6724 45.861 35.0497 45.9465 35.4615C46.0319 35.8733 45.9937 36.3011 45.8366 36.6912C45.6796 37.0813 45.4106 37.4163 45.0637 37.654C44.7168 37.8917 44.3073 38.0215 43.8868 38.0271C43.6055 38.0283 43.3268 37.9741 43.0664 37.8676C42.8061 37.7611 42.5693 37.6044 42.3695 37.4064C42.1697 37.2084 42.0109 36.9729 41.9021 36.7136C41.7933 36.4542 41.7367 36.1759 41.7355 35.8946H41.726ZM50.671 42.4995C50.644 41.4907 50.2248 40.5322 49.5025 39.8275C48.7801 39.1228 47.8116 38.7274 46.8024 38.7253H46.7175C47.0863 38.3525 47.3779 37.9105 47.5754 37.4248C47.773 36.939 47.8726 36.419 47.8686 35.8946C47.8686 35.3667 47.7647 34.8441 47.5627 34.3564C47.3606 33.8687 47.0646 33.4256 46.6913 33.0523C46.3181 32.6791 45.875 32.383 45.3873 32.181C44.8996 31.979 44.3769 31.875 43.8491 31.875C43.3212 31.875 42.7985 31.979 42.3108 32.181C41.8232 32.383 41.38 32.6791 41.0068 33.0523C40.6335 33.4256 40.3375 33.8687 40.1355 34.3564C39.9335 34.8441 39.8295 35.3667 39.8295 35.8946C39.8255 36.419 39.9252 36.939 40.1227 37.4248C40.3203 37.9105 40.6118 38.3525 40.9806 38.7253H40.9052C39.8958 38.7297 38.9275 39.1255 38.2042 39.8295C37.4808 40.5335 37.0589 41.4907 37.0271 42.4995C35.94 41.0184 35.3668 39.2225 35.3948 37.3854C35.4048 36.0459 35.7316 34.7278 36.3485 33.5388C36.9653 32.3497 37.8547 31.3235 38.9439 30.5438C40.0332 29.7642 41.2914 29.2533 42.6159 29.0528C43.9403 28.8524 45.2934 28.9681 46.5645 29.3905C47.8357 29.813 48.9889 30.5301 49.93 31.4834C50.871 32.4367 51.5732 33.599 51.9792 34.8756C52.3852 36.1521 52.4834 37.5065 52.2659 38.8283C52.0484 40.15 51.5213 41.4016 50.7276 42.4807L50.671 42.4995Z" fill="#E26262"/>
</svg>
