<svg width="50" height="51" viewBox="0 0 50 51" fill="none" xmlns="http://www.w3.org/2000/svg">
<path d="M28.6699 6.97607H27.1074V8.53857H28.6699V6.97607Z" fill="#FFCA41"/>
<path d="M11.2533 41.5797L10.1484 42.6846L11.7107 44.2468L12.8155 43.142L11.2533 41.5797Z" fill="#FFCA41"/>
<path d="M41.7219 32.9861L39.3781 30.6424C39.2281 30.4916 39.0125 30.4002 38.8102 30.4135C38.5977 30.4182 38.3961 30.5088 38.2516 30.665L38.1672 30.8799L37.4922 30.09V28.0697C37.4922 27.8627 37.4102 27.6635 37.2633 27.5174L32.8047 23.0588V17.9135C32.8047 17.7064 32.7227 17.5072 32.5758 17.3611L31.2422 16.0275V14.7885C31.2422 14.7885 32.0234 14.4385 32.0234 14.0072V10.8822V0.49707H30.4609V9.87207H19.5234V0.49707H17.9609V10.8822V14.0072C17.9609 14.4385 17.9609 14.7885 18.7422 14.7885V16.0275L15.8461 18.9236C15.6992 19.0697 15.6172 19.2689 15.6172 19.476V21.4963L11.9398 25.1736C11.793 25.3197 11.7109 25.5189 11.7109 25.726V30.09L10.8156 30.8713L10.5297 30.6424C10.2242 30.3369 9.70156 30.3369 9.39609 30.6424L7.03828 32.9861L0 40.0174L1.10078 41.1221L7.57812 34.6432L15.8469 42.9135L9.36719 49.3924L10.4719 50.4971L17.5031 43.4658L19.8469 41.1221C20.1523 40.8166 20.1523 40.3228 19.8469 40.0174L19.618 39.7885L20.4414 38.965C20.5766 38.9893 20.7148 39.0072 20.857 39.0072C21.1656 39.0072 21.4586 38.9439 21.7289 38.8354C21.9992 39.8314 22.9016 40.5697 23.982 40.5697C24.8141 40.5697 25.5422 40.0158 25.9578 39.3604C26.2992 39.5541 26.6875 39.5596 27.107 39.5596H28.3461L29.118 40.4455L28.8773 40.7635C28.593 41.0721 28.6023 41.5775 28.8992 41.8744L31.243 44.2322L37.493 50.4893L38.5977 49.3885L32.8789 43.6705L35.65 40.6689L41.193 34.6643L48.4297 41.9033L49.5344 40.7986L41.7219 32.9861ZM30.4609 11.4346V12.9971H19.5234V11.4346H30.4609ZM16.9508 41.8088L8.68047 33.5385L9.91953 32.2994L10.1484 32.5283L17.9609 40.3408L18.1898 40.5697L16.9508 41.8088ZM11.8055 31.976L12.9297 30.9658C13.0766 30.8197 13.2734 30.6205 13.2734 30.4135V26.0494L15.6172 23.7057V24.9447C15.6172 25.1518 15.6992 25.351 15.8461 25.4971L18.7422 28.3932V36.6635C18.7422 37.2275 18.8359 37.7377 19.1687 38.1432L18.5703 38.6838L11.8055 31.976ZM26.5547 37.4447V25.4971H24.9922V37.4447V38.226C24.9922 38.6564 24.6414 39.0072 24.2109 39.0072C23.7805 39.0072 23.4297 38.6564 23.4297 38.226V36.6635V25.4971H21.8672V36.6635C21.8672 37.0939 21.5164 37.4447 21.0859 37.4447C20.6555 37.4447 20.3047 37.0939 20.3047 36.6635V23.9346H18.7422V26.1838L17.1797 24.6213V22.601V21.0385V19.7994L20.0758 16.9033C20.2227 16.7572 20.3047 16.558 20.3047 16.351V14.5596H29.6797V16.351C29.6797 16.558 29.7617 16.7572 29.9086 16.9033L31.2422 18.2369V33.5385C31.2422 33.9689 30.8914 34.3197 30.4609 34.3197C30.0305 34.3197 29.6797 33.9689 29.6797 33.5385V25.4971H28.1172V33.5385V37.4447C28.1172 37.8752 27.7664 38.226 27.3359 38.226C26.9055 38.226 26.5547 37.8752 26.5547 37.4447ZM29.2219 38.4549C29.2195 38.4525 29.3312 38.4525 29.3297 38.4502C29.4766 38.1447 29.6797 37.8064 29.6797 37.4447V35.7385C29.6797 35.826 30.1859 35.8822 30.4609 35.8822C31.7531 35.8822 32.8047 34.8307 32.8047 33.5385V25.2682L35.9297 28.3932V30.4135C35.9297 30.6205 35.8977 30.8197 36.0438 30.9658L37.0219 32.0018L33.5805 35.7557L30.1914 39.4111L29.2219 38.4549ZM30.6211 41.2346C30.6883 41.1947 30.7563 41.1541 30.8094 41.0955L34.7203 36.7932L38.8477 32.3221L40.0852 33.5604L37.3141 36.5627L31.7711 42.5674L30.5336 41.3291L30.6211 41.2346Z" fill="#FFCA41"/>
<path d="M41.3982 37.6741L39.8359 39.2363L40.9408 40.3412L42.503 38.7789L41.3982 37.6741Z" fill="#FFCA41"/>
<path d="M24.7637 46.82C22.1543 46.82 19.6223 46.3146 17.2371 45.3169L16.6348 46.7591C19.2113 47.8364 21.9465 48.3825 24.7637 48.3825C26.9793 48.3825 29.1629 48.0403 31.2535 47.3653L30.7738 45.8778C28.8387 46.5028 26.816 46.82 24.7637 46.82Z" fill="#FFCA41"/>
<path d="M44.2945 27.2886C44.2945 29.119 44.0422 30.93 43.5437 32.6714L45.0461 33.1019C45.5844 31.2206 45.8578 29.2644 45.8578 27.2894C45.8578 19.1323 41.0813 11.6276 33.6891 8.17139L33.0273 9.58701C39.8711 12.787 44.2945 19.7354 44.2945 27.2886Z" fill="#FFCA41"/>
<path d="M5.94883 32.547C5.47305 30.8438 5.23242 29.0743 5.23242 27.2884C5.23242 19.7353 9.65586 12.7868 16.5004 9.58603L15.8387 8.17041C8.44649 11.6267 3.66992 19.1313 3.66992 27.2884C3.66992 29.2165 3.93008 31.1267 4.44336 32.9665L5.94883 32.547Z" fill="#FFCA41"/>
</svg>
