<svg width="236" height="236" viewBox="0 0 236 236" fill="none" xmlns="http://www.w3.org/2000/svg">
<path d="M24.7238 44.3901C20.7905 49.4473 17.4191 54.5044 14.6096 59.5616C18.5429 58.4378 23.6 57.8759 28.6572 57.8759C26.4096 53.3806 25.2857 48.8854 24.7238 44.3901Z" fill="white"/>
<path d="M0 132.048C0.561905 138.229 1.68571 143.848 3.37143 150.029C5.61905 146.657 8.42857 142.724 12.3619 138.791C7.30476 137.105 3.37143 134.295 0 132.048Z" fill="white"/>
<path d="M14.6096 176.438C17.4191 181.495 20.7905 186.552 24.7238 191.609C25.2857 187.676 26.4096 183.18 28.6572 178.123C23.0381 178.123 18.5429 177.561 14.6096 176.438Z" fill="white"/>
<path d="M3.37143 85.9707C1.68571 91.5898 0.561905 97.7707 0 103.952C3.37143 101.704 7.30476 99.4564 12.3619 97.2088C8.42857 93.2755 5.61905 89.3421 3.37143 85.9707Z" fill="white"/>
<path d="M138.79 223.637C136.543 228.694 134.295 232.628 132.048 235.999C138.229 235.437 144.41 234.313 150.029 232.628C146.657 230.38 142.724 227.571 138.79 223.637Z" fill="white"/>
<path d="M176.438 221.39C181.495 218.58 186.552 215.209 191.609 211.276C187.676 210.714 183.181 209.59 178.124 207.342C178.124 212.961 177.562 217.457 176.438 221.39Z" fill="white"/>
<path d="M85.9714 232.628C91.5904 234.313 97.7714 235.437 103.952 235.999C101.705 232.628 98.8952 228.694 97.2095 223.637C93.2761 227.571 89.3428 230.38 85.9714 232.628Z" fill="white"/>
<path d="M44.3904 211.276C48.8857 215.209 53.9428 218.58 59.5619 221.39C58.4381 217.457 57.8762 212.961 57.8762 207.342C53.3809 209.59 48.8857 210.714 44.3904 211.276Z" fill="white"/>
<path d="M59.5619 14.6099C53.9428 17.4194 48.8857 20.7908 44.3904 24.7242C48.3238 25.2861 53.3809 26.4099 57.8762 28.6575C58.4381 23.0384 59 18.5432 59.5619 14.6099Z" fill="white"/>
<path d="M223.638 138.791C227.571 142.724 230.381 146.095 232.629 150.029C234.314 144.41 235.438 138.229 236 132.048C232.629 134.295 228.695 137.105 223.638 138.791Z" fill="white"/>
<path d="M211.276 191.609C215.209 187.114 218.581 182.057 221.39 176.438C217.457 177.561 212.962 178.123 207.343 178.123C209.59 182.618 210.714 187.114 211.276 191.609Z" fill="white"/>
<path d="M236 103.952C235.438 97.7707 234.314 91.5898 232.629 85.9707C230.381 89.3421 227.571 93.2755 223.638 97.2088C228.695 98.8945 232.629 101.704 236 103.952Z" fill="white"/>
<path d="M103.952 0C97.7714 0.561905 92.1523 1.68571 85.9714 3.37143C89.3428 5.61905 93.2761 8.42857 97.2095 12.3619C98.8952 7.30476 101.705 3.37143 103.952 0Z" fill="white"/>
<path d="M150.029 3.37143C144.41 1.68571 138.229 0.561905 132.048 0C134.295 3.37143 136.543 7.30476 138.79 12.3619C142.724 8.42857 146.657 5.61905 150.029 3.37143Z" fill="white"/>
<path d="M221.39 59.5616C218.581 53.9425 215.209 48.8854 211.276 44.3901C210.714 48.3235 209.59 52.8187 207.343 57.8759C212.962 58.4378 217.457 58.9997 221.39 59.5616Z" fill="white"/>
<path d="M191.609 24.7242C187.114 20.7908 182.057 17.4194 176.438 14.6099C177.562 18.5432 178.124 23.0384 178.124 28.6575C182.619 26.4099 187.114 25.2861 191.609 24.7242Z" fill="white"/>
<path d="M65.1809 139.352L64.619 139.913H65.1809C65.1809 139.913 65.1809 139.913 65.1809 139.352Z" fill="white"/>
<path d="M95.5238 170.818V171.38L96.0857 170.818C96.0857 170.818 96.0857 170.818 95.5238 170.818Z" fill="white"/>
<path d="M84.2858 168.009C80.9143 169.133 77.5429 169.695 74.1715 170.819C72.4858 177 71.362 183.181 70.8 188.8C75.2953 185.99 80.3524 182.619 85.9715 178.685C85.4096 175.314 84.8477 171.943 84.2858 168.009Z" fill="white"/>
<path d="M139.352 170.818L139.914 171.38V170.818C139.914 170.818 139.914 170.818 139.352 170.818Z" fill="white"/>
<path d="M183.743 97.771C181.495 100.581 179.248 103.39 177 106.2C180.371 107.885 183.181 109.571 186.552 111.819C192.171 108.447 197.229 105.076 201.724 101.704C196.105 100.019 190.486 98.8948 183.743 97.771Z" fill="white"/>
<path d="M166.886 33.7145C167.448 17.9811 164.638 11.8002 162.39 11.2383C161.829 11.2383 161.829 11.2383 161.267 11.2383C158.457 11.2383 152.276 14.0478 143.286 24.1621C144.971 30.343 146.657 37.6478 148.343 45.5145C154.524 40.4573 160.705 37.0859 166.886 33.7145Z" fill="white"/>
<path d="M211.838 92.7133C223.638 82.0371 225.324 75.8561 224.762 73.6085C223.638 70.799 217.457 69.1133 207.343 69.1133C205.657 69.1133 203.971 69.1133 202.286 69.1133C198.914 74.7323 195.543 81.4752 191.048 87.6561C198.352 89.3419 205.657 91.0276 211.838 92.7133Z" fill="white"/>
<path d="M170.819 96.6479L171.381 96.0859H170.819C170.819 96.0859 170.819 96.0859 170.819 96.6479Z" fill="white"/>
<path d="M186.552 124.182C183.743 125.867 180.371 127.553 177 129.801C179.248 132.61 181.495 135.42 183.743 138.229C190.486 137.105 196.105 135.982 201.724 134.296C197.229 131.486 192.171 127.553 186.552 124.182Z" fill="white"/>
<path d="M170.819 161.829C177 163.515 183.181 164.639 188.8 165.201C185.99 160.705 182.619 155.648 178.686 150.029C175.314 150.591 171.381 151.153 168.01 151.153C169.133 155.086 170.257 158.458 170.819 161.829Z" fill="white"/>
<path d="M170.819 140.476H171.381L170.819 139.914C170.819 139.914 170.819 139.914 170.819 140.476Z" fill="white"/>
<path d="M161.829 170.819C158.457 169.695 155.086 169.133 151.714 168.009C151.152 171.381 150.59 175.314 150.59 178.685C156.21 182.619 161.267 185.99 165.762 188.8C164.638 183.181 163.514 177 161.829 170.819Z" fill="white"/>
<path d="M170.819 74.1717C169.695 77.5431 169.133 80.9146 168.01 84.8479C171.381 85.4098 175.314 85.9717 178.686 85.9717C182.619 80.3527 185.99 75.2955 188.8 70.8003C183.743 71.3622 177.562 72.486 170.819 74.1717Z" fill="white"/>
<path d="M52.2572 138.229C54.5048 135.42 56.7524 132.61 59 129.801C55.6286 128.115 52.8191 126.429 49.4476 124.182C43.8286 127.553 38.7715 130.925 34.2762 134.296C39.8953 135.982 45.5143 137.105 52.2572 138.229Z" fill="white"/>
<path d="M74.1715 65.1807C77.5429 66.3045 80.9143 66.8664 84.8477 67.9902C85.4096 64.6188 85.9715 60.6854 85.9715 57.314C80.3524 53.3807 75.2953 50.0092 70.8 47.1997C71.362 52.2569 72.4858 58.4378 74.1715 65.1807Z" fill="white"/>
<path d="M65.1809 95.5239H64.619L65.1809 96.0858C65.1809 96.0858 65.1809 96.0858 65.1809 95.5239Z" fill="white"/>
<path d="M49.4476 111.819C52.2572 110.133 55.6286 108.447 59 106.2C56.7524 103.39 54.5048 100.581 52.2572 97.771C45.5143 98.8948 39.8953 100.019 34.2762 101.704C38.7715 104.514 43.8286 108.447 49.4476 111.819Z" fill="white"/>
<path d="M96.6477 65.181L96.0858 64.6191V65.181C96.0858 65.181 96.0858 65.181 96.6477 65.181Z" fill="white"/>
<path d="M67.9904 84.2859C66.8666 80.9145 66.3047 77.543 65.1809 73.6097C58.4381 71.924 52.819 70.8002 47.2 70.2383C50.0095 74.7335 53.3809 79.7907 57.3142 85.4097C60.6857 85.4097 64.0571 84.8478 67.9904 84.2859Z" fill="white"/>
<path d="M106.2 59.0007C107.886 55.6292 109.571 52.8197 111.819 49.4483C108.448 43.8292 105.076 38.7721 101.705 34.2769C100.581 39.334 98.8952 45.515 97.7714 52.2578C100.581 54.5054 103.39 56.753 106.2 59.0007Z" fill="white"/>
<path d="M151.714 67.9902C155.086 66.8664 158.457 66.3045 161.829 65.1807C163.514 58.9997 164.638 52.8188 165.2 47.1997C160.705 50.0092 155.648 53.3807 150.029 57.314C150.591 60.6854 151.152 64.0569 151.714 67.9902Z" fill="white"/>
<path d="M140.476 65.181V64.6191L139.914 65.181C139.914 65.181 139.914 65.181 140.476 65.181Z" fill="white"/>
<path d="M124.181 49.4483C125.867 52.2578 127.552 55.6292 129.8 59.0007C132.61 56.753 135.419 54.5054 138.229 52.2578C137.105 45.515 135.981 39.8959 134.295 34.2769C131.486 38.7721 127.552 43.8292 124.181 49.4483Z" fill="white"/>
<path d="M118 2.24707C114.629 2.24707 109.571 8.98993 105.076 21.3518C106.762 23.0375 107.886 25.2852 109.571 26.9709C112.381 30.9042 115.191 34.8375 118 39.3328C120.81 35.3995 123.619 30.9042 126.429 27.5328C128.114 25.2852 129.238 23.5995 130.924 21.9137C126.429 8.98993 121.371 2.24707 118 2.24707Z" fill="white"/>
<path d="M67.9904 151.713C64.619 151.151 60.6857 150.589 57.3142 150.589C53.3809 156.208 50.0095 161.266 47.2 165.761C52.819 165.199 59 164.075 65.1809 162.389C65.7428 158.456 66.8666 155.085 67.9904 151.713Z" fill="white"/>
<path d="M59 40.4579C51.1334 36.5246 44.3905 34.8389 40.4572 34.8389C38.7715 34.8389 37.0858 35.4008 36.5239 35.9627C34.2762 38.2103 35.4 46.6389 41.0191 58.4389C47.7619 59.0008 55.0667 60.1246 62.3715 61.8103C60.6858 54.5055 59.5619 47.2008 59 40.4579Z" fill="white"/>
<path d="M177 40.458C177 42.7056 176.438 44.9532 175.876 47.7628C175.314 52.258 174.19 57.3151 173.067 61.8104C180.933 60.1247 187.676 59.0009 194.419 58.4389C200.038 46.6389 201.162 38.2104 198.914 35.9628C197.229 33.7151 189.362 34.8389 177 40.458Z" fill="white"/>
<path d="M69.1142 202.285C68.5523 218.019 71.3618 224.2 73.6094 224.762C75.8571 225.885 82.038 223.638 92.7142 211.838C91.0285 205.657 88.7809 198.352 87.6571 190.485C81.4761 194.981 75.2952 198.914 69.1142 202.285Z" fill="white"/>
<path d="M208.467 109.572C204.533 112.382 200.6 115.191 196.667 118.001C200.6 120.81 205.095 123.62 208.467 126.43C210.714 128.115 212.4 129.239 214.086 130.925C226.448 126.43 233.19 121.934 233.19 118.001C233.19 114.068 226.448 109.572 214.086 105.077C212.962 106.763 210.714 108.449 208.467 109.572Z" fill="white"/>
<path d="M118.562 60.6848C118 60.6848 118 60.6848 118.562 60.6848C118 60.1229 118 60.6848 118 60.6848C118 60.6848 118 60.6848 118.562 60.6848C118 60.6848 118 60.6848 118.562 60.6848Z" fill="white"/>
<path d="M118 196.667C115.191 200.6 112.381 205.095 109.571 208.466C107.886 210.714 106.762 212.4 105.076 214.086C109.571 226.447 114.067 233.19 118 233.19C121.933 233.19 126.429 226.447 130.924 214.086C129.238 212.4 128.114 210.152 126.429 208.466C123.619 205.095 120.81 201.162 118 196.667Z" fill="white"/>
<path d="M78.1047 77.542H77.5428V78.1039C77.5428 77.542 77.5428 77.542 78.1047 77.542Z" fill="white"/>
<path d="M202.286 166.886C218.019 167.448 224.2 164.638 224.762 162.39C225.886 160.143 223.638 153.962 211.838 143.286C205.657 144.971 198.352 146.657 190.486 148.343C195.543 154.524 198.914 160.705 202.286 166.886Z" fill="white"/>
<path d="M143.286 211.838C153.962 223.638 160.143 225.324 162.39 224.762C164.638 223.638 168.01 218.019 166.886 202.286C161.267 198.915 154.524 195.543 148.343 191.048C146.657 198.353 144.971 205.657 143.286 211.838Z" fill="white"/>
<path d="M59 195.543C59 193.295 59.5619 191.048 60.1238 188.238C60.6857 183.743 61.8096 178.686 62.9334 174.19C57.8762 175.314 53.381 175.876 48.8857 177C46.0762 177.562 43.8286 177.562 41.581 178.124C35.9619 189.924 34.8381 198.352 37.0857 200.6C38.7715 202.286 46.6381 201.162 59 195.543Z" fill="white"/>
<path d="M24.1618 143.286C12.3618 153.962 10.6761 160.143 11.238 162.39C11.7999 164.638 17.9809 168.009 33.7142 166.886C37.0856 161.267 40.4571 154.524 44.9523 148.343C37.6475 146.657 30.3428 144.971 24.1618 143.286Z" fill="white"/>
<path d="M27.5333 126.43C30.9048 123.62 34.8381 120.81 39.3333 118.001C35.4 115.191 30.9048 112.382 27.5333 109.572C25.2857 107.887 23.6 106.763 21.9143 105.077C9.55237 109.572 2.80951 114.068 2.80951 118.001C2.80951 121.934 9.55237 126.43 21.9143 130.925C23.0381 129.239 25.2857 127.553 27.5333 126.43Z" fill="white"/>
<path d="M173.629 173.628C174.752 178.685 175.314 183.18 176.438 187.676C177 190.485 177 192.733 177.562 194.98C189.362 200.599 197.79 201.723 200.038 199.476C202.286 197.228 201.162 188.799 195.543 176.999C193.295 176.999 191.048 176.437 188.238 175.876C183.181 175.876 178.686 174.752 173.629 173.628Z" fill="white"/>
<path d="M33.7143 69.1133C32.0286 69.1133 30.3429 69.1133 28.6572 69.1133C18.5429 69.1133 12.3619 70.799 11.2381 73.6085C10.1143 75.8561 12.3619 82.0371 24.1619 92.7133C30.3429 91.0276 37.6476 89.3419 45.5143 87.6561C40.4572 81.4752 37.0857 75.2942 33.7143 69.1133Z" fill="white"/>
<path d="M92.7142 24.1621C83.7238 14.0478 77.5428 11.2383 74.7333 11.2383C74.1714 11.2383 74.1714 11.2383 73.6095 11.2383C70.238 12.3621 68.5523 20.2288 69.1142 33.7145C74.7333 37.0859 81.4761 40.4573 87.6571 44.9526C89.3428 37.6478 91.0285 30.343 92.7142 24.1621Z" fill="white"/>
<path d="M106.2 177C103.39 179.248 100.581 181.495 97.7714 183.743C98.8952 190.486 100.019 196.105 101.705 201.724C105.076 197.229 108.448 192.171 111.819 186.552C109.571 183.743 107.886 180.371 106.2 177Z" fill="white"/>
<path d="M129.8 177C128.114 180.371 126.429 183.181 124.181 186.552C127.552 192.171 130.924 197.229 134.295 201.724C135.419 196.667 137.105 190.486 138.229 183.743C135.419 181.495 132.61 179.248 129.8 177Z" fill="white"/>
</svg>
