<svg width="201" height="51" viewBox="0 0 201 51" fill="none" xmlns="http://www.w3.org/2000/svg">
<path d="M5.65625 9.875C4.875 10.9688 4.25 12.0625 3.625 13.1563C4.40625 13 5.34375 12.8438 6.59375 12.8438C6.125 11.75 5.8125 10.8125 5.65625 9.875Z" fill="#071446"/>
<path d="M0.5 28.4688C0.65625 29.7187 0.96875 30.9687 1.28125 32.2187C1.75 31.4375 2.375 30.6562 3.15625 29.875C2.0625 29.5625 1.125 28.9375 0.5 28.4688Z" fill="#071446"/>
<path d="M3.625 37.8438C4.25 38.9375 5.03125 40.0312 5.8125 40.9688C5.96875 40.0312 6.28125 39.0938 6.59375 38.1563C5.34375 38.1563 4.40625 38 3.625 37.8438Z" fill="#071446"/>
<path d="M1.28125 18.7812C0.96875 20.0312 0.65625 21.2813 0.5 22.5312C1.125 22.0625 2.0625 21.5937 3.15625 21.125C2.375 20.1875 1.75 19.4062 1.28125 18.7812Z" fill="#071446"/>
<path d="M29.875 47.8438C29.4062 48.9375 28.9375 49.7188 28.4688 50.5C29.7188 50.3438 30.9688 50.0313 32.2188 49.7188C31.5938 49.25 30.8125 48.625 29.875 47.8438Z" fill="#071446"/>
<path d="M37.8438 47.375C38.9375 46.75 40.0312 45.9688 40.9688 45.1875C40.0312 45.0313 39.0938 44.7188 38.1563 44.4062C38.1563 45.6563 38 46.5938 37.8438 47.375Z" fill="#071446"/>
<path d="M18.7812 49.7188C20.0312 50.0313 21.2813 50.3438 22.5312 50.5C22.0625 49.875 21.5937 48.9375 21.125 47.8438C20.1875 48.625 19.4062 49.25 18.7812 49.7188Z" fill="#071446"/>
<path d="M9.875 45.3438C10.8125 46.125 11.9062 46.9062 13 47.5312C12.8437 46.75 12.6875 45.6563 12.6875 44.5625C11.75 44.875 10.8125 45.1875 9.875 45.3438Z" fill="#071446"/>
<path d="M13.1562 3.625C12.0625 4.25 10.9687 4.875 9.875 5.65625C10.8125 5.8125 11.75 6.125 12.8437 6.4375C12.8437 5.34375 13 4.40625 13.1562 3.625Z" fill="#071446"/>
<path d="M47.8438 29.875C48.625 30.6562 49.25 31.4375 49.7188 32.2187C50.0313 30.9687 50.3438 29.7187 50.5 28.4688C49.875 28.9375 48.9375 29.5625 47.8438 29.875Z" fill="#071446"/>
<path d="M45.3438 41.125C46.125 40.1875 46.9062 39.0938 47.5312 38C46.75 38.1562 45.6563 38.3125 44.5625 38.3125C44.875 39.25 45.1875 40.1875 45.3438 41.125Z" fill="#071446"/>
<path d="M50.5 22.5312C50.3438 21.2813 50.0313 20.0312 49.7188 18.7812C49.25 19.5625 48.625 20.3437 47.8438 21.125C48.9375 21.4375 49.875 22.0625 50.5 22.5312Z" fill="#071446"/>
<path d="M22.5312 0.5C21.2813 0.65625 20.0312 0.96875 18.7812 1.28125C19.5625 1.75 20.3437 2.375 21.125 3.15625C21.4375 2.0625 22.0625 1.125 22.5312 0.5Z" fill="#071446"/>
<path d="M32.2188 1.28125C30.9688 0.96875 29.7188 0.65625 28.4688 0.5C28.9375 1.125 29.4062 2.0625 29.875 3.15625C30.8125 2.375 31.5938 1.75 32.2188 1.28125Z" fill="#071446"/>
<path d="M47.375 13.1563C46.75 12.0625 45.9687 10.9688 45.1875 9.875C45.0312 10.8125 44.7187 11.75 44.4062 12.8438C45.6562 12.8438 46.5937 13 47.375 13.1563Z" fill="#071446"/>
<path d="M41.125 5.65625C40.1875 4.875 39.0937 4.09375 38 3.46875C38.1562 4.25 38.3125 5.34375 38.3125 6.4375C39.25 6.125 40.1875 5.8125 41.125 5.65625Z" fill="#071446"/>
<path d="M20.8125 36.5938C20.8125 36.75 20.8125 36.75 20.8125 36.5938C20.8125 36.75 20.9688 36.75 20.8125 36.5938C20.8125 36.75 20.8125 36.75 20.8125 36.5938Z" fill="#071446"/>
<path d="M18.3125 36.125C17.5313 36.2813 16.9063 36.5938 16.125 36.75C15.8125 38 15.6563 39.4063 15.3438 40.5C16.2813 39.875 17.375 39.25 18.625 38.4688C18.625 37.6875 18.4688 36.9063 18.3125 36.125Z" fill="#071446"/>
<path d="M39.4062 21.125C38.9375 21.75 38.4687 22.375 38 23C38.625 23.3125 39.4062 23.7812 40.0312 24.0938C41.125 23.3125 42.2187 22.6875 43.1562 21.9062C42.0625 21.75 40.8125 21.4375 39.4062 21.125Z" fill="#071446"/>
<path d="M35.8125 7.6875C35.9688 4.40625 35.3438 3.15625 34.875 2.84375C34.875 2.84375 34.7188 2.84375 34.5625 2.84375C33.9375 2.84375 32.6875 3.46875 30.8125 5.65625C31.2813 7.0625 31.5938 8.46875 31.9063 10.1875C33.3125 9.09375 34.5625 8.3125 35.8125 7.6875Z" fill="#071446"/>
<path d="M45.3438 20.1875C47.8438 18 48.3125 16.5938 48 16.125C47.6875 15.5 46.4375 15.1875 44.4063 15.1875C44.0938 15.1875 43.625 15.1875 43.3125 15.1875C42.6875 16.4375 41.9063 17.6875 40.9688 19.0937C42.5312 19.4062 44.0938 19.7188 45.3438 20.1875Z" fill="#071446"/>
<path d="M40.0312 26.9062C39.4062 27.2187 38.7812 27.6875 38 28C38.4687 28.625 38.9375 29.25 39.4062 29.875C40.8125 29.5625 42.0625 29.4062 43.1562 29.0937C42.2187 28.3125 41.125 27.5312 40.0312 26.9062Z" fill="#071446"/>
<path d="M36.75 34.875C38 35.1875 39.4063 35.3438 40.5 35.6562C39.875 34.7188 39.25 33.625 38.4687 32.375C37.6875 32.5312 36.9062 32.5313 36.2812 32.6875C36.2812 33.3125 36.5938 34.0938 36.75 34.875Z" fill="#071446"/>
<path d="M36.5938 30.1875H36.75C36.75 30.1875 36.75 30.0313 36.5938 30.1875C36.75 30.1875 36.75 30.1875 36.5938 30.1875Z" fill="#071446"/>
<path d="M34.875 36.75C34.0938 36.5938 33.4688 36.4375 32.6875 36.125C32.5313 36.9062 32.5312 37.6875 32.375 38.3125C33.4687 39.0938 34.5625 39.875 35.6562 40.3438C35.3438 39.25 35.1875 38 34.875 36.75Z" fill="#071446"/>
<path d="M36.75 16.125C36.5938 16.9062 36.4375 17.5312 36.125 18.3125C36.9062 18.4687 37.6875 18.4688 38.3125 18.625C39.0937 17.5313 39.875 16.4375 40.5 15.3438C39.4062 15.6562 38.1562 15.8125 36.75 16.125Z" fill="#071446"/>
<path d="M11.5938 29.875C12.0625 29.25 12.5313 28.625 13 28C12.375 27.6875 11.5938 27.2187 10.9688 26.9062C9.875 27.6875 8.78125 28.3125 7.84375 29.0937C8.9375 29.25 10.1875 29.5625 11.5938 29.875Z" fill="#071446"/>
<path d="M16.125 14.25C16.9063 14.4062 17.5313 14.5625 18.3125 14.875C18.4688 14.0937 18.4688 13.3125 18.625 12.6875C17.5313 11.9062 16.4375 11.125 15.3438 10.5C15.6563 11.5937 15.8125 12.8437 16.125 14.25Z" fill="#071446"/>
<path d="M14.4062 20.8125H14.25C14.25 20.8125 14.25 20.9688 14.4062 20.8125C14.25 20.8125 14.25 20.8125 14.4062 20.8125Z" fill="#071446"/>
<path d="M10.9688 24.0938C11.5938 23.7812 12.2188 23.3125 13 23C12.5313 22.375 12.0625 21.75 11.5938 21.125C10.1875 21.4375 8.9375 21.5937 7.84375 21.9062C8.78125 22.6875 9.875 23.4688 10.9688 24.0938Z" fill="#071446"/>
<path d="M14.875 18.3125C14.7187 17.6875 14.4062 16.9062 14.25 16.125C12.8437 15.8125 11.5937 15.6562 10.5 15.5C11.125 16.4375 11.75 17.5312 12.6875 18.7812C13.3125 18.625 14.0937 18.4687 14.875 18.3125Z" fill="#071446"/>
<path d="M23 13C23.3125 12.375 23.7812 11.5938 24.0938 10.9688C23.3125 9.875 22.6875 8.78125 21.9062 7.84375C21.5937 8.9375 21.4375 10.1875 21.125 11.5938C21.75 12.0625 22.375 12.5313 23 13Z" fill="#071446"/>
<path d="M32.6875 14.875C33.3125 14.7187 34.0938 14.4062 34.875 14.25C35.1875 13 35.3438 11.5937 35.6562 10.5C34.7188 11.125 33.625 11.75 32.375 12.5312C32.375 13.3125 32.5313 14.0937 32.6875 14.875Z" fill="#071446"/>
<path d="M30.1866 14.4062V14.25C30.1866 14.25 30.0304 14.25 30.1866 14.4062C30.1866 14.25 30.1866 14.25 30.1866 14.4062Z" fill="#071446"/>
<path d="M26.9062 10.9688C27.2188 11.5938 27.6875 12.2188 28 13C28.625 12.5313 29.25 12.0625 29.875 11.5938C29.5625 10.1875 29.4062 8.9375 29.0938 7.84375C28.3125 8.78125 27.5313 9.875 26.9062 10.9688Z" fill="#071446"/>
<path d="M25.5 0.96875C24.7188 0.96875 23.7813 2.375 22.8438 5.03125C23.1563 5.34375 23.4687 5.8125 23.7812 6.28125C24.4062 7.0625 24.875 7.84375 25.5 8.78125C26.125 7.84375 26.5938 7.0625 27.2188 6.28125C27.5313 5.8125 27.8438 5.5 28.1563 5.03125C27.2188 2.375 26.2813 0.96875 25.5 0.96875Z" fill="#071446"/>
<path d="M14.875 32.6875C14.0938 32.5313 13.3125 32.5312 12.6875 32.375C11.9063 33.4687 11.125 34.5625 10.6562 35.6562C11.75 35.3438 13 35.1875 14.25 34.875C14.4063 34.0938 14.7188 33.3125 14.875 32.6875Z" fill="#071446"/>
<path d="M12.9989 9.09375C11.2802 8.3125 9.87391 7.84375 9.09266 7.84375C8.62391 7.84375 8.31141 8 8.15516 8.15625C7.68641 8.78125 7.84266 10.3438 9.09266 13C10.4989 13.1563 12.0614 13.3125 13.6239 13.7813C13.3114 12.0625 13.1552 10.5 12.9989 9.09375Z" fill="#071446"/>
<path d="M38 9.09375C38 9.5625 37.8437 10.0312 37.8437 10.6562C37.6875 11.5937 37.5312 12.6875 37.375 13.625C38.9375 13.3125 40.5 13 41.9062 12.8437C43.1562 10.3437 43.3125 8.625 42.8437 8C42.2187 7.6875 40.6562 7.84375 38 9.09375Z" fill="#071446"/>
<path d="M15.1885 43.3125C15.0323 46.5937 15.6573 47.8437 16.126 48.1562C16.5948 48.3125 18.001 48 20.1885 45.5C19.7198 44.0937 19.4073 42.6875 19.0948 40.9688C17.6885 41.9062 16.4385 42.6875 15.1885 43.3125Z" fill="#071446"/>
<path d="M44.7187 23.7812C43.9375 24.4062 43.1563 24.875 42.2188 25.5C43.1563 26.125 43.9375 26.5938 44.7187 27.2188C45.1875 27.5313 45.5 27.8438 45.9687 28.1563C48.625 27.2188 50.0312 26.2813 50.0312 25.5C50.0312 24.7188 48.625 23.7813 45.9687 22.8438C45.5 23.1563 45.1875 23.4687 44.7187 23.7812Z" fill="#071446"/>
<path d="M25.5 42.2188C24.875 43.1563 24.4062 43.9375 23.7812 44.7187C23.4687 45.1875 23.1563 45.5 22.8438 45.9687C23.7813 48.625 24.7188 50.0312 25.5 50.0312C26.2813 50.0312 27.2188 48.625 28.1563 45.9687C27.8438 45.6562 27.5313 45.1875 27.2188 44.7187C26.5938 43.9375 26.125 43.1563 25.5 42.2188Z" fill="#071446"/>
<path d="M43.3125 35.8125C46.5937 35.9688 47.8437 35.3437 48.1562 34.875C48.3125 34.4062 48 33 45.5 30.8125C44.0937 31.2812 42.6875 31.5938 40.9688 31.9063C41.9062 33.3125 42.6875 34.5625 43.3125 35.8125Z" fill="#071446"/>
<path d="M30.8125 45.3438C33 47.8438 34.4063 48.3125 34.875 48C35.3438 47.8438 35.9688 46.5938 35.8125 43.1563C34.5625 42.5313 33.3125 41.75 31.9063 40.8125C31.5938 42.5313 31.2813 44.0938 30.8125 45.3438Z" fill="#071446"/>
<path d="M12.9989 41.9063C12.9989 41.4375 13.1552 40.9688 13.1552 40.3438C13.3114 39.4062 13.4677 38.3125 13.7802 37.375C12.6864 37.5313 11.7489 37.8437 10.8114 38C10.3427 38 9.71766 38.1563 9.24891 38.1563C7.99891 40.6563 7.84266 42.375 8.31141 42.8438C8.78017 43.3125 10.3427 43.1563 12.9989 41.9063Z" fill="#071446"/>
<path d="M5.6559 30.8125C3.1559 33 2.68715 34.4062 2.99965 34.875C3.31215 35.3437 4.4059 35.9688 7.8434 35.8125C8.31215 34.5625 9.0934 33.3125 10.0309 31.9063C8.4684 31.5938 6.9059 31.2812 5.6559 30.8125Z" fill="#071446"/>
<path d="M6.28125 27.2188C7.0625 26.5938 7.84375 26.125 8.78125 25.5C7.84375 24.875 7.0625 24.4062 6.28125 23.7812C5.8125 23.4687 5.5 23.1563 5.03125 22.8438C2.375 23.7813 0.96875 24.7188 0.96875 25.5C0.96875 26.2813 2.375 27.2188 5.03125 28.1563C5.5 27.8438 5.8125 27.5313 6.28125 27.2188Z" fill="#071446"/>
<path d="M37.375 37.375C37.5312 38.4688 37.8437 39.4062 38 40.3438C38 40.8125 38.1562 41.4375 38.1562 41.9063C40.6562 43.1563 42.375 43.3125 42.8437 42.8438C43.3125 42.375 43.1562 40.6563 41.9062 38.1563C41.4375 38.1563 40.9687 38 40.3437 38C39.4062 37.6875 38.3125 37.5313 37.375 37.375Z" fill="#071446"/>
<path d="M7.68772 15.1875C7.37522 15.1875 6.90647 15.1875 6.59397 15.1875C4.40647 15.1875 3.15647 15.6563 3.00022 16.125C2.84397 16.5938 3.15647 18 5.65647 20.1875C7.06272 19.7188 8.46897 19.4062 10.1877 19.0937C9.09397 17.6875 8.31272 16.4375 7.68772 15.1875Z" fill="#071446"/>
<path d="M20.1885 5.65625C18.3135 3.46875 17.0635 2.84375 16.4385 2.84375C16.2822 2.84375 16.2822 2.84375 16.126 2.84375C15.501 3.15625 15.0322 4.875 15.1885 7.6875C16.4385 8.3125 17.6885 9.09375 19.0947 10.0312C19.4072 8.46875 19.7197 6.90625 20.1885 5.65625Z" fill="#071446"/>
<path d="M23 38C22.375 38.4688 21.75 38.9375 21.125 39.4062C21.4375 40.8125 21.5937 42.0625 21.9062 43.1562C22.6875 42.2187 23.3125 41.125 24.0938 40.0312C23.7812 39.4062 23.3125 38.7813 23 38Z" fill="#071446"/>
<path d="M28 38C27.6875 38.625 27.2188 39.4062 26.9062 40.0312C27.6875 41.125 28.3125 42.2187 29.0938 43.1562C29.4062 42.0625 29.5625 40.8125 29.875 39.4062C29.25 38.9375 28.625 38.4688 28 38Z" fill="#071446"/>
<path d="M76.125 19.0938C74.875 20.3438 73.625 20.8125 72.0625 20.8125C70.3437 20.8125 69.0937 20.1875 68 19.0938C67.0625 18 66.4375 16.5938 66.4375 15.0313C66.4375 11.5938 68.7812 9.25 71.9062 9.25C73.625 9.25 74.7187 9.71875 76.125 10.9687L74.7187 12.5312C73.7812 11.75 73 11.4375 72.0625 11.4375C70.1875 11.4375 68.7812 13 68.7812 15.0313C68.7812 17.0625 70.1875 18.7812 72.2187 18.7812C73.3125 18.7812 74.0937 18.4688 74.7187 17.6875L76.125 19.0938Z" fill="#071446"/>
<path d="M86.9062 18.7812V20.6562H80.9688V9.40625H83.3125V18.625H86.9062V18.7812Z" fill="#071446"/>
<path d="M94.0938 18.625L93.4687 20.5H91.125L95.0312 9.40625H97.8437L101.594 20.5H99.0937L98.4687 18.625H94.0938ZM96.2812 12.2187L94.7187 16.75H97.8437L96.2812 12.2187Z" fill="#071446"/>
<path d="M108.313 20.6562H105.969V9.40625H109.406C112.219 9.40625 113.625 10.6563 113.625 12.8438C113.625 14.5625 112.687 15.8125 110.969 16.125L114.094 20.3437H111.438L108.313 16.125V20.6562ZM109.406 14.875C110.656 14.875 111.438 14.25 111.438 13.1563C111.438 12.0625 110.813 11.4375 109.563 11.4375H108.313V14.875H109.406Z" fill="#071446"/>
<path d="M121.437 20.6562H119.094V9.40625H121.437V20.6562Z" fill="#071446"/>
<path d="M130.813 20.6562H128.625V11.2813H125.969V9.40625H133.469V11.2813H130.813V20.6562Z" fill="#071446"/>
<path d="M143.312 20.6562H141.125V15.6562L137.375 9.40625H140.031L142.219 13.3125L144.406 9.40625H147.062L143.469 15.6562V20.6562H143.312Z" fill="#071446"/>
<path d="M76.125 40.0312C74.875 41.2812 73.625 41.75 72.0625 41.75C70.3437 41.75 69.0937 41.125 68 40.0312C67.0625 38.9375 66.4375 37.5313 66.4375 35.9688C66.4375 32.5313 68.7812 30.1875 71.9062 30.1875C73.625 30.1875 74.7187 30.6563 76.125 31.9063L74.7187 33.4688C73.7812 32.6875 73 32.375 72.0625 32.375C70.1875 32.375 68.7812 33.9375 68.7812 35.9688C68.7812 38 70.1875 39.7188 72.2187 39.7188C73.3125 39.7188 74.0937 39.4062 74.7187 38.625L76.125 40.0312Z" fill="#071446"/>
<path d="M90.0312 32.0625C90.9687 33.1563 91.4375 34.4063 91.4375 35.9688C91.4375 39.0938 88.9375 41.75 85.8125 41.75C82.5312 41.75 80.0312 39.25 80.0312 35.9688C80.0312 32.6875 82.5312 30.1875 85.8125 30.1875C87.5312 30.1875 88.9375 30.8125 90.0312 32.0625ZM82.375 35.9688C82.375 38 83.7812 39.5625 85.8125 39.5625C87.6875 39.5625 89.25 38 89.25 35.9688C89.25 33.7813 87.8437 32.2187 85.8125 32.2187C83.7812 32.2187 82.375 33.9375 82.375 35.9688Z" fill="#071446"/>
<path d="M106.125 32.0625C107.063 33.1563 107.531 34.4063 107.531 35.9688C107.531 39.0938 105.031 41.75 101.906 41.75C98.625 41.75 96.125 39.25 96.125 35.9688C96.125 32.6875 98.625 30.1875 101.906 30.1875C103.625 30.1875 105.031 30.8125 106.125 32.0625ZM98.4688 35.9688C98.4688 38 99.875 39.5625 101.906 39.5625C103.781 39.5625 105.344 38 105.344 35.9688C105.344 33.7813 103.938 32.2187 101.906 32.2187C99.875 32.2187 98.4688 33.9375 98.4688 35.9688Z" fill="#071446"/>
<path d="M115.031 41.5937H112.688V30.5H116.281C118.937 30.5 120.344 31.75 120.344 34.0937C120.344 36.4375 118.781 37.8437 116.437 37.8437H115.031V41.5937ZM116.125 35.8125C117.375 35.8125 118.156 35.1875 118.156 34.0937C118.156 33 117.375 32.375 116.125 32.375H115.031V35.9688H116.125V35.8125Z" fill="#071446"/>
<path d="M127.375 35.0312H131.281V36.9062H127.375V39.7188H131.281V41.5937H125.031V30.5H131.281V32.375H127.375V35.0312Z" fill="#071446"/>
<path d="M138.781 41.5937H136.438V30.5H139.875C142.687 30.5 144.094 31.75 144.094 33.9375C144.094 35.6562 143.156 36.9062 141.437 37.2187L144.562 41.4375H141.75L138.625 37.0625V41.5937H138.781ZM139.875 35.8125C141.125 35.8125 141.906 35.1875 141.906 34.0937C141.906 33 141.281 32.375 140.031 32.375H138.781V35.8125H139.875Z" fill="#071446"/>
<path d="M151.906 39.5625L151.281 41.4375H148.938L152.844 30.3438H155.656L159.406 41.4375H156.75L156.125 39.5625H151.906ZM153.937 33.1562L152.375 37.6875H155.5L153.937 33.1562Z" fill="#071446"/>
<path d="M166.906 41.5937H164.562V32.375H161.906V30.5H169.406V32.375H166.75V41.5937H166.906Z" fill="#071446"/>
<path d="M176.437 41.5937H174.094V30.5H176.437V41.5937Z" fill="#071446"/>
<path d="M187.844 30.3438H190.188L186.75 41.4375H184.25L180.812 30.3438H183.156L185.344 37.8437L187.844 30.3438Z" fill="#071446"/>
<path d="M196.75 35.0312H200.656V36.9062H196.75V39.7188H200.656V41.5937H194.406V30.5H200.656V32.375H196.75V35.0312Z" fill="#071446"/>
</svg>
