<svg width="108" height="30" viewBox="0 0 108 30" fill="none" xmlns="http://www.w3.org/2000/svg">
<path d="M8.89031 9.92439C7.66823 10.873 6.58193 11.2795 5.08828 11.2795C3.59462 11.2795 2.37254 10.7375 1.42203 9.78888C0.743098 8.84028 0.199951 7.48514 0.199951 6.13C0.199951 4.50383 0.878885 3.01318 1.96518 2.06458C2.7799 1.38701 3.86619 0.980469 5.22406 0.980469C6.03878 0.980469 6.98929 1.11598 7.66823 1.52252C8.21137 1.79355 8.48295 1.92907 9.02609 2.47112L7.53244 4.09729C6.8535 3.41972 6.17457 3.14869 5.35985 3.14869C3.73041 3.14869 2.64411 4.36832 2.64411 5.99449C2.64411 7.89168 3.86619 9.11131 5.49564 9.11131C6.31036 9.11131 6.98929 8.84028 7.53244 8.16271L8.89031 9.92439Z" fill="#071446"/>
<path d="M17.3091 9.11154V11.0087H11.606V1.11621H14.0502V9.11154H17.3091Z" fill="#071446"/>
<path d="M22.469 9.65333L22.0616 11.144H19.4817L22.7406 1.25146H25.8637L29.1225 11.144H26.4068L25.9995 9.65333H22.469ZM24.2342 3.96175L23.0121 7.75614H25.3205L24.2342 3.96175Z" fill="#071446"/>
<path d="M33.8751 11.1442H31.4309V1.11621H34.6898C36.0477 1.11621 36.9982 1.38724 37.6771 1.79378C38.356 2.33584 38.7634 3.28444 38.7634 4.36855C38.7634 5.8592 38.0845 6.94331 36.8624 7.34986L39.035 11.0087H36.1834L34.0109 7.21434V11.1442H33.8751ZM34.6898 5.8592C35.6403 5.8592 36.3192 5.31715 36.3192 4.50406C36.3192 3.69098 35.7761 3.14892 34.8256 3.14892H33.8751V5.8592H34.6898Z" fill="#071446"/>
<path d="M44.4664 11.1442H42.0223V1.11621H44.4664V11.1442Z" fill="#071446"/>
<path d="M51.6631 11.1442H49.219V3.14892H46.9106V1.11621H53.9715V3.01341H51.6631V11.1442Z" fill="#071446"/>
<path d="M61.4398 11.1442H58.9956V6.67229L55.7368 1.11621H58.5883L60.2177 4.23303L61.8472 1.11621H64.6987L61.4398 6.67229V11.1442Z" fill="#071446"/>
<path d="M8.89029 28.6256C7.66821 29.5742 6.58191 29.9807 5.08826 29.9807C3.5946 29.9807 2.37252 29.4386 1.42202 28.4901C0.607295 27.5415 0.0641479 26.1863 0.0641479 24.8312C0.0641479 23.205 0.743082 21.7144 1.82938 20.7658C2.6441 19.9527 3.73039 19.6816 5.08826 19.6816C5.90298 19.6816 6.7177 19.8172 7.39664 20.2237C7.93978 20.4947 8.21136 20.6302 8.7545 21.1723L7.26085 22.7985C6.58191 22.1209 5.90298 21.8499 5.08826 21.8499C3.45882 21.8499 2.37252 23.0695 2.37252 24.6957C2.37252 26.4573 3.5946 27.677 5.22405 27.677C6.03877 27.677 6.7177 27.4059 7.26085 26.8639L8.89029 28.6256Z" fill="#071446"/>
<path d="M21.5184 24.8312C21.5184 27.677 19.2101 29.9807 16.3586 29.9807C13.3712 29.9807 11.0629 27.677 11.0629 24.8312C11.0629 23.3405 11.606 21.9854 12.6923 21.0368C13.6428 20.0882 15.0007 19.6816 16.3586 19.6816C19.2101 19.6816 21.5184 21.8499 21.5184 24.8312ZM13.3712 24.8312C13.3712 26.4573 14.5933 27.8125 16.2228 27.8125C17.7164 27.8125 19.0743 26.5929 19.0743 24.9667C19.0743 23.205 17.8522 21.9854 16.2228 21.9854C14.5933 21.8499 13.3712 23.205 13.3712 24.8312Z" fill="#071446"/>
<path d="M34.554 24.8312C34.554 27.677 32.2456 29.9807 29.3941 29.9807C26.4068 29.9807 24.0984 27.677 24.0984 24.8312C24.0984 23.3405 24.6415 21.9854 25.7278 21.0368C26.6783 20.0882 28.0362 19.6816 29.3941 19.6816C32.3814 19.6816 34.554 21.8499 34.554 24.8312ZM26.4068 24.8312C26.4068 26.4573 27.6288 27.8125 29.2583 27.8125C30.7519 27.8125 32.1098 26.5929 32.1098 24.9667C32.1098 23.205 30.8877 21.9854 29.2583 21.9854C27.6288 21.8499 26.4068 23.205 26.4068 24.8312Z" fill="#071446"/>
<path d="M39.9855 29.8452H37.5413V19.9526H40.936C43.2444 19.9526 44.6022 21.1723 44.6022 23.205C44.6022 25.2377 43.2444 26.5928 41.0718 26.5928H39.9855V29.8452ZM40.6644 24.5601C41.6149 24.5601 42.2939 24.0181 42.2939 23.205C42.2939 22.3919 41.7507 21.8498 40.936 21.8498H40.1213V24.5601H40.6644Z" fill="#071446"/>
<path d="M49.7621 23.8828H53.021V25.78H49.7621V27.8127H53.021V29.7099H47.3179V19.8174H53.021V21.7146H49.7621V23.8828Z" fill="#071446"/>
<path d="M58.4525 29.8452H56.0083V19.9526H59.2672C60.6251 19.9526 61.5756 20.2237 62.2545 20.6302C62.9334 21.1723 63.3408 22.1209 63.3408 23.205C63.3408 24.6956 62.6619 25.7797 61.4398 26.1863L63.6124 29.8452H60.7608L58.5883 26.0508V29.8452H58.4525ZM59.2672 24.5601C60.2177 24.5601 60.8966 24.0181 60.8966 23.205C60.8966 22.3919 60.3535 21.8498 59.403 21.8498H58.4525V24.5601H59.2672Z" fill="#071446"/>
<path d="M68.7723 28.3545L68.3649 29.8452H65.785L69.0439 19.9526H72.167L75.4258 29.8452H72.7101L72.3027 28.3545H68.7723ZM70.5375 22.6629L69.4512 26.4573H71.7596L70.5375 22.6629Z" fill="#071446"/>
<path d="M81.1289 29.8452H78.6847V21.8498H76.3763V19.9526H83.4373V21.8498H81.1289V29.8452Z" fill="#071446"/>
<path d="M88.3256 29.8452H85.8814V19.9526H88.3256V29.8452Z" fill="#071446"/>
<path d="M96.7443 19.8174H99.3243L96.337 29.7099H93.757L90.9055 19.8174H93.3497L94.9791 25.9155L96.7443 19.8174Z" fill="#071446"/>
<path d="M103.941 23.8828H107.2V25.78H103.941V27.8127H107.2V29.7099H101.497V19.8174H107.2V21.7146H103.941V23.8828Z" fill="#071446"/>
</svg>
