<svg width="120" height="120" viewBox="0 0 120 120" fill="none" xmlns="http://www.w3.org/2000/svg">
<path d="M62.1164 3.23442L61.4922 2.71431L62.2204 1.88214L61.1802 1.46606L61.4922 0.737912L62.5324 1.04998V0.00976562H63.2606V1.04998L64.3008 0.737912L64.5089 1.46606L63.3646 1.88214L64.0928 2.81833L63.4686 3.23442L62.7405 2.29823L62.1164 3.23442Z" fill="#071446"/>
<path d="M72.8305 1.25781L74.9109 1.77792C76.0552 2.08998 76.7833 2.50606 77.1994 3.23421C77.8235 4.06638 77.9275 5.10659 77.7195 6.25082C77.4074 7.39505 76.6793 8.33124 75.8471 8.85134C75.119 9.26743 74.1828 9.26743 73.1426 9.05939L70.9581 8.53928L72.8305 1.25781ZM72.7265 7.60309L73.0386 7.70711C73.8707 7.91515 74.3908 7.91515 74.9109 7.70711C75.5351 7.39505 76.0552 6.77092 76.2632 5.93876C76.6793 4.48246 76.0552 3.33823 74.5989 2.92215L74.0788 2.81813L72.7265 7.60309Z" fill="#071446"/>
<path d="M87.0814 7.49946C87.3935 8.43565 87.2894 9.37184 86.8734 10.308C86.0412 12.2844 83.7527 13.1166 81.7763 12.2844C79.7999 11.3482 78.8637 9.1638 79.7999 7.1874C80.7361 5.211 83.0246 4.27481 85.001 5.211C86.0412 5.62708 86.7693 6.45925 87.0814 7.49946ZM81.2562 7.7075C80.6321 8.95575 81.1522 10.412 82.2964 10.9322C83.4407 11.4523 84.7929 10.9322 85.4171 9.6839C86.0412 8.33163 85.6251 6.97936 84.3769 6.45925C83.1286 5.83512 81.7763 6.45925 81.2562 7.7075Z" fill="#071446"/>
<path d="M97.1714 12.5965L98.5237 13.5326L92.4905 18.4216L91.2422 17.4854L93.1146 12.8045L89.2658 16.2372L88.0176 15.301L90.6181 8.01953L91.9704 8.95572L90.306 13.5326L94.0508 10.412L95.299 11.2442L93.4267 15.8211L97.1714 12.5965Z" fill="#071446"/>
<path d="M96.4433 21.9581L95.4031 20.8138L100.708 15.6128L101.748 16.653L100.604 22.1661L103.933 18.9415L104.973 20.0857L99.6679 25.2867L98.6277 24.2465L99.772 18.7334L96.4433 21.9581Z" fill="#071446"/>
<path d="M104.557 29.6559L103.517 30.3841L101.124 27.1594L107.157 22.6865L108.094 23.9348L103.101 27.6795L104.557 29.6559Z" fill="#071446"/>
<path d="M113.191 34.3363C112.879 35.2725 112.254 35.8967 111.318 36.4168C109.446 37.457 107.157 36.7288 106.117 34.8564C105.077 32.88 105.805 30.5916 107.678 29.5514C109.654 28.5112 111.942 29.2393 112.983 31.1117C113.399 32.2559 113.503 33.2961 113.191 34.3363ZM108.302 31.0077C107.053 31.6318 106.637 33.0881 107.261 34.2323C107.886 35.3766 109.342 35.7926 110.486 35.0645C111.734 34.3363 112.254 32.9841 111.63 31.8398C111.006 30.6956 109.654 30.3835 108.302 31.0077Z" fill="#071446"/>
<path d="M110.278 40.7859H108.926L108.406 39.2256H116.311L116.935 40.9939L110.694 45.8829L110.174 44.3226L111.214 43.4904L110.278 40.7859ZM114.855 40.6819H111.63L112.254 42.6583L114.855 40.6819Z" fill="#071446"/>
<path d="M118.392 46.1953L118.808 48.2757C119.016 49.42 118.912 50.3561 118.496 51.0843C117.976 51.9165 117.039 52.5406 115.895 52.7486C114.751 52.9567 113.607 52.7486 112.775 52.1245C112.15 51.6044 111.63 50.7722 111.422 49.732L111.006 47.5476L118.392 46.1953ZM112.567 48.7958V49.1079C112.671 49.9401 112.983 50.3561 113.399 50.7722C113.919 51.1883 114.647 51.3964 115.479 51.2923C116.935 50.9803 117.768 49.9401 117.456 48.5878L117.352 48.0677L112.567 48.7958Z" fill="#071446"/>
<path d="M116.623 60.862L117.143 60.2378L117.976 60.966L118.392 59.9258L119.12 60.2378L118.808 61.2781H119.848V62.1102H118.808L119.12 63.1504L118.392 63.3585L117.976 62.2142L117.039 62.9424L116.623 62.3183L117.56 61.5901L116.623 60.862Z" fill="#071446"/>
<path d="M118.704 71.472L118.184 73.5524C117.872 74.6966 117.456 75.4248 116.727 75.9449C115.895 76.569 114.855 76.673 113.711 76.361C112.567 76.0489 111.63 75.4248 111.11 74.4886C110.694 73.7605 110.694 72.8243 110.902 71.7841L111.422 69.5996L118.704 71.472ZM112.254 71.472L112.15 71.7841C111.942 72.6162 111.942 73.1363 112.254 73.6564C112.567 74.2806 113.191 74.8007 114.023 75.0087C115.479 75.4248 116.623 74.6966 116.935 73.3444L117.039 72.8243L112.254 71.472Z" fill="#071446"/>
<path d="M112.567 85.8274C111.63 86.1395 110.694 86.0355 109.758 85.6194C107.782 84.7872 106.949 82.4988 107.782 80.5224C108.718 78.546 110.902 77.6098 112.879 78.546C114.959 79.4821 115.791 81.6666 114.855 83.747C114.439 84.6832 113.607 85.5154 112.567 85.8274ZM112.254 80.0023C111.006 79.4822 109.55 79.8982 109.03 81.1465C108.51 82.2907 109.03 83.643 110.278 84.2671C111.63 84.8912 112.983 84.3711 113.503 83.2269C114.127 81.8746 113.503 80.5224 112.254 80.0023Z" fill="#071446"/>
<path d="M107.469 95.917L106.533 97.2693L101.54 91.2361L102.372 89.9878L107.053 91.8602L103.829 88.1154L104.661 86.8672L111.942 89.4677L111.006 90.82L106.429 89.1556L109.654 92.7964L108.822 94.0446L104.245 92.2763L107.469 95.917Z" fill="#071446"/>
<path d="M98.1076 95.2931L99.1478 94.2529L104.453 99.558L103.413 100.598L97.8995 99.454L101.228 102.783L100.188 103.823L94.8829 98.5178L95.9231 97.4776L101.54 98.6218L98.1076 95.2931Z" fill="#071446"/>
<path d="M90.41 103.511L89.6819 102.471L92.9065 100.078L97.3794 106.111L96.1312 107.048L92.3864 102.055L90.41 103.511Z" fill="#071446"/>
<path d="M85.8332 112.04C84.897 111.728 84.2728 111.104 83.7527 110.168C82.7125 108.296 83.4407 106.007 85.209 104.967C87.0814 103.927 89.4739 104.551 90.5141 106.423C91.5543 108.4 90.9302 110.688 88.9538 111.728C88.0176 112.352 86.8734 112.456 85.8332 112.04ZM89.1618 107.255C88.5377 106.007 87.0814 105.591 85.9372 106.215C84.793 106.839 84.4809 108.296 85.105 109.44C85.8332 110.688 87.1854 111.208 88.3297 110.584C89.4739 109.856 89.89 108.504 89.1618 107.255Z" fill="#071446"/>
<path d="M79.3838 109.232V107.879L80.9441 107.359V115.265L79.1758 115.889L74.2868 109.648L75.8471 109.128L76.6793 110.168L79.3838 109.232ZM79.4878 113.913V110.688L77.5114 111.416L79.4878 113.913Z" fill="#071446"/>
<path d="M74.0788 117.449L71.9984 117.866C70.8541 118.074 69.9179 117.97 69.1898 117.553C68.3576 117.033 67.7335 116.097 67.5255 114.953C67.3174 113.809 67.5255 112.664 68.1496 111.832C68.6697 111.208 69.5019 110.688 70.5421 110.48L72.7265 110.064L74.0788 117.449ZM71.4783 111.624L71.1662 111.728C70.334 111.832 69.9179 112.144 69.5019 112.56C69.0858 113.081 68.8777 113.913 69.0858 114.641C69.3978 116.097 70.4381 116.929 71.7903 116.617L72.3104 116.513L71.4783 111.624Z" fill="#071446"/>
<path d="M59.4118 115.785L60.0359 116.305L59.3078 117.137L60.348 117.554L60.0359 118.282L58.9957 117.97V119.01H58.1635V117.97L57.1233 118.282L56.9153 117.554L58.0595 117.137L57.3314 116.201L57.9555 115.785L58.6836 116.721L59.4118 115.785Z" fill="#071446"/>
<path d="M48.8017 117.866L46.7213 117.346C45.577 117.034 44.8489 116.618 44.3288 115.889C43.7047 115.057 43.6007 114.017 43.9127 112.873C44.2248 111.729 44.8489 110.792 45.7851 110.272C46.5132 109.856 47.4494 109.752 48.4896 110.064L50.6741 110.584L48.8017 117.866ZM48.8017 111.521L48.4896 111.417C47.6575 111.208 47.1374 111.208 46.6173 111.521C45.9931 111.833 45.473 112.457 45.369 113.289C45.0569 114.745 45.6811 115.889 47.0333 116.201L47.5534 116.306L48.8017 111.521Z" fill="#071446"/>
<path d="M34.3428 111.832C34.0307 110.896 34.1347 109.96 34.5508 109.024C35.383 107.047 37.6714 106.215 39.6478 107.047C41.6242 107.879 42.5604 110.168 41.7283 112.144C40.7921 114.225 38.6076 115.057 36.5272 114.225C35.487 113.705 34.7588 112.872 34.3428 111.832ZM40.1679 111.52C40.688 110.272 40.272 108.816 39.0237 108.296C37.8795 107.775 36.5272 108.4 35.9031 109.648C35.279 111 35.7991 112.352 37.0473 112.872C38.2956 113.393 39.6478 112.872 40.1679 111.52Z" fill="#071446"/>
<path d="M24.1487 106.839L22.7964 105.903L28.7256 100.91L29.9739 101.742L28.2055 106.423L31.9503 102.991L33.1985 103.823L30.702 111.208L29.3498 110.272L31.0141 105.695L27.3734 108.92L26.1251 108.088L27.8935 103.407L24.1487 106.839Z" fill="#071446"/>
<path d="M24.8769 97.4771L26.0211 98.5173L20.612 103.926L19.5718 102.886L20.612 97.3731L17.2833 100.702L16.1391 99.6615L21.4442 94.3564L22.4844 95.3967L21.5482 100.91L24.8769 97.4771Z" fill="#071446"/>
<path d="M16.5552 89.8839L17.5954 89.1558L20.0919 92.3804L14.1627 96.9573L13.2265 95.7091L18.2195 91.9643L16.5552 89.8839Z" fill="#071446"/>
<path d="M7.92145 85.3066C8.23351 84.3704 8.85764 83.7463 9.79382 83.1222C11.6662 82.082 13.9547 82.7061 14.9949 84.5785C16.0351 86.4509 15.411 88.8434 13.5386 89.8836C11.5622 90.9238 9.27372 90.2996 8.23351 88.3232C7.7134 87.4911 7.60938 86.3468 7.92145 85.3066ZM12.8104 88.6353C14.0587 87.9072 14.4748 86.5549 13.8506 85.4107C13.2265 84.2664 11.7702 83.9544 10.626 84.5785C9.37774 85.3066 8.85763 86.6589 9.58578 87.8031C10.1059 88.9474 11.5622 89.2594 12.8104 88.6353Z" fill="#071446"/>
<path d="M10.73 78.9618H12.0822L12.6024 80.5221L4.69676 80.6261L4.07263 78.8578L10.2099 73.7607L10.73 75.3211L9.68976 76.1532L10.73 78.9618ZM6.15305 79.0658L9.3777 78.9618L8.64955 76.9854L6.15305 79.0658Z" fill="#071446"/>
<path d="M2.51235 73.6567L2.09627 71.5763C1.88823 70.4321 1.99225 69.4959 2.40833 68.7677C2.92844 67.9356 3.7606 67.3114 5.00886 67.1034C6.15309 66.8954 7.29732 67.1034 8.12949 67.7275C8.75361 68.2476 9.27372 69.0798 9.48176 70.12L9.89784 72.3045L2.51235 73.6567ZM8.33753 70.9522L8.23351 70.6401C8.02547 69.808 7.81742 69.3919 7.40134 68.9758C6.88123 68.5597 6.04907 68.3517 5.32092 68.5597C3.86463 68.8718 3.03246 69.912 3.34452 71.3683L3.44854 71.8884L8.33753 70.9522Z" fill="#071446"/>
<path d="M4.07266 58.8857L3.55255 59.5098L2.72038 58.8857L2.40832 59.9259L1.68017 59.6138L1.99224 58.5736H0.952026V57.7414H1.99224L1.68017 56.7012L2.40832 56.3892L2.8244 57.5334L3.76059 56.8052L4.2807 57.4294L3.24049 58.2615L4.07266 58.8857Z" fill="#071446"/>
<path d="M1.78418 48.2754L2.30428 46.195C2.61635 45.0508 3.03243 44.3226 3.76058 43.8025C4.59275 43.1784 5.63296 43.0744 6.77719 43.2824C7.92142 43.5945 8.85761 44.2186 9.37771 45.1548C9.79379 45.883 9.89782 46.8191 9.58575 47.8594L9.06565 50.0438L1.78418 48.2754ZM8.23348 48.2754L8.3375 47.9634C8.54554 47.1312 8.54554 46.6111 8.23348 46.091C7.92142 45.4669 7.29729 45.0508 6.46512 44.8427C5.00883 44.5307 3.8646 45.1548 3.55254 46.5071L3.44852 47.0272L8.23348 48.2754Z" fill="#071446"/>
<path d="M7.71337 33.9207C8.64956 33.6086 9.58575 33.7127 10.5219 34.1287C12.4983 34.9609 13.4345 37.2494 12.6024 39.1218C11.7702 41.0982 9.48173 42.0343 7.50533 41.2022C5.42491 40.37 4.59274 38.0815 5.42491 36.0011C5.94501 35.0649 6.77718 34.2328 7.71337 33.9207ZM8.12945 39.7459C9.3777 40.266 10.834 39.7459 11.2501 38.6016C11.7702 37.4574 11.1461 36.1051 9.89781 35.481C8.54554 34.9609 7.19326 35.377 6.67316 36.6253C6.25708 37.8735 6.8812 39.2258 8.12945 39.7459Z" fill="#071446"/>
<path d="M12.7064 23.6228L13.6426 22.2705L18.7396 28.1997L17.9074 29.448L13.2265 27.6796L16.6592 31.4244L15.827 32.6726L8.44153 30.1761L9.16968 28.9278L13.7466 30.5922L10.5219 26.9515L11.3541 25.7032L16.0351 27.3675L12.7064 23.6228Z" fill="#071446"/>
<path d="M22.0683 24.247L21.0281 25.3912L15.723 20.1902L16.7632 19.15L22.2763 20.1902L18.9477 16.9655L19.9879 15.8213L25.293 21.0223L24.2527 22.0625L18.6356 21.0223L22.0683 24.247Z" fill="#071446"/>
<path d="M29.6618 15.9249L30.39 16.9651L27.1653 19.4616L22.5884 13.5324L23.8366 12.5962L27.6854 17.4852L29.6618 15.9249Z" fill="#071446"/>
<path d="M34.0307 7.18731C34.9669 7.49937 35.6951 8.1235 36.2152 9.05968C37.2554 10.9321 36.6313 13.2205 34.7589 14.2607C32.8865 15.3009 30.494 14.6768 29.4538 12.8044C28.3096 10.828 29.0377 8.53958 30.9101 7.39535C31.9503 6.97926 32.9905 6.87524 34.0307 7.18731ZM30.8061 12.0763C31.5342 13.3245 32.8865 13.7406 34.0307 13.1165C35.175 12.4924 35.487 11.0361 34.8629 9.89185C34.1348 8.6436 32.7825 8.22752 31.6383 8.85164C30.494 9.47577 30.182 10.828 30.8061 12.0763Z" fill="#071446"/>
<path d="M40.48 9.99572V11.348L38.9197 11.8681L38.7117 3.9625L40.48 3.33838L45.473 9.47562L43.9127 10.0997L43.0805 9.05953L40.48 9.99572ZM40.376 5.4188L40.48 8.64345L42.4564 7.9153L40.376 5.4188Z" fill="#071446"/>
<path d="M45.785 1.67399L47.8655 1.2579C49.0097 1.04986 49.9459 1.04986 50.674 1.56997C51.5062 2.09007 52.1303 2.92224 52.4424 4.06647C52.6504 5.2107 52.4424 6.35493 51.8182 7.1871C51.2981 7.81123 50.466 8.33133 49.4258 8.53937L47.2413 8.95546L45.785 1.67399ZM48.4896 7.49916L48.8016 7.39514C49.6338 7.1871 50.0499 6.97906 50.466 6.56297C50.8821 6.04287 51.0901 5.2107 50.8821 4.48255C50.57 3.02626 49.5298 2.29811 48.0735 2.50616L47.5534 2.61018L48.4896 7.49916Z" fill="#071446"/>
</svg>
