<svg width="116" height="116" viewBox="0 0 116 116" fill="none" xmlns="http://www.w3.org/2000/svg">
<path d="M61.8992 5.3752C61.7992 7.5752 60.7992 8.3752 58.1992 8.1752L58.2992 6.6752C58.4992 6.6752 58.4992 6.6752 58.5992 6.6752C59.0992 6.6752 59.4992 6.5752 59.6992 6.3752C59.9992 6.0752 60.1992 5.7752 60.1992 4.7752L60.2992 1.3752L58.3992 1.2752L58.5992 0.0751953L62.0992 0.275195L61.8992 5.3752Z" fill="#071446"/>
<path d="M72.2992 2.97494C72.7992 3.87494 72.9992 4.87494 72.6992 5.97494C72.2992 8.17494 70.0992 9.67494 67.8992 9.17494C65.5992 8.67494 64.1992 6.57494 64.5992 4.27494C65.0992 2.07494 67.2992 0.674942 69.5992 1.07494C70.7992 1.37494 71.6992 1.97494 72.2992 2.97494ZM66.2992 4.67494C65.9992 6.17494 66.7992 7.47494 68.1992 7.77494C69.5992 8.07494 70.7992 7.17494 71.0992 5.67494C71.3992 4.17494 70.5992 2.87494 69.1992 2.57494C67.8992 2.27494 66.5992 3.17494 66.2992 4.67494Z" fill="#071446"/>
<path d="M75.5996 11.2748L74.0996 10.6748L76.7996 3.1748L78.2996 3.7748L75.5996 11.2748Z" fill="#071446"/>
<path d="M79.5 12.8752L78 12.1752L81.7 5.0752L83.1 5.7752L83.8 11.7752L86.1 7.3752L87.6 8.0752L83.9 15.1752L82.5 14.4752L81.8 8.47519L79.5 12.8752Z" fill="#071446"/>
<path d="M90.8992 20.4752L89.6992 19.3752L95.1992 13.5752L96.3992 14.6752L95.3992 20.5752L98.7992 16.9752L99.9992 18.0752L94.4992 23.8752L93.2992 22.7752L94.2992 16.7752L90.8992 20.4752Z" fill="#071446"/>
<path d="M105.8 27.2755C105.6 28.2755 105 29.0755 104.1 29.7755C102.3 31.0755 99.6997 30.6755 98.3997 28.8755C96.9997 26.9755 97.3997 24.4755 99.2997 23.0755C101.2 21.6755 103.8 22.0755 105.2 23.9755C105.8 24.9755 106.1 26.1755 105.8 27.2755ZM100.3 24.4755C99.0997 25.3755 98.7997 26.8755 99.5997 27.9755C100.4 29.0755 102 29.2755 103.1 28.4755C104.4 27.5755 104.7 26.0755 103.8 24.8755C103 23.7755 101.5 23.5755 100.3 24.4755Z" fill="#071446"/>
<path d="M112.4 37.5754L113.1 39.1754L104.9 40.3754L104.2 38.8754L108.5 35.5754L103.2 36.5754L102.5 35.0754L108.9 29.7754L109.6 31.3754L105.5 34.5754L110.6 33.6754L111.3 35.1754L107.1 38.3754L112.4 37.5754Z" fill="#071446"/>
<path d="M111.801 48.8756L112.201 48.0756L113.201 48.5756L113.401 47.4756L114.201 47.6756L114.001 48.7756L115.101 48.5756L115.201 49.3756L114.101 49.5756L114.701 50.6756L114.001 51.0756L113.401 49.9756L112.601 50.8756L112.001 50.2756L112.801 49.3756L111.801 48.8756Z" fill="#071446"/>
<path d="M110.701 62.3748C108.501 62.2748 107.701 61.2748 107.901 58.6748L109.301 58.7748C109.301 58.9748 109.301 58.9748 109.301 59.0748C109.301 59.5748 109.401 59.9748 109.501 60.1748C109.801 60.4748 110.101 60.6748 111.101 60.6748L114.501 60.8748L114.601 58.9748L116.001 59.0748L115.801 62.5748L110.701 62.3748Z" fill="#071446"/>
<path d="M113 72.7748C112.1 73.2748 111.1 73.4748 110 73.1748C107.8 72.6748 106.3 70.5748 106.8 68.3748C107.3 66.0748 109.4 64.6748 111.7 65.0748C114 65.5748 115.4 67.6748 115 70.0748C114.7 71.1748 114 72.1748 113 72.7748ZM111.4 66.7748C109.9 66.4748 108.6 67.2748 108.3 68.6748C108 70.0748 108.9 71.2748 110.3 71.5748C111.8 71.8748 113.1 71.0748 113.4 69.7748C113.7 68.4748 112.9 67.0748 111.4 66.7748Z" fill="#071446"/>
<path d="M104.699 75.9756L105.299 74.4756L112.799 77.1756L112.199 78.6756L104.699 75.9756Z" fill="#071446"/>
<path d="M103.099 79.875L103.899 78.375L110.999 82.075L110.199 83.475L104.199 84.075L108.599 86.375L107.799 87.875L100.699 84.175L101.399 82.775L107.399 82.175L103.099 79.875Z" fill="#071446"/>
<path d="M95.5 91.2752L96.6 90.0752L102.4 95.5752L101.3 96.7752L95.4 95.7752L99 99.1752L97.9 100.375L92 94.8752L93.1 93.6752L99.1 94.6752L95.5 91.2752Z" fill="#071446"/>
<path d="M88.5992 106.075C87.5992 105.875 86.7992 105.275 86.0992 104.375C84.7992 102.475 85.1992 99.9751 86.9992 98.6751C88.8992 97.2751 91.3992 97.6751 92.7992 99.5751C94.1992 101.475 93.7992 104.075 91.7992 105.475C90.8992 106.175 89.6992 106.375 88.5992 106.075ZM91.3992 100.575C90.4992 99.3751 88.9992 99.0751 87.8992 99.8751C86.7992 100.675 86.5992 102.275 87.3992 103.375C88.2992 104.675 89.7992 104.975 90.9992 104.175C92.0992 103.375 92.2992 101.775 91.3992 100.575Z" fill="#071446"/>
<path d="M78.2004 112.575L76.6004 113.275L75.4004 105.075L76.9004 104.375L80.2004 108.675L79.2004 103.375L80.7004 102.675L85.9004 109.175L84.3004 109.875L81.1004 105.775L81.9004 110.875L80.4004 111.575L77.2004 107.375L78.2004 112.575Z" fill="#071446"/>
<path d="M66.8992 111.976L67.6992 112.376L67.1992 113.376L68.2992 113.576L68.0992 114.376L66.9992 114.176L67.1992 115.276L66.3992 115.376L66.1992 114.276L65.0992 114.876L64.6992 114.076L65.7992 113.476L64.8992 112.676L65.4992 112.076L66.3992 112.876L66.8992 111.976Z" fill="#071446"/>
<path d="M53.3992 110.775C53.4992 108.575 54.5992 107.775 57.0992 107.975L56.9992 109.375C56.7992 109.375 56.7992 109.375 56.6992 109.375C56.1992 109.375 55.7992 109.475 55.5992 109.575C55.1992 109.875 55.0992 110.175 55.0992 111.175L54.8992 114.575L56.7992 114.675L56.6992 115.975L53.1992 115.775L53.3992 110.775Z" fill="#071446"/>
<path d="M43.0005 112.975C42.5005 112.075 42.4005 111.075 42.6005 109.975C43.1005 107.775 45.2005 106.375 47.5005 106.775C49.8005 107.275 51.2005 109.375 50.7005 111.675C50.2005 113.975 48.0005 115.375 45.7005 114.875C44.6005 114.675 43.6005 113.975 43.0005 112.975ZM49.0005 111.375C49.3005 109.875 48.5005 108.575 47.1005 108.275C45.8005 107.975 44.5005 108.875 44.2005 110.275C43.9005 111.775 44.6005 113.075 46.0005 113.375C47.5005 113.775 48.7005 112.875 49.0005 111.375Z" fill="#071446"/>
<path d="M39.8996 104.675L41.3996 105.275L38.5996 112.775L37.0996 112.175L39.8996 104.675Z" fill="#071446"/>
<path d="M36.0004 103.075L37.5004 103.875L33.7004 110.975L32.3004 110.175L31.7004 104.175L29.4004 108.575L27.9004 107.775L31.7004 100.675L33.1004 101.475L33.7004 107.475L36.0004 103.075Z" fill="#071446"/>
<path d="M24.6004 95.3756L25.8004 96.4756L20.3004 102.276L19.1004 101.176L20.1004 95.2756L16.6004 98.8756L15.4004 97.7756L20.9004 91.9756L22.1004 93.0756L21.0004 99.0756L24.6004 95.3756Z" fill="#071446"/>
<path d="M9.79961 88.3753C9.99961 87.3753 10.5996 86.5753 11.4996 85.8753C13.3996 84.5753 15.8996 84.9753 17.1996 86.8753C18.5996 88.7753 18.0996 91.3753 16.2996 92.6753C14.3996 94.0753 11.7996 93.5753 10.3996 91.6753C9.79961 90.6753 9.59961 89.4753 9.79961 88.3753ZM15.2996 91.2753C16.4996 90.3753 16.7996 88.8753 15.9996 87.7753C15.1996 86.6753 13.5996 86.3753 12.4996 87.2753C11.1996 88.1753 10.8996 89.6753 11.6996 90.8753C12.5996 91.9753 14.0996 92.1753 15.2996 91.2753Z" fill="#071446"/>
<path d="M3.39922 77.9754L2.69922 76.3754L10.8992 75.2754L11.5992 76.7754L7.29922 79.9754L12.5992 79.0754L13.2992 80.5754L6.79922 85.7754L6.09922 84.1754L10.1992 80.9754L4.99922 81.7754L4.39922 80.2754L8.59922 77.0754L3.39922 77.9754Z" fill="#071446"/>
<path d="M4.09961 66.675L3.69961 67.475L2.69961 66.875L2.49961 68.075L1.69961 67.875L1.89961 66.775L0.799609 66.975L0.599609 66.075L1.69961 65.875L1.09961 64.775L1.89961 64.375L2.49961 65.475L3.29961 64.575L3.89961 65.175L3.09961 66.075L4.09961 66.675Z" fill="#071446"/>
<path d="M5.4 53.175C7.6 53.275 8.4 54.375 8.1 56.875L6.7 56.775C6.7 56.575 6.7 56.575 6.7 56.475C6.7 55.975 6.6 55.575 6.5 55.375C6.2 54.975 5.9 54.875 4.9 54.875L1.5 54.675L1.4 56.575L0 56.375L0.2 52.875L5.4 53.175Z" fill="#071446"/>
<path d="M3.2007 42.7749C4.1007 42.2749 5.1007 42.1749 6.2007 42.3749C8.4007 42.8749 9.8007 45.0749 9.3007 47.2749C8.8007 49.5749 6.6007 50.9749 4.4007 50.4749C2.1007 49.9749 0.700699 47.7749 1.2007 45.4749C1.5007 44.3749 2.2007 43.3749 3.2007 42.7749ZM4.8007 48.8749C6.3007 49.1749 7.6007 48.3749 7.9007 47.0749C8.2007 45.7749 7.3007 44.4749 5.9007 44.0749C4.4007 43.7749 3.1007 44.4749 2.7007 45.8749C2.4007 47.2749 3.3007 48.4749 4.8007 48.8749Z" fill="#071446"/>
<path d="M11.5004 39.675L10.9004 41.175L3.40039 38.375L4.00039 36.875L11.5004 39.675Z" fill="#071446"/>
<path d="M13.2004 35.7748L12.4004 37.1748L5.40039 33.3748L6.20039 31.9748L12.2004 31.3748L7.80039 29.0748L8.60039 27.6748L15.6004 31.4748L14.8004 32.8748L8.70039 33.3748L13.2004 35.7748Z" fill="#071446"/>
<path d="M20.9996 24.4754L19.8996 25.6754L14.0996 20.0754L15.1996 18.8754L21.0996 19.9754L17.4996 16.4754L18.5996 15.2754L24.3996 20.8754L23.2996 22.0754L17.2996 20.9754L20.9996 24.4754Z" fill="#071446"/>
<path d="M28.1007 9.77499C29.1007 9.97499 29.9007 10.575 30.6007 11.575C31.9007 13.475 31.5007 15.975 29.6007 17.275C27.7007 18.575 25.1007 18.175 23.8007 16.275C22.4007 14.375 22.9007 11.775 24.8007 10.475C25.8007 9.67499 26.9007 9.47499 28.1007 9.77499ZM25.1007 15.275C26.0007 16.475 27.5007 16.775 28.6007 15.975C29.7007 15.175 30.0007 13.675 29.1007 12.475C28.2007 11.175 26.7007 10.875 25.6007 11.675C24.5007 12.475 24.2007 13.975 25.1007 15.275Z" fill="#071446"/>
<path d="M38.5008 3.3748L40.1008 2.6748L41.2008 10.8748L39.7008 11.4748L36.5008 7.1748L37.4008 12.4748L35.9008 13.0748L30.8008 6.5748L32.4008 5.8748L35.6008 9.9748L34.8008 4.7748L36.3008 4.1748L39.5008 8.3748L38.5008 3.3748Z" fill="#071446"/>
<path d="M49.8 4.17539L49 3.77539L49.6 2.77539L48.5 2.57539L48.7 1.77539L49.8 1.97539L49.6 0.875391L50.4 0.775391L50.6 1.87539L51.7 1.27539L52 1.97539L50.9 2.57539L51.8 3.37539L51.2 3.97539L50.3 3.17539L49.8 4.17539Z" fill="#071446"/>
</svg>
