<svg width="116" height="116" viewBox="0 0 116 116" fill="none" xmlns="http://www.w3.org/2000/svg">
<path d="M61.9 5.35029C61.8 7.55029 60.8 8.35029 58.2 8.15029L58.2999 6.65029C58.4999 6.65029 58.4999 6.65029 58.5999 6.65029C59.0999 6.65029 59.5 6.55029 59.7 6.35029C60 6.05029 60.2 5.75029 60.2 4.75029L60.2999 1.35029L58.4 1.25029L58.5999 0.050293L62.0999 0.250293L61.9 5.35029Z" fill="white"/>
<path d="M72.2999 2.95028C72.7999 3.85028 72.9999 4.85028 72.6999 5.95028C72.2999 8.15028 70.0999 9.65028 67.8999 9.15028C65.5999 8.65028 64.1999 6.55028 64.5999 4.25028C65.0999 2.05028 67.2999 0.650284 69.5999 1.05028C70.7999 1.35028 71.6999 1.95028 72.2999 2.95028ZM66.2999 4.65028C65.9999 6.15028 66.7999 7.45028 68.1999 7.75028C69.5999 8.05028 70.7999 7.15028 71.0999 5.65028C71.3999 4.15028 70.5999 2.85028 69.1999 2.55028C67.8999 2.25028 66.5999 3.15028 66.2999 4.65028Z" fill="white"/>
<path d="M75.6001 11.2504L74.1001 10.6504L76.8001 3.15039L78.3001 3.75039L75.6001 11.2504Z" fill="white"/>
<path d="M79.5 12.8503L78 12.1503L81.7 5.05029L83.1 5.75029L83.8 11.7503L86.1 7.35029L87.6 8.05029L83.9 15.1503L82.5 14.4503L81.8 8.45029L79.5 12.8503Z" fill="white"/>
<path d="M90.9 20.4503L89.7 19.3503L95.2 13.5503L96.4 14.6503L95.4 20.5503L98.8 16.9503L100 18.0503L94.5 23.8503L93.3 22.7503L94.3 16.7503L90.9 20.4503Z" fill="white"/>
<path d="M105.8 27.2503C105.6 28.2503 105 29.0503 104.1 29.7503C102.3 31.0503 99.6999 30.6503 98.3999 28.8503C96.9999 26.9503 97.3999 24.4503 99.2999 23.0503C101.2 21.6503 103.8 22.0503 105.2 23.9503C105.8 24.9503 106.1 26.1503 105.8 27.2503ZM100.3 24.4503C99.0999 25.3503 98.7999 26.8503 99.5999 27.9503C100.4 29.0503 102 29.2503 103.1 28.4503C104.4 27.5503 104.7 26.0503 103.8 24.8503C103 23.7503 101.5 23.5503 100.3 24.4503Z" fill="white"/>
<path d="M112.4 37.5502L113.1 39.1502L104.9 40.3502L104.2 38.8502L108.5 35.5502L103.2 36.5502L102.5 35.0502L108.9 29.7502L109.6 31.3502L105.5 34.5502L110.6 33.6502L111.3 35.1502L107.1 38.3502L112.4 37.5502Z" fill="white"/>
<path d="M111.8 48.8502L112.2 48.0502L113.2 48.5502L113.4 47.4502L114.2 47.6502L114 48.7502L115.1 48.5502L115.2 49.3502L114.1 49.5502L114.7 50.6502L114 51.0502L113.4 49.9502L112.6 50.8502L112 50.2502L112.8 49.3502L111.8 48.8502Z" fill="white"/>
<path d="M110.7 62.3504C108.5 62.2504 107.7 61.2504 107.9 58.6504L109.3 58.7504C109.3 58.9504 109.3 58.9504 109.3 59.0504C109.3 59.5504 109.4 59.9504 109.5 60.1504C109.8 60.4504 110.1 60.6504 111.1 60.6504L114.5 60.8504L114.6 58.9504L116 59.0504L115.8 62.5504L110.7 62.3504Z" fill="white"/>
<path d="M113 72.7504C112.1 73.2504 111.1 73.4504 110 73.1504C107.8 72.6504 106.3 70.5504 106.8 68.3504C107.3 66.0504 109.4 64.6504 111.7 65.0504C114 65.5504 115.4 67.6504 115 70.0504C114.7 71.1504 114 72.1504 113 72.7504ZM111.4 66.7504C109.9 66.4504 108.6 67.2504 108.3 68.6504C108 70.0504 108.9 71.2504 110.3 71.5504C111.8 71.8504 113.1 71.0504 113.4 69.7504C113.7 68.4504 112.9 67.0504 111.4 66.7504Z" fill="white"/>
<path d="M104.7 75.9502L105.3 74.4502L112.8 77.1502L112.2 78.6502L104.7 75.9502Z" fill="white"/>
<path d="M103.1 79.8503L103.9 78.3503L111 82.0503L110.2 83.4503L104.2 84.0503L108.6 86.3503L107.8 87.8503L100.7 84.1503L101.4 82.7503L107.4 82.1503L103.1 79.8503Z" fill="white"/>
<path d="M95.5 91.2503L96.6 90.0503L102.4 95.5503L101.3 96.7503L95.4 95.7503L99 99.1503L97.9 100.35L92 94.8503L93.1 93.6503L99.1 94.6503L95.5 91.2503Z" fill="white"/>
<path d="M88.5999 106.05C87.5999 105.85 86.7999 105.25 86.0999 104.35C84.7999 102.45 85.1999 99.9502 86.9999 98.6502C88.8999 97.2502 91.3999 97.6502 92.7999 99.5502C94.1999 101.45 93.7999 104.05 91.7999 105.45C90.8999 106.15 89.6999 106.35 88.5999 106.05ZM91.3999 100.55C90.4999 99.3502 88.9999 99.0502 87.8999 99.8502C86.7999 100.65 86.5999 102.25 87.3999 103.35C88.2999 104.65 89.7999 104.95 90.9999 104.15C92.0999 103.35 92.2999 101.75 91.3999 100.55Z" fill="white"/>
<path d="M78.1999 112.55L76.5999 113.25L75.3999 105.05L76.8999 104.35L80.1999 108.65L79.1999 103.35L80.6999 102.65L85.8999 109.15L84.2999 109.85L81.0999 105.75L81.8999 110.85L80.3999 111.55L77.1999 107.35L78.1999 112.55Z" fill="white"/>
<path d="M66.9 111.95L67.7 112.35L67.2 113.35L68.3 113.55L68.1 114.35L67 114.15L67.2 115.25L66.4 115.35L66.2 114.25L65.1 114.85L64.7 114.05L65.8 113.45L64.9 112.65L65.5 112.05L66.4 112.85L66.9 111.95Z" fill="white"/>
<path d="M53.4 110.75C53.5 108.55 54.5999 107.75 57.0999 107.95L57 109.35C56.8 109.35 56.8 109.35 56.7 109.35C56.2 109.35 55.7999 109.45 55.5999 109.55C55.1999 109.85 55.0999 110.15 55.0999 111.15L54.9 114.55L56.7999 114.65L56.7 115.95L53.2 115.75L53.4 110.75Z" fill="white"/>
<path d="M43 112.95C42.5 112.05 42.4 111.05 42.6 109.95C43.1 107.75 45.2 106.35 47.5 106.75C49.8 107.25 51.2 109.35 50.7 111.65C50.2 113.95 48 115.35 45.7 114.85C44.6 114.65 43.6 113.95 43 112.95ZM49 111.35C49.3 109.85 48.5 108.55 47.1 108.25C45.8 107.95 44.5 108.85 44.2 110.25C43.9 111.75 44.6 113.05 46 113.35C47.5 113.75 48.7 112.85 49 111.35Z" fill="white"/>
<path d="M39.9001 104.65L41.4001 105.25L38.6001 112.75L37.1001 112.15L39.9001 104.65Z" fill="white"/>
<path d="M35.9999 103.05L37.4999 103.85L33.6999 110.95L32.2999 110.15L31.6999 104.15L29.3999 108.55L27.8999 107.75L31.6999 100.65L33.0999 101.45L33.6999 107.45L35.9999 103.05Z" fill="white"/>
<path d="M24.5999 95.3502L25.7999 96.4502L20.2999 102.25L19.0999 101.15L20.0999 95.2502L16.5999 98.8502L15.3999 97.7502L20.8999 91.9502L22.0999 93.0502L20.9999 99.0502L24.5999 95.3502Z" fill="white"/>
<path d="M9.8001 88.3502C10.0001 87.3502 10.6001 86.5502 11.5001 85.8502C13.4001 84.5502 15.9001 84.9502 17.2001 86.8502C18.6001 88.7502 18.1001 91.3502 16.3001 92.6502C14.4001 94.0502 11.8001 93.5502 10.4001 91.6502C9.8001 90.6502 9.6001 89.4502 9.8001 88.3502ZM15.3001 91.2502C16.5001 90.3502 16.8001 88.8502 16.0001 87.7502C15.2001 86.6502 13.6001 86.3502 12.5001 87.2502C11.2001 88.1502 10.9001 89.6502 11.7001 90.8502C12.6001 91.9502 14.1001 92.1502 15.3001 91.2502Z" fill="white"/>
<path d="M3.39995 77.9502L2.69995 76.3503L10.9 75.2502L11.6 76.7502L7.29995 79.9502L12.6 79.0502L13.3 80.5502L6.79995 85.7502L6.09995 84.1502L10.2 80.9502L4.99995 81.7502L4.39995 80.2502L8.59995 77.0502L3.39995 77.9502Z" fill="white"/>
<path d="M4.1001 66.6503L3.7001 67.4503L2.7001 66.8503L2.5001 68.0503L1.7001 67.8503L1.9001 66.7503L0.800098 66.9503L0.600098 66.0503L1.7001 65.8503L1.1001 64.7503L1.9001 64.3503L2.5001 65.4503L3.3001 64.5503L3.9001 65.1503L3.1001 66.0503L4.1001 66.6503Z" fill="white"/>
<path d="M5.4 53.1503C7.6 53.2503 8.4 54.3503 8.1 56.8503L6.7 56.7503C6.7 56.5503 6.7 56.5503 6.7 56.4503C6.7 55.9503 6.6 55.5503 6.5 55.3503C6.2 54.9503 5.9 54.8503 4.9 54.8503L1.5 54.6503L1.4 56.5503L0 56.3503L0.2 52.8503L5.4 53.1503Z" fill="white"/>
<path d="M3.19997 42.7502C4.09997 42.2502 5.09997 42.1502 6.19997 42.3502C8.39997 42.8502 9.79997 45.0502 9.29997 47.2502C8.79997 49.5502 6.59997 50.9502 4.39997 50.4502C2.09997 49.9502 0.699966 47.7502 1.19997 45.4502C1.49997 44.3502 2.19997 43.3502 3.19997 42.7502ZM4.79997 48.8502C6.29997 49.1502 7.59997 48.3502 7.89997 47.0502C8.19997 45.7502 7.29997 44.4502 5.89997 44.0502C4.39997 43.7502 3.09997 44.4502 2.69997 45.8502C2.39997 47.2502 3.29997 48.4502 4.79997 48.8502Z" fill="white"/>
<path d="M11.4999 39.6503L10.8999 41.1503L3.3999 38.3503L3.9999 36.8503L11.4999 39.6503Z" fill="white"/>
<path d="M13.1999 35.7504L12.3999 37.1504L5.3999 33.3504L6.1999 31.9504L12.1999 31.3504L7.7999 29.0504L8.5999 27.6504L15.5999 31.4504L14.7999 32.8504L8.6999 33.3504L13.1999 35.7504Z" fill="white"/>
<path d="M21.0001 24.4502L19.9001 25.6502L14.1001 20.0502L15.2001 18.8502L21.1001 19.9502L17.5001 16.4502L18.6001 15.2502L24.4001 20.8502L23.3001 22.0502L17.3001 20.9502L21.0001 24.4502Z" fill="white"/>
<path d="M28.1 9.75033C29.1 9.95033 29.9 10.5503 30.6 11.5503C31.9 13.4503 31.5 15.9503 29.6 17.2503C27.7 18.5503 25.1 18.1503 23.8 16.2503C22.4 14.3503 22.9 11.7503 24.8 10.4503C25.8 9.65033 26.9 9.45033 28.1 9.75033ZM25.1 15.2503C26 16.4503 27.5 16.7503 28.6 15.9503C29.7 15.1503 30 13.6503 29.1 12.4503C28.2 11.1503 26.7 10.8503 25.6 11.6503C24.5 12.4503 24.2 13.9503 25.1 15.2503Z" fill="white"/>
<path d="M38.5 3.35039L40.1 2.65039L41.2001 10.8504L39.7001 11.4504L36.5 7.15039L37.4001 12.4504L35.9001 13.0504L30.8 6.55039L32.4001 5.85039L35.6 9.95039L34.8 4.75039L36.3 4.15039L39.5 8.35039L38.5 3.35039Z" fill="white"/>
<path d="M49.8 4.15024L49 3.75024L49.6 2.75024L48.5 2.55024L48.7 1.75024L49.8 1.95024L49.6 0.850244L50.4 0.750244L50.6 1.85024L51.7 1.25024L52 1.95024L50.9 2.55024L51.8 3.35024L51.2 3.95024L50.3 3.15024L49.8 4.15024Z" fill="white"/>
</svg>
