<svg width="40" height="40" viewBox="0 0 40 40" fill="none" xmlns="http://www.w3.org/2000/svg">
<path d="M4.15199 8.0997C3.51785 8.91 2.95416 9.7203 2.46094 10.6011C3.13031 10.4249 3.90538 10.3544 4.78614 10.3544C4.5043 9.54414 4.25769 8.76908 4.15199 8.0997Z" fill="#071446"/>
<path d="M0.0996094 22.5441C0.2053 23.5658 0.416683 24.5523 0.698525 25.5035C1.05083 24.9398 1.50882 24.3056 2.14297 23.6715C1.33267 23.3544 0.628065 22.9669 0.0996094 22.5441Z" fill="#071446"/>
<path d="M2.49414 29.872C2.98737 30.7528 3.55105 31.5631 4.14997 32.3734C4.25566 31.704 4.46704 30.9642 4.78411 30.1539C3.90335 30.1187 3.12829 30.0482 2.49414 29.872Z" fill="#071446"/>
<path d="M0.698525 14.9344C0.416683 15.8856 0.240531 16.872 0.0996094 17.8937C0.628065 17.4709 1.33267 17.1186 2.14297 16.7663C1.50882 16.1322 1.0156 15.5333 0.698525 14.9344Z" fill="#071446"/>
<path d="M23.0336 37.658C22.6813 38.4683 22.329 39.1729 21.9062 39.7013C22.9279 39.5956 23.9144 39.3842 24.8656 39.1024C24.3019 38.7853 23.703 38.2921 23.0336 37.658Z" fill="#071446"/>
<path d="M29.2363 37.3409C30.1171 36.8477 30.9274 36.284 31.7377 35.685C31.0683 35.5794 30.2932 35.368 29.5182 35.0509C29.4829 35.8964 29.4125 36.6715 29.2363 37.3409Z" fill="#071446"/>
<path d="M14.2969 39.1376C15.2481 39.4195 16.2345 39.5956 17.2562 39.7365C16.8335 39.1728 16.4812 38.5035 16.1289 37.6932C15.4947 38.2921 14.8958 38.7853 14.2969 39.1376Z" fill="#071446"/>
<path d="M7.46289 35.6498C8.23796 36.284 9.08349 36.8124 9.96425 37.3056C9.78809 36.6715 9.71763 35.8964 9.71763 34.9804C8.90734 35.3327 8.13227 35.5441 7.46289 35.6498Z" fill="#071446"/>
<path d="M9.9994 3.1322C9.11864 3.62543 8.27311 4.18911 7.49805 4.82326C8.16742 4.92895 8.94249 5.14033 9.75279 5.49264C9.71756 4.57665 9.82325 3.76635 9.9994 3.1322Z" fill="#071446"/>
<path d="M37.0566 23.6715C37.6908 24.3056 38.184 24.9046 38.5011 25.5035C38.7829 24.5523 38.9591 23.5658 39.1 22.5441C38.5363 22.9669 37.8317 23.3544 37.0566 23.6715Z" fill="#071446"/>
<path d="M35.0131 32.3734C35.6473 31.5983 36.1757 30.7528 36.669 29.872C36.0348 30.0482 35.2597 30.1187 34.3438 30.1187C34.6961 30.929 34.9074 31.6688 35.0131 32.3734Z" fill="#071446"/>
<path d="M39.1 17.8937C38.9943 16.872 38.7829 15.8856 38.5011 14.9344C38.1488 15.498 37.6908 16.1322 37.0566 16.7663C37.8317 17.1186 38.5363 17.5062 39.1 17.8937Z" fill="#071446"/>
<path d="M17.2562 0.736542C16.2345 0.842233 15.2481 1.05361 14.2969 1.33546C14.8606 1.68776 15.4947 2.14576 16.1289 2.7799C16.4812 1.9696 16.8687 1.265 17.2562 0.736542Z" fill="#071446"/>
<path d="M24.8656 1.33546C23.9144 1.05361 22.9279 0.877463 21.9062 0.736542C22.329 1.265 22.6813 1.9696 23.0336 2.7799C23.703 2.14576 24.3019 1.65253 24.8656 1.33546Z" fill="#071446"/>
<path d="M36.7042 10.6363C36.211 9.75551 35.6473 8.90999 35.0131 8.13492C34.9074 8.80429 34.6961 9.57936 34.3438 10.3897C35.2597 10.3544 36.0348 10.4601 36.7042 10.6363Z" fill="#071446"/>
<path d="M31.7377 4.78803C30.9626 4.15388 30.1171 3.62543 29.2363 3.1322C29.4125 3.76635 29.4829 4.54142 29.4829 5.45741C30.2932 5.1051 31.0331 4.89372 31.7377 4.78803Z" fill="#071446"/>
<path d="M10.8439 23.7772C10.8087 23.8124 10.8087 23.8476 10.7734 23.8829C10.8087 23.8829 10.8439 23.8829 10.8791 23.8829C10.8791 23.8476 10.8439 23.8124 10.8439 23.7772Z" fill="#071446"/>
<path d="M15.918 28.9561C15.918 28.9913 15.918 29.0265 15.918 29.0617C15.9532 29.0265 15.9884 29.0265 16.0237 28.9913C15.9884 28.9561 15.9532 28.9561 15.918 28.9561Z" fill="#071446"/>
<path d="M19.5821 29.6959H19.5469C19.5469 29.7311 19.5821 29.7664 19.5821 29.8016C19.5821 29.7664 19.6173 29.7311 19.6173 29.6959C19.6173 29.6959 19.6173 29.6959 19.5821 29.6959Z" fill="#071446"/>
<path d="M14.0517 28.5333C13.488 28.7094 12.8891 28.8504 12.3254 28.9913C12.0788 30.013 11.9026 30.9994 11.7617 31.9506C12.5368 31.4926 13.3823 30.929 14.2631 30.2948C14.1926 29.7311 14.1222 29.1322 14.0517 28.5333Z" fill="#071446"/>
<path d="M23.1406 28.9913C23.1759 29.0265 23.2111 29.0265 23.2463 29.0617C23.2463 29.0265 23.2463 28.9913 23.2463 28.9561C23.2111 28.9561 23.1759 28.9561 23.1406 28.9913Z" fill="#071446"/>
<path d="M30.4691 16.872C30.1168 17.33 29.7645 17.8233 29.377 18.2813C29.9054 18.5631 30.4339 18.8802 30.9271 19.162C31.8078 18.5983 32.6534 18.0346 33.3932 17.471C32.5125 17.2596 31.5612 17.0482 30.4691 16.872Z" fill="#071446"/>
<path d="M27.6507 6.30294C27.7916 3.73113 27.2632 2.74468 26.9109 2.56853C26.8757 2.53329 26.8052 2.53329 26.7347 2.53329C26.2415 2.53329 25.2551 2.99129 23.7754 4.68235C24.0925 5.73926 24.3743 6.90186 24.6209 8.17015C25.6426 7.46555 26.6643 6.8314 27.6507 6.30294Z" fill="#071446"/>
<path d="M35.1187 16.097C37.0563 14.3707 37.3734 13.3138 37.2325 12.9263C37.0211 12.4683 36.0699 12.1512 34.3788 12.1512C34.097 12.1512 33.8151 12.1512 33.4981 12.1864C32.9696 13.1729 32.3355 14.1945 31.6309 15.2515C32.8992 15.4981 34.0618 15.7799 35.1187 16.097Z" fill="#071446"/>
<path d="M28.3555 16.6607C28.3908 16.6254 28.3908 16.5902 28.426 16.555C28.3908 16.555 28.3555 16.555 28.3203 16.555C28.3203 16.5902 28.3203 16.6254 28.3555 16.6607Z" fill="#071446"/>
<path d="M30.9271 21.2758C30.4339 21.5577 29.9054 21.8748 29.377 22.1566C29.7645 22.6146 30.1168 23.1078 30.4691 23.5658C31.5612 23.3897 32.5125 23.1783 33.3932 22.9669C32.6534 22.4032 31.8078 21.8395 30.9271 21.2758Z" fill="#071446"/>
<path d="M28.3545 27.4764C29.3762 27.723 30.3626 27.8992 31.3138 28.0401C30.8558 27.265 30.2921 26.4195 29.658 25.5387C29.0943 25.6092 28.4954 25.7149 27.8965 25.7853C28.0726 26.349 28.2136 26.9127 28.3545 27.4764Z" fill="#071446"/>
<path d="M28.3203 23.9181C28.3555 23.9181 28.3908 23.9181 28.426 23.9181C28.3908 23.8829 28.3908 23.8477 28.3555 23.8124C28.3203 23.8124 28.3203 23.8477 28.3203 23.9181Z" fill="#071446"/>
<path d="M26.8381 28.9913C26.2744 28.8504 25.7108 28.7094 25.1118 28.5333C25.0414 29.1322 24.9709 29.7311 24.8652 30.2948C25.746 30.929 26.5915 31.4926 27.3666 31.9506C27.2609 30.9994 27.0847 30.013 26.8381 28.9913Z" fill="#071446"/>
<path d="M10.1408 20.2189V20.1837C10.1056 20.1837 10.0704 20.2189 10.0352 20.2189C10.0704 20.2189 10.1056 20.2542 10.1408 20.2542C10.1408 20.2542 10.1408 20.2542 10.1408 20.2189Z" fill="#071446"/>
<path d="M28.3545 12.9615C28.2136 13.5252 28.0726 14.0888 27.8965 14.6878C28.4954 14.7582 29.0943 14.8287 29.658 14.9344C30.2921 14.0536 30.8558 13.2081 31.3138 12.433C30.3978 12.5387 29.4114 12.7149 28.3545 12.9615Z" fill="#071446"/>
<path d="M8.73076 23.601C9.08306 23.143 9.43537 22.6498 9.8229 22.1918C9.29445 21.91 8.76599 21.5929 8.27277 21.3111C7.39201 21.8748 6.54648 22.4384 5.80664 23.0021C6.65217 23.2135 7.63862 23.3897 8.73076 23.601Z" fill="#071446"/>
<path d="M12.3253 11.4818C12.889 11.6227 13.4527 11.7636 14.0516 11.9398C14.1221 11.3409 14.1925 10.7419 14.2982 10.1783C13.4175 9.54411 12.5719 8.98043 11.7969 8.52243C11.9026 9.40319 12.0787 10.3896 12.3253 11.4818Z" fill="#071446"/>
<path d="M10.8791 16.555C10.8439 16.555 10.8087 16.555 10.7734 16.555C10.8087 16.5902 10.8087 16.6254 10.8439 16.6607C10.8439 16.6254 10.8791 16.5902 10.8791 16.555Z" fill="#071446"/>
<path d="M8.27277 19.162C8.76599 18.8802 9.29445 18.5631 9.8229 18.2813C9.43537 17.8233 9.08306 17.33 8.73076 16.872C7.63862 17.0482 6.6874 17.2596 5.80664 17.471C6.54648 18.0346 7.35678 18.5983 8.27277 19.162Z" fill="#071446"/>
<path d="M16.0237 11.4818C15.9884 11.4466 15.9532 11.4113 15.918 11.4113C15.918 11.4466 15.918 11.4818 15.918 11.5523C15.9532 11.517 15.9884 11.4818 16.0237 11.4818Z" fill="#071446"/>
<path d="M11.3041 14.6877C11.1279 14.0888 10.987 13.5251 10.8461 12.9615C9.78916 12.7148 8.80271 12.5387 7.88672 12.3978C8.34471 13.1728 8.9084 14.0184 9.54255 14.8991C10.1062 14.8287 10.7051 14.7582 11.3041 14.6877Z" fill="#071446"/>
<path d="M17.6436 10.4249C17.9254 9.89644 18.2425 9.36798 18.5243 8.87476C17.9607 7.994 17.397 7.14847 16.8333 6.40863C16.6219 7.28939 16.4105 8.24061 16.2344 9.33275C16.6924 9.72028 17.1856 10.0726 17.6436 10.4249Z" fill="#071446"/>
<path d="M25.1489 11.9398C25.7126 11.7636 26.3115 11.6227 26.8752 11.4818C27.1218 10.4601 27.2979 9.47365 27.4389 8.52243C26.6638 8.98043 25.8183 9.54411 24.9375 10.1783C25.008 10.7419 25.0784 11.3409 25.1489 11.9398Z" fill="#071446"/>
<path d="M23.2815 11.517C23.2815 11.4818 23.2815 11.4466 23.2815 11.4113C23.2462 11.4466 23.211 11.4466 23.1758 11.4818C23.1758 11.4818 23.211 11.517 23.2815 11.517Z" fill="#071446"/>
<path d="M20.6387 8.90997C20.9205 9.4032 21.2376 9.93165 21.5194 10.4601C21.9774 10.0726 22.4706 9.72027 22.9286 9.36797C22.7525 8.27583 22.5411 7.32461 22.3297 6.44385C21.766 7.18369 21.2024 7.99398 20.6387 8.90997Z" fill="#071446"/>
<path d="M19.5806 1.12408C18.9817 1.12408 18.2066 2.18099 17.4668 4.25959C17.7134 4.57666 17.96 4.89373 18.2066 5.21081C18.6646 5.80972 19.1226 6.4791 19.5806 7.1837C20.0386 6.4791 20.4966 5.80972 20.9546 5.21081C21.2012 4.8585 21.4478 4.54143 21.6944 4.25959C20.9546 2.21623 20.1795 1.12408 19.5806 1.12408Z" fill="#071446"/>
<path d="M11.3041 25.7853C10.7051 25.7149 10.1062 25.6444 9.54255 25.5387C8.9084 26.4195 8.34471 27.265 7.88672 28.0401C8.80271 27.8992 9.78916 27.723 10.8461 27.4764C10.987 26.9127 11.1279 26.349 11.3041 25.7853Z" fill="#071446"/>
<path d="M9.8229 7.46553C8.48415 6.83139 7.46247 6.51431 6.79309 6.51431C6.47602 6.51431 6.2294 6.58477 6.08848 6.72569C5.66572 7.14846 5.8771 8.45198 6.82832 10.4601C7.92046 10.5658 9.11829 10.742 10.3866 11.0238C10.1047 9.7555 9.92859 8.55767 9.8229 7.46553Z" fill="#071446"/>
<path d="M29.3762 7.46553C29.341 7.85306 29.3057 8.24059 29.2353 8.66336C29.1296 9.4032 28.9887 10.2135 28.8125 11.0238C30.0808 10.7772 31.2786 10.5658 32.3708 10.4601C33.322 8.45198 33.5334 7.14845 33.1106 6.72569C32.6878 6.30292 31.3491 6.51431 29.3762 7.46553Z" fill="#071446"/>
<path d="M11.5487 34.1349C11.4078 36.742 11.9363 37.7284 12.2886 37.8693C12.6409 38.0103 13.6978 37.6932 15.4593 35.7555C15.1422 34.6986 14.8604 33.536 14.6138 32.2677C13.5569 32.9723 12.5 33.6065 11.5487 34.1349Z" fill="#071446"/>
<path d="M34.5901 18.8802C33.9912 19.3382 33.3218 19.7962 32.6172 20.2542C33.3218 20.7122 33.9912 21.1702 34.5901 21.6282C34.9424 21.8748 35.2595 22.1214 35.5413 22.368C37.6199 21.6282 38.6768 20.8531 38.6768 20.2542C38.6768 19.6553 37.6199 18.8802 35.5413 18.1404C35.2242 18.3517 34.9072 18.6336 34.5901 18.8802Z" fill="#071446"/>
<path d="M19.6525 10.7772C19.6525 10.742 19.6173 10.7067 19.6173 10.6715C19.6173 10.7067 19.582 10.742 19.582 10.7772H19.6173C19.6173 10.7772 19.6173 10.7772 19.6525 10.7772Z" fill="#071446"/>
<path d="M19.5806 33.2542C19.1226 33.9588 18.6646 34.6281 18.2066 35.227C17.96 35.5794 17.7134 35.8964 17.4668 36.1783C18.2066 38.2569 18.9817 39.3138 19.5806 39.3138C20.1795 39.3138 20.9546 38.2569 21.6944 36.1783C21.4478 35.8612 21.2012 35.5441 20.9546 35.227C20.4966 34.6281 20.0386 33.9588 19.5806 33.2542Z" fill="#071446"/>
<path d="M26.2402 26.9479C26.2755 26.9479 26.3107 26.9832 26.3459 26.9832C26.3459 26.9479 26.3107 26.9127 26.3107 26.8775C26.2755 26.9127 26.2755 26.9127 26.2402 26.9479Z" fill="#071446"/>
<path d="M12.9593 13.4899C12.924 13.4899 12.8888 13.4547 12.8184 13.4547C12.8184 13.4899 12.8536 13.5251 12.8536 13.5956C12.8888 13.5604 12.924 13.5251 12.9593 13.4899Z" fill="#071446"/>
<path d="M33.4981 28.2867C36.1051 28.4276 37.0563 27.8991 37.2325 27.5468C37.3734 27.1945 37.0563 26.1376 35.1187 24.3761C34.0618 24.6932 32.8992 24.975 31.6309 25.2216C32.3707 26.2785 32.9696 27.3002 33.4981 28.2867Z" fill="#071446"/>
<path d="M12.8887 26.8775C12.8887 26.9127 12.8535 26.9479 12.8535 26.9832C12.8887 26.9832 12.924 26.9479 12.9592 26.9479C12.924 26.9127 12.8887 26.9127 12.8887 26.8775Z" fill="#071446"/>
<path d="M23.7402 35.7555C25.4665 37.6932 26.5234 38.0103 26.911 37.8693C27.2633 37.7284 27.7917 36.742 27.6508 34.1349C26.6643 33.6065 25.6427 32.9723 24.5858 32.2677C24.3392 33.536 24.0573 34.6986 23.7402 35.7555Z" fill="#071446"/>
<path d="M26.3107 13.5956C26.3107 13.5604 26.3459 13.5252 26.3459 13.4899C26.3107 13.4899 26.2755 13.5252 26.2402 13.5252C26.2402 13.5252 26.2755 13.5604 26.3107 13.5956Z" fill="#071446"/>
<path d="M9.8229 33.0075C9.85813 32.62 9.89336 32.2325 9.96382 31.8097C10.0695 31.0699 10.2104 30.2596 10.3866 29.4493C9.57629 29.6254 8.80122 29.7664 8.02615 29.872C7.60339 29.9425 7.21585 29.9777 6.82832 30.013C5.8771 31.9859 5.66572 33.3246 6.08848 33.7122C6.51125 34.1349 7.81477 33.9235 9.8229 33.0075Z" fill="#071446"/>
<path d="M4.04535 24.3761C2.10769 26.1024 1.79061 27.1593 1.93153 27.5468C2.07246 27.9344 3.05891 28.4276 5.66595 28.2867C6.19441 27.3002 6.82855 26.2785 7.53316 25.2216C6.3001 24.975 5.10227 24.6932 4.04535 24.3761Z" fill="#071446"/>
<path d="M4.61016 21.5929C5.20907 21.1349 5.87845 20.6769 6.58306 20.2189C5.87845 19.7609 5.20907 19.3029 4.61016 18.8449C4.25785 18.5983 3.94078 18.3517 3.65894 18.1051C1.58035 18.8449 0.523438 19.62 0.523438 20.2189C0.523438 20.8178 1.58035 21.5929 3.65894 22.3327C3.94078 22.0861 4.25785 21.8395 4.61016 21.5929Z" fill="#071446"/>
<path d="M28.8125 29.4493C28.9887 30.2596 29.1296 31.0346 29.2353 31.8097C29.3057 32.2325 29.341 32.62 29.3762 33.0076C31.3491 33.9588 32.6878 34.1702 33.0754 33.7474C33.4981 33.3246 33.2867 32.0211 32.3355 30.0482C31.948 30.013 31.5605 29.9777 31.1377 29.9073C30.3979 29.7664 29.6228 29.6254 28.8125 29.4493Z" fill="#071446"/>
<path d="M5.66595 12.1864C5.34888 12.1864 5.06704 12.1512 4.78519 12.1512C3.09414 12.1512 2.10769 12.4683 1.93153 12.9263C1.79061 13.2786 2.10769 14.3355 4.04535 16.097C5.10227 15.7799 6.26487 15.4981 7.53316 15.2515C6.82855 14.1945 6.19441 13.1376 5.66595 12.1864Z" fill="#071446"/>
<path d="M15.46 4.68235C13.9451 3.02652 12.9587 2.53329 12.5007 2.53329C12.4302 2.53329 12.3598 2.53329 12.3245 2.56853C11.7961 2.77991 11.479 4.08343 11.5847 6.30294C12.5712 6.8314 13.5928 7.46555 14.6497 8.17015C14.8611 6.93709 15.143 5.73926 15.46 4.68235Z" fill="#071446"/>
<path d="M17.6436 30.013C17.1856 30.4005 16.6924 30.7528 16.2344 31.1051C16.4105 32.1972 16.6219 33.1837 16.8333 34.0292C17.397 33.2894 17.9607 32.4439 18.5243 31.5631C18.2425 31.0699 17.9254 30.5414 17.6436 30.013Z" fill="#071446"/>
<path d="M21.5546 30.013C21.2727 30.5414 20.9557 31.0699 20.6738 31.5631C21.2375 32.4439 21.8012 33.2894 22.3649 34.0292C22.5763 33.1485 22.7876 32.162 22.9638 31.1051C22.4706 30.7528 22.0126 30.4005 21.5546 30.013Z" fill="#071446"/>
<path d="M29.0586 20.1837V20.2189V20.2542C29.0938 20.2542 29.1291 20.2189 29.1643 20.2189C29.0938 20.2189 29.0586 20.1837 29.0586 20.1837Z" fill="#071446"/>
</svg>
