<svg width="40" height="40" viewBox="0 0 40 40" fill="none" xmlns="http://www.w3.org/2000/svg">
<g clip-path="url(#clip0)">
<path d="M4.15175 8.09961C3.5176 8.90991 2.95392 9.72021 2.46069 10.601C3.13007 10.4248 3.90514 10.3544 4.7859 10.3544C4.50405 9.54405 4.25744 8.76899 4.15175 8.09961Z" fill="white"/>
<path d="M0.0996094 22.5439C0.2053 23.5656 0.416683 24.5521 0.698525 25.5033C1.05083 24.9396 1.50882 24.3055 2.14297 23.6713C1.33267 23.3542 0.628065 22.9667 0.0996094 22.5439Z" fill="white"/>
<path d="M2.49463 29.8716C2.98785 30.7523 3.55154 31.5626 4.15045 32.3729C4.25615 31.7036 4.46753 30.9637 4.7846 30.1534C3.90384 30.1182 3.12878 30.0477 2.49463 29.8716Z" fill="white"/>
<path d="M0.698525 14.9341C0.416683 15.8853 0.240531 16.8718 0.0996094 17.8934C0.628065 17.4707 1.33267 17.1184 2.14297 16.7661C1.50882 16.1319 1.0156 15.533 0.698525 14.9341Z" fill="white"/>
<path d="M23.0342 37.6577C22.6819 38.468 22.3296 39.1726 21.9069 39.7011C22.9285 39.5954 23.915 39.384 24.8662 39.1022C24.3025 38.7851 23.7036 38.2919 23.0342 37.6577Z" fill="white"/>
<path d="M29.2357 37.3408C30.1165 36.8475 30.9268 36.2838 31.7371 35.6849C31.0677 35.5792 30.2926 35.3679 29.5176 35.0508C29.4823 35.8963 29.4119 36.6714 29.2357 37.3408Z" fill="white"/>
<path d="M14.2969 39.1373C15.2481 39.4192 16.2345 39.5953 17.2562 39.7362C16.8335 39.1725 16.4812 38.5032 16.1289 37.6929C15.4947 38.2918 14.8958 38.785 14.2969 39.1373Z" fill="white"/>
<path d="M7.4624 35.6498C8.23747 36.284 9.083 36.8125 9.96376 37.3057C9.78761 36.6715 9.71715 35.8965 9.71715 34.9805C8.90685 35.3328 8.13178 35.5442 7.4624 35.6498Z" fill="white"/>
<path d="M9.9994 3.13184C9.11864 3.62506 8.27311 4.18875 7.49805 4.82289C8.16742 4.92858 8.94249 5.13997 9.75279 5.49227C9.71756 4.57628 9.82325 3.76598 9.9994 3.13184Z" fill="white"/>
<path d="M37.0559 23.6713C37.6901 24.3055 38.1833 24.9044 38.5004 25.5033C38.7822 24.5521 38.9584 23.5656 39.0993 22.5439C38.5356 22.9667 37.831 23.3542 37.0559 23.6713Z" fill="white"/>
<path d="M35.0135 32.3729C35.6476 31.5979 36.1761 30.7523 36.6693 29.8716C36.0352 30.0477 35.2601 30.1182 34.3441 30.1182C34.6964 30.9285 34.9078 31.6683 35.0135 32.3729Z" fill="white"/>
<path d="M39.0993 17.8934C38.9936 16.8718 38.7822 15.8853 38.5004 14.9341C38.1481 15.4978 37.6901 16.1319 37.0559 16.7661C37.831 17.1184 38.5356 17.5059 39.0993 17.8934Z" fill="white"/>
<path d="M17.2562 0.736328C16.2345 0.842019 15.2481 1.0534 14.2969 1.33524C14.8606 1.68755 15.4947 2.14554 16.1289 2.77969C16.4812 1.96939 16.8687 1.26478 17.2562 0.736328Z" fill="white"/>
<path d="M24.8662 1.33524C23.915 1.0534 22.9285 0.87725 21.9069 0.736328C22.3296 1.26478 22.6819 1.96939 23.0342 2.77969C23.7036 2.14554 24.3025 1.65232 24.8662 1.33524Z" fill="white"/>
<path d="M36.7046 10.6361C36.2113 9.75536 35.6476 8.90983 35.0135 8.13477C34.9078 8.80414 34.6964 9.57921 34.3441 10.3895C35.2601 10.3543 36.0352 10.46 36.7046 10.6361Z" fill="white"/>
<path d="M31.7371 4.78766C30.962 4.15352 30.1165 3.62506 29.2357 3.13184C29.4119 3.76598 29.4823 4.54105 29.4823 5.45704C30.2926 5.10474 31.0325 4.89335 31.7371 4.78766Z" fill="white"/>
<path d="M10.8444 23.7769C10.8092 23.8121 10.8092 23.8473 10.7739 23.8825C10.8092 23.8825 10.8444 23.8825 10.8796 23.8825C10.8796 23.8473 10.8444 23.8121 10.8444 23.7769Z" fill="white"/>
<path d="M15.9177 28.9561C15.9177 28.9913 15.9177 29.0265 15.9177 29.0617C15.953 29.0265 15.9882 29.0265 16.0234 28.9913C15.9882 28.9561 15.953 28.9561 15.9177 28.9561Z" fill="white"/>
<path d="M19.5826 29.6958H19.5474C19.5474 29.731 19.5826 29.7663 19.5826 29.8015C19.5826 29.7663 19.6178 29.731 19.6178 29.6958C19.6178 29.6958 19.6178 29.6958 19.5826 29.6958Z" fill="white"/>
<path d="M14.051 28.5332C13.4873 28.7094 12.8884 28.8503 12.3247 28.9912C12.0781 30.0129 11.9019 30.9993 11.761 31.9505C12.5361 31.4926 13.3816 30.9289 14.2623 30.2947C14.1919 29.731 14.1214 29.1321 14.051 28.5332Z" fill="white"/>
<path d="M23.14 28.9913C23.1752 29.0265 23.2105 29.0265 23.2457 29.0617C23.2457 29.0265 23.2457 28.9913 23.2457 28.9561C23.2105 28.9561 23.1752 28.9561 23.14 28.9913Z" fill="white"/>
<path d="M30.4685 16.8721C30.1162 17.3301 29.7639 17.8233 29.3763 18.2813C29.9048 18.5631 30.4333 18.8802 30.9265 19.162C31.8072 18.5984 32.6528 18.0347 33.3926 17.471C32.5118 17.2596 31.5606 17.0482 30.4685 16.8721Z" fill="white"/>
<path d="M27.6504 6.30285C27.7913 3.73104 27.2628 2.74459 26.9105 2.56843C26.8753 2.5332 26.8048 2.5332 26.7344 2.5332C26.2411 2.5332 25.2547 2.9912 23.775 4.68226C24.0921 5.73917 24.3739 6.90177 24.6206 8.17006C25.6422 7.46545 26.6639 6.83131 27.6504 6.30285Z" fill="white"/>
<path d="M35.1185 16.0967C37.0562 14.3704 37.3733 13.3135 37.2324 12.9259C37.021 12.468 36.0698 12.1509 34.3787 12.1509C34.0969 12.1509 33.815 12.1509 33.4979 12.1861C32.9695 13.1726 32.3353 14.1942 31.6307 15.2511C32.899 15.4978 34.0616 15.7796 35.1185 16.0967Z" fill="white"/>
<path d="M28.3547 16.6604C28.3899 16.6251 28.3899 16.5899 28.4251 16.5547C28.3899 16.5547 28.3547 16.5547 28.3195 16.5547C28.3195 16.5899 28.3195 16.6251 28.3547 16.6604Z" fill="white"/>
<path d="M30.9265 21.2754C30.4333 21.5572 29.9048 21.8743 29.3763 22.1561C29.7639 22.6141 30.1162 23.1074 30.4685 23.5654C31.5606 23.3892 32.5118 23.1778 33.3926 22.9664C32.6528 22.4028 31.8072 21.8391 30.9265 21.2754Z" fill="white"/>
<path d="M28.3541 27.4762C29.3758 27.7229 30.3622 27.899 31.3135 28.0399C30.8555 27.2649 30.2918 26.4193 29.6576 25.5386C29.094 25.609 28.495 25.7147 27.8961 25.7852C28.0723 26.3489 28.2132 26.9126 28.3541 27.4762Z" fill="white"/>
<path d="M28.3195 23.9177C28.3547 23.9177 28.3899 23.9177 28.4251 23.9177C28.3899 23.8825 28.3899 23.8472 28.3547 23.812C28.3195 23.812 28.3195 23.8472 28.3195 23.9177Z" fill="white"/>
<path d="M26.8389 28.9912C26.2752 28.8503 25.7115 28.7094 25.1126 28.5332C25.0421 29.1321 24.9717 29.731 24.866 30.2947C25.7467 30.9289 26.5923 31.4926 27.3673 31.9505C27.2616 30.9993 27.0855 30.0129 26.8389 28.9912Z" fill="white"/>
<path d="M10.1408 20.2188V20.1836C10.1056 20.1836 10.0704 20.2188 10.0352 20.2188C10.0704 20.2188 10.1056 20.2541 10.1408 20.2541C10.1408 20.2541 10.1408 20.2541 10.1408 20.2188Z" fill="white"/>
<path d="M28.3541 12.9611C28.2132 13.5248 28.0723 14.0884 27.8961 14.6874C28.495 14.7578 29.094 14.8283 29.6576 14.934C30.2918 14.0532 30.8555 13.2077 31.3135 12.4326C30.3975 12.5383 29.411 12.7145 28.3541 12.9611Z" fill="white"/>
<path d="M8.73174 23.601C9.08404 23.143 9.43634 22.6498 9.82388 22.1918C9.29542 21.91 8.76697 21.5929 8.27374 21.311C7.39298 21.8747 6.54745 22.4384 5.80762 23.0021C6.65315 23.2135 7.6396 23.3896 8.73174 23.601Z" fill="white"/>
<path d="M12.3251 11.4818C12.8888 11.6227 13.4525 11.7637 14.0514 11.9398C14.1218 11.3409 14.1923 10.742 14.298 10.1783C13.4172 9.54414 12.5717 8.98046 11.7966 8.52246C11.9023 9.40322 12.0785 10.3897 12.3251 11.4818Z" fill="white"/>
<path d="M10.8796 16.5547C10.8444 16.5547 10.8092 16.5547 10.7739 16.5547C10.8092 16.5899 10.8092 16.6251 10.8444 16.6604C10.8444 16.6251 10.8796 16.5899 10.8796 16.5547Z" fill="white"/>
<path d="M8.27374 19.162C8.76697 18.8802 9.29542 18.5631 9.82388 18.2813C9.43634 17.8233 9.08404 17.3301 8.73174 16.8721C7.6396 17.0482 6.68838 17.2596 5.80762 17.471C6.54745 18.0347 7.35775 18.5984 8.27374 19.162Z" fill="white"/>
<path d="M16.0234 11.4816C15.9882 11.4464 15.953 11.4111 15.9177 11.4111C15.9177 11.4464 15.9177 11.4816 15.9177 11.5521C15.953 11.5168 15.9882 11.4816 16.0234 11.4816Z" fill="white"/>
<path d="M11.3031 14.6874C11.1269 14.0885 10.986 13.5248 10.8451 12.9611C9.78818 12.7145 8.80173 12.5384 7.88574 12.3975C8.34374 13.1725 8.90742 14.0181 9.54157 14.8988C10.1053 14.8284 10.7042 14.7579 11.3031 14.6874Z" fill="white"/>
<path d="M17.6438 10.4245C17.9257 9.89601 18.2427 9.36755 18.5246 8.87433C17.9609 7.99357 17.3972 7.14804 16.8335 6.4082C16.6222 7.28896 16.4108 8.24018 16.2346 9.33232C16.6926 9.71986 17.1858 10.0722 17.6438 10.4245Z" fill="white"/>
<path d="M25.1484 11.9398C25.7121 11.7637 26.311 11.6227 26.8747 11.4818C27.1213 10.4601 27.2974 9.47368 27.4384 8.52246C26.6633 8.98046 25.8178 9.54414 24.937 10.1783C25.0075 10.742 25.0779 11.3409 25.1484 11.9398Z" fill="white"/>
<path d="M23.2812 11.5168C23.2812 11.4816 23.2812 11.4464 23.2812 11.4111C23.246 11.4464 23.2108 11.4464 23.1755 11.4816C23.1755 11.4816 23.2108 11.5168 23.2812 11.5168Z" fill="white"/>
<path d="M20.6383 8.90997C20.9201 9.4032 21.2372 9.93165 21.5191 10.4601C21.9771 10.0726 22.4703 9.72027 22.9283 9.36797C22.7521 8.27583 22.5407 7.32461 22.3294 6.44385C21.7657 7.18369 21.202 7.99398 20.6383 8.90997Z" fill="white"/>
<path d="M19.5814 1.12402C18.9824 1.12402 18.2074 2.18093 17.4675 4.25952C17.7141 4.5766 17.9608 4.89367 18.2074 5.21074C18.6654 5.80966 19.1234 6.47904 19.5814 7.18364C20.0393 6.47904 20.4973 5.80966 20.9553 5.21074C21.2019 4.85844 21.4486 4.54137 21.6952 4.25952C20.9553 2.21616 20.1803 1.12402 19.5814 1.12402Z" fill="white"/>
<path d="M11.3031 25.7852C10.7042 25.7147 10.1053 25.6443 9.54157 25.5386C8.90742 26.4193 8.34374 27.2649 7.88574 28.0399C8.80173 27.899 9.78818 27.7229 10.8451 27.4762C10.986 26.9126 11.1269 26.3489 11.3031 25.7852Z" fill="white"/>
<path d="M9.82363 7.46538C8.48488 6.83123 7.4632 6.51416 6.79382 6.51416C6.47675 6.51416 6.23014 6.58462 6.08921 6.72554C5.66645 7.14831 5.87783 8.45183 6.82905 10.46C7.92119 10.5656 9.11902 10.7418 10.3873 11.0236C10.1055 9.75535 9.92932 8.55752 9.82363 7.46538Z" fill="white"/>
<path d="M29.3761 7.46553C29.3408 7.85306 29.3056 8.24059 29.2351 8.66336C29.1294 9.4032 28.9885 10.2135 28.8124 11.0238C30.0807 10.7772 31.2785 10.5658 32.3706 10.4601C33.3219 8.45198 33.5332 7.14845 33.1105 6.72569C32.6877 6.30292 31.349 6.51431 29.3761 7.46553Z" fill="white"/>
<path d="M11.5495 34.1348C11.4086 36.7418 11.937 37.7283 12.2893 37.8692C12.6416 38.0101 13.6985 37.6931 15.46 35.7554C15.143 34.6985 14.8611 33.5359 14.6145 32.2676C13.5576 32.9722 12.5007 33.6063 11.5495 34.1348Z" fill="white"/>
<path d="M34.5895 18.88C33.9906 19.338 33.3212 19.796 32.6166 20.254C33.3212 20.712 33.9906 21.1699 34.5895 21.6279C34.9418 21.8746 35.2589 22.1212 35.5407 22.3678C37.6193 21.6279 38.6762 20.8529 38.6762 20.254C38.6762 19.655 37.6193 18.88 35.5407 18.1401C35.2236 18.3515 34.9066 18.6334 34.5895 18.88Z" fill="white"/>
<path d="M19.6519 10.7771C19.6519 10.7418 19.6167 10.7066 19.6167 10.6714C19.6167 10.7066 19.5814 10.7418 19.5814 10.7771H19.6167C19.6167 10.7771 19.6167 10.7771 19.6519 10.7771Z" fill="white"/>
<path d="M19.5814 33.2539C19.1234 33.9585 18.6654 34.6279 18.2074 35.2268C17.9608 35.5791 17.7141 35.8962 17.4675 36.178C18.2074 38.2566 18.9824 39.3135 19.5814 39.3135C20.1803 39.3135 20.9553 38.2566 21.6952 36.178C21.4486 35.861 21.2019 35.5439 20.9553 35.2268C20.4973 34.6279 20.0393 33.9585 19.5814 33.2539Z" fill="white"/>
<path d="M26.2411 26.9479C26.2763 26.9479 26.3116 26.9831 26.3468 26.9831C26.3468 26.9479 26.3116 26.9127 26.3116 26.8774C26.2763 26.9127 26.2763 26.9127 26.2411 26.9479Z" fill="white"/>
<path d="M12.959 13.4898C12.9238 13.4898 12.8886 13.4546 12.8181 13.4546C12.8181 13.4898 12.8533 13.525 12.8533 13.5955C12.8886 13.5603 12.9238 13.5251 12.959 13.4898Z" fill="white"/>
<path d="M33.4979 28.2865C36.105 28.4275 37.0562 27.899 37.2324 27.5467C37.3733 27.1944 37.0562 26.1375 35.1185 24.376C34.0616 24.693 32.899 24.9749 31.6307 25.2215C32.3706 26.2784 32.9695 27.3001 33.4979 28.2865Z" fill="white"/>
<path d="M12.8887 26.8774C12.8887 26.9127 12.8535 26.9479 12.8535 26.9831C12.8887 26.9831 12.924 26.9479 12.9592 26.9479C12.924 26.9127 12.8887 26.9127 12.8887 26.8774Z" fill="white"/>
<path d="M23.7395 35.7554C25.4658 37.6931 26.5227 38.0101 26.9102 37.8692C27.2625 37.7283 27.791 36.7418 27.6501 34.1348C26.6636 33.6063 25.6419 32.9722 24.585 32.2676C24.3384 33.5359 24.0566 34.6985 23.7395 35.7554Z" fill="white"/>
<path d="M26.3116 13.5954C26.3116 13.5602 26.3468 13.525 26.3468 13.4897C26.3116 13.4897 26.2763 13.525 26.2411 13.525C26.2411 13.525 26.2763 13.5602 26.3116 13.5954Z" fill="white"/>
<path d="M9.82363 33.0075C9.85886 32.62 9.89409 32.2324 9.96455 31.8097C10.0702 31.0698 10.2112 30.2595 10.3873 29.4492C9.57702 29.6254 8.80195 29.7663 8.02688 29.872C7.60412 29.9424 7.21659 29.9777 6.82905 30.0129C5.87783 31.9858 5.66645 33.3246 6.08921 33.7121C6.51198 34.1349 7.8155 33.9235 9.82363 33.0075Z" fill="white"/>
<path d="M4.04535 24.376C2.10769 26.1023 1.79061 27.1592 1.93153 27.5467C2.07246 27.9342 3.05891 28.4275 5.66595 28.2865C6.19441 27.3001 6.82855 26.2784 7.53316 25.2215C6.3001 24.9749 5.10227 24.6931 4.04535 24.376Z" fill="white"/>
<path d="M4.60967 21.5928C5.20859 21.1348 5.87796 20.6768 6.58257 20.2188C5.87796 19.7608 5.20859 19.3028 4.60967 18.8448C4.25737 18.5982 3.94029 18.3516 3.65845 18.105C1.57986 18.8448 0.522949 19.6199 0.522949 20.2188C0.522949 20.8177 1.57986 21.5928 3.65845 22.3326C3.94029 22.086 4.25737 21.8394 4.60967 21.5928Z" fill="white"/>
<path d="M28.8124 29.4492C28.9885 30.2595 29.1294 31.0346 29.2351 31.8097C29.3056 32.2324 29.3408 32.62 29.3761 33.0075C31.349 33.9587 32.6877 34.1701 33.0752 33.7473C33.498 33.3246 33.2866 32.021 32.3354 30.0481C31.9479 30.0129 31.5603 29.9777 31.1376 29.9072C30.3977 29.7663 29.6227 29.6254 28.8124 29.4492Z" fill="white"/>
<path d="M5.66595 12.1861C5.34888 12.1861 5.06704 12.1509 4.78519 12.1509C3.09414 12.1509 2.10769 12.468 1.93153 12.9259C1.79061 13.2782 2.10769 14.3352 4.04535 16.0967C5.10227 15.7796 6.26487 15.4978 7.53316 15.2511C6.82855 14.1942 6.19441 13.1373 5.66595 12.1861Z" fill="white"/>
<path d="M15.4598 4.68226C13.9449 3.02643 12.9584 2.5332 12.5004 2.5332C12.43 2.5332 12.3595 2.5332 12.3243 2.56843C11.7958 2.77982 11.4788 4.08334 11.5845 6.30285C12.5709 6.83131 13.5926 7.46545 14.6495 8.17006C14.8609 6.937 15.1427 5.73917 15.4598 4.68226Z" fill="white"/>
<path d="M17.6438 30.0127C17.1858 30.4002 16.6926 30.7525 16.2346 31.1048C16.4108 32.197 16.6222 33.1834 16.8335 34.029C17.3972 33.2891 17.9609 32.4436 18.5246 31.5628C18.2427 31.0696 17.9257 30.5412 17.6438 30.0127Z" fill="white"/>
<path d="M21.5547 30.0127C21.2729 30.5412 20.9558 31.0696 20.674 31.5628C21.2376 32.4436 21.8013 33.2891 22.365 34.029C22.5764 33.1482 22.7878 32.1617 22.9639 31.1048C22.4707 30.7525 22.0127 30.4002 21.5547 30.0127Z" fill="white"/>
<path d="M29.0596 20.1836V20.2188V20.2541C29.0948 20.2541 29.13 20.2188 29.1653 20.2188C29.0948 20.2188 29.0596 20.1836 29.0596 20.1836Z" fill="white"/>
</g>
<defs>
<clipPath id="clip0">
<rect width="39" height="39" fill="white" transform="translate(0.0996094 0.736328)"/>
</clipPath>
</defs>
</svg>
