<svg width="108" height="29" viewBox="0 0 108 29" fill="none" xmlns="http://www.w3.org/2000/svg">
<g clip-path="url(#clip0)">
<path d="M8.89031 8.94392C7.66823 9.89252 6.58193 10.2991 5.08828 10.2991C3.59462 10.2991 2.37254 9.75701 1.42203 8.80841C0.743098 7.85981 0.199951 6.50467 0.199951 5.14953C0.199951 3.52336 0.878885 2.03271 1.96518 1.08411C2.7799 0.406542 3.86619 0 5.22406 0C6.03878 0 6.98929 0.135514 7.66823 0.542056C8.21137 0.813084 8.48295 0.948598 9.02609 1.49065L7.53244 3.11682C6.8535 2.43925 6.17457 2.16822 5.35985 2.16822C3.73041 2.16822 2.64411 3.38785 2.64411 5.01402C2.64411 6.91122 3.86619 8.13084 5.49564 8.13084C6.31036 8.13084 6.98929 7.85981 7.53244 7.18224L8.89031 8.94392Z" fill="white"/>
<path d="M17.3091 8.13083V10.028H11.606V0.135498H14.0502V8.13083H17.3091Z" fill="white"/>
<path d="M22.469 8.67287L22.0616 10.1635H19.4817L22.7406 0.270996H25.8637L29.1225 10.1635H26.4068L25.9995 8.67287H22.469ZM24.2342 2.98128L23.0121 6.77567H25.3205L24.2342 2.98128Z" fill="white"/>
<path d="M33.8751 10.1635H31.4309V0.135498H34.6898C36.0477 0.135498 36.9982 0.406526 37.6771 0.813068C38.356 1.35512 38.7634 2.30372 38.7634 3.38783C38.7634 4.87849 38.0845 5.9626 36.8624 6.36914L39.035 10.028H36.1834L34.0109 6.23363V10.1635H33.8751ZM34.6898 4.87849C35.6403 4.87849 36.3192 4.33643 36.3192 3.52335C36.3192 2.71026 35.7761 2.16821 34.8256 2.16821H33.8751V4.87849H34.6898Z" fill="white"/>
<path d="M44.4664 10.1635H42.0223V0.135498H44.4664V10.1635Z" fill="white"/>
<path d="M51.6631 10.1635H49.219V2.16821H46.9106V0.135498H53.9715V2.03269H51.6631V10.1635Z" fill="white"/>
<path d="M61.4398 10.1635H58.9956V5.69157L55.7368 0.135498H58.5883L60.2177 3.25232L61.8472 0.135498H64.6987L61.4398 5.69157V10.1635Z" fill="white"/>
<path d="M8.89029 27.6449C7.66821 28.5935 6.58191 29 5.08826 29C3.5946 29 2.37252 28.4579 1.42202 27.5093C0.607295 26.5607 0.0641479 25.2056 0.0641479 23.8505C0.0641479 22.2243 0.743082 20.7336 1.82938 19.785C2.6441 18.972 3.73039 18.7009 5.08826 18.7009C5.90298 18.7009 6.7177 18.8364 7.39664 19.243C7.93978 19.514 8.21136 19.6495 8.7545 20.1916L7.26085 21.8178C6.58191 21.1402 5.90298 20.8692 5.08826 20.8692C3.45882 20.8692 2.37252 22.0888 2.37252 23.7149C2.37252 25.4766 3.5946 26.6963 5.22405 26.6963C6.03877 26.6963 6.7177 26.4252 7.26085 25.8832L8.89029 27.6449Z" fill="white"/>
<path d="M21.5184 23.8505C21.5184 26.6963 19.2101 29 16.3586 29C13.3712 29 11.0629 26.6963 11.0629 23.8505C11.0629 22.3598 11.606 21.0047 12.6923 20.0561C13.6428 19.1075 15.0007 18.7009 16.3586 18.7009C19.2101 18.7009 21.5184 20.8692 21.5184 23.8505ZM13.3712 23.8505C13.3712 25.4766 14.5933 26.8318 16.2228 26.8318C17.7164 26.8318 19.0743 25.6121 19.0743 23.986C19.0743 22.2243 17.8522 21.0047 16.2228 21.0047C14.5933 20.8692 13.3712 22.2243 13.3712 23.8505Z" fill="white"/>
<path d="M34.554 23.8505C34.554 26.6963 32.2456 29 29.3941 29C26.4068 29 24.0984 26.6963 24.0984 23.8505C24.0984 22.3598 24.6415 21.0047 25.7278 20.0561C26.6783 19.1075 28.0362 18.7009 29.3941 18.7009C32.3814 18.7009 34.554 20.8692 34.554 23.8505ZM26.4068 23.8505C26.4068 25.4766 27.6288 26.8318 29.2583 26.8318C30.7519 26.8318 32.1098 25.6121 32.1098 23.986C32.1098 22.2243 30.8877 21.0047 29.2583 21.0047C27.6288 20.8692 26.4068 22.2243 26.4068 23.8505Z" fill="white"/>
<path d="M39.9855 28.8644H37.5413V18.9719H40.936C43.2444 18.9719 44.6022 20.1915 44.6022 22.2243C44.6022 24.257 43.2444 25.6121 41.0718 25.6121H39.9855V28.8644ZM40.6644 23.5794C41.6149 23.5794 42.2939 23.0373 42.2939 22.2243C42.2939 21.4112 41.7507 20.8691 40.936 20.8691H40.1213V23.5794H40.6644Z" fill="white"/>
<path d="M49.7621 22.9018H53.021V24.799H49.7621V26.8318H53.021V28.729H47.3179V18.8364H53.021V20.7336H49.7621V22.9018Z" fill="white"/>
<path d="M58.4525 28.8644H56.0083V18.9719H59.2672C60.6251 18.9719 61.5756 19.243 62.2545 19.6495C62.9334 20.1915 63.3408 21.1401 63.3408 22.2243C63.3408 23.7149 62.6619 24.799 61.4398 25.2056L63.6124 28.8644H60.7608L58.5883 25.0701V28.8644H58.4525ZM59.2672 23.5794C60.2177 23.5794 60.8966 23.0373 60.8966 22.2243C60.8966 21.4112 60.3535 20.8691 59.403 20.8691H58.4525V23.5794H59.2672Z" fill="white"/>
<path d="M68.7723 27.3738L68.3649 28.8644H65.785L69.0439 18.9719H72.167L75.4258 28.8644H72.7101L72.3027 27.3738H68.7723ZM70.5375 21.6822L69.4512 25.4766H71.7596L70.5375 21.6822Z" fill="white"/>
<path d="M81.1289 28.8644H78.6847V20.8691H76.3763V18.9719H83.4373V20.8691H81.1289V28.8644Z" fill="white"/>
<path d="M88.3256 28.8644H85.8814V18.9719H88.3256V28.8644Z" fill="white"/>
<path d="M96.7443 18.8364H99.3243L96.337 28.729H93.757L90.9055 18.8364H93.3497L94.9791 24.9346L96.7443 18.8364Z" fill="white"/>
<path d="M103.941 22.9018H107.2V24.799H103.941V26.8318H107.2V28.729H101.497V18.8364H107.2V20.7336H103.941V22.9018Z" fill="white"/>
</g>
<defs>
<clipPath id="clip0">
<rect width="107" height="29" fill="white" transform="translate(0.199951)"/>
</clipPath>
</defs>
</svg>
