<svg width="120" height="119" viewBox="0 0 120 119" fill="none" xmlns="http://www.w3.org/2000/svg">
<g clip-path="url(#clip0)">
<path d="M61.9424 6.134V6.23624C61.9424 6.74741 62.3514 7.25857 62.9648 7.25857C63.5782 7.25857 64.0894 6.95187 64.0894 6.4407C64.0894 6.134 63.9871 5.92954 63.7827 5.72507C63.5782 5.5206 63.4759 5.5206 62.8625 5.2139C61.1246 4.49826 60.5112 3.78263 60.6134 2.55582C60.7156 1.12455 61.8402 0.204449 63.4759 0.306683C65.1117 0.408917 66.0318 1.43125 66.0318 2.96476L64.2938 2.86252C64.2938 2.14689 63.9871 1.84019 63.2715 1.73795C62.6581 1.73795 62.2491 2.04466 62.2491 2.55582C62.2491 2.86252 62.3514 3.16923 62.6581 3.37369C62.8625 3.47593 62.9648 3.57816 63.5782 3.88486C64.4983 4.2938 64.9072 4.49826 65.2139 4.9072C65.7251 5.31613 65.9296 5.8273 65.9296 6.4407C65.8273 7.97421 64.7028 8.89431 62.9648 8.79208C61.2268 8.68985 60.3067 7.66751 60.4089 6.03177L61.9424 6.134Z" fill="white"/>
<path d="M74.7217 9.50765C73.5971 10.1211 72.677 10.3255 71.4502 10.0188C70.2234 9.71212 69.4055 9.09871 68.8943 8.17861C68.3832 7.25851 68.1787 6.13394 68.4854 5.00937C68.9966 2.55576 71.0413 1.22672 73.3926 1.73789C74.6194 2.04459 75.4373 2.55576 76.1529 3.68033L74.8239 4.4982C74.3127 3.78256 73.8016 3.37363 73.0859 3.27139C71.6547 2.96469 70.4278 3.78256 70.1211 5.31607C69.8144 6.84957 70.5301 8.17861 71.9614 8.48531C72.677 8.68978 73.2904 8.48531 73.9038 8.07638L74.7217 9.50765Z" fill="white"/>
<path d="M77.9932 11.8591L76.4597 11.2457L79.5267 3.68042L81.878 4.60052C83.7183 5.31616 84.4339 6.54296 83.8205 8.1787C83.3093 9.40551 82.3892 9.91667 81.0602 9.71221L81.9803 13.4949L80.1401 12.7792L79.22 8.7921L77.9932 11.8591ZM80.2423 8.1787C81.1624 8.4854 81.7758 8.28094 82.0825 7.5653C82.3892 6.84966 82.0825 6.23626 81.2646 5.82733L80.4468 5.52063L79.5267 7.872L80.2423 8.1787Z" fill="white"/>
<path d="M93.3282 12.0635C93.5327 13.0859 93.3282 14.1082 92.7148 15.1306C91.488 17.073 88.9321 17.6864 86.9897 16.4596C84.945 15.2328 84.3316 12.6769 85.5584 10.6323C86.8875 8.5876 89.4433 7.9742 91.488 9.30324C92.4081 9.81441 93.1237 10.8367 93.3282 12.0635ZM86.9897 11.4501C86.1718 12.7792 86.4785 14.3127 87.7053 15.0283C88.9321 15.744 90.4656 15.335 91.2835 14.1082C92.1014 12.7792 91.7947 11.2457 90.5679 10.4278C89.3411 9.60994 87.8076 10.1211 86.9897 11.4501Z" fill="white"/>
<path d="M96.4974 21.878L95.5773 22.9003L92.3058 19.9355L97.7242 13.8015L98.951 14.9261L94.4527 20.0378L96.4974 21.878Z" fill="white"/>
<path d="M100.996 26.7851L99.9734 27.7052L97.0086 24.4338L103.143 19.0154L104.267 20.2422L99.1555 24.7405L100.996 26.7851Z" fill="white"/>
<path d="M111.117 29.4432L112.241 31.4879C112.855 32.6125 113.059 33.5326 112.753 34.5549C112.446 35.6795 111.73 36.4974 110.606 37.1108C109.481 37.7242 108.152 37.8264 107.13 37.4175C106.312 37.1108 105.494 36.3951 104.983 35.3728L103.858 33.2259L111.117 29.4432ZM105.801 34.0438L105.903 34.3505C106.312 35.1683 106.721 35.5773 107.334 35.7817C108.05 36.0884 108.868 35.9862 109.686 35.5773C111.117 34.8616 111.628 33.4304 110.912 32.1013L110.606 31.5901L105.801 34.0438Z" fill="white"/>
<path d="M116.433 45.6985C115.922 46.6186 115.104 47.232 113.979 47.5387C111.73 48.2543 109.379 47.0275 108.765 44.7784C108.05 42.5292 109.277 40.1778 111.526 39.4622C113.877 38.7466 116.126 39.9734 116.842 42.3248C117.149 43.4493 117.046 44.6761 116.433 45.6985ZM112.037 41.098C110.606 41.5069 109.788 42.9382 110.197 44.2672C110.606 45.5962 112.037 46.3119 113.468 45.9029C115.002 45.3918 115.82 44.0627 115.411 42.7337C114.9 41.3024 113.468 40.689 112.037 41.098Z" fill="white"/>
<path d="M119.296 57.8642L119.5 59.6022L111.117 58.0687L111.015 56.433L116.229 54.695L110.81 53.8771L110.708 52.2414L118.682 49.2766L118.887 51.0146L113.877 52.7526L119.091 53.5704L119.193 55.2062L114.082 56.9441L119.296 57.8642Z" fill="white"/>
<path d="M110.912 63.7938L111.117 62.1581L119.193 63.0782L119.091 64.7139L113.673 67.5765L118.784 68.1899L118.58 69.8256L110.503 68.9055L110.708 67.2698L116.229 64.4072L110.912 63.7938Z" fill="white"/>
<path d="M112.446 78.4133L113.162 77.9021L113.775 78.9244L114.491 78.0043L115.104 78.6177L114.388 79.5378L115.513 79.9468L115.206 80.7646L114.082 80.3557V81.5825H113.162V80.2535L111.935 80.6624L111.628 79.8445L112.855 79.4356L112.446 78.4133Z" fill="white"/>
<path d="M105.392 88.0232C104.881 87.6143 104.267 87.8187 103.858 88.3299C103.552 88.8411 103.552 89.4545 103.961 89.7612C104.165 89.8634 104.472 89.9656 104.676 89.8634C104.881 89.7612 105.085 89.6589 105.596 89.25C107.13 88.1254 108.05 87.921 109.072 88.6366C110.299 89.4545 110.503 90.8857 109.686 92.2148C108.766 93.5438 107.436 93.8505 106.107 93.1349L107.028 91.7036C107.641 92.0103 108.152 91.9081 108.459 91.3969C108.766 90.8857 108.766 90.3746 108.254 90.0679C107.948 89.8634 107.641 89.8634 107.334 90.0679C107.13 90.1701 107.028 90.2723 106.516 90.6813C105.699 91.2947 105.29 91.4991 104.778 91.6014C104.165 91.7036 103.654 91.6014 103.143 91.2947C101.916 90.4768 101.711 88.9433 102.632 87.6143C103.552 86.183 104.983 85.8763 106.312 86.6942L105.392 88.0232Z" fill="white"/>
<path d="M96.1908 97.4288C96.1908 96.0997 96.4975 95.2819 97.3154 94.3618C98.1332 93.4417 99.1556 93.0327 100.178 93.0327C101.2 93.0327 102.325 93.4417 103.143 94.2595C104.983 95.8953 105.187 98.3489 103.552 100.087C102.734 101.007 101.814 101.416 100.485 101.518L100.382 99.9846C101.302 99.8824 101.814 99.6779 102.325 99.1667C103.245 98.1444 103.143 96.6109 102.018 95.5886C100.894 94.5662 99.2578 94.5662 98.3377 95.5886C97.8265 96.0997 97.6221 96.7131 97.7243 97.531L96.1908 97.4288Z" fill="white"/>
<path d="M92.5104 99.0645L93.8394 98.0421L98.9511 104.483L97.0087 106.016C95.3729 107.243 94.0439 107.243 92.9193 105.914C92.1014 104.892 92.1014 103.767 92.9193 102.745L89.2389 101.723L90.8746 100.496L94.6573 101.62L92.5104 99.0645ZM94.555 102.847C93.8394 103.461 93.6349 104.176 94.1461 104.79C94.6573 105.403 95.3729 105.505 95.9863 104.994L96.7019 104.381L95.0662 102.336L94.555 102.847Z" fill="white"/>
<path d="M84.7406 112.355C83.7183 111.946 83.0026 111.333 82.3892 110.31C81.2647 108.266 81.9803 105.71 84.025 104.585C86.1719 103.461 88.6255 104.176 89.7501 106.221C90.8746 108.368 90.159 110.924 88.0121 112.048C87.092 112.662 85.8652 112.662 84.7406 112.355ZM88.3188 107.039C87.6032 105.71 86.0697 105.199 84.8428 105.914C83.616 106.63 83.2071 108.163 83.9227 109.492C84.6384 110.924 86.1719 111.435 87.3987 110.719C88.7277 110.003 89.1367 108.47 88.3188 107.039Z" fill="white"/>
<path d="M74.6194 110.106L74.2105 108.777L78.4021 107.345L81.0602 115.115L79.4244 115.626L77.1753 109.186L74.6194 110.106Z" fill="white"/>
<path d="M68.0765 111.639L67.7698 110.31L72.0636 109.39L73.6994 117.364L72.0636 117.671L70.7346 111.026L68.0765 111.639Z" fill="white"/>
<path d="M60.8179 119L58.4665 118.898C57.1375 118.898 56.2174 118.591 55.604 117.875C54.7861 117.16 54.3772 116.035 54.4794 114.706C54.4794 113.377 54.9906 112.253 55.9107 111.537C56.6263 110.924 57.6487 110.617 58.7732 110.719L61.2269 110.821L60.8179 119ZM59.3866 112.15H59.0799C58.1598 112.15 57.6487 112.253 57.1375 112.662C56.5241 113.173 56.2174 113.888 56.1152 114.808C56.0129 116.444 57.0353 117.569 58.5688 117.569H59.1822L59.3866 112.15Z" fill="white"/>
<path d="M44.0516 115.626C43.5404 114.706 43.4382 113.684 43.6427 112.559C44.1538 110.31 46.403 108.879 48.6521 109.39C51.0035 109.901 52.4348 112.15 51.9236 114.4C51.4124 116.751 49.1633 118.182 46.8119 117.671C45.5851 117.364 44.665 116.649 44.0516 115.626ZM50.1856 114.093C50.4923 112.559 49.6745 111.23 48.3454 110.924C47.0164 110.617 45.6873 111.537 45.2784 112.968C44.9717 114.502 45.6873 115.831 47.1186 116.24C48.5499 116.444 49.8789 115.626 50.1856 114.093Z" fill="white"/>
<path d="M31.988 112.048L30.3523 111.333L35.8729 104.892L37.4064 105.607L36.3841 111.026L39.7578 106.732L41.2913 107.448L39.86 115.831L38.2243 115.115L39.1444 109.901L35.7707 113.991L34.2372 113.275L35.2595 107.959L31.988 112.048Z" fill="white"/>
<path d="M31.0679 101.927L32.397 102.949L27.592 109.595L26.2629 108.572L26.5696 102.438L23.5026 106.528L22.1736 105.505L26.9786 98.86L28.3076 99.8823L28.0009 106.119L31.0679 101.927Z" fill="white"/>
<path d="M17.5731 95.8953L17.6753 96.8154L16.4485 96.9176L16.8575 98.0422L16.0396 98.3489L15.6307 97.3265L14.7106 98.0422L14.1994 97.3265L15.1195 96.6109L14.0972 95.9975L14.5061 95.2819L15.6307 95.8953L15.8351 94.6685L16.653 94.8729L16.4485 96.0997L17.5731 95.8953Z" fill="white"/>
<path d="M12.7681 85.0584C13.3815 84.7517 13.4837 84.1383 13.177 83.6272C12.8703 83.116 12.3592 82.8093 11.9502 83.0138C11.7458 83.116 11.5413 83.3205 11.5413 83.6272C11.5413 83.9339 11.5413 84.0361 11.5413 84.7517C11.7458 86.592 11.4391 87.5121 10.3145 88.1255C8.98546 88.8411 7.65642 88.3299 6.83855 86.8987C6.22515 85.3651 6.63408 83.9339 7.96312 83.116L8.78099 84.6495C8.16759 85.0584 8.06535 85.4674 8.37205 86.0808C8.67875 86.592 9.08769 86.7964 9.59886 86.592C9.90556 86.4897 10.0078 86.183 10.0078 85.7741C10.0078 85.5696 10.0078 85.3651 9.90556 84.7517C9.80332 83.8316 9.80332 83.3205 9.90556 82.8093C10.11 82.1959 10.4167 81.787 11.0301 81.4803C12.3592 80.7646 13.7904 81.378 14.5061 82.8093C15.3239 84.3428 14.915 85.7741 13.4837 86.3875L12.7681 85.0584Z" fill="white"/>
<path d="M9.18993 72.3815C10.3145 72.9949 10.9279 73.7105 11.3368 74.9373C11.7458 76.0619 11.6435 77.1864 11.0301 78.1065C10.519 79.0266 9.59886 79.7423 8.47429 80.049C6.12292 80.8668 3.87378 79.7423 3.15814 77.4931C2.74921 76.2663 2.85144 75.3462 3.46484 74.1194L4.89611 74.8351C4.48718 75.6529 4.48718 76.2663 4.69165 76.8797C5.10058 78.2088 6.53185 78.8222 7.96312 78.4132C9.3944 78.0043 10.2123 76.573 9.80333 75.1418C9.59886 74.4261 9.18993 73.915 8.47429 73.7105L9.18993 72.3815Z" fill="white"/>
<path d="M9.59882 68.3942L9.80329 70.03L1.72683 71.2568L1.31789 68.8032C1.01119 66.7585 1.72683 65.6339 3.36257 65.3272C4.58937 65.1227 5.61171 65.6339 6.12287 66.8607L8.88318 64.2026L9.18988 66.2473L6.32734 68.8032L9.59882 68.3942ZM5.20277 68.1898C5.10054 67.2697 4.48714 66.7585 3.66927 66.8607C2.8514 66.9629 2.44246 67.5764 2.64693 68.3942L2.74916 69.3143L5.30501 68.9054L5.20277 68.1898Z" fill="white"/>
<path d="M1.9313 55.0017C2.74917 54.2861 3.66928 53.9794 4.89608 53.9794C7.24745 54.0816 9.08766 55.9218 8.98543 58.2732C8.88319 60.6246 7.04299 62.4648 4.69161 62.4648C2.238 62.3625 0.397798 60.5223 0.500032 58.0687C0.500032 56.9441 1.0112 55.8196 1.9313 55.0017ZM4.69161 60.829C6.22512 60.829 7.45192 59.8067 7.45192 58.3754C7.45192 56.9441 6.32735 55.8196 4.89608 55.8196C3.36257 55.8196 2.13577 56.8419 2.13577 58.2732C2.03354 59.7045 3.15811 60.7268 4.69161 60.829Z" fill="white"/>
<path d="M8.78093 47.3341L10.11 47.6408L9.2921 51.9346L1.21564 50.4011L1.52234 48.7654L8.16753 49.9922L8.78093 47.3341Z" fill="white"/>
<path d="M10.8256 40.9956L12.1546 41.4045L10.7234 45.5961L2.95361 43.0403L3.46478 41.4045L9.9055 43.5514L10.8256 40.9956Z" fill="white"/>
<path d="M7.96307 30.9767L9.18988 28.932C9.90551 27.8075 10.6211 27.1941 11.5413 26.8874C12.5636 26.5807 13.7904 26.7851 14.8127 27.3985C15.9373 28.1142 16.6529 29.1365 16.8574 30.2611C17.0619 31.1812 16.7552 32.2035 16.1418 33.1236L14.8127 35.1683L7.96307 30.9767ZM14.6083 33.1236L14.8127 32.8169C15.3239 32.1013 15.4261 31.4879 15.3239 30.8745C15.2217 30.1588 14.7105 29.4432 13.9949 28.932C12.5636 28.1142 11.2345 28.3186 10.4167 29.6477L10.11 30.1588L14.6083 33.1236Z" fill="white"/>
<path d="M19.311 18.0953C20.3333 18.0953 21.2534 18.5043 22.1735 19.3221C23.9115 20.8556 24.0138 23.5137 22.4802 25.2517C20.8445 26.9897 18.1864 27.1941 16.4485 25.5584C14.6083 23.9227 14.506 21.2646 16.1418 19.5266C16.9596 18.5043 18.0842 18.0953 19.311 18.0953ZM17.573 24.2294C18.6976 25.2517 20.3333 25.2517 21.2534 24.2294C22.1735 23.207 22.0713 21.5713 21.049 20.5489C19.9244 19.5266 18.2887 19.4244 17.3686 20.5489C16.244 21.5713 16.4485 23.207 17.573 24.2294Z" fill="white"/>
<path d="M28.3076 9.40539L29.7389 8.38306L32.6014 16.3573L31.2724 17.3796L27.0808 13.6992L29.1255 18.8109L27.7964 19.8332L21.2535 14.5171L22.6848 13.4947L26.7741 16.9707L24.8317 11.9612L26.1607 10.9389L30.25 14.4148L28.3076 9.40539Z" fill="white"/>
<path d="M37.6108 13.597L36.0773 14.3127L32.7036 6.8496L34.2371 6.13397L39.451 9.40545L37.4064 4.7027L38.9399 3.98706L42.3136 11.4501L40.7801 12.1658L35.5662 8.79204L37.6108 13.597Z" fill="white"/>
<path d="M49.47 4.90722L48.6521 4.49828L49.1633 3.37371L48.0387 3.16925L48.2432 2.35138L49.3677 2.45361L49.1633 1.32904L49.9811 1.22681L50.1856 2.35138L51.2079 1.73798L51.6169 2.45361L50.5945 3.16925L51.5146 3.98712L50.9012 4.60052L49.9811 3.78265L49.47 4.90722Z" fill="white"/>
</g>
<defs>
<clipPath id="clip0">
<rect width="119" height="118.693" fill="white" transform="translate(0.5 0.306641)"/>
</clipPath>
</defs>
</svg>
