<svg width="119" height="119" viewBox="0 0 119 119" fill="none" xmlns="http://www.w3.org/2000/svg">
<path d="M61.4435 6.13406V6.2363C61.4435 6.74747 61.8525 7.25863 62.4659 7.25863C63.0793 7.25863 63.5905 6.95193 63.5905 6.44076C63.5905 6.13406 63.4882 5.9296 63.2838 5.72513C63.0793 5.52066 62.977 5.52066 62.3636 5.21396C60.6257 4.49832 60.0123 3.78269 60.1145 2.55588C60.2167 1.12461 61.3413 0.20451 62.977 0.306744C64.6128 0.408978 65.5329 1.43131 65.5329 2.96482L63.7949 2.86259C63.7949 2.14695 63.4882 1.84025 62.7726 1.73802C62.1592 1.73802 61.7502 2.04472 61.7502 2.55588C61.7502 2.86259 61.8525 3.16929 62.1592 3.37375C62.3636 3.47599 62.4659 3.57822 63.0793 3.88492C63.9994 4.29386 64.4083 4.49832 64.715 4.90726C65.2262 5.31619 65.4307 5.82736 65.4307 6.44076C65.3284 7.97427 64.2038 8.89437 62.4659 8.79214C60.7279 8.68991 59.8078 7.66757 59.91 6.03183L61.4435 6.13406Z" fill="#071446"/>
<path d="M74.2221 9.50777C73.0976 10.1212 72.1775 10.3256 70.9507 10.0189C69.7239 9.71224 68.906 9.09884 68.3948 8.17873C67.8837 7.25863 67.6792 6.13406 67.9859 5.00949C68.4971 2.55588 70.5417 1.22684 72.8931 1.73801C74.1199 2.04471 74.9378 2.55588 75.6534 3.68045L74.3244 4.49832C73.8132 3.78268 73.302 3.37375 72.5864 3.27152C71.1551 2.96481 69.9283 3.78268 69.6216 5.31619C69.3149 6.84969 70.0306 8.17873 71.4618 8.48543C72.1775 8.6899 72.7909 8.48543 73.4043 8.0765L74.2221 9.50777Z" fill="#071446"/>
<path d="M77.4925 11.8591L75.959 11.2457L79.026 3.68042L81.3774 4.60052C83.2176 5.31616 83.9332 6.54296 83.3198 8.1787C82.8086 9.40551 81.8885 9.91667 80.5595 9.71221L81.4796 13.4949L79.6394 12.7792L78.7193 8.7921L77.4925 11.8591ZM79.7416 8.1787C80.6617 8.4854 81.2751 8.28094 81.5818 7.5653C81.8885 6.84966 81.5818 6.23626 80.764 5.82733L79.9461 5.52063L79.026 7.872L79.7416 8.1787Z" fill="#071446"/>
<path d="M92.8289 12.0636C93.0334 13.0859 92.8289 14.1083 92.2155 15.1306C90.9887 17.0731 88.4329 17.6865 86.4904 16.4597C84.4457 15.2329 83.8323 12.677 85.0591 10.6323C86.3882 8.58766 88.944 7.97426 90.9887 9.3033C91.9088 9.81447 92.6245 10.8368 92.8289 12.0636ZM86.4904 11.4502C85.6725 12.7792 85.9793 14.3127 87.2061 15.0284C88.4329 15.744 89.9664 15.3351 90.7842 14.1083C91.6021 12.7792 91.2954 11.2457 90.0686 10.4279C88.8418 9.61 87.3083 10.1212 86.4904 11.4502Z" fill="#071446"/>
<path d="M95.9982 21.878L95.0781 22.9004L91.8066 19.9356L97.225 13.8016L98.4518 14.9261L93.9535 20.0378L95.9982 21.878Z" fill="#071446"/>
<path d="M100.495 26.7853L99.4726 27.7054L96.5078 24.4339L102.642 19.0155L103.766 20.2423L98.6547 24.7406L100.495 26.7853Z" fill="#071446"/>
<path d="M110.618 29.4433L111.743 31.488C112.356 32.6125 112.56 33.5326 112.254 34.555C111.947 35.6796 111.231 36.4974 110.107 37.1108C108.982 37.7242 107.653 37.8265 106.631 37.4175C105.813 37.1108 104.995 36.3952 104.484 35.3729L103.359 33.2259L110.618 29.4433ZM105.302 34.0438L105.404 34.3505C105.813 35.1684 106.222 35.5773 106.835 35.7818C107.551 36.0885 108.369 35.9863 109.187 35.5773C110.618 34.8617 111.129 33.4304 110.414 32.1014L110.107 31.5902L105.302 34.0438Z" fill="#071446"/>
<path d="M115.934 45.6985C115.423 46.6186 114.605 47.232 113.48 47.5387C111.231 48.2543 108.88 47.0275 108.266 44.7784C107.551 42.5292 108.778 40.1778 111.027 39.4622C113.378 38.7466 115.627 39.9734 116.343 42.3248C116.65 43.4493 116.547 44.6761 115.934 45.6985ZM111.538 41.098C110.107 41.5069 109.289 42.9382 109.698 44.2672C110.107 45.5962 111.538 46.3119 112.969 45.9029C114.503 45.3918 115.321 44.0627 114.912 42.7337C114.4 41.3024 112.969 40.689 111.538 41.098Z" fill="#071446"/>
<path d="M118.797 57.8642L119.001 59.6022L110.618 58.0687L110.516 56.433L115.73 54.695L110.311 53.8771L110.209 52.2414L118.183 49.2766L118.388 51.0146L113.378 52.7526L118.592 53.5704L118.694 55.2062L113.583 56.9441L118.797 57.8642Z" fill="#071446"/>
<path d="M110.413 63.7938L110.617 62.1581L118.694 63.0782L118.592 64.7139L113.173 67.5765L118.285 68.1899L118.08 69.8256L110.004 68.9055L110.208 67.2698L115.729 64.4072L110.413 63.7938Z" fill="#071446"/>
<path d="M111.947 78.4133L112.662 77.9022L113.276 78.9245L113.991 78.0044L114.605 78.6178L113.889 79.5379L115.014 79.9468L114.707 80.7647L113.583 80.3558V81.5826H112.662V80.2535L111.436 80.6625L111.129 79.8446L112.356 79.4357L111.947 78.4133Z" fill="#071446"/>
<path d="M104.893 88.0233C104.381 87.6144 103.768 87.8188 103.359 88.33C103.052 88.8412 103.052 89.4546 103.461 89.7613C103.666 89.8635 103.973 89.9657 104.177 89.8635C104.381 89.7613 104.586 89.659 105.097 89.2501C106.631 88.1255 107.551 87.9211 108.573 88.6367C109.8 89.4546 110.004 90.8858 109.186 92.2149C108.266 93.5439 106.937 93.8506 105.608 93.135L106.528 91.7037C107.142 92.0104 107.653 91.9082 107.96 91.397C108.266 90.8858 108.266 90.3747 107.755 90.068C107.449 89.8635 107.142 89.8635 106.835 90.068C106.631 90.1702 106.528 90.2724 106.017 90.6814C105.199 91.2948 104.79 91.4992 104.279 91.6015C103.666 91.7037 103.155 91.6015 102.644 91.2948C101.417 90.4769 101.212 88.9434 102.132 87.6144C103.052 86.1831 104.484 85.8764 105.813 86.6943L104.893 88.0233Z" fill="#071446"/>
<path d="M95.6914 97.4288C95.6914 96.0998 95.9981 95.2819 96.816 94.3618C97.6338 93.4417 98.6562 93.0328 99.6785 93.0328C100.701 93.0328 101.825 93.4417 102.643 94.2596C104.484 95.8953 104.688 98.3489 103.052 100.087C102.234 101.007 101.314 101.416 99.9852 101.518L99.883 99.9847C100.803 99.8824 101.314 99.678 101.825 99.1668C102.746 98.1445 102.643 96.611 101.519 95.5886C100.394 94.5663 98.7584 94.5663 97.8383 95.5886C97.3271 96.0998 97.1227 96.7132 97.2249 97.5311L95.6914 97.4288Z" fill="#071446"/>
<path d="M92.0098 99.0646L93.3388 98.0422L98.4505 104.483L96.508 106.016C94.8723 107.243 93.5433 107.243 92.4187 105.914C91.6008 104.892 91.6008 103.767 92.4187 102.745L88.7383 101.723L90.374 100.496L94.1567 101.62L92.0098 99.0646ZM94.0544 102.847C93.3388 103.461 93.1343 104.176 93.6455 104.79C94.1567 105.403 94.8723 105.505 95.4857 104.994L96.2013 104.381L94.5656 102.336L94.0544 102.847Z" fill="#071446"/>
<path d="M84.2418 112.355C83.2194 111.946 82.5038 111.333 81.8904 110.31C80.7658 108.266 81.4815 105.71 83.5261 104.585C85.673 103.461 88.1267 104.176 89.2512 106.221C90.3758 108.368 89.6602 110.924 87.5132 112.048C86.5931 112.662 85.3663 112.662 84.2418 112.355ZM87.82 107.039C87.1043 105.71 85.5708 105.199 84.344 105.914C83.1172 106.63 82.7083 108.163 83.4239 109.492C84.1395 110.924 85.673 111.435 86.8998 110.719C88.2289 110.004 88.6378 108.47 87.82 107.039Z" fill="#071446"/>
<path d="M74.1199 110.106L73.7109 108.777L77.9025 107.345L80.5606 115.115L78.9249 115.626L76.6757 109.186L74.1199 110.106Z" fill="#071446"/>
<path d="M67.5762 111.639L67.2695 110.31L71.5633 109.39L73.1991 117.364L71.5633 117.671L70.2343 111.026L67.5762 111.639Z" fill="#071446"/>
<path d="M60.3188 119L57.9674 118.898C56.6384 118.898 55.7183 118.591 55.1049 117.876C54.287 117.16 53.878 116.035 53.9803 114.706C53.9803 113.377 54.4915 112.253 55.4116 111.537C56.1272 110.924 57.1495 110.617 58.2741 110.719L60.7277 110.821L60.3188 119ZM58.8875 112.15H58.5808C57.6607 112.15 57.1495 112.253 56.6384 112.662C56.025 113.173 55.7183 113.888 55.616 114.809C55.5138 116.444 56.5361 117.569 58.0696 117.569H58.683L58.8875 112.15Z" fill="#071446"/>
<path d="M43.5526 115.626C43.0414 114.706 42.9392 113.684 43.1437 112.559C43.6548 110.31 45.904 108.879 48.1531 109.39C50.5045 109.901 51.9357 112.15 51.4246 114.4C50.9134 116.751 48.6643 118.182 46.3129 117.671C45.0861 117.364 44.166 116.649 43.5526 115.626ZM49.6866 114.093C49.9933 112.559 49.1754 111.23 47.8464 110.924C46.5174 110.617 45.1883 111.537 44.7794 112.968C44.4727 114.502 45.1883 115.831 46.6196 116.24C48.0509 116.444 49.3799 115.626 49.6866 114.093Z" fill="#071446"/>
<path d="M31.4873 112.048L29.8516 111.333L35.3722 104.892L36.9057 105.607L35.8833 111.026L39.2571 106.732L40.7906 107.448L39.3593 115.831L37.7236 115.115L38.6437 109.901L35.2699 113.991L33.7364 113.275L34.7588 107.959L31.4873 112.048Z" fill="#071446"/>
<path d="M30.5682 101.927L31.8972 102.949L27.0922 109.595L25.7632 108.572L26.0699 102.438L23.0029 106.528L21.6738 105.505L26.4788 98.8601L27.8078 99.8824L27.5011 106.119L30.5682 101.927Z" fill="#071446"/>
<path d="M17.0736 95.8953L17.1758 96.8154L15.949 96.9177L16.358 98.0422L15.5401 98.3489L15.1312 97.3266L14.2111 98.0422L13.6999 97.3266L14.62 96.611L13.5977 95.9976L14.0066 95.2819L15.1312 95.8953L15.3356 94.6685L16.1535 94.873L15.949 96.0998L17.0736 95.8953Z" fill="#071446"/>
<path d="M12.269 85.0585C12.8824 84.7518 12.9846 84.1384 12.6779 83.6272C12.3712 83.1161 11.86 82.8094 11.4511 83.0138C11.2466 83.1161 11.0422 83.3205 11.0422 83.6272C11.0422 83.9339 11.0422 84.0362 11.0422 84.7518C11.2466 86.592 10.9399 87.5121 9.81535 88.1255C8.48631 88.8412 7.15727 88.33 6.3394 86.8987C5.726 85.3652 6.13494 83.9339 7.46397 83.1161L8.28184 84.6496C7.66844 85.0585 7.56621 85.4674 7.87291 86.0808C8.17961 86.592 8.58854 86.7965 9.09971 86.592C9.40641 86.4898 9.50865 86.1831 9.50865 85.7741C9.50865 85.5697 9.50865 85.3652 9.40641 84.7518C9.30418 83.8317 9.30418 83.3205 9.40641 82.8094C9.61088 82.196 9.91758 81.787 10.531 81.4803C11.86 80.7647 13.2913 81.3781 14.0069 82.8094C14.8248 84.3429 14.4159 85.7741 12.9846 86.3875L12.269 85.0585Z" fill="#071446"/>
<path d="M8.68926 72.3816C9.81383 72.995 10.4272 73.7106 10.8362 74.9374C11.2451 76.062 11.1429 77.1866 10.5295 78.1067C10.0183 79.0268 9.09819 79.7424 7.97362 80.0491C5.62225 80.867 3.37311 79.7424 2.65747 77.4933C2.24854 76.2665 2.35077 75.3464 2.96417 74.1196L4.39544 74.8352C3.98651 75.6531 3.98651 76.2665 4.19098 76.8799C4.59991 78.2089 6.03118 78.8223 7.46245 78.4134C8.89372 78.0044 9.71159 76.5732 9.30266 75.1419C9.09819 74.4263 8.68926 73.9151 7.97362 73.7106L8.68926 72.3816Z" fill="#071446"/>
<path d="M9.09833 68.3943L9.3028 70.0301L1.22634 71.2569L0.817404 68.8033C0.510703 66.7586 1.22634 65.634 2.86208 65.3273C4.08888 65.1229 5.11122 65.634 5.62239 66.8608L8.3827 64.2028L8.6894 66.2474L5.82685 68.8033L9.09833 68.3943ZM4.70228 68.1899C4.60005 67.2698 3.98665 66.7586 3.16878 66.8608C2.35091 66.9631 1.94197 67.5765 2.14644 68.3943L2.24867 69.3144L4.80452 68.9055L4.70228 68.1899Z" fill="#071446"/>
<path d="M1.43142 55.0017C2.24929 54.2861 3.1694 53.9794 4.3962 53.9794C6.74758 54.0816 8.58778 55.9218 8.48555 58.2732C8.38331 60.6246 6.54311 62.4648 4.19173 62.4648C1.73813 62.3625 -0.10208 60.5223 0.000153843 58.0687C0.000153843 56.9441 0.511322 55.8196 1.43142 55.0017ZM4.19173 60.829C5.72524 60.829 6.95204 59.8067 6.95204 58.3754C6.95204 56.9441 5.82747 55.8196 4.3962 55.8196C2.8627 55.8196 1.63589 56.8419 1.63589 58.2732C1.53366 59.7045 2.65823 60.7268 4.19173 60.829Z" fill="#071446"/>
<path d="M8.28209 47.3342L9.61112 47.6409L8.79326 51.9347L0.716797 50.4012L1.0235 48.7655L7.66869 49.9923L8.28209 47.3342Z" fill="#071446"/>
<path d="M10.3251 40.9957L11.6542 41.4047L10.2229 45.5962L2.45312 43.0404L2.96429 41.4047L9.40502 43.5516L10.3251 40.9957Z" fill="#071446"/>
<path d="M7.46289 30.9768L8.68969 28.9322C9.40533 27.8076 10.121 27.1942 11.0411 26.8875C12.0634 26.5808 13.2902 26.7853 14.3125 27.3987C15.4371 28.1143 16.1527 29.1366 16.3572 30.2612C16.5617 31.1813 16.255 32.2036 15.6416 33.1237L14.3125 35.1684L7.46289 30.9768ZM14.1081 33.1237L14.3125 32.817C14.8237 32.1014 14.9259 31.488 14.8237 30.8746C14.7215 30.159 14.2103 29.4433 13.4947 28.9322C12.0634 28.1143 10.7344 28.3188 9.9165 29.6478L9.6098 30.159L14.1081 33.1237Z" fill="#071446"/>
<path d="M18.8122 18.0954C19.8345 18.0954 20.7546 18.5043 21.6747 19.3222C23.4127 20.8557 23.5149 23.5138 21.9814 25.2518C20.3457 26.9897 17.6876 27.1942 15.9496 25.5585C14.1094 23.9227 14.0072 21.2646 15.6429 19.5267C16.4608 18.5043 17.5854 18.0954 18.8122 18.0954ZM17.0742 24.2294C18.1988 25.2518 19.8345 25.2518 20.7546 24.2294C21.6747 23.2071 21.5725 21.5713 20.5501 20.549C19.4256 19.5267 17.7898 19.4244 16.8697 20.549C15.7452 21.5713 15.9496 23.2071 17.0742 24.2294Z" fill="#071446"/>
<path d="M27.808 9.40551L29.2393 8.38318L32.1018 16.3574L30.7728 17.3797L26.5812 13.6993L28.6259 18.811L27.2969 19.8334L20.7539 14.5172L22.1852 13.4949L26.2745 16.9708L24.3321 11.9614L25.6611 10.939L29.7505 14.415L27.808 9.40551Z" fill="#071446"/>
<path d="M37.1103 13.5971L35.5768 14.3127L32.2031 6.84966L33.7366 6.13403L38.9505 9.40551L36.9059 4.70276L38.4394 3.98712L41.8131 11.4502L40.2796 12.1658L35.0657 8.79211L37.1103 13.5971Z" fill="#071446"/>
<path d="M48.9703 4.90722L48.1525 4.49828L48.6636 3.37371L47.5391 3.16925L47.7435 2.35138L48.8681 2.45361L48.6636 1.32904L49.4815 1.22681L49.686 2.35138L50.7083 1.73798L51.1172 2.45361L50.0949 3.16925L51.015 3.98712L50.4016 4.60052L49.4815 3.78265L48.9703 4.90722Z" fill="#071446"/>
</svg>
