<svg width="395" height="513" viewBox="0 0 395 513" fill="none" xmlns="http://www.w3.org/2000/svg">
<path d="M0 20.25C0 9.20429 8.9543 0.25 20 0.25H375C386.046 0.25 395 9.2043 395 20.25V513H0V20.25Z" fill="white"/>
<path d="M43.674 47.57L51.572 58.79H53.2V44.116H51.352V55.16L43.52 44.116H41.826V58.79H43.674V47.57ZM66.1271 54.258C66.1491 54.016 66.1491 53.73 66.1491 53.598C66.1491 50.628 63.9491 48.406 61.0011 48.406C58.0311 48.406 55.8971 50.628 55.8971 53.752C55.8971 56.832 58.0531 59.032 61.0671 59.032C63.0031 59.032 64.7411 57.998 65.5771 56.304L64.1031 55.754C63.5091 56.81 62.3211 57.492 61.0671 57.492C59.9671 57.492 58.9991 57.008 58.3391 56.106C57.9211 55.556 57.7671 55.116 57.6791 54.258H66.1271ZM57.7011 53.026C57.8331 52.212 57.9651 51.794 58.2731 51.31C58.8671 50.43 59.8791 49.902 61.0011 49.902C62.1231 49.902 63.1571 50.43 63.7951 51.288C64.1471 51.794 64.3011 52.234 64.3671 53.026H57.7011ZM70.1806 50.122H71.7206V48.648H70.1806V45.458H68.5086V48.648H67.1006V50.122H68.5086V57.206C68.5086 58.328 68.9706 58.768 70.1586 58.79H71.7206V57.338H70.9506C70.3346 57.338 70.2026 57.228 70.1806 56.722V50.122ZM86.1826 48.648L83.5206 56.106L81.2326 48.648H79.5826L77.2506 56.106L74.6546 48.648H72.9386L76.4146 58.79H77.9986L80.4406 51.09L82.7726 58.79H84.2906L87.8986 48.648H86.1826ZM93.9172 48.406C90.8372 48.406 88.7252 50.562 88.7252 53.708C88.7252 56.832 90.8372 59.032 93.8512 59.032C96.7552 59.032 99.0432 56.722 99.0432 53.752C99.0432 50.628 96.9092 48.406 93.9172 48.406ZM93.9172 49.946C95.9632 49.946 97.3272 51.464 97.3272 53.73C97.3272 55.93 95.8972 57.492 93.8952 57.492C91.8272 57.492 90.4412 55.974 90.4412 53.73C90.4412 51.464 91.8272 49.946 93.9172 49.946ZM101.592 48.648V58.79H103.264V53.642C103.264 52.476 103.418 51.882 103.858 51.244C104.364 50.496 105.156 50.078 106.058 50.078C106.168 50.078 106.344 50.078 106.52 50.1V48.406H106.124C105.398 48.406 104.694 48.626 104.188 49.022C103.792 49.33 103.572 49.638 103.264 50.364V48.648H101.592ZM110.096 54.258L114.144 58.79H116.234L111.724 53.598L116.256 48.648H114.144L110.096 53.092V44.116H108.424V58.79H110.096V54.258ZM129.173 48.406C126.093 48.406 123.981 50.562 123.981 53.708C123.981 56.832 126.093 59.032 129.107 59.032C132.011 59.032 134.299 56.722 134.299 53.752C134.299 50.628 132.165 48.406 129.173 48.406ZM129.173 49.946C131.219 49.946 132.583 51.464 132.583 53.73C132.583 55.93 131.153 57.492 129.151 57.492C127.083 57.492 125.697 55.974 125.697 53.73C125.697 51.464 127.083 49.946 129.173 49.946ZM138.696 50.122H140.28V48.648H138.696V47.284C138.74 46.096 139.07 45.744 140.28 45.612V44.116C140.104 44.094 139.906 44.094 139.818 44.094C138.058 44.094 137.024 45.282 137.024 47.284V48.648H135.638V50.122H137.024V58.79H138.696V50.122ZM148.301 54.852V55.16C148.301 55.864 148.455 56.48 148.807 57.074C149.577 58.394 150.853 59.054 152.723 59.054C155.473 59.054 157.343 57.338 157.343 54.808C157.343 53.818 156.991 52.894 156.353 52.212C155.759 51.574 155.011 51.178 153.449 50.628C151.953 50.1 151.557 49.924 151.095 49.594C150.567 49.22 150.259 48.604 150.259 47.9C150.259 46.492 151.293 45.502 152.745 45.502C153.691 45.502 154.505 45.898 154.923 46.536C155.165 46.954 155.253 47.306 155.275 48.054H157.123C157.057 45.502 155.363 43.852 152.767 43.852C150.171 43.852 148.389 45.546 148.389 48.032C148.389 49.154 148.785 50.122 149.533 50.804C150.193 51.398 150.765 51.684 152.503 52.278C154.813 53.048 155.473 53.642 155.473 54.918C155.473 56.392 154.307 57.404 152.657 57.404C151.051 57.404 150.149 56.524 150.061 54.852H148.301ZM169.402 54.258C169.424 54.016 169.424 53.73 169.424 53.598C169.424 50.628 167.224 48.406 164.276 48.406C161.306 48.406 159.172 50.628 159.172 53.752C159.172 56.832 161.328 59.032 164.342 59.032C166.278 59.032 168.016 57.998 168.852 56.304L167.378 55.754C166.784 56.81 165.596 57.492 164.342 57.492C163.242 57.492 162.274 57.008 161.614 56.106C161.196 55.556 161.042 55.116 160.954 54.258H169.402ZM160.976 53.026C161.108 52.212 161.24 51.794 161.548 51.31C162.142 50.43 163.154 49.902 164.276 49.902C165.398 49.902 166.432 50.43 167.07 51.288C167.422 51.794 167.576 52.234 167.642 53.026H160.976ZM171.846 48.648V58.79H173.518V53.642C173.518 52.476 173.672 51.882 174.112 51.244C174.618 50.496 175.41 50.078 176.312 50.078C176.422 50.078 176.598 50.078 176.774 50.1V48.406H176.378C175.652 48.406 174.948 48.626 174.442 49.022C174.046 49.33 173.826 49.638 173.518 50.364V48.648H171.846ZM185.436 48.648L182.488 56.392L179.628 48.648H177.868L181.586 58.79H183.346L187.174 48.648H185.436ZM190.598 48.648H188.926V58.79H190.598V48.648ZM189.784 44.71C189.168 44.71 188.706 45.172 188.706 45.788C188.706 46.404 189.168 46.866 189.762 46.866C190.356 46.866 190.84 46.404 190.84 45.81C190.84 45.194 190.378 44.71 189.784 44.71ZM200.817 56.392C200.003 57.162 199.211 57.492 198.221 57.492C196.241 57.492 194.855 55.93 194.855 53.686C194.855 51.486 196.241 49.946 198.243 49.946C199.189 49.946 200.047 50.298 200.817 51.002L201.895 49.924C200.839 48.89 199.651 48.406 198.199 48.406C195.229 48.406 193.139 50.606 193.139 53.752C193.139 56.832 195.207 59.032 198.111 59.032C199.585 59.032 200.707 58.57 201.851 57.536L200.817 56.392ZM213.059 54.258C213.081 54.016 213.081 53.73 213.081 53.598C213.081 50.628 210.881 48.406 207.933 48.406C204.963 48.406 202.829 50.628 202.829 53.752C202.829 56.832 204.985 59.032 207.999 59.032C209.935 59.032 211.673 57.998 212.509 56.304L211.035 55.754C210.441 56.81 209.253 57.492 207.999 57.492C206.899 57.492 205.931 57.008 205.271 56.106C204.853 55.556 204.699 55.116 204.611 54.258H213.059ZM204.633 53.026C204.765 52.212 204.897 51.794 205.205 51.31C205.799 50.43 206.811 49.902 207.933 49.902C209.055 49.902 210.089 50.43 210.727 51.288C211.079 51.794 211.233 52.234 211.299 53.026H204.633ZM224.1 53.18H226.366C227.994 53.18 229.138 52.85 229.996 52.168C230.986 51.354 231.558 50.056 231.558 48.604C231.558 45.7 229.644 44.116 226.168 44.116H222.252V58.79H224.1V53.18ZM224.1 51.596V45.7H225.772C226.652 45.7 227.246 45.788 227.818 45.986C228.984 46.382 229.688 47.394 229.688 48.648C229.688 49.902 228.962 50.936 227.84 51.332C227.334 51.53 226.806 51.596 226.014 51.596H224.1ZM233.785 48.648V58.79H235.457V53.642C235.457 52.476 235.611 51.882 236.051 51.244C236.557 50.496 237.349 50.078 238.251 50.078C238.361 50.078 238.537 50.078 238.713 50.1V48.406H238.317C237.591 48.406 236.887 48.626 236.381 49.022C235.985 49.33 235.765 49.638 235.457 50.364V48.648H233.785ZM244.802 48.406C241.722 48.406 239.61 50.562 239.61 53.708C239.61 56.832 241.722 59.032 244.736 59.032C247.64 59.032 249.928 56.722 249.928 53.752C249.928 50.628 247.794 48.406 244.802 48.406ZM244.802 49.946C246.848 49.946 248.212 51.464 248.212 53.73C248.212 55.93 246.782 57.492 244.78 57.492C242.712 57.492 241.326 55.974 241.326 53.73C241.326 51.464 242.712 49.946 244.802 49.946ZM258.247 48.648L255.299 56.392L252.439 48.648H250.679L254.397 58.79H256.157L259.985 48.648H258.247ZM263.408 48.648H261.736V58.79H263.408V48.648ZM262.594 44.71C261.978 44.71 261.516 45.172 261.516 45.788C261.516 46.404 261.978 46.866 262.572 46.866C263.166 46.866 263.65 46.404 263.65 45.81C263.65 45.194 263.188 44.71 262.594 44.71ZM274.354 50.188C273.364 48.956 272.22 48.406 270.724 48.406C267.974 48.406 265.95 50.694 265.95 53.774C265.95 56.854 267.93 59.032 270.724 59.032C272.264 59.032 273.342 58.438 274.354 57.052V58.79H276.026V44.116H274.354V50.188ZM271.076 49.902C273.012 49.902 274.354 51.464 274.354 53.752C274.354 55.952 272.924 57.58 270.966 57.58C269.052 57.58 267.71 56.018 267.71 53.796C267.71 51.486 269.074 49.902 271.076 49.902ZM288.813 54.258C288.835 54.016 288.835 53.73 288.835 53.598C288.835 50.628 286.635 48.406 283.687 48.406C280.717 48.406 278.583 50.628 278.583 53.752C278.583 56.832 280.739 59.032 283.753 59.032C285.689 59.032 287.427 57.998 288.263 56.304L286.789 55.754C286.195 56.81 285.007 57.492 283.753 57.492C282.653 57.492 281.685 57.008 281.025 56.106C280.607 55.556 280.453 55.116 280.365 54.258H288.813ZM280.387 53.026C280.519 52.212 280.651 51.794 280.959 51.31C281.553 50.43 282.565 49.902 283.687 49.902C284.809 49.902 285.843 50.43 286.481 51.288C286.833 51.794 286.987 52.234 287.053 53.026H280.387ZM291.256 48.648V58.79H292.928V53.642C292.928 52.476 293.082 51.882 293.522 51.244C294.028 50.496 294.82 50.078 295.722 50.078C295.832 50.078 296.008 50.078 296.184 50.1V48.406H295.788C295.062 48.406 294.358 48.626 293.852 49.022C293.456 49.33 293.236 49.638 292.928 50.364V48.648H291.256ZM304.661 51.42C304.573 49.506 303.275 48.406 301.119 48.406C298.985 48.406 297.555 49.594 297.555 51.354C297.555 52.894 298.545 53.818 300.745 54.412C302.483 54.852 303.055 55.292 303.055 56.172C303.055 57.074 302.307 57.668 301.163 57.668C299.887 57.668 299.139 57.052 299.029 55.908H297.379C297.555 57.954 298.853 59.032 301.163 59.032C303.319 59.032 304.771 57.844 304.771 56.084C304.771 55.336 304.463 54.61 303.957 54.104C303.473 53.62 302.791 53.29 301.493 52.938C299.667 52.432 299.227 52.102 299.227 51.222C299.227 50.342 299.931 49.77 301.053 49.77C302.219 49.77 302.989 50.364 302.989 51.31V51.42H304.661Z" fill="#071446"/>
<rect x="40.1309" y="266.29" width="147.369" height="10" fill="#EBFAFF"/>
<rect x="40.1309" y="286.29" width="126.316" height="5" fill="#EBFAFF"/>
<rect x="40.1309" y="296.29" width="133.224" height="5" fill="#EBFAFF"/>
<rect x="40.1309" y="306.29" width="122.698" height="5" fill="#EBFAFF"/>
<path d="M40 108.79C40 103.267 44.4772 98.79 50 98.79H177.5C183.023 98.79 187.5 103.267 187.5 108.79V246.29H40V108.79Z" fill="#EBFAFF"/>
<rect width="147.5" height="6.02245" transform="matrix(1 0 0 -1 40 246.29)" fill="#071446"/>
<path d="M113.5 181.891C126.357 181.891 136.781 171.467 136.781 158.61C136.781 145.752 126.357 135.329 113.5 135.329C100.642 135.329 90.2188 145.752 90.2188 158.61C90.2188 171.467 100.642 181.891 113.5 181.891Z" fill="white"/>
<path d="M128.225 179.516C124.057 182.459 118.979 184.196 113.5 184.196C108.021 184.196 102.943 182.46 98.7769 179.516C84.4469 181.446 74.3379 187.426 74.3379 203.845H152.662C152.662 187.426 142.555 181.446 128.225 179.516Z" fill="white"/>
<rect x="207.631" y="266.29" width="147.369" height="10" fill="#EBFAFF"/>
<rect x="207.631" y="286.29" width="126.316" height="5" fill="#EBFAFF"/>
<rect x="207.631" y="296.29" width="133.224" height="5" fill="#EBFAFF"/>
<rect x="207.631" y="306.29" width="122.698" height="5" fill="#EBFAFF"/>
<path d="M207.5 108.79C207.5 103.267 211.977 98.79 217.5 98.79H345C350.523 98.79 355 103.267 355 108.79V246.29H207.5V108.79Z" fill="#EBFAFF"/>
<rect width="147.5" height="6.02245" transform="matrix(1 0 0 -1 207.5 246.29)" fill="#071446"/>
<path d="M281 181.891C293.857 181.891 304.281 171.467 304.281 158.61C304.281 145.752 293.857 135.329 281 135.329C268.142 135.329 257.719 145.752 257.719 158.61C257.719 171.467 268.142 181.891 281 181.891Z" fill="white"/>
<path d="M295.725 179.516C291.557 182.459 286.479 184.196 281 184.196C275.521 184.196 270.443 182.46 266.277 179.516C251.947 181.446 241.838 187.426 241.838 203.845H320.162C320.162 187.426 310.055 181.446 295.725 179.516Z" fill="white"/>
<path d="M40 362C40 356.477 44.4772 352 50 352H177.5C183.023 352 187.5 356.477 187.5 362V499.5H40V362Z" fill="#EBFAFF"/>
<rect width="147.5" height="6.02245" transform="matrix(1 0 0 -1 40 499.5)" fill="#071446"/>
<path d="M113.5 435.101C126.357 435.101 136.781 424.677 136.781 411.82C136.781 398.962 126.357 388.539 113.5 388.539C100.642 388.539 90.2188 398.962 90.2188 411.82C90.2188 424.677 100.642 435.101 113.5 435.101Z" fill="white"/>
<path d="M128.225 432.726C124.057 435.669 118.979 437.406 113.5 437.406C108.021 437.406 102.943 435.67 98.7769 432.726C84.4469 434.656 74.3379 440.636 74.3379 457.055H152.662C152.662 440.636 142.555 434.656 128.225 432.726Z" fill="white"/>
<path d="M207.5 362C207.5 356.477 211.977 352 217.5 352H345C350.523 352 355 356.477 355 362V499.5H207.5V362Z" fill="#EBFAFF"/>
<rect width="147.5" height="6.02245" transform="matrix(1 0 0 -1 207.5 499.5)" fill="#071446"/>
<path d="M281 435.101C293.857 435.101 304.281 424.677 304.281 411.82C304.281 398.962 293.857 388.539 281 388.539C268.142 388.539 257.719 398.962 257.719 411.82C257.719 424.677 268.142 435.101 281 435.101Z" fill="white"/>
<path d="M295.725 432.726C291.557 435.669 286.479 437.406 281 437.406C275.521 437.406 270.443 435.67 266.277 432.726C251.947 434.656 241.838 440.636 241.838 457.055H320.162C320.162 440.636 310.055 434.656 295.725 432.726Z" fill="white"/>
</svg>
