<svg width="257" height="513" viewBox="0 0 257 513" fill="none" xmlns="http://www.w3.org/2000/svg">
<path d="M0 20.25C0 9.20429 8.9543 0.25 20 0.25H237C248.046 0.25 257 9.2043 257 20.25V513H0V20.25Z" fill="white"/>
<mask id="mask0" mask-type="alpha" maskUnits="userSpaceOnUse" x="0" y="0" width="257" height="513">
<path d="M0 20.25C0 9.20429 8.9543 0.25 20 0.25H237C248.046 0.25 257 9.2043 257 20.25V513H0V20.25Z" fill="white"/>
</mask>
<g mask="url(#mask0)">
<path d="M20 273.75C20 268.227 24.4772 263.75 30 263.75H108.5C114.023 263.75 118.5 268.227 118.5 273.75V360.661H20V273.75Z" fill="#EBFAFF"/>
<path d="M138.5 273.75C138.5 268.227 142.977 263.75 148.5 263.75H227C232.523 263.75 237 268.227 237 273.75V360.661H138.5V273.75Z" fill="#EBFAFF"/>
<path d="M20 390.661C20 385.138 24.4772 380.661 30 380.661H108.5C114.023 380.661 118.5 385.138 118.5 390.661V477.572H20V390.661Z" fill="#EBFAFF"/>
<path d="M138.5 390.661C138.5 385.138 142.977 380.661 148.5 380.661H227C232.523 380.661 237 385.138 237 390.661V477.572H138.5V390.661Z" fill="#EBFAFF"/>
<path d="M20 507.572C20 502.049 24.4772 497.572 30 497.572H108.5C114.023 497.572 118.5 502.049 118.5 507.572V594.484H20V507.572Z" fill="#EBFAFF"/>
<path d="M138.5 507.572C138.5 502.049 142.977 497.572 148.5 497.572H227C232.523 497.572 237 502.049 237 507.572V594.484H138.5V507.572Z" fill="#EBFAFF"/>
<path d="M20 40.25C20 34.7272 24.4772 30.25 30 30.25H227C232.523 30.25 237 34.7272 237 40.25V243.75H20V40.25Z" fill="#EBFAFF"/>
<rect x="40" y="178.75" width="177" height="10" fill="white"/>
<rect x="40" y="198.75" width="151.714" height="5" fill="white"/>
<rect x="40" y="208.75" width="160.011" height="5" fill="white"/>
<rect x="40" y="218.75" width="147.368" height="5" fill="white"/>
</g>
</svg>
