<svg width="395" height="513" viewBox="0 0 395 513" fill="none" xmlns="http://www.w3.org/2000/svg">
<path d="M0 20.25C0 9.20429 8.9543 0.25 20 0.25H375C386.046 0.25 395 9.2043 395 20.25V513H0V20.25Z" fill="white"/>
<rect x="110" y="494.5" width="186.5" height="5" fill="#EBFAFF"/>
<circle cx="65" cy="477" r="25" fill="#EBFAFF"/>
<path d="M75 477L60 485.66L60 468.34L75 477Z" fill="#071446"/>
<circle cx="65" cy="337" r="25" fill="#EBFAFF"/>
<path d="M54.5391 337.785L56.7941 334.889L62.8194 339.858L72.7208 329L75.4629 331.459L63.2035 345L54.5391 337.785Z" fill="white"/>
<circle cx="65" cy="407" r="25" fill="#EBFAFF"/>
<path d="M54.5391 407.785L56.7941 404.889L62.8194 409.858L72.7208 399L75.4629 401.459L63.2035 415L54.5391 407.785Z" fill="white"/>
<rect x="110" y="314.5" width="224" height="10" fill="#EBFAFF"/>
<rect x="110" y="334.5" width="192" height="5" fill="#EBFAFF"/>
<rect x="110" y="344.5" width="202.5" height="5" fill="#EBFAFF"/>
<rect x="110" y="354.5" width="186.5" height="5" fill="#EBFAFF"/>
<rect x="110" y="384.5" width="224" height="10" fill="#EBFAFF"/>
<rect x="110" y="404.5" width="192" height="5" fill="#EBFAFF"/>
<rect x="110" y="414.5" width="202.5" height="5" fill="#EBFAFF"/>
<rect x="110" y="424.5" width="186.5" height="5" fill="#EBFAFF"/>
<rect x="110" y="454.5" width="224" height="10" fill="#EBFAFF"/>
<rect x="110" y="474.5" width="192" height="5" fill="#EBFAFF"/>
<rect x="110" y="484.5" width="202.5" height="5" fill="#EBFAFF"/>
<path d="M43.498 45.7H49.284V44.116H41.65V58.79H49.284V57.206H43.498V52.19H49.284V50.606H43.498V45.7ZM55.3044 55.116L57.9004 58.79H59.9464L56.2944 53.752L60.1224 48.648H58.0764L55.3044 52.366L52.5984 48.648H50.4864L54.2924 53.752L50.5524 58.79H52.5984L55.3044 55.116ZM61.8888 48.648V63.542H63.5608V57.206C64.1108 57.932 64.4188 58.196 65.0348 58.504C65.7388 58.856 66.4648 59.032 67.2568 59.032C70.0728 59.032 72.0308 56.832 72.0308 53.642C72.0308 50.562 70.0728 48.406 67.2568 48.406C65.5628 48.406 64.5288 49 63.5608 50.496V48.648H61.8888ZM66.9708 49.902C67.8728 49.902 68.7748 50.298 69.3688 50.958C69.9628 51.618 70.2488 52.52 70.2488 53.708C70.2488 56.018 68.9068 57.58 66.9048 57.58C64.9028 57.58 63.5608 56.106 63.5608 53.884C63.5608 51.508 64.9468 49.902 66.9708 49.902ZM83.9806 54.258C84.0026 54.016 84.0026 53.73 84.0026 53.598C84.0026 50.628 81.8026 48.406 78.8546 48.406C75.8846 48.406 73.7506 50.628 73.7506 53.752C73.7506 56.832 75.9066 59.032 78.9206 59.032C80.8566 59.032 82.5946 57.998 83.4306 56.304L81.9566 55.754C81.3626 56.81 80.1746 57.492 78.9206 57.492C77.8206 57.492 76.8526 57.008 76.1926 56.106C75.7746 55.556 75.6206 55.116 75.5326 54.258H83.9806ZM75.5546 53.026C75.6866 52.212 75.8186 51.794 76.1266 51.31C76.7206 50.43 77.7326 49.902 78.8546 49.902C79.9766 49.902 81.0106 50.43 81.6486 51.288C82.0006 51.794 82.1546 52.234 82.2206 53.026H75.5546ZM86.424 48.648V58.79H88.096V53.642C88.096 52.476 88.25 51.882 88.69 51.244C89.196 50.496 89.988 50.078 90.89 50.078C91 50.078 91.176 50.078 91.352 50.1V48.406H90.956C90.23 48.406 89.526 48.626 89.02 49.022C88.624 49.33 88.404 49.638 88.096 50.364V48.648H86.424ZM95.6825 50.122H97.2225V48.648H95.6825V45.458H94.0105V48.648H92.6025V50.122H94.0105V57.206C94.0105 58.328 94.4725 58.768 95.6605 58.79H97.2225V57.338H96.4525C95.8365 57.338 95.7045 57.228 95.6825 56.722V50.122ZM108.192 57.118V44.116H106.344V58.79H113.362V57.118H108.192ZM124.672 54.258C124.694 54.016 124.694 53.73 124.694 53.598C124.694 50.628 122.494 48.406 119.546 48.406C116.576 48.406 114.442 50.628 114.442 53.752C114.442 56.832 116.598 59.032 119.612 59.032C121.548 59.032 123.286 57.998 124.122 56.304L122.648 55.754C122.054 56.81 120.866 57.492 119.612 57.492C118.512 57.492 117.544 57.008 116.884 56.106C116.466 55.556 116.312 55.116 116.224 54.258H124.672ZM116.246 53.026C116.378 52.212 116.51 51.794 116.818 51.31C117.412 50.43 118.424 49.902 119.546 49.902C120.668 49.902 121.702 50.43 122.34 51.288C122.692 51.794 122.846 52.234 122.912 53.026H116.246ZM134.814 50.32C133.824 49 132.702 48.406 131.162 48.406C128.368 48.406 126.344 50.65 126.344 53.752C126.344 56.832 128.324 59.032 131.118 59.032C132.658 59.032 133.802 58.35 134.814 56.832V58.79H136.486V48.648H134.814V50.32ZM131.404 49.902C133.428 49.902 134.836 51.42 134.836 53.62C134.836 55.798 133.274 57.58 131.36 57.58C129.512 57.58 128.104 55.952 128.104 53.796C128.104 52.806 128.412 51.838 128.94 51.112C129.534 50.276 130.304 49.902 131.404 49.902ZM147.446 50.188C146.456 48.956 145.312 48.406 143.816 48.406C141.066 48.406 139.042 50.694 139.042 53.774C139.042 56.854 141.022 59.032 143.816 59.032C145.356 59.032 146.434 58.438 147.446 57.052V58.79H149.118V44.116H147.446V50.188ZM144.168 49.902C146.104 49.902 147.446 51.464 147.446 53.752C147.446 55.952 146.016 57.58 144.058 57.58C142.144 57.58 140.802 56.018 140.802 53.796C140.802 51.486 142.166 49.902 144.168 49.902ZM163.396 55.776L159.458 44.116H157.522L162.472 58.79H164.276L169.38 44.116H167.422L163.396 55.776ZM172.744 48.648H171.072V58.79H172.744V48.648ZM171.93 44.71C171.314 44.71 170.852 45.172 170.852 45.788C170.852 46.404 171.314 46.866 171.908 46.866C172.502 46.866 172.986 46.404 172.986 45.81C172.986 45.194 172.524 44.71 171.93 44.71ZM183.69 50.188C182.7 48.956 181.556 48.406 180.06 48.406C177.31 48.406 175.286 50.694 175.286 53.774C175.286 56.854 177.266 59.032 180.06 59.032C181.6 59.032 182.678 58.438 183.69 57.052V58.79H185.362V44.116H183.69V50.188ZM180.412 49.902C182.348 49.902 183.69 51.464 183.69 53.752C183.69 55.952 182.26 57.58 180.302 57.58C178.388 57.58 177.046 56.018 177.046 53.796C177.046 51.486 178.41 49.902 180.412 49.902ZM198.149 54.258C198.171 54.016 198.171 53.73 198.171 53.598C198.171 50.628 195.971 48.406 193.023 48.406C190.053 48.406 187.919 50.628 187.919 53.752C187.919 56.832 190.075 59.032 193.089 59.032C195.025 59.032 196.763 57.998 197.599 56.304L196.125 55.754C195.531 56.81 194.343 57.492 193.089 57.492C191.989 57.492 191.021 57.008 190.361 56.106C189.943 55.556 189.789 55.116 189.701 54.258H198.149ZM189.723 53.026C189.855 52.212 189.987 51.794 190.295 51.31C190.889 50.43 191.901 49.902 193.023 49.902C194.145 49.902 195.179 50.43 195.817 51.288C196.169 51.794 196.323 52.234 196.389 53.026H189.723ZM204.97 48.406C201.89 48.406 199.778 50.562 199.778 53.708C199.778 56.832 201.89 59.032 204.904 59.032C207.808 59.032 210.096 56.722 210.096 53.752C210.096 50.628 207.962 48.406 204.97 48.406ZM204.97 49.946C207.016 49.946 208.38 51.464 208.38 53.73C208.38 55.93 206.95 57.492 204.948 57.492C202.88 57.492 201.494 55.974 201.494 53.73C201.494 51.464 202.88 49.946 204.97 49.946ZM229.668 55.336C228.524 56.722 227.292 57.36 225.686 57.36C222.65 57.36 220.428 54.874 220.428 51.464C220.428 48.032 222.606 45.546 225.598 45.546C227.16 45.546 228.238 46.074 229.668 47.548L230.944 46.36C230.218 45.568 229.822 45.216 229.228 44.842C228.172 44.204 226.874 43.852 225.554 43.852C221.506 43.852 218.536 47.064 218.536 51.464C218.536 53.51 219.262 55.512 220.494 56.898C221.748 58.306 223.486 59.054 225.532 59.054C227.798 59.054 229.426 58.306 230.9 56.568L229.668 55.336ZM237.433 48.406C234.353 48.406 232.241 50.562 232.241 53.708C232.241 56.832 234.353 59.032 237.367 59.032C240.271 59.032 242.559 56.722 242.559 53.752C242.559 50.628 240.425 48.406 237.433 48.406ZM237.433 49.946C239.479 49.946 240.843 51.464 240.843 53.73C240.843 55.93 239.413 57.492 237.411 57.492C235.343 57.492 233.957 55.974 233.957 53.73C233.957 51.464 235.343 49.946 237.433 49.946ZM251.004 48.648V55.138C251.004 55.952 250.894 56.37 250.564 56.766C250.146 57.25 249.464 57.536 248.76 57.536C247.418 57.536 246.494 56.524 246.494 55.094V48.648H244.822V55.138C244.822 56.37 245.152 57.294 245.834 57.954C246.56 58.636 247.616 59.032 248.76 59.032C249.904 59.032 250.938 58.658 251.686 57.976C252.434 57.294 252.698 56.524 252.698 55.138V48.648H251.004ZM255.785 48.648V58.79H257.457V53.642C257.457 52.476 257.611 51.882 258.051 51.244C258.557 50.496 259.349 50.078 260.251 50.078C260.361 50.078 260.537 50.078 260.713 50.1V48.406H260.317C259.591 48.406 258.887 48.626 258.381 49.022C257.985 49.33 257.765 49.638 257.457 50.364V48.648H255.785ZM269.19 51.42C269.102 49.506 267.804 48.406 265.648 48.406C263.514 48.406 262.084 49.594 262.084 51.354C262.084 52.894 263.074 53.818 265.274 54.412C267.012 54.852 267.584 55.292 267.584 56.172C267.584 57.074 266.836 57.668 265.692 57.668C264.416 57.668 263.668 57.052 263.558 55.908H261.908C262.084 57.954 263.382 59.032 265.692 59.032C267.848 59.032 269.3 57.844 269.3 56.084C269.3 55.336 268.992 54.61 268.486 54.104C268.002 53.62 267.32 53.29 266.022 52.938C264.196 52.432 263.756 52.102 263.756 51.222C263.756 50.342 264.46 49.77 265.582 49.77C266.748 49.77 267.518 50.364 267.518 51.31V51.42H269.19ZM281.293 54.258C281.315 54.016 281.315 53.73 281.315 53.598C281.315 50.628 279.115 48.406 276.167 48.406C273.197 48.406 271.063 50.628 271.063 53.752C271.063 56.832 273.219 59.032 276.233 59.032C278.169 59.032 279.907 57.998 280.743 56.304L279.269 55.754C278.675 56.81 277.487 57.492 276.233 57.492C275.133 57.492 274.165 57.008 273.505 56.106C273.087 55.556 272.933 55.116 272.845 54.258H281.293ZM272.867 53.026C272.999 52.212 273.131 51.794 273.439 51.31C274.033 50.43 275.045 49.902 276.167 49.902C277.289 49.902 278.323 50.43 278.961 51.288C279.313 51.794 279.467 52.234 279.533 53.026H272.867ZM290.051 51.42C289.963 49.506 288.665 48.406 286.509 48.406C284.375 48.406 282.945 49.594 282.945 51.354C282.945 52.894 283.935 53.818 286.135 54.412C287.873 54.852 288.445 55.292 288.445 56.172C288.445 57.074 287.697 57.668 286.553 57.668C285.277 57.668 284.529 57.052 284.419 55.908H282.769C282.945 57.954 284.243 59.032 286.553 59.032C288.709 59.032 290.161 57.844 290.161 56.084C290.161 55.336 289.853 54.61 289.347 54.104C288.863 53.62 288.181 53.29 286.883 52.938C285.057 52.432 284.617 52.102 284.617 51.222C284.617 50.342 285.321 49.77 286.443 49.77C287.609 49.77 288.379 50.364 288.379 51.31V51.42H290.051Z" fill="#071446"/>
<rect width="315" height="6.02245" transform="matrix(1 0 0 -1 40 282)" fill="#071446" fill-opacity="0.4"/>
<rect width="242" height="6.02245" transform="matrix(1 0 0 -1 40 282)" fill="#071446"/>
<path d="M40 108.79C40 103.267 44.4772 98.79 50 98.79H345C350.523 98.79 355 103.267 355 108.79V275.978H40V108.79Z" fill="#EBFAFF"/>
<rect width="315" height="6.02245" transform="matrix(1 0 0 -1 40 282)" fill="#071446"/>
<circle cx="197.5" cy="187.384" r="25" fill="white"/>
<path d="M207.5 187.384L192.5 196.044L192.5 178.724L207.5 187.384Z" fill="#071446"/>
</svg>
