<svg width="533" height="354" viewBox="0 0 533 354" fill="none" xmlns="http://www.w3.org/2000/svg">
<path d="M0 20C0 8.9543 8.95431 0 20 0H513C524.046 0 533 8.95431 533 20V354H0V20Z" fill="white"/>
<path d="M49.944 56.612L51.154 60H53.222L47.832 45.326H45.632L40.11 60H42.024L43.366 56.612H49.944ZM49.372 55.028H43.916L46.688 47.658L49.372 55.028ZM56.8618 51.332H58.4458V49.858H56.8618V48.494C56.9058 47.306 57.2358 46.954 58.4458 46.822V45.326C58.2698 45.304 58.0718 45.304 57.9838 45.304C56.2238 45.304 55.1898 46.492 55.1898 48.494V49.858H53.8038V51.332H55.1898V60H56.8618V51.332ZM62.9558 51.332H64.5398V49.858H62.9558V48.494C62.9998 47.306 63.3298 46.954 64.5398 46.822V45.326C64.3638 45.304 64.1658 45.304 64.0778 45.304C62.3178 45.304 61.2838 46.492 61.2838 48.494V49.858H59.8978V51.332H61.2838V60H62.9558V51.332ZM71.1867 49.616C68.1067 49.616 65.9947 51.772 65.9947 54.918C65.9947 58.042 68.1067 60.242 71.1207 60.242C74.0247 60.242 76.3127 57.932 76.3127 54.962C76.3127 51.838 74.1787 49.616 71.1867 49.616ZM71.1867 51.156C73.2327 51.156 74.5967 52.674 74.5967 54.94C74.5967 57.14 73.1667 58.702 71.1647 58.702C69.0967 58.702 67.7107 57.184 67.7107 54.94C67.7107 52.674 69.0967 51.156 71.1867 51.156ZM78.8615 49.858V60H80.5335V54.852C80.5335 53.686 80.6875 53.092 81.1275 52.454C81.6335 51.706 82.4255 51.288 83.3275 51.288C83.4375 51.288 83.6135 51.288 83.7895 51.31V49.616H83.3935C82.6675 49.616 81.9635 49.836 81.4575 50.232C81.0615 50.54 80.8415 50.848 80.5335 51.574V49.858H78.8615ZM93.1116 51.398C92.1216 50.166 90.9776 49.616 89.4816 49.616C86.7316 49.616 84.7076 51.904 84.7076 54.984C84.7076 58.064 86.6876 60.242 89.4816 60.242C91.0216 60.242 92.0996 59.648 93.1116 58.262V60H94.7836V45.326H93.1116V51.398ZM89.8336 51.112C91.7696 51.112 93.1116 52.674 93.1116 54.962C93.1116 57.162 91.6816 58.79 89.7236 58.79C87.8096 58.79 86.4676 57.228 86.4676 55.006C86.4676 52.696 87.8316 51.112 89.8336 51.112ZM105.724 51.53C104.734 50.21 103.612 49.616 102.072 49.616C99.2785 49.616 97.2545 51.86 97.2545 54.962C97.2545 58.042 99.2345 60.242 102.028 60.242C103.568 60.242 104.712 59.56 105.724 58.042V60H107.396V49.858H105.724V51.53ZM102.314 51.112C104.338 51.112 105.746 52.63 105.746 54.83C105.746 57.008 104.184 58.79 102.27 58.79C100.422 58.79 99.0145 57.162 99.0145 55.006C99.0145 54.016 99.3225 53.048 99.8505 52.322C100.444 51.486 101.214 51.112 102.314 51.112ZM112.438 58.262C113.428 59.648 114.528 60.242 116.09 60.242C118.862 60.242 120.82 58.064 120.82 54.962C120.82 51.816 118.84 49.616 116.002 49.616C114.528 49.616 113.45 50.21 112.438 51.596V45.326H110.766V60H112.438V58.262ZM115.782 51.112C117.696 51.112 119.06 52.74 119.06 55.006C119.06 57.272 117.718 58.79 115.716 58.79C113.736 58.79 112.416 57.25 112.416 54.94C112.416 52.718 113.846 51.112 115.782 51.112ZM125.049 60V45.326H123.377V60H125.049ZM137.82 55.468C137.842 55.226 137.842 54.94 137.842 54.808C137.842 51.838 135.642 49.616 132.694 49.616C129.724 49.616 127.59 51.838 127.59 54.962C127.59 58.042 129.746 60.242 132.76 60.242C134.696 60.242 136.434 59.208 137.27 57.514L135.796 56.964C135.202 58.02 134.014 58.702 132.76 58.702C131.66 58.702 130.692 58.218 130.032 57.316C129.614 56.766 129.46 56.326 129.372 55.468H137.82ZM129.394 54.236C129.526 53.422 129.658 53.004 129.966 52.52C130.56 51.64 131.572 51.112 132.694 51.112C133.816 51.112 134.85 51.64 135.488 52.498C135.84 53.004 135.994 53.444 136.06 54.236H129.394ZM148.862 53.51H156.012V60H157.86V45.326H156.012V51.926H148.862V45.326H147.014V60H148.862V53.51ZM170.777 55.468C170.799 55.226 170.799 54.94 170.799 54.808C170.799 51.838 168.599 49.616 165.651 49.616C162.681 49.616 160.547 51.838 160.547 54.962C160.547 58.042 162.703 60.242 165.717 60.242C167.653 60.242 169.391 59.208 170.227 57.514L168.753 56.964C168.159 58.02 166.971 58.702 165.717 58.702C164.617 58.702 163.649 58.218 162.989 57.316C162.571 56.766 162.417 56.326 162.329 55.468H170.777ZM162.351 54.236C162.483 53.422 162.615 53.004 162.923 52.52C163.517 51.64 164.529 51.112 165.651 51.112C166.773 51.112 167.807 51.64 168.445 52.498C168.797 53.004 168.951 53.444 169.017 54.236H162.351ZM180.92 51.53C179.93 50.21 178.808 49.616 177.268 49.616C174.474 49.616 172.45 51.86 172.45 54.962C172.45 58.042 174.43 60.242 177.224 60.242C178.764 60.242 179.908 59.56 180.92 58.042V60H182.592V49.858H180.92V51.53ZM177.51 51.112C179.534 51.112 180.942 52.63 180.942 54.83C180.942 57.008 179.38 58.79 177.466 58.79C175.618 58.79 174.21 57.162 174.21 55.006C174.21 54.016 174.518 53.048 175.046 52.322C175.64 51.486 176.41 51.112 177.51 51.112ZM187.633 60V45.326H185.961V60H187.633ZM192.77 51.332H194.31V49.858H192.77V46.668H191.098V49.858H189.69V51.332H191.098V58.416C191.098 59.538 191.56 59.978 192.748 60H194.31V58.548H193.54C192.924 58.548 192.792 58.438 192.77 57.932V51.332ZM198.289 45.326H196.617V60H198.289V54.06C198.289 53.092 198.443 52.586 198.949 52.014C199.477 51.42 200.159 51.112 200.929 51.112C202.139 51.112 202.821 51.882 202.821 53.268V60H204.493V53.18C204.493 51.882 204.251 51.09 203.701 50.54C203.151 49.968 202.227 49.616 201.347 49.616C200.137 49.616 199.213 50.122 198.289 51.266V45.326ZM216.387 45.326H214.539V60H216.387V45.326ZM219.885 49.858V60H221.557V53.818C221.557 52.982 221.733 52.498 222.217 51.97C222.723 51.398 223.405 51.112 224.153 51.112C224.835 51.112 225.429 51.376 225.737 51.794C226.001 52.146 226.111 52.63 226.111 53.532V60H227.783V53.158C227.783 51.772 227.563 51.068 226.925 50.452C226.331 49.924 225.495 49.616 224.571 49.616C223.317 49.616 222.437 50.1 221.557 51.288V49.858H219.885ZM237.436 52.63C237.348 50.716 236.05 49.616 233.894 49.616C231.76 49.616 230.33 50.804 230.33 52.564C230.33 54.104 231.32 55.028 233.52 55.622C235.258 56.062 235.83 56.502 235.83 57.382C235.83 58.284 235.082 58.878 233.938 58.878C232.662 58.878 231.914 58.262 231.804 57.118H230.154C230.33 59.164 231.628 60.242 233.938 60.242C236.094 60.242 237.546 59.054 237.546 57.294C237.546 56.546 237.238 55.82 236.732 55.314C236.248 54.83 235.566 54.5 234.268 54.148C232.442 53.642 232.002 53.312 232.002 52.432C232.002 51.552 232.706 50.98 233.828 50.98C234.994 50.98 235.764 51.574 235.764 52.52V52.63H237.436ZM246.019 49.858V56.348C246.019 57.162 245.909 57.58 245.579 57.976C245.161 58.46 244.479 58.746 243.775 58.746C242.433 58.746 241.509 57.734 241.509 56.304V49.858H239.837V56.348C239.837 57.58 240.167 58.504 240.849 59.164C241.575 59.846 242.631 60.242 243.775 60.242C244.919 60.242 245.953 59.868 246.701 59.186C247.449 58.504 247.713 57.734 247.713 56.348V49.858H246.019ZM250.801 49.858V60H252.473V54.852C252.473 53.686 252.627 53.092 253.067 52.454C253.573 51.706 254.365 51.288 255.267 51.288C255.377 51.288 255.553 51.288 255.729 51.31V49.616H255.333C254.607 49.616 253.903 49.836 253.397 50.232C253.001 50.54 252.781 50.848 252.473 51.574V49.858H250.801ZM265.117 51.53C264.127 50.21 263.005 49.616 261.465 49.616C258.671 49.616 256.647 51.86 256.647 54.962C256.647 58.042 258.627 60.242 261.421 60.242C262.961 60.242 264.105 59.56 265.117 58.042V60H266.789V49.858H265.117V51.53ZM261.707 51.112C263.731 51.112 265.139 52.63 265.139 54.83C265.139 57.008 263.577 58.79 261.663 58.79C259.815 58.79 258.407 57.162 258.407 55.006C258.407 54.016 258.715 53.048 259.243 52.322C259.837 51.486 260.607 51.112 261.707 51.112ZM270.158 49.858V60H271.83V53.818C271.83 52.982 272.006 52.498 272.49 51.97C272.996 51.398 273.678 51.112 274.426 51.112C275.108 51.112 275.702 51.376 276.01 51.794C276.274 52.146 276.384 52.63 276.384 53.532V60H278.056V53.158C278.056 51.772 277.836 51.068 277.198 50.452C276.604 49.924 275.768 49.616 274.844 49.616C273.59 49.616 272.71 50.1 271.83 51.288V49.858H270.158ZM288.216 57.602C287.402 58.372 286.61 58.702 285.62 58.702C283.64 58.702 282.254 57.14 282.254 54.896C282.254 52.696 283.64 51.156 285.642 51.156C286.588 51.156 287.446 51.508 288.216 52.212L289.294 51.134C288.238 50.1 287.05 49.616 285.598 49.616C282.628 49.616 280.538 51.816 280.538 54.962C280.538 58.042 282.606 60.242 285.51 60.242C286.984 60.242 288.106 59.78 289.25 58.746L288.216 57.602ZM300.457 55.468C300.479 55.226 300.479 54.94 300.479 54.808C300.479 51.838 298.279 49.616 295.331 49.616C292.361 49.616 290.227 51.838 290.227 54.962C290.227 58.042 292.383 60.242 295.397 60.242C297.333 60.242 299.071 59.208 299.907 57.514L298.433 56.964C297.839 58.02 296.651 58.702 295.397 58.702C294.297 58.702 293.329 58.218 292.669 57.316C292.251 56.766 292.097 56.326 292.009 55.468H300.457ZM292.031 54.236C292.163 53.422 292.295 53.004 292.603 52.52C293.197 51.64 294.209 51.112 295.331 51.112C296.453 51.112 297.487 51.64 298.125 52.498C298.477 53.004 298.631 53.444 298.697 54.236H292.031Z" fill="#071446"/>
<mask id="mask0" mask-type="alpha" maskUnits="userSpaceOnUse" x="0" y="0" width="533" height="354">
<path d="M0 20C0 8.9543 8.95431 0 20 0H513C524.046 0 533 8.95431 533 20V354H0V20Z" fill="white"/>
</mask>
<g mask="url(#mask0)">
<path d="M40 110.5C40 104.977 44.4772 100.5 50 100.5H167.667C173.19 100.5 177.667 104.977 177.667 110.5V314H40V110.5Z" fill="#EBFAFF"/>
<rect x="60.1309" y="249" width="97.54" height="10" fill="white"/>
<rect x="60.1309" y="269" width="83.6057" height="5" fill="white"/>
<rect x="60.1309" y="279" width="88.1779" height="5" fill="white"/>
<rect x="60.1309" y="289" width="81.2108" height="5" fill="white"/>
<path fill-rule="evenodd" clip-rule="evenodd" d="M146.362 145.501C136.113 141.029 135.088 133.575 135.088 125.159C135.088 118.916 157.666 118.978 157.666 125.159C157.666 133.575 156.642 141.029 146.362 145.501ZM141.672 130.19H145.088V126.774H147.666V130.19H151.082V132.768H147.666V136.215H145.088V132.768H141.672V130.19Z" fill="white"/>
<path d="M65.324 128.238C66.094 128.348 66.556 128.788 66.534 129.448H69.46C69.35 127.204 68.008 125.928 65.324 125.51V123.948H64.224V125.51C61.782 125.576 60 127.402 60 129.822C60 132.022 61.188 133.276 64.224 134.288V137.456C63.41 137.236 63.036 136.752 63.058 135.982H60.066C60.11 138.292 61.826 140.03 64.224 140.162V142.054H65.324V140.162C66.358 140.03 66.864 139.898 67.414 139.612C68.756 138.93 69.68 137.368 69.68 135.762C69.68 134.398 69.02 133.254 67.832 132.55C67.106 132.11 66.49 131.846 65.324 131.472V128.238ZM64.224 131.098C63.696 130.878 63.586 130.812 63.432 130.702C63.168 130.482 62.948 130.042 62.948 129.646C62.948 128.854 63.432 128.348 64.224 128.238V131.098ZM65.324 134.684C66.27 134.948 66.578 135.278 66.578 135.982C66.578 136.796 66.138 137.302 65.324 137.456V134.684Z" fill="#071446"/>
<path d="M197.666 110.5C197.666 104.977 202.143 100.5 207.666 100.5H325.333C330.856 100.5 335.333 104.977 335.333 110.5V314H197.666V110.5Z" fill="#EBFAFF"/>
<rect x="217.797" y="249" width="97.54" height="10" fill="white"/>
<rect x="217.797" y="269" width="83.6057" height="5" fill="white"/>
<rect x="217.797" y="279" width="88.1779" height="5" fill="white"/>
<rect x="217.797" y="289" width="81.2108" height="5" fill="white"/>
<path fill-rule="evenodd" clip-rule="evenodd" d="M304.028 145.501C293.779 141.029 292.754 133.575 292.754 125.159C292.754 118.916 315.332 118.978 315.332 125.159C315.332 133.575 314.308 141.029 304.028 145.501ZM299.338 130.19H302.754V126.774H305.332V130.19H308.748V132.768H305.332V136.215H302.754V132.768H299.338V130.19Z" fill="white"/>
<path d="M222.99 128.238C223.76 128.348 224.222 128.788 224.2 129.448H227.126C227.016 127.204 225.674 125.928 222.99 125.51V123.948H221.89V125.51C219.448 125.576 217.666 127.402 217.666 129.822C217.666 132.022 218.854 133.276 221.89 134.288V137.456C221.076 137.236 220.702 136.752 220.724 135.982H217.732C217.776 138.292 219.492 140.03 221.89 140.162V142.054H222.99V140.162C224.024 140.03 224.53 139.898 225.08 139.612C226.422 138.93 227.346 137.368 227.346 135.762C227.346 134.398 226.686 133.254 225.498 132.55C224.772 132.11 224.156 131.846 222.99 131.472V128.238ZM221.89 131.098C221.362 130.878 221.252 130.812 221.098 130.702C220.834 130.482 220.614 130.042 220.614 129.646C220.614 128.854 221.098 128.348 221.89 128.238V131.098ZM222.99 134.684C223.936 134.948 224.244 135.278 224.244 135.982C224.244 136.796 223.804 137.302 222.99 137.456V134.684Z" fill="#071446"/>
<path d="M355.332 110.5C355.332 104.977 359.809 100.5 365.332 100.5H482.999C488.522 100.5 492.999 104.977 492.999 110.5V314H355.332V110.5Z" fill="#EBFAFF"/>
<rect x="375.463" y="249" width="97.54" height="10" fill="white"/>
<rect x="375.463" y="269" width="83.6057" height="5" fill="white"/>
<rect x="375.463" y="279" width="88.1779" height="5" fill="white"/>
<rect x="375.463" y="289" width="81.2108" height="5" fill="white"/>
<path fill-rule="evenodd" clip-rule="evenodd" d="M461.694 145.501C451.445 141.029 450.42 133.575 450.42 125.159C450.42 118.916 472.999 118.978 472.999 125.159C472.999 133.575 471.974 141.029 461.694 145.501ZM457.004 130.19H460.42V126.774H462.998V130.19H466.414V132.768H462.998V136.215H460.42V132.768H457.004V130.19Z" fill="white"/>
<path d="M380.656 128.238C381.426 128.348 381.888 128.788 381.866 129.448H384.792C384.682 127.204 383.34 125.928 380.656 125.51V123.948H379.556V125.51C377.114 125.576 375.332 127.402 375.332 129.822C375.332 132.022 376.52 133.276 379.556 134.288V137.456C378.742 137.236 378.368 136.752 378.39 135.982H375.398C375.442 138.292 377.158 140.03 379.556 140.162V142.054H380.656V140.162C381.69 140.03 382.196 139.898 382.746 139.612C384.088 138.93 385.012 137.368 385.012 135.762C385.012 134.398 384.352 133.254 383.164 132.55C382.438 132.11 381.822 131.846 380.656 131.472V128.238ZM379.556 131.098C379.028 130.878 378.918 130.812 378.764 130.702C378.5 130.482 378.28 130.042 378.28 129.646C378.28 128.854 378.764 128.348 379.556 128.238V131.098ZM380.656 134.684C381.602 134.948 381.91 135.278 381.91 135.982C381.91 136.796 381.47 137.302 380.656 137.456V134.684Z" fill="#071446"/>
<path d="M40 344C40 338.477 44.4772 334 50 334H167.667C173.19 334 177.667 338.477 177.667 344V547.5H40V344Z" fill="#EBFAFF"/>
<path fill-rule="evenodd" clip-rule="evenodd" d="M146.362 379.001C136.113 374.529 135.088 367.075 135.088 358.659C135.088 352.416 157.666 352.478 157.666 358.659C157.666 367.075 156.642 374.529 146.362 379.001ZM141.672 363.69H145.088V360.274H147.666V363.69H151.082V366.268H147.666V369.715H145.088V366.268H141.672V363.69Z" fill="white"/>
<path d="M197.666 344C197.666 338.477 202.143 334 207.666 334H325.333C330.856 334 335.333 338.477 335.333 344V547.5H197.666V344Z" fill="#EBFAFF"/>
<path fill-rule="evenodd" clip-rule="evenodd" d="M304.028 379.001C293.779 374.529 292.754 367.075 292.754 358.659C292.754 352.416 315.332 352.478 315.332 358.659C315.332 367.075 314.308 374.529 304.028 379.001ZM299.338 363.69H302.754V360.274H305.332V363.69H308.748V366.268H305.332V369.715H302.754V366.268H299.338V363.69Z" fill="white"/>
<path d="M355.332 344C355.332 338.477 359.809 334 365.332 334H482.999C488.522 334 492.999 338.477 492.999 344V547.5H355.332V344Z" fill="#EBFAFF"/>
<path fill-rule="evenodd" clip-rule="evenodd" d="M461.694 379.001C451.445 374.529 450.42 367.075 450.42 358.659C450.42 352.416 472.999 352.478 472.999 358.659C472.999 367.075 471.974 374.529 461.694 379.001ZM457.004 363.69H460.42V360.274H462.998V363.69H466.414V366.268H462.998V369.715H460.42V366.268H457.004V363.69Z" fill="white"/>
</g>
</svg>
