<svg width="117" height="29" viewBox="0 0 117 29" fill="none" xmlns="http://www.w3.org/2000/svg">
<g clip-path="url(#clip0)">
<path d="M2.99062 5.4375C2.5375 6.07187 2.175 6.70625 1.8125 7.34063C2.26562 7.25 2.80938 7.15938 3.53438 7.15938C3.2625 6.525 3.08125 5.98125 2.99062 5.4375Z" fill="white"/>
<path d="M0 16.2219C0.090625 16.9469 0.271875 17.6719 0.453125 18.3969C0.725 17.9438 1.0875 17.4907 1.54063 17.0375C0.90625 16.8563 0.3625 16.4938 0 16.2219Z" fill="white"/>
<path d="M1.8125 21.6594C2.175 22.2938 2.62813 22.9282 3.08125 23.4719C3.17188 22.9282 3.35313 22.3844 3.53438 21.8407C2.80938 21.8407 2.26562 21.75 1.8125 21.6594Z" fill="white"/>
<path d="M0.453125 10.6031C0.271875 11.3281 0.090625 12.0531 0 12.7781C0.3625 12.5063 0.90625 12.2344 1.54063 11.9625C1.0875 11.4188 0.725 10.9656 0.453125 10.6031Z" fill="white"/>
<path d="M17.0383 27.4594C16.7664 28.0937 16.4945 28.5469 16.2227 29C16.9477 28.9094 17.6727 28.7281 18.3977 28.5469C18.0352 28.275 17.582 27.9125 17.0383 27.4594Z" fill="white"/>
<path d="M21.6602 27.1875C22.2945 26.825 22.9289 26.3718 23.4727 25.9187C22.9289 25.8281 22.3852 25.6468 21.8414 25.4656C21.8414 26.1906 21.7508 26.7343 21.6602 27.1875Z" fill="white"/>
<path d="M10.6035 28.5469C11.3285 28.7281 12.0535 28.9094 12.7785 29C12.5066 28.6375 12.2348 28.0937 11.9629 27.4594C11.4191 27.9125 10.966 28.275 10.6035 28.5469Z" fill="white"/>
<path d="M5.4375 26.0094C5.98125 26.4625 6.61562 26.9156 7.25 27.2781C7.15937 26.825 7.06875 26.1906 7.06875 25.5563C6.525 25.7375 5.98125 25.9188 5.4375 26.0094Z" fill="white"/>
<path d="M7.34063 1.8125C6.70625 2.175 6.07188 2.5375 5.4375 2.99062C5.98125 3.08125 6.525 3.2625 7.15938 3.44375C7.15938 2.80937 7.25 2.26562 7.34063 1.8125Z" fill="white"/>
<path d="M27.459 17.0375C27.9121 17.4907 28.2746 17.9438 28.5465 18.3969C28.7277 17.6719 28.909 16.9469 28.9996 16.2219C28.6371 16.4938 28.0934 16.8563 27.459 17.0375Z" fill="white"/>
<path d="M26.0098 23.5625C26.4629 23.0187 26.916 22.3844 27.2785 21.75C26.8254 21.8406 26.191 21.9313 25.5566 21.9313C25.7379 22.475 25.9191 23.0187 26.0098 23.5625Z" fill="white"/>
<path d="M28.9996 12.7781C28.909 12.0531 28.7277 11.3281 28.5465 10.6031C28.2746 11.0563 27.9121 11.5094 27.459 11.9625C28.0934 12.1438 28.6371 12.5063 28.9996 12.7781Z" fill="white"/>
<path d="M12.7785 0C12.0535 0.090625 11.3285 0.271875 10.6035 0.453125C11.0566 0.725 11.5098 1.0875 11.9629 1.54063C12.1441 0.90625 12.5066 0.3625 12.7785 0Z" fill="white"/>
<path d="M18.3977 0.453125C17.6727 0.271875 16.9477 0.090625 16.2227 0C16.4945 0.3625 16.7664 0.90625 17.0383 1.54063C17.582 1.0875 18.0352 0.725 18.3977 0.453125Z" fill="white"/>
<path d="M27.1867 7.34063C26.8242 6.70625 26.3711 6.07187 25.918 5.4375C25.8273 5.98125 25.6461 6.525 25.4648 7.15938C26.1898 7.15938 26.7336 7.25 27.1867 7.34063Z" fill="white"/>
<path d="M23.5625 2.99067C23.0187 2.53755 22.3844 2.08442 21.75 1.72192C21.8406 2.17505 21.9313 2.80942 21.9313 3.4438C22.475 3.26255 23.0187 3.0813 23.5625 2.99067Z" fill="white"/>
<path d="M11.7812 20.9343C11.7812 21.025 11.7812 21.025 11.7812 20.9343C11.7812 21.025 11.8719 21.025 11.7812 20.9343C11.7812 21.025 11.7812 21.025 11.7812 20.9343Z" fill="white"/>
<path d="M10.3313 20.6625C9.87813 20.7531 9.51563 20.9344 9.0625 21.025C8.88125 21.75 8.79063 22.5656 8.60938 23.2C9.15313 22.8375 9.7875 22.475 10.5125 22.0219C10.5125 21.5687 10.4219 21.1156 10.3313 20.6625Z" fill="white"/>
<path d="M22.5656 11.9625C22.2937 12.325 22.0219 12.6875 21.75 13.05C22.1125 13.2313 22.5656 13.5031 22.9281 13.6844C23.5625 13.2313 24.1969 12.8688 24.7406 12.4156C24.1062 12.325 23.3812 12.1438 22.5656 11.9625Z" fill="white"/>
<path d="M20.482 4.16875C20.5727 2.26562 20.2102 1.54062 19.9383 1.35938C19.9383 1.35938 19.8477 1.35938 19.757 1.35938C19.3945 1.35938 18.6695 1.72187 17.582 2.99062C17.8539 3.80625 18.0352 4.62187 18.2164 5.61875C19.032 4.98437 19.757 4.53125 20.482 4.16875Z" fill="white"/>
<path d="M26.0102 11.4188C27.4602 10.15 27.732 9.33442 27.5508 9.06255C27.3695 8.70005 26.6445 8.5188 25.4664 8.5188C25.2852 8.5188 25.0133 8.5188 24.832 8.5188C24.4695 9.2438 24.0164 9.9688 23.4727 10.7844C24.3789 10.9657 25.2852 11.1469 26.0102 11.4188Z" fill="white"/>
<path d="M22.9281 15.3157C22.5656 15.4969 22.2031 15.7688 21.75 15.95C22.0219 16.3125 22.2937 16.675 22.5656 17.0375C23.3812 16.8563 24.1062 16.7657 24.7406 16.5844C24.1969 16.1313 23.5625 15.6782 22.9281 15.3157Z" fill="white"/>
<path d="M21.0258 19.9375C21.7508 20.1188 22.5664 20.2094 23.2008 20.3907C22.8383 19.8469 22.4758 19.2125 22.0227 18.4875C21.5695 18.5782 21.1164 18.5782 20.7539 18.6688C20.7539 19.0313 20.9352 19.4844 21.0258 19.9375Z" fill="white"/>
<path d="M20.9336 17.2187H21.0242C21.0242 17.2187 21.0242 17.1281 20.9336 17.2187C21.0242 17.2187 21.0242 17.2187 20.9336 17.2187Z" fill="white"/>
<path d="M19.9383 21.025C19.4852 20.9344 19.1227 20.8437 18.6695 20.6625C18.5789 21.1156 18.5789 21.5687 18.4883 21.9312C19.1227 22.3844 19.757 22.8375 20.3914 23.1094C20.2102 22.475 20.1195 21.75 19.9383 21.025Z" fill="white"/>
<path d="M21.0246 9.0625C20.934 9.51563 20.8434 9.87812 20.6621 10.3312C21.1152 10.4219 21.5684 10.4219 21.9309 10.5125C22.384 9.87813 22.8371 9.24375 23.1996 8.60938C22.5652 8.79063 21.8402 8.88125 21.0246 9.0625Z" fill="white"/>
<path d="M6.43477 17.0375C6.70664 16.675 6.97852 16.3125 7.25039 15.95C6.88789 15.7688 6.43477 15.4969 6.07227 15.3157C5.43789 15.7688 4.80352 16.1313 4.25977 16.5844C4.89414 16.675 5.61914 16.8563 6.43477 17.0375Z" fill="white"/>
<path d="M9.0625 7.97505C9.51563 8.06567 9.87813 8.1563 10.3313 8.33755C10.4219 7.88442 10.4219 7.4313 10.5125 7.0688C9.87813 6.61567 9.24375 6.16255 8.60938 5.80005C8.79063 6.43442 8.88125 7.15942 9.0625 7.97505Z" fill="white"/>
<path d="M8.06523 11.7812H7.97461C7.97461 11.7812 7.97461 11.8719 8.06523 11.7812C7.97461 11.7812 7.97461 11.7812 8.06523 11.7812Z" fill="white"/>
<path d="M6.07227 13.6844C6.43477 13.5031 6.79727 13.2313 7.25039 13.05C6.97852 12.6875 6.70664 12.325 6.43477 11.9625C5.61914 12.1438 4.89414 12.2344 4.25977 12.4156C4.80352 12.8688 5.43789 13.3219 6.07227 13.6844Z" fill="white"/>
<path d="M8.33828 10.3312C8.24766 9.9687 8.06641 9.51558 7.97578 9.06245C7.16016 8.8812 6.43516 8.79058 5.80078 8.69995C6.16328 9.2437 6.52578 9.87808 7.06953 10.6031C7.43203 10.5125 7.88516 10.4218 8.33828 10.3312Z" fill="white"/>
<path d="M13.0504 7.25002C13.2316 6.88752 13.5035 6.4344 13.6848 6.0719C13.2316 5.43752 12.8691 4.80315 12.416 4.2594C12.2348 4.89377 12.1441 5.61877 11.9629 6.4344C12.3254 6.70627 12.6879 6.97815 13.0504 7.25002Z" fill="white"/>
<path d="M18.6695 8.33755C19.032 8.24692 19.4852 8.06567 19.9383 7.97505C20.1195 7.25005 20.2102 6.43442 20.3914 5.80005C19.8477 6.16255 19.2133 6.52505 18.4883 6.97817C18.4883 7.4313 18.5789 7.88442 18.6695 8.33755Z" fill="white"/>
<path d="M17.218 8.0656V7.97498C17.218 7.97498 17.1274 7.97498 17.218 8.0656C17.218 7.97498 17.218 7.97498 17.218 8.0656Z" fill="white"/>
<path d="M15.3164 6.0719C15.4977 6.4344 15.7695 6.7969 15.9508 7.25002C16.3133 6.97815 16.6758 6.70627 17.0383 6.4344C16.857 5.61877 16.7664 4.89377 16.5852 4.2594C16.132 4.80315 15.6789 5.43752 15.3164 6.0719Z" fill="white"/>
<path d="M14.4996 0.271851C14.0465 0.271851 13.5027 1.08748 12.959 2.6281C13.1402 2.80935 13.3215 3.08123 13.5027 3.3531C13.8652 3.80623 14.1371 4.25935 14.4996 4.8031C14.8621 4.25935 15.134 3.80623 15.4965 3.3531C15.6777 3.08123 15.859 2.89998 16.0402 2.6281C15.4965 1.08748 14.9527 0.271851 14.4996 0.271851Z" fill="white"/>
<path d="M8.3375 18.6688C7.88438 18.5782 7.43125 18.5782 7.06875 18.4875C6.61563 19.1219 6.1625 19.7563 5.89062 20.3907C6.525 20.2094 7.25 20.1188 7.975 19.9375C8.06563 19.4844 8.24688 19.0313 8.3375 18.6688Z" fill="white"/>
<path d="M7.24918 4.9844C6.2523 4.53127 5.43668 4.2594 4.98355 4.2594C4.71168 4.2594 4.53043 4.35002 4.4398 4.44065C4.16793 4.80315 4.25855 5.7094 4.98355 7.25002C5.79918 7.34065 6.70542 7.43127 7.61167 7.70315C7.43042 6.70627 7.3398 5.80002 7.24918 4.9844Z" fill="white"/>
<path d="M21.7492 4.98438C21.7492 5.25625 21.6586 5.52813 21.6586 5.89063C21.568 6.43438 21.4773 7.06875 21.3867 7.6125C22.293 7.43125 23.1992 7.25 24.0148 7.15938C24.7398 5.70938 24.8305 4.7125 24.5586 4.35C24.1961 4.16875 23.2898 4.25938 21.7492 4.98438Z" fill="white"/>
<path d="M8.5181 24.8313C8.42747 26.7344 8.78997 27.4594 9.06185 27.6407C9.33372 27.7313 10.1493 27.55 11.4181 26.1C11.1462 25.2844 10.965 24.4688 10.7837 23.4719C9.9681 24.0157 9.2431 24.4688 8.5181 24.8313Z" fill="white"/>
<path d="M25.6473 13.5031C25.1941 13.8656 24.741 14.1375 24.1973 14.5C24.741 14.8625 25.1941 15.1344 25.6473 15.4969C25.9191 15.6781 26.1004 15.8594 26.3723 16.0406C27.9129 15.4969 28.7285 14.9531 28.7285 14.5C28.7285 14.0469 27.9129 13.5031 26.3723 12.9594C26.1004 13.1406 25.9191 13.3219 25.6473 13.5031Z" fill="white"/>
<path d="M14.4996 24.1969C14.1371 24.7406 13.8652 25.1938 13.5027 25.6469C13.3215 25.9188 13.1402 26.1 12.959 26.3719C13.5027 27.9125 14.0465 28.7281 14.4996 28.7281C14.9527 28.7281 15.4965 27.9125 16.0402 26.3719C15.859 26.1906 15.6777 25.9188 15.4965 25.6469C15.134 25.1938 14.8621 24.7406 14.4996 24.1969Z" fill="white"/>
<path d="M24.832 20.4813C26.7352 20.5719 27.4602 20.2094 27.6414 19.9375C27.732 19.6657 27.5508 18.85 26.1008 17.5813C25.2852 17.8532 24.4695 18.0344 23.4727 18.2157C24.0164 19.0313 24.4695 19.7563 24.832 20.4813Z" fill="white"/>
<path d="M17.582 26.0094C18.8508 27.4594 19.6664 27.7312 19.9383 27.55C20.2102 27.4594 20.5727 26.7344 20.482 24.7406C19.757 24.3781 19.032 23.925 18.2164 23.3812C18.0352 24.3781 17.8539 25.2844 17.582 26.0094Z" fill="white"/>
<path d="M7.25035 24.0156C7.25035 23.7437 7.34097 23.4718 7.34097 23.1093C7.4316 22.5656 7.52222 21.9312 7.70347 21.3875C7.0691 21.4781 6.52535 21.6593 5.9816 21.75C5.70972 21.75 5.34722 21.8406 5.07535 21.8406C4.35035 23.2906 4.25972 24.2875 4.5316 24.5593C4.80347 24.8312 5.70972 24.7406 7.25035 24.0156Z" fill="white"/>
<path d="M2.99066 17.5813C1.54066 18.85 1.26878 19.6657 1.45003 19.9375C1.63128 20.2094 2.26566 20.5719 4.25941 20.4813C4.53128 19.7563 4.98441 19.0313 5.52816 18.2157C4.62191 18.0344 3.71566 17.8532 2.99066 17.5813Z" fill="white"/>
<path d="M3.35273 15.4969C3.80586 15.1344 4.25898 14.8625 4.80273 14.5C4.25898 14.1375 3.80586 13.8656 3.35273 13.5031C3.08086 13.3219 2.89961 13.1406 2.62773 12.9594C1.08711 13.5031 0.271484 14.0469 0.271484 14.5C0.271484 14.9531 1.08711 15.4969 2.62773 16.0406C2.89961 15.8594 3.08086 15.6781 3.35273 15.4969Z" fill="white"/>
<path d="M21.3867 21.3875C21.4773 22.0218 21.6586 22.5656 21.7492 23.1093C21.7492 23.3812 21.8398 23.7437 21.8398 24.0156C23.2898 24.7406 24.2867 24.8312 24.5586 24.5593C24.8305 24.2875 24.7398 23.2906 24.0148 21.8406C23.743 21.8406 23.4711 21.75 23.1086 21.75C22.5648 21.5687 21.9305 21.4781 21.3867 21.3875Z" fill="white"/>
<path d="M4.16782 8.5188C3.98657 8.5188 3.7147 8.5188 3.53345 8.5188C2.2647 8.5188 1.5397 8.79067 1.44907 9.06255C1.35845 9.33442 1.5397 10.15 2.9897 11.4188C3.80532 11.1469 4.62095 10.9657 5.61782 10.7844C4.98345 9.9688 4.53032 9.2438 4.16782 8.5188Z" fill="white"/>
<path d="M11.4195 2.99062C10.332 1.72187 9.60702 1.35938 9.24452 1.35938C9.15389 1.35938 9.15389 1.35938 9.06327 1.35938C8.70077 1.54063 8.42889 2.5375 8.51952 4.16875C9.24452 4.53125 9.96952 4.98438 10.7851 5.52812C10.9664 4.62187 11.1476 3.71563 11.4195 2.99062Z" fill="white"/>
<path d="M13.0504 21.75C12.6879 22.0219 12.3254 22.2937 11.9629 22.5656C12.1441 23.3812 12.2348 24.1062 12.416 24.7406C12.8691 24.1969 13.2316 23.5625 13.6848 22.9281C13.5035 22.5656 13.2316 22.2031 13.0504 21.75Z" fill="white"/>
<path d="M15.9508 21.75C15.7695 22.1125 15.4977 22.5656 15.3164 22.9281C15.7695 23.5625 16.132 24.1969 16.5852 24.7406C16.7664 24.1062 16.857 23.3812 17.0383 22.5656C16.6758 22.2937 16.3133 22.0219 15.9508 21.75Z" fill="white"/>
<path d="M43.8629 10.7843C43.1379 11.5093 42.4129 11.7812 41.5066 11.7812C40.5098 11.7812 39.7848 11.4187 39.1504 10.7843C38.6066 10.15 38.2441 9.33433 38.2441 8.42808C38.2441 6.43433 39.6035 5.07495 41.416 5.07495C42.4129 5.07495 43.0473 5.34683 43.8629 6.07183L43.0473 6.97808C42.5035 6.52495 42.0504 6.3437 41.5066 6.3437C40.4191 6.3437 39.6035 7.24995 39.6035 8.42808C39.6035 9.6062 40.4191 10.6031 41.5973 10.6031C42.2316 10.6031 42.6848 10.4218 43.0473 9.9687L43.8629 10.7843Z" fill="white"/>
<path d="M50.1156 10.603V11.6905H46.6719V5.16553H48.0312V10.5124H50.1156V10.603Z" fill="white"/>
<path d="M54.2844 10.5124L53.9219 11.5999H52.5625L54.8281 5.16553H56.4594L58.6344 11.5999H57.1844L56.8219 10.5124H54.2844ZM55.5531 6.79678L54.6469 9.4249H56.4594L55.5531 6.79678Z" fill="white"/>
<path d="M62.5313 11.6905H61.1719V5.16553H63.1656C64.7969 5.16553 65.6125 5.89053 65.6125 7.15928C65.6125 8.15615 65.0687 8.88115 64.0719 9.0624L65.8844 11.5093H64.3438L62.5313 9.0624V11.6905ZM63.1656 8.3374C63.8906 8.3374 64.3438 7.9749 64.3438 7.34053C64.3438 6.70615 63.9813 6.34365 63.2563 6.34365H62.5313V8.3374H63.1656Z" fill="white"/>
<path d="M70.1445 11.6905H68.7852V5.16553H70.1445V11.6905Z" fill="white"/>
<path d="M75.5809 11.6905H74.3121V6.25303H72.7715V5.16553H77.1215V6.25303H75.5809V11.6905Z" fill="white"/>
<path d="M82.8324 11.6905H81.5637V8.79053L79.3887 5.16553H80.9293L82.198 7.43115L83.4668 5.16553H85.0074L82.923 8.79053V11.6905H82.8324Z" fill="white"/>
<path d="M43.8629 22.9281C43.1379 23.6531 42.4129 23.925 41.5066 23.925C40.5098 23.925 39.7848 23.5625 39.1504 22.9281C38.6066 22.2937 38.2441 21.4781 38.2441 20.5719C38.2441 18.5781 39.6035 17.2188 41.416 17.2188C42.4129 17.2188 43.0473 17.4906 43.8629 18.2156L43.0473 19.1219C42.5035 18.6688 42.0504 18.4875 41.5066 18.4875C40.4191 18.4875 39.6035 19.3938 39.6035 20.5719C39.6035 21.75 40.4191 22.7469 41.5973 22.7469C42.2316 22.7469 42.6848 22.5656 43.0473 22.1125L43.8629 22.9281Z" fill="white"/>
<path d="M51.9289 18.3063C52.4727 18.9406 52.7445 19.6656 52.7445 20.5719C52.7445 22.3844 51.2945 23.925 49.482 23.925C47.5789 23.925 46.1289 22.475 46.1289 20.5719C46.1289 18.6688 47.5789 17.2188 49.482 17.2188C50.4789 17.2188 51.2945 17.5813 51.9289 18.3063ZM47.4883 20.5719C47.4883 21.75 48.3039 22.6562 49.482 22.6562C50.5695 22.6562 51.4758 21.75 51.4758 20.5719C51.4758 19.3031 50.6602 18.3969 49.482 18.3969C48.3039 18.3969 47.4883 19.3938 47.4883 20.5719Z" fill="white"/>
<path d="M61.2629 18.3063C61.8066 18.9406 62.0785 19.6656 62.0785 20.5719C62.0785 22.3844 60.6285 23.925 58.816 23.925C56.9129 23.925 55.4629 22.475 55.4629 20.5719C55.4629 18.6688 56.9129 17.2188 58.816 17.2188C59.8129 17.2188 60.6285 17.5813 61.2629 18.3063ZM56.8223 20.5719C56.8223 21.75 57.6379 22.6562 58.816 22.6562C59.9035 22.6562 60.8098 21.75 60.8098 20.5719C60.8098 19.3031 59.9941 18.3969 58.816 18.3969C57.6379 18.3969 56.8223 19.3938 56.8223 20.5719Z" fill="white"/>
<path d="M66.4277 23.8344H65.0684V17.4H67.1527C68.6934 17.4 69.509 18.125 69.509 19.4844C69.509 20.8438 68.6027 21.6594 67.2434 21.6594H66.4277V23.8344ZM67.0621 20.4813C67.7871 20.4813 68.2402 20.1188 68.2402 19.4844C68.2402 18.85 67.7871 18.4875 67.0621 18.4875H66.4277V20.5719H67.0621V20.4813Z" fill="white"/>
<path d="M73.5879 20.0281H75.8535V21.1156H73.5879V22.7469H75.8535V23.8344H72.2285V17.4H75.8535V18.4875H73.5879V20.0281Z" fill="white"/>
<path d="M80.2031 23.8344H78.8438V17.4H80.8375C82.4688 17.4 83.2844 18.125 83.2844 19.3938C83.2844 20.3906 82.7406 21.1156 81.7438 21.2969L83.5563 23.7438H81.925L80.1125 21.2063V23.8344H80.2031ZM80.8375 20.4813C81.5625 20.4813 82.0156 20.1188 82.0156 19.4844C82.0156 18.85 81.6531 18.4875 80.9281 18.4875H80.2031V20.4813H80.8375Z" fill="white"/>
<path d="M87.8156 22.6562L87.4531 23.7437H86.0938L88.3594 17.3093H89.9906L92.1656 23.7437H90.625L90.2625 22.6562H87.8156ZM88.9937 18.9406L88.0875 21.5687H89.9L88.9937 18.9406Z" fill="white"/>
<path d="M96.5152 23.8344H95.1559V18.4875H93.6152V17.4H97.9652V18.4875H96.4246V23.8344H96.5152Z" fill="white"/>
<path d="M102.045 23.8344H100.686V17.4H102.045V23.8344Z" fill="white"/>
<path d="M108.66 17.3093H110.02L108.026 23.7437H106.576L104.582 17.3093H105.941L107.21 21.6593L108.66 17.3093Z" fill="white"/>
<path d="M113.826 20.0281H116.092V21.1156H113.826V22.7469H116.092V23.8344H112.467V17.4H116.092V18.4875H113.826V20.0281Z" fill="white"/>
</g>
<defs>
<clipPath id="clip0">
<rect width="116.091" height="29" fill="white"/>
</clipPath>
</defs>
</svg>
