<svg width="25" height="21" viewBox="0 0 25 21" fill="none" xmlns="http://www.w3.org/2000/svg">
<path d="M3.46051 3.16506H7.11014L9.44591 0.0993652H16.3072L18.57 3.16506H22.2196C23.6795 3.16506 24.8474 4.33294 24.8474 5.7928V17.5446C24.8474 18.9315 23.6795 20.0994 22.2196 20.0994H3.46051C2.07364 20.0994 0.905762 18.9315 0.905762 17.5446V5.7928C0.905762 4.33294 2.07364 3.16506 3.46051 3.16506ZM3.46051 4.62491C2.87656 4.62491 2.36562 5.13586 2.36562 5.7928V17.5446C2.36562 18.1286 2.87656 18.6395 3.46051 18.6395H22.2196C22.8766 18.6395 23.3875 18.1286 23.3875 17.5446V5.7928C23.3875 5.13586 22.8766 4.62491 22.2196 4.62491H17.8401L15.5773 1.55922H10.1758L7.91306 4.62491H3.46051Z" fill="white"/>
<path d="M12.8768 6.4502C15.7235 6.4502 18.0593 8.78596 18.0593 11.6327C18.0593 14.4794 15.7235 16.8152 12.8768 16.8152C10.0301 16.8152 7.69434 14.4794 7.69434 11.6327C7.69434 8.78596 10.0301 6.4502 12.8768 6.4502ZM12.8768 7.91005C10.833 7.91005 9.15419 9.58888 9.15419 11.6327C9.15419 13.6765 10.833 15.3553 12.8768 15.3553C14.9206 15.3553 16.5994 13.6765 16.5994 11.6327C16.5994 9.58888 14.9206 7.91005 12.8768 7.91005Z" fill="white"/>
</svg>
