<svg width="21" height="21" viewBox="0 0 21 21" fill="none" xmlns="http://www.w3.org/2000/svg">
<path d="M14.768 0.291334C14.866 0.454639 14.9313 0.585283 14.964 0.617944V0.683266C14.964 0.748589 14.8986 0.846571 14.7353 0.977215C14.572 1.10786 14.474 1.17318 14.4414 1.2385C14.7353 1.56511 14.9966 1.85906 15.2906 2.12035C15.5845 2.38164 15.8785 2.61027 16.1724 2.77357C16.499 2.93688 16.8256 3.06752 17.1849 3.10018C17.5442 3.13284 17.9361 3.10018 18.3607 2.96954C18.4587 2.93688 18.5567 3.03486 18.6546 3.1655C18.7526 3.32881 18.8506 3.42679 18.8833 3.49211L18.8506 3.62276C18.1974 4.11267 17.5768 4.66791 16.9889 5.22315C16.401 5.77838 15.7805 6.33362 15.1273 6.8562C15.6825 7.0195 16.2704 7.28079 16.891 7.6074C17.5115 7.93401 18.0667 8.3586 18.5567 8.81586C19.0466 9.30577 19.4712 9.82835 19.7978 10.4162C20.1244 11.0041 20.2877 11.6247 20.2877 12.2453C20.2877 12.8332 20.1244 13.4537 19.7651 14.1069C19.4058 14.7275 18.9813 15.3481 18.3934 15.9686C17.8381 16.5892 17.1849 17.1444 16.499 17.6996C15.7805 18.2549 15.0619 18.7121 14.3434 19.1367C13.6249 19.5613 12.9063 19.8879 12.2204 20.1166C11.5345 20.3452 10.9466 20.4758 10.4567 20.4758C9.90149 20.4758 9.34626 20.3125 8.82368 20.0186C8.30111 19.7246 7.77853 19.3654 7.25595 19.0061C6.73338 18.6468 6.2108 18.2875 5.65556 17.9936C5.10033 17.6996 4.54509 17.5363 3.98985 17.5363L3.59792 17.6343H3.66324C3.33663 17.765 3.04268 17.9609 2.81406 18.2549C2.58543 18.5488 2.42212 18.8428 2.32414 19.1694L2.16083 19.2347L1.67092 18.9408L1.6056 18.7775C1.6056 18.5815 1.67092 18.3529 1.7689 18.0916C1.86689 17.8303 1.99753 17.569 2.12817 17.3404C2.25882 17.1117 2.3568 16.9158 2.48744 16.7198C2.58543 16.5565 2.65075 16.4585 2.65075 16.4259L2.71607 16.3279C3.04268 16.0013 3.33663 15.642 3.66324 15.2501C3.98985 14.8581 4.31646 14.4989 4.64307 14.1723V14.2049L4.93702 13.7477H4.90436L5.00234 13.5844V13.617C5.10033 13.2904 5.13299 12.9311 5.13299 12.6045L5.10033 11.788C4.74106 11.69 4.38178 11.592 4.02251 11.4287C3.66324 11.2981 3.30397 11.1674 2.9447 11.0695L2.84672 10.9715V10.4816C2.87938 10.4162 2.97736 10.3183 3.17333 10.155C3.36929 9.99165 3.59792 9.82835 3.85921 9.63238C4.1205 9.43641 4.34912 9.27311 4.57775 9.14247C4.80638 8.97916 4.96968 8.88118 5.035 8.84852C5.035 8.29328 5.06767 7.7707 5.13299 7.21547C5.19831 6.66023 5.23097 6.13765 5.23097 5.58242L5.13299 4.76589L3.20599 6.2683H3.07534L2.71607 5.84371V5.87637C2.61809 5.87637 2.55277 5.81104 2.52011 5.71306C2.48745 5.61508 2.42212 5.51709 2.38946 5.41911V5.45177L2.22616 5.38645L1.96487 5.19049L1.99753 5.22315C1.86689 5.22315 1.7689 5.15782 1.67092 5.05984C1.57294 4.96186 1.47495 4.86387 1.37697 4.79855L1.11568 4.9292H1.14834L1.05036 4.99452C0.952378 4.99452 0.887056 4.96186 0.789073 4.86387C0.723751 4.76589 0.69109 4.66791 0.723751 4.56993C1.05036 4.30864 1.34431 4.04735 1.67092 3.78606C1.99753 3.52477 2.29148 3.29615 2.61809 3.03486H2.58543C2.91204 2.74091 3.30397 2.47962 3.72856 2.18567H3.85921C3.95719 2.18567 4.08783 2.25099 4.25114 2.38164C4.41444 2.51228 4.61041 2.67559 4.77372 2.83889C4.96968 3.0022 5.13299 3.19816 5.29629 3.36147C5.4596 3.52477 5.59024 3.65542 5.68822 3.7534C6.17814 3.36147 6.66806 2.93688 7.15797 2.47962C7.64789 2.02237 8.10514 1.56511 8.46441 1.04254L8.56239 1.00988C8.56239 0.944555 8.59506 0.944554 8.69304 0.944554C8.79102 0.944554 8.85634 0.944554 8.889 0.944554C8.92166 0.944554 8.95433 1.00988 8.95433 1.10786C8.95433 1.20584 8.95433 1.30383 8.95433 1.33649C8.95433 2.02237 8.92167 2.67559 8.85634 3.36147C8.79102 4.04735 8.7257 4.70057 8.66038 5.38645V5.35379C8.62772 6.49693 8.62772 7.6074 8.62772 8.71787C8.66038 9.82835 8.66038 10.9388 8.66038 12.0493C8.66038 12.6372 8.59505 13.0618 8.46441 13.3557C8.33377 13.6497 8.1378 13.8783 7.87651 14.0416C7.61522 14.2049 7.32127 14.3682 6.92934 14.4989C6.57007 14.6295 6.14548 14.7928 5.68822 15.0214H5.72089L5.6229 15.1194L5.39428 15.2501C6.08016 15.2174 6.73338 15.3154 7.41926 15.544C8.10514 15.74 8.75836 15.9686 9.37892 16.2299C9.57488 14.8908 9.64021 13.5517 9.57488 12.1799C9.50956 10.8408 9.4769 9.46908 9.4769 8.12998C9.4769 6.8562 9.50956 5.54976 9.60755 4.21065C9.70553 2.87155 9.83617 1.59777 9.99948 0.323995L10.0975 0.226013C10.1954 0.193352 10.3261 0.16069 10.4567 0.128029C10.5874 0.0953682 10.718 0.0627075 10.816 0.0627075L10.9466 0.16069C10.914 0.650605 10.8813 1.14052 10.8813 1.63044C10.8813 2.12035 10.8487 2.61027 10.7833 3.10018C10.914 3.0022 11.0446 2.90421 11.1753 2.80623C11.3059 2.70825 11.4366 2.61027 11.5345 2.51228H11.5019C11.9918 2.08769 12.4817 1.6631 12.9716 1.2385C13.4615 0.81391 13.9515 0.389318 14.4414 0.0627075C14.572 0.0300465 14.67 0.0953682 14.768 0.291334ZM11.5999 9.95899C11.2406 10.1876 10.9466 10.4162 10.62 10.6775C10.6527 11.0041 10.6527 11.2981 10.6527 11.592C10.6527 11.886 10.6527 12.1799 10.6527 12.5065C10.6527 13.2251 10.62 13.911 10.5874 14.5969C10.5547 15.2827 10.4567 15.9686 10.3587 16.6545C10.5221 16.7525 10.6527 16.8178 10.816 16.8505C10.9793 16.8831 11.11 16.9484 11.2733 17.0138H11.2406C11.3386 17.0464 11.5345 17.1444 11.7958 17.2424C12.0571 17.373 12.3184 17.5037 12.6124 17.6343C12.9063 17.765 13.1676 17.8956 13.3962 17.9936C13.6249 18.0916 13.7882 18.1569 13.8861 18.1569C14.3107 18.1569 14.7027 18.0263 15.0946 17.7323C15.4865 17.4384 15.8458 17.1117 16.1724 16.6872C16.499 16.2626 16.7603 15.8053 16.9563 15.3481C17.1522 14.8581 17.2502 14.4335 17.2502 14.0743C17.2502 13.519 17.1196 12.9638 16.8583 12.4412C16.597 11.9187 16.2704 11.4287 15.8458 11.0368C15.4212 10.6122 14.964 10.2856 14.4087 10.057C13.8861 9.79569 13.3309 9.66504 12.7757 9.66504C12.3184 9.63238 11.9265 9.73036 11.5999 9.95899ZM11.3386 3.85138C11.1426 4.01469 10.9793 4.17799 10.816 4.30864C10.6527 5.71306 10.5547 7.11748 10.5547 8.52191C10.5547 8.68521 10.5547 8.81586 10.5547 8.9465C10.5547 9.07714 10.5547 9.24045 10.5547 9.37109C10.718 9.24045 10.8813 9.14247 11.0446 9.04448C11.2079 8.9465 11.3712 8.81586 11.5345 8.68521C11.7632 8.45658 12.0245 8.22796 12.2531 7.99933C12.4817 7.7707 12.743 7.57474 13.037 7.41143H13.0043C13.2329 7.11748 13.5269 6.88886 13.8208 6.72555L13.7882 6.75821C14.0168 6.52959 14.2454 6.33362 14.474 6.13765C14.7027 5.94169 14.9313 5.74572 15.1599 5.54976C14.5394 5.35379 13.9188 5.05984 13.3636 4.73323C12.8083 4.37396 12.2857 3.94937 11.8612 3.42679C11.6979 3.52477 11.5019 3.68808 11.3386 3.85138ZM12.4817 5.61508L13.1676 5.74572L12.841 6.33362L12.7103 7.0195L12.1224 6.69289L11.4366 6.56225L11.7632 5.97435L11.8938 5.28847L12.4817 5.61508Z" fill="white"/>
</svg>
