<svg width="19" height="19" viewBox="0 0 19 19" fill="none" xmlns="http://www.w3.org/2000/svg">
<path d="M14.9828 1.15414L14.9121 1.08343L14.8414 1.15414L6.36069 9.63482L6.3314 9.66411V9.70553V12.7569V12.8555L6.43001 12.8569L9.52 12.8996L9.56226 12.9002L9.59213 12.8703L18.0708 4.38348L18.1414 4.31277L18.0707 4.24209L14.9828 1.15414ZM16.1315 4.31278L8.97179 11.4685L7.74786 11.4576V10.2535L14.9121 3.09331L16.1315 4.31278Z" fill="#071446" stroke="#071446" stroke-width="0.2"/>
<path d="M8.55925 4.42503H8.65925V4.32503V3.10449V3.00449H8.55925H0.998047H0.898047V3.10449V18.2249V18.3249H0.998047H16.1205H16.2205V18.2249V10.6657V10.5657H16.1205H14.8999H14.7999V10.6657V16.9043H2.31858V4.42503H8.55925Z" fill="#071446" stroke="#071446" stroke-width="0.2"/>
</svg>
