<svg width="18" height="18" viewBox="0 0 18 18" fill="none" xmlns="http://www.w3.org/2000/svg">
<path d="M14.4742 0.560637L14.4035 0.489926L14.3328 0.560637L5.85214 9.04131L5.82285 9.0706V9.11202V12.1634V12.262L5.92147 12.2633L9.01145 12.3061L9.05371 12.3067L9.08358 12.2768L17.5622 3.78997L17.6329 3.71926L17.5622 3.64859L14.4742 0.560637ZM15.623 3.71928L8.46325 10.875L7.23932 10.8641V9.65998L14.4035 2.4998L15.623 3.71928Z" fill="#7ADBD1" stroke="#7ADBD1" stroke-width="0.2"/>
<path d="M8.05046 3.83152H8.15046V3.73152V2.51099V2.41099H8.05046H0.489258H0.389258V2.51099V17.6314V17.7314H0.489258H15.6117H15.7117V17.6314V10.0722V9.97219H15.6117H14.3911H14.2911V10.0722V16.3108H1.80979V3.83152H8.05046Z" fill="#7ADBD1" stroke="#7ADBD1" stroke-width="0.2"/>
</svg>
