<svg width="23" height="17" viewBox="0 0 23 17" fill="none" xmlns="http://www.w3.org/2000/svg">
<path d="M22.7371 2.82541C22.7371 1.94796 22.7371 1.09961 22.7505 0.289312L22.6834 0.0498047H0.389045C0.389045 1.01007 0.389045 2.00839 0.389045 3.02686C0.389045 7.50364 0.389045 12.3475 0.355469 16.0498H22.7505C22.7237 12.014 22.7192 7.12311 22.7371 2.82541ZM21.3314 1.7286C21.309 2.10912 21.0829 2.36878 20.5793 2.6732C17.6269 4.46838 14.6923 6.37325 11.8429 8.21992L11.722 8.29827C11.6588 8.34623 11.5875 8.38261 11.5116 8.40571C11.4306 8.38406 11.3545 8.3468 11.2878 8.29603L10.9968 8.108C8.21445 6.29939 5.33364 4.42809 2.43717 2.67767C1.93353 2.37101 1.70969 2.11136 1.69179 1.73083H21.3292L21.3314 1.7286ZM21.1232 14.3688H1.95816V4.5512L2.18199 4.68998L3.09973 5.26749C5.50152 6.77392 7.97718 8.3296 10.3924 9.89424C11.2005 10.4158 11.9212 10.418 12.7293 9.89424C15.0863 8.38109 17.4299 6.91494 19.8921 5.3615L21.1255 4.58478V14.3688H21.1232Z" fill="#071446"/>
</svg>
