<svg width="23" height="17" viewBox="0 0 23 17" fill="none" xmlns="http://www.w3.org/2000/svg">
<path d="M22.4871 3.00119C22.4871 2.12374 22.4871 1.27539 22.5005 0.465093L22.4334 0.225586H0.139045C0.139045 1.18585 0.139045 2.18418 0.139045 3.20264C0.139045 7.67942 0.139045 12.5233 0.105469 16.2256H22.5005C22.4737 12.1898 22.4692 7.29889 22.4871 3.00119ZM21.0814 1.90438C21.059 2.2849 20.8329 2.54456 20.3293 2.84898C17.3769 4.64416 14.4423 6.54903 11.5929 8.3957L11.472 8.47405C11.4088 8.52202 11.3375 8.55839 11.2616 8.58149C11.1806 8.55984 11.1045 8.52258 11.0378 8.47181L10.7468 8.28378C7.96445 6.47517 5.08365 4.60387 2.18717 2.85345C1.68353 2.54679 1.45969 2.28714 1.44179 1.90662H21.0792L21.0814 1.90438ZM20.8732 14.5446H1.70816V4.72698L1.93199 4.86577L2.84973 5.44327C5.25152 6.9497 7.72718 8.50539 10.1424 10.07C10.9505 10.5916 11.6712 10.5938 12.4793 10.07C14.8363 8.55687 17.1799 7.09072 19.6421 5.53728L20.8755 4.76056V14.5446H20.8732Z" fill="#071446"/>
</svg>
