<svg width="26" height="21" viewBox="0 0 26 21" fill="none" xmlns="http://www.w3.org/2000/svg">
<mask id="path-1-outside-1" maskUnits="userSpaceOnUse" x="0" y="0" width="26" height="21" fill="black">
<rect fill="white" width="26" height="21"/>
<path d="M3.5724 1.0035C3.27233 1.0335 3.0541 1.30083 3.08138 1.59817C3.09502 1.72911 3.15231 1.84914 3.24778 1.93916L6.46942 5.12807C4.17527 6.3829 2.28757 8.27333 1.06547 10.5675C0.978177 10.7284 0.978177 10.9248 1.06547 11.0885C3.31871 15.3168 7.81973 18.1974 13 18.1974C14.9586 18.1974 16.819 17.7882 18.4994 17.0462L21.9775 20.4888C22.193 20.7043 22.5394 20.7043 22.7522 20.4888C22.965 20.2733 22.9677 19.9269 22.7522 19.7141L19.5388 16.5334C21.8302 15.2786 23.7124 13.3772 24.9345 11.0858C25.0218 10.9248 25.0218 10.7284 24.9345 10.5648C22.6813 6.33652 18.1803 3.46406 13 3.46406C11.0441 3.46406 9.18913 3.87869 7.50875 4.61522L4.02251 1.16172C3.90521 1.04442 3.7388 0.984401 3.5724 1.0035ZM13 4.55795C17.6647 4.55795 21.7074 7.10034 23.8188 10.8321C22.6431 12.908 20.8672 14.6184 18.7204 15.7259L16.8436 13.8682C17.5065 13.0308 17.9102 11.9805 17.9102 10.8348C17.9102 8.12876 15.7061 5.92462 13 5.92462C11.8352 5.92462 10.7659 6.33654 9.92294 7.01578L8.3544 5.45542C9.78654 4.87983 11.3551 4.55795 13 4.55795ZM7.28779 5.93826L9.15367 7.78776C8.48807 8.62523 8.08707 9.68093 8.08707 10.8321C8.08707 13.5382 10.2912 15.7423 12.9973 15.7423C14.1648 15.7423 15.2396 15.3359 16.0825 14.6511L17.6511 16.2115C16.2162 16.7871 14.6449 17.1063 12.9973 17.1063C8.3353 17.1063 4.29257 14.5611 2.17845 10.8321C3.35963 8.75072 5.13821 7.04578 7.28779 5.93826ZM13 7.01305C15.1168 7.01305 16.819 8.71526 16.819 10.8321C16.819 11.6832 16.5435 12.4661 16.0771 13.099L10.7058 7.77959C11.3442 7.29948 12.138 7.01305 13 7.01305ZM9.93112 8.56249L15.3023 13.8737C14.6613 14.3593 13.8675 14.6484 13 14.6484C10.8832 14.6484 9.18095 12.9462 9.18095 10.8294C9.18095 9.97827 9.46192 9.19809 9.93112 8.56249Z"/>
</mask>
<path d="M3.5724 1.0035C3.27233 1.0335 3.0541 1.30083 3.08138 1.59817C3.09502 1.72911 3.15231 1.84914 3.24778 1.93916L6.46942 5.12807C4.17527 6.3829 2.28757 8.27333 1.06547 10.5675C0.978177 10.7284 0.978177 10.9248 1.06547 11.0885C3.31871 15.3168 7.81973 18.1974 13 18.1974C14.9586 18.1974 16.819 17.7882 18.4994 17.0462L21.9775 20.4888C22.193 20.7043 22.5394 20.7043 22.7522 20.4888C22.965 20.2733 22.9677 19.9269 22.7522 19.7141L19.5388 16.5334C21.8302 15.2786 23.7124 13.3772 24.9345 11.0858C25.0218 10.9248 25.0218 10.7284 24.9345 10.5648C22.6813 6.33652 18.1803 3.46406 13 3.46406C11.0441 3.46406 9.18913 3.87869 7.50875 4.61522L4.02251 1.16172C3.90521 1.04442 3.7388 0.984401 3.5724 1.0035ZM13 4.55795C17.6647 4.55795 21.7074 7.10034 23.8188 10.8321C22.6431 12.908 20.8672 14.6184 18.7204 15.7259L16.8436 13.8682C17.5065 13.0308 17.9102 11.9805 17.9102 10.8348C17.9102 8.12876 15.7061 5.92462 13 5.92462C11.8352 5.92462 10.7659 6.33654 9.92294 7.01578L8.3544 5.45542C9.78654 4.87983 11.3551 4.55795 13 4.55795ZM7.28779 5.93826L9.15367 7.78776C8.48807 8.62523 8.08707 9.68093 8.08707 10.8321C8.08707 13.5382 10.2912 15.7423 12.9973 15.7423C14.1648 15.7423 15.2396 15.3359 16.0825 14.6511L17.6511 16.2115C16.2162 16.7871 14.6449 17.1063 12.9973 17.1063C8.3353 17.1063 4.29257 14.5611 2.17845 10.8321C3.35963 8.75072 5.13821 7.04578 7.28779 5.93826ZM13 7.01305C15.1168 7.01305 16.819 8.71526 16.819 10.8321C16.819 11.6832 16.5435 12.4661 16.0771 13.099L10.7058 7.77959C11.3442 7.29948 12.138 7.01305 13 7.01305ZM9.93112 8.56249L15.3023 13.8737C14.6613 14.3593 13.8675 14.6484 13 14.6484C10.8832 14.6484 9.18095 12.9462 9.18095 10.8294C9.18095 9.97827 9.46192 9.19809 9.93112 8.56249Z" fill="#071446"/>
<path d="M3.5724 1.0035C3.27233 1.0335 3.0541 1.30083 3.08138 1.59817C3.09502 1.72911 3.15231 1.84914 3.24778 1.93916L6.46942 5.12807C4.17527 6.3829 2.28757 8.27333 1.06547 10.5675C0.978177 10.7284 0.978177 10.9248 1.06547 11.0885C3.31871 15.3168 7.81973 18.1974 13 18.1974C14.9586 18.1974 16.819 17.7882 18.4994 17.0462L21.9775 20.4888C22.193 20.7043 22.5394 20.7043 22.7522 20.4888C22.965 20.2733 22.9677 19.9269 22.7522 19.7141L19.5388 16.5334C21.8302 15.2786 23.7124 13.3772 24.9345 11.0858C25.0218 10.9248 25.0218 10.7284 24.9345 10.5648C22.6813 6.33652 18.1803 3.46406 13 3.46406C11.0441 3.46406 9.18913 3.87869 7.50875 4.61522L4.02251 1.16172C3.90521 1.04442 3.7388 0.984401 3.5724 1.0035ZM13 4.55795C17.6647 4.55795 21.7074 7.10034 23.8188 10.8321C22.6431 12.908 20.8672 14.6184 18.7204 15.7259L16.8436 13.8682C17.5065 13.0308 17.9102 11.9805 17.9102 10.8348C17.9102 8.12876 15.7061 5.92462 13 5.92462C11.8352 5.92462 10.7659 6.33654 9.92294 7.01578L8.3544 5.45542C9.78654 4.87983 11.3551 4.55795 13 4.55795ZM7.28779 5.93826L9.15367 7.78776C8.48807 8.62523 8.08707 9.68093 8.08707 10.8321C8.08707 13.5382 10.2912 15.7423 12.9973 15.7423C14.1648 15.7423 15.2396 15.3359 16.0825 14.6511L17.6511 16.2115C16.2162 16.7871 14.6449 17.1063 12.9973 17.1063C8.3353 17.1063 4.29257 14.5611 2.17845 10.8321C3.35963 8.75072 5.13821 7.04578 7.28779 5.93826ZM13 7.01305C15.1168 7.01305 16.819 8.71526 16.819 10.8321C16.819 11.6832 16.5435 12.4661 16.0771 13.099L10.7058 7.77959C11.3442 7.29948 12.138 7.01305 13 7.01305ZM9.93112 8.56249L15.3023 13.8737C14.6613 14.3593 13.8675 14.6484 13 14.6484C10.8832 14.6484 9.18095 12.9462 9.18095 10.8294C9.18095 9.97827 9.46192 9.19809 9.93112 8.56249Z" stroke="#071446" stroke-width="0.5" mask="url(#path-1-outside-1)"/>
</svg>
