<svg width="26" height="17" viewBox="0 0 26 17" fill="none" xmlns="http://www.w3.org/2000/svg">
<path d="M13 0.875C7.76376 0.875 3.21738 3.89786 0.950218 8.32195C0.850163 8.51556 0.849627 8.74652 0.950412 8.93852C3.21758 13.3623 7.76378 16.3933 13 16.3933C18.2364 16.3933 22.7827 13.3621 25.0498 8.93815C25.1498 8.74454 25.1504 8.51357 25.0496 8.32157C22.7824 3.89768 18.2361 0.875 13 0.875ZM13 2.21579C17.5902 2.21579 21.5709 4.80599 23.6727 8.63547C21.5709 12.4623 17.5902 15.0552 13 15.0552C8.41252 15.0552 4.42915 12.4623 2.32726 8.63548C4.4291 4.806 8.40977 2.21579 13 2.21579ZM13 3.60196C10.2258 3.60196 7.96647 5.86131 7.96647 8.6355C7.96647 11.4097 10.2258 13.669 13 13.669C15.7742 13.669 18.0335 11.4097 18.0335 8.6355C18.0335 5.86131 15.7742 3.60196 13 3.60196ZM13 4.94275C15.0471 4.94275 16.6927 6.58841 16.6927 8.6355C16.6927 10.6826 15.0471 12.3282 13 12.3282C10.9529 12.3282 9.30725 10.6826 9.30725 8.6355C9.30725 6.59108 10.953 4.94275 13 4.94275Z" fill="#071446" stroke="#071446" stroke-width="0.25"/>
</svg>
