<svg width="25" height="24" viewBox="0 0 25 24" fill="none" xmlns="http://www.w3.org/2000/svg">
<path d="M7.09757 10.4637H1.55999C0.790884 10.4637 0.175598 11.079 0.175598 11.8481V22.6156C0.175598 23.3847 0.790884 24 1.55999 24H7.09757C7.77438 24 8.32814 23.5385 8.4512 22.8925C8.82037 23.2309 9.25107 23.5385 9.55871 23.7231C9.83559 23.9077 10.1432 24 10.4816 24H21.3107C21.3414 24 21.3722 24 21.403 24C22.7874 23.7847 23.5257 22.5541 23.3104 20.8313C24.0795 19.9699 24.2333 18.8316 23.7718 17.6626C25.187 16.032 24.6025 14.5861 24.264 14.0324C25.4023 12.5864 24.4794 10.8636 24.3256 10.5868C23.5257 8.92549 21.0953 8.98702 19.4648 9.04855C19.0956 9.04855 18.788 9.07932 18.5419 9.04855C18.142 9.01779 17.9266 8.95626 17.8651 8.92549C17.8651 8.89473 17.8958 8.80244 17.9574 8.67938C18.0189 8.55632 18.1112 8.4025 18.2342 8.21791C18.788 7.23346 19.7109 5.60295 20.0493 4.43391C20.2955 3.54174 20.1109 2.40346 19.5263 1.44977C19.0649 0.68066 18.4188 0.188431 17.742 0.0346099C17.2806 -0.0576831 16.8499 0.0346098 16.5114 0.311488C15.7423 0.89601 15.6193 2.12658 15.6193 2.3727C15.3424 4.31085 13.5273 6.03365 12.6659 6.86428C12.5428 6.98734 12.4506 7.07964 12.3583 7.14116C11.866 7.63339 11.5584 8.37173 11.2507 9.11008C11.0662 9.57154 10.8508 10.0638 10.6047 10.4329C10.2663 10.9559 9.86635 11.4482 9.58948 11.7558C9.43565 11.9096 9.2203 12.0327 9.00495 12.0327H8.48196V11.8789C8.48196 11.079 7.86667 10.4637 7.09757 10.4637ZM7.25139 22.6156C7.25139 22.7079 7.18986 22.7694 7.09757 22.7694H1.55999C1.4677 22.7694 1.40617 22.7079 1.40617 22.6156V11.8481C1.40617 11.7558 1.4677 11.6943 1.55999 11.6943H7.09757C7.18986 11.6943 7.25139 11.7558 7.25139 11.8481V22.6156ZM9.00495 13.2325C9.55871 13.2325 10.1125 12.9864 10.5124 12.5557C10.82 12.2173 11.2815 11.6635 11.6507 11.079C11.9583 10.6175 12.1737 10.0638 12.389 9.57154C12.6659 8.92549 12.912 8.34097 13.2197 8.00256C13.2812 7.94104 13.4042 7.84874 13.4965 7.72568C14.481 6.80276 16.5114 4.86461 16.8191 2.49575V2.46499C16.8499 2.09582 17.0037 1.48053 17.2498 1.29595C17.2806 1.26518 17.3421 1.23442 17.4959 1.26518C17.8343 1.32671 18.2035 1.63435 18.4804 2.09582C18.8803 2.74187 19.0341 3.54174 18.8803 4.0955C18.5727 5.14148 17.6497 6.74123 17.1575 7.63339C17.0344 7.81798 16.9421 8.00256 16.8806 8.12562C16.573 8.67938 16.5422 9.17161 16.7576 9.57154C17.096 10.1868 17.8958 10.2791 18.4804 10.3099C18.7572 10.3099 19.1264 10.3099 19.4956 10.3099C20.7877 10.2791 22.7874 10.2176 23.2181 11.1713C23.2181 11.2021 23.2488 11.2021 23.2488 11.2328C23.2488 11.2328 23.9872 12.4326 23.2796 13.3248C22.9719 13.694 22.9412 14.2477 23.1873 14.6784C23.618 15.386 23.4949 16.1243 22.8181 16.8934C22.5105 17.2319 22.4182 17.7241 22.6028 18.124C22.8181 18.647 22.9412 19.3854 22.3567 20.0314C22.1105 20.2775 22.0183 20.6467 22.049 20.9851C22.1413 21.7234 22.0798 22.6156 21.2184 22.7694H10.4509C10.3586 22.7694 10.2663 22.7387 10.174 22.7079C9.77406 22.4618 9.43565 22.1849 9.18954 21.9696C8.97419 21.7542 8.69731 21.6004 8.42043 21.5081V13.2325H9.00495Z" fill="white"/>
</svg>
