<svg width="22" height="27" viewBox="0 0 22 27" fill="none" xmlns="http://www.w3.org/2000/svg">
<path d="M17.6705 9.44706H6.35547V6.1046C6.35547 3.69364 8.30067 1.74843 10.7116 1.74843C13.1226 1.74843 15.0678 3.69364 15.0678 6.1046C15.0678 6.57035 15.4514 6.95391 15.9171 6.95391C16.3829 6.95391 16.7664 6.57035 16.7664 6.1046C16.7664 2.76213 14.0541 0.0498047 10.7116 0.0498047C7.36917 0.0498047 4.65684 2.76213 4.65684 6.1046V9.44706H3.75273C1.86232 9.44706 0.355469 10.9813 0.355469 12.8443V22.6525C0.355469 24.543 1.88972 26.0498 3.75273 26.0498H17.6705C19.5609 26.0498 21.0678 24.5156 21.0678 22.6525V12.8443C21.0952 10.9539 19.5609 9.44706 17.6705 9.44706ZM19.3692 22.6799C19.3692 23.6114 18.602 24.3786 17.6705 24.3786H3.75273C2.82122 24.3786 2.0541 23.6114 2.0541 22.6799V12.8443C2.0541 11.9128 2.82122 11.1457 3.75273 11.1457H17.6705C18.602 11.1457 19.3692 11.9128 19.3692 12.8443V22.6799Z" fill="#071446"/>
</svg>
