<svg width="26" height="18" viewBox="0 0 26 18" fill="none" xmlns="http://www.w3.org/2000/svg">
<path d="M25.5022 0.909604C25.5024 0.900352 25.4988 0.89117 25.4984 0.881847C25.4971 0.829361 25.4882 0.777345 25.4719 0.727447C25.4702 0.722548 25.4711 0.717547 25.4693 0.712698C25.4634 0.696288 25.451 0.684559 25.4436 0.669048C25.4275 0.633028 25.4074 0.598913 25.3838 0.567332C25.3661 0.54595 25.3467 0.526011 25.3258 0.507703C25.3122 0.49191 25.2977 0.476946 25.2823 0.462889C25.2722 0.455449 25.2601 0.452826 25.2497 0.446148C25.1975 0.41447 25.1409 0.390726 25.0817 0.375694C25.0547 0.369276 25.0273 0.365021 24.9996 0.362969C24.9636 0.360597 24.9274 0.361888 24.8917 0.366822C24.8753 0.368918 24.8596 0.364928 24.8432 0.368548L0.931007 5.56028C0.821482 5.58403 0.721962 5.64102 0.646047 5.72346C0.570132 5.8059 0.521525 5.90978 0.50687 6.02088C0.492215 6.13199 0.512226 6.24492 0.564168 6.34422C0.61611 6.44353 0.69745 6.52437 0.797071 6.57571L7.75947 10.1669L8.99972 16.9524C9.01002 17.0048 9.02801 17.0554 9.0531 17.1026C9.05909 17.1142 9.06689 17.124 9.07367 17.1352C9.1009 17.18 9.13454 17.2207 9.17352 17.2559C9.18296 17.2644 9.1907 17.2736 9.20073 17.2815C9.24188 17.3148 9.28769 17.3418 9.3367 17.3617C9.34474 17.3648 9.35334 17.3636 9.36145 17.3664C9.36879 17.3688 9.37384 17.3746 9.38135 17.3768C9.43124 17.3915 9.48295 17.399 9.53495 17.3992C9.65228 17.3989 9.7664 17.3608 9.86033 17.2905L9.86236 17.2894L14.0834 14.1134L18.7267 17.4845C18.7949 17.534 18.8735 17.567 18.9566 17.5809C19.0397 17.5949 19.1248 17.5893 19.2054 17.5648C19.286 17.5403 19.3597 17.4974 19.4209 17.4395C19.4821 17.3816 19.529 17.3103 19.558 17.2312L25.4699 1.08741C25.4905 1.03037 25.5015 0.970266 25.5022 0.909604ZM10.8366 10.8875C10.8227 10.8979 10.817 10.9149 10.8043 10.9266C10.7672 10.9602 10.7351 10.999 10.7091 11.0418C10.6928 11.067 10.6788 11.0936 10.6672 11.1213C10.6581 11.1363 10.6499 11.1519 10.6426 11.1678L9.65905 14.5073L8.85333 10.0993L19.1246 4.62584L10.8366 10.8875ZM21.2418 2.26415L8.24234 9.19145L2.64193 6.30248L21.2418 2.26415ZM10.5214 15.4312L11.4686 12.2151L13.1618 13.4444L10.5214 15.4312ZM18.7836 16.1804L12.0787 11.313L23.8121 2.44885L18.7836 16.1804Z" fill="#071446"/>
</svg>
