<svg width="25" height="18" viewBox="0 0 25 18" fill="none" xmlns="http://www.w3.org/2000/svg">
<path d="M25 0.959409C25.0002 0.950156 24.9966 0.940975 24.9962 0.931652C24.9949 0.879166 24.986 0.82715 24.9697 0.777251C24.968 0.772353 24.9689 0.767352 24.9671 0.762502C24.9612 0.746093 24.9488 0.734364 24.9414 0.718853C24.9253 0.682833 24.9052 0.648718 24.8816 0.617137C24.8639 0.595754 24.8445 0.575815 24.8236 0.557508C24.81 0.541715 24.7955 0.52675 24.7801 0.512694C24.77 0.505254 24.7579 0.502631 24.7475 0.495953C24.6953 0.464274 24.6387 0.44053 24.5795 0.425499C24.5525 0.419081 24.5251 0.414826 24.4974 0.412774C24.4614 0.410402 24.4252 0.411693 24.3895 0.416627C24.3731 0.418722 24.3574 0.414733 24.341 0.418352L0.42881 5.61009C0.319285 5.63383 0.219765 5.69082 0.14385 5.77327C0.0679345 5.85571 0.0193281 5.95958 0.00467286 6.07069C-0.00998241 6.1818 0.0100283 6.29472 0.0619706 6.39403C0.113913 6.49333 0.195252 6.57418 0.294874 6.62552L7.25727 10.2167L8.49753 17.0023C8.50782 17.0547 8.52581 17.1052 8.55091 17.1524C8.55689 17.164 8.56469 17.1738 8.57147 17.185C8.59871 17.2298 8.63234 17.2705 8.67132 17.3057C8.68076 17.3142 8.6885 17.3234 8.69854 17.3313C8.73969 17.3646 8.7855 17.3916 8.8345 17.4115C8.84254 17.4146 8.85115 17.4134 8.85925 17.4162C8.86659 17.4186 8.87164 17.4244 8.87915 17.4267C8.92904 17.4413 8.98076 17.4488 9.03275 17.449C9.15009 17.4487 9.2642 17.4106 9.35813 17.3403L9.36016 17.3392L13.5812 14.1632L18.2245 17.5343C18.2927 17.5838 18.3714 17.6168 18.4544 17.6307C18.5375 17.6447 18.6226 17.6391 18.7032 17.6146C18.7838 17.5901 18.8575 17.5472 18.9187 17.4893C18.9799 17.4314 19.0268 17.3601 19.0558 17.281L24.9677 1.13722C24.9883 1.08018 24.9993 1.02007 25 0.959409ZM10.3344 10.9373C10.3205 10.9477 10.3148 10.9647 10.3021 10.9764C10.265 11.01 10.2329 11.0488 10.2069 11.0916C10.1906 11.1168 10.1766 11.1434 10.165 11.1711C10.1559 11.1861 10.1477 11.2017 10.1404 11.2176L9.15685 14.5571L8.35113 10.1491L18.6224 4.67565L10.3344 10.9373ZM20.7396 2.31396L7.74014 9.24126L2.13974 6.35229L20.7396 2.31396ZM10.0192 15.481L10.9664 12.265L12.6596 13.4942L10.0192 15.481ZM18.2814 16.2302L11.5765 11.3628L23.3099 2.49865L18.2814 16.2302Z" fill="white"/>
</svg>
