<svg width="21" height="27" viewBox="0 0 21 27" fill="none" xmlns="http://www.w3.org/2000/svg">
<path d="M17.4205 9.62285H6.10547V6.28038C6.10547 3.86942 8.05067 1.92422 10.4616 1.92422C12.8726 1.92422 14.8178 3.86942 14.8178 6.28038C14.8178 6.74613 15.2014 7.1297 15.6671 7.1297C16.1329 7.1297 16.5164 6.74613 16.5164 6.28038C16.5164 2.93791 13.8041 0.225586 10.4616 0.225586C7.11917 0.225586 4.40684 2.93791 4.40684 6.28038V9.62285H3.50273C1.61232 9.62285 0.105469 11.1571 0.105469 13.0201V22.8283C0.105469 24.7187 1.63972 26.2256 3.50273 26.2256H17.4205C19.3109 26.2256 20.8178 24.6913 20.8178 22.8283V13.0201C20.8452 11.1297 19.3109 9.62285 17.4205 9.62285ZM19.1192 22.8557C19.1192 23.7872 18.352 24.5544 17.4205 24.5544H3.50273C2.57122 24.5544 1.8041 23.7872 1.8041 22.8557V13.0201C1.8041 12.0886 2.57122 11.3215 3.50273 11.3215H17.4205C18.352 11.3215 19.1192 12.0886 19.1192 13.0201V22.8557Z" fill="#071446"/>
<path d="M13.1461 15.3218L9.72142 18.7464L7.80362 16.8286C7.47485 16.4999 6.9269 16.4999 6.59814 16.8286C6.26937 17.1574 6.26937 17.7053 6.59814 18.0341L9.11868 20.5546C9.28307 20.719 9.50225 20.8012 9.72142 20.8012C9.9406 20.8012 10.1598 20.719 10.3242 20.5546L14.3516 16.5273C14.6803 16.1985 14.6803 15.6505 14.3516 15.3218C14.0228 14.993 13.4748 14.993 13.1461 15.3218Z" fill="#071446"/>
</svg>
