<svg width="16" height="17" viewBox="0 0 16 17" fill="none" xmlns="http://www.w3.org/2000/svg">
<path d="M15.9996 8.16698C16.01 10.0014 15.3895 11.7837 14.2422 13.2152C13.0949 14.6466 11.4905 15.6403 9.69779 16.0296C7.9051 16.419 6.03305 16.1804 4.39533 15.3538C2.75761 14.5272 1.45373 13.1629 0.702171 11.4894C-0.0493886 9.81597 -0.202963 7.93504 0.267182 6.16181C0.737327 4.38859 1.80262 2.83082 3.28457 1.74953C4.76652 0.668241 6.57507 0.129127 8.40718 0.222526C10.2393 0.315926 11.9836 1.03616 13.3479 2.26255V0.211914H15.1157V4.63139C15.1157 4.86582 15.0226 5.09064 14.8568 5.2564C14.6911 5.42216 14.4663 5.51529 14.2318 5.51529H9.81236V3.7475H12.3674C11.3459 2.7507 10.011 2.13804 8.58915 2.0135C7.16735 1.88896 5.74625 2.2602 4.56703 3.06423C3.38781 3.86826 2.5231 5.05554 2.11967 6.42458C1.71624 7.79362 1.79892 9.26008 2.3537 10.5751C2.90848 11.8901 3.90117 12.9727 5.1633 13.639C6.42543 14.3054 7.87926 14.5145 9.27804 14.2309C10.6768 13.9474 11.9344 13.1885 12.8374 12.0832C13.7403 10.9779 14.233 9.59422 14.2318 8.16698H15.9996Z" fill="white"/>
</svg>
