<svg width="16" height="16" viewBox="0 0 16 16" fill="none" xmlns="http://www.w3.org/2000/svg">
<path d="M6.53446 13.062C7.99564 13.0633 9.41458 12.5719 10.562 11.6672L14.8926 15.9977L16 14.8903L11.6695 10.5598C12.5805 9.39712 13.0705 7.95993 13.0593 6.48289C13.0482 5.00585 12.5366 3.57623 11.608 2.42748C10.6795 1.27874 9.38896 0.478738 7.9471 0.158126C6.50523 -0.162486 4.99726 0.0152326 3.66943 0.662261C2.34161 1.30929 1.27238 2.3874 0.636359 3.72053C0.000336583 5.05366 -0.164902 6.56305 0.167626 8.00222C0.500154 9.44138 1.3108 10.7253 2.46719 11.6443C3.62358 12.5633 5.05738 13.063 6.53446 13.062ZM6.53446 1.56959C7.51598 1.56959 8.47545 1.86064 9.29155 2.40594C10.1076 2.95124 10.7437 3.72629 11.1193 4.63309C11.4949 5.53989 11.5932 6.53771 11.4017 7.50036C11.2102 8.46301 10.7376 9.34727 10.0436 10.0413C9.34953 10.7353 8.46528 11.208 7.50262 11.3995C6.53997 11.5909 5.54215 11.4927 4.63535 11.1171C3.72856 10.7415 2.9535 10.1054 2.4082 9.28929C1.8629 8.47319 1.57185 7.51372 1.57185 6.5322C1.57185 5.21604 2.0947 3.95378 3.02537 3.0231C3.95604 2.09243 5.2183 1.56959 6.53446 1.56959Z" fill="#071446"/>
</svg>
