<svg width="25" height="24" viewBox="0 0 25 24" fill="none" xmlns="http://www.w3.org/2000/svg">
<path d="M17.9024 13.5363L23.44 13.5363C24.2091 13.5363 24.8244 12.921 24.8244 12.1519L24.8244 1.38439C24.8244 0.615286 24.2091 -6.13433e-08 23.44 -1.38022e-07L17.9024 -6.90112e-07C17.2256 -7.5759e-07 16.6719 0.461463 16.5488 1.10751C16.1796 0.769105 15.7489 0.461463 15.4413 0.276877C15.1644 0.0922918 14.8568 -9.93761e-07 14.5184 -1.0275e-06L3.68932 -2.10714e-06C3.65856 -2.11021e-06 3.62779 -2.11328e-06 3.59703 -2.11634e-06C2.21263 0.215347 1.47429 1.44592 1.68964 3.16872C0.920536 4.03012 0.766714 5.1684 1.22818 6.33744C-0.18698 7.96795 0.39754 9.41387 0.735948 9.96763C-0.402333 11.4136 0.520598 13.1364 0.674418 13.4132C1.47429 15.0745 3.90467 15.013 5.53518 14.9514C5.90435 14.9514 6.21199 14.9207 6.45811 14.9514C6.85804 14.9822 7.07339 15.0437 7.13492 15.0745C7.13492 15.1053 7.10416 15.1976 7.04263 15.3206C6.9811 15.4437 6.88881 15.5975 6.76575 15.7821C6.21199 16.7665 5.28906 18.397 4.95066 19.5661C4.70454 20.4583 4.88913 21.5965 5.47365 22.5502C5.93511 23.3193 6.58117 23.8116 7.25798 23.9654C7.71944 24.0577 8.15014 23.9654 8.48855 23.6885C9.25766 23.104 9.38072 21.8734 9.38072 21.6273C9.6576 19.6892 11.4727 17.9664 12.3341 17.1357C12.4571 17.0127 12.5494 16.9204 12.6417 16.8588C13.134 16.3666 13.4416 15.6283 13.7492 14.8899C13.9338 14.4285 14.1492 13.9362 14.3953 13.5671C14.7337 13.0441 15.1336 12.5518 15.4105 12.2442C15.5643 12.0904 15.7797 11.9673 15.995 11.9673L16.518 11.9673L16.518 12.1211C16.518 12.921 17.1333 13.5363 17.9024 13.5363ZM17.7486 1.38439C17.7486 1.2921 17.8101 1.23057 17.9024 1.23057L23.44 1.23057C23.5323 1.23057 23.5938 1.2921 23.5938 1.38439L23.5938 12.1519C23.5938 12.2442 23.5323 12.3057 23.44 12.3057L17.9024 12.3057C17.8101 12.3057 17.7486 12.2442 17.7486 12.1519L17.7486 1.38439ZM15.995 10.7675C15.4413 10.7675 14.8875 11.0136 14.4876 11.4443C14.1799 11.7827 13.7185 12.3365 13.3493 12.921C13.0417 13.3825 12.8263 13.9362 12.611 14.4285C12.3341 15.0745 12.088 15.659 11.7803 15.9974C11.7188 16.059 11.5957 16.1513 11.5035 16.2743C10.519 17.1972 8.48855 19.1354 8.18091 21.5042L8.18091 21.535C8.15014 21.9042 7.99632 22.5195 7.75021 22.7041C7.71944 22.7348 7.65792 22.7656 7.50409 22.7348C7.16569 22.6733 6.79651 22.3656 6.51964 21.9042C6.1197 21.2581 5.96588 20.4583 6.1197 19.9045C6.42734 18.8585 7.35027 17.2588 7.8425 16.3666C7.96556 16.182 8.05785 15.9974 8.11938 15.8744C8.42702 15.3206 8.45779 14.8284 8.24244 14.4285C7.90403 13.8132 7.10416 13.7209 6.51964 13.6901C6.24276 13.6901 5.87359 13.6901 5.50441 13.6901C4.21231 13.7209 2.21263 13.7824 1.78193 12.8287C1.78193 12.7979 1.75117 12.7979 1.75117 12.7672C1.75117 12.7672 1.01283 11.5674 1.72041 10.6752C2.02805 10.306 2.05881 9.75228 1.8127 9.32158C1.382 8.614 1.50506 7.87566 2.18187 7.10655C2.48951 6.76814 2.58181 6.27591 2.39722 5.87598C2.18187 5.35299 2.05881 4.61464 2.64333 3.96859C2.88945 3.72248 2.98174 3.35331 2.95098 3.0149C2.85869 2.27656 2.92021 1.38439 3.78161 1.23057L14.5491 1.23057C14.6414 1.23057 14.7337 1.26133 14.826 1.2921C15.2259 1.53821 15.5643 1.81509 15.8105 2.03044C16.0258 2.24579 16.3027 2.39961 16.5796 2.49191L16.5796 10.7675L15.995 10.7675Z" fill="white"/>
</svg>
