<svg width="18" height="22" viewBox="0 0 18 22" fill="none" xmlns="http://www.w3.org/2000/svg">
<path d="M15.0676 4.39898L14.5039 19.6186C14.4943 19.8798 14.2642 20.1011 14.0019 20.1011H4.26276C4.00069 20.1011 3.77034 19.879 3.7607 19.6186L3.19701 4.39898C3.18146 3.97905 2.82843 3.65124 2.4085 3.66679C1.98857 3.68234 1.66076 4.03537 1.67631 4.4553L2.24 19.6749C2.27994 20.7531 3.18203 21.6228 4.26276 21.6228H14.0019C15.082 21.6228 15.9846 20.7548 16.0246 19.6749L16.5883 4.4553C16.6039 4.03537 16.2761 3.68234 15.8561 3.66679C15.4362 3.65124 15.0832 3.97905 15.0676 4.39898Z" fill="white"/>
<path d="M8.52344 7.47051V17.8183C8.52344 18.1545 8.79596 18.427 9.13213 18.427C9.46831 18.427 9.74083 18.1545 9.74083 17.8183V7.47051C9.74083 7.13434 9.46831 6.86182 9.13213 6.86182C8.79596 6.86182 8.52344 7.13434 8.52344 7.47051Z" fill="white"/>
<path d="M5.17605 7.48841L5.4804 17.8362C5.49028 18.1723 5.7707 18.4367 6.10672 18.4268C6.44275 18.4169 6.70714 18.1365 6.69726 17.8004L6.39291 7.45262C6.38303 7.11659 6.10261 6.8522 5.76659 6.86208C5.43056 6.87197 5.16617 7.15238 5.17605 7.48841Z" fill="white"/>
<path d="M11.871 7.45262L11.5667 17.8004C11.5568 18.1365 11.8212 18.4169 12.1572 18.4268C12.4932 18.4367 12.7737 18.1723 12.7835 17.8362L13.0879 7.48841C13.0978 7.15238 12.8334 6.87197 12.4973 6.86208C12.1613 6.8522 11.8809 7.11659 11.871 7.45262Z" fill="white"/>
<path d="M1.52259 4.73146H16.74C17.1602 4.73146 17.5008 4.3908 17.5008 3.97059C17.5008 3.55037 17.1602 3.20972 16.74 3.20972H1.52259C1.10237 3.20972 0.761719 3.55037 0.761719 3.97059C0.761719 4.3908 1.10237 4.73146 1.52259 4.73146Z" fill="white"/>
<path d="M6.81866 3.72313L7.13549 2.61424C7.20334 2.37673 7.51122 2.14454 7.75839 2.14454H10.5027C10.75 2.14454 11.0577 2.37653 11.1256 2.61424L11.4424 3.72313L12.9056 3.30508L12.5888 2.19618C12.3342 1.3051 11.4293 0.622803 10.5027 0.622803H7.75839C6.83184 0.622803 5.92682 1.30534 5.6723 2.19618L5.35547 3.30508L6.81866 3.72313Z" fill="white"/>
</svg>
