<svg width="18" height="22" viewBox="0 0 18 22" fill="none" xmlns="http://www.w3.org/2000/svg">
<path d="M14.9504 3.84478L14.3867 19.0644C14.3771 19.3256 14.147 19.5469 13.8847 19.5469H4.14557C3.8835 19.5469 3.65316 19.3248 3.64351 19.0644L3.07982 3.84478C3.06427 3.42485 2.71124 3.09704 2.29131 3.11259C1.87138 3.12814 1.54357 3.48117 1.55913 3.9011L2.12281 19.1207C2.16275 20.1989 3.06485 21.0686 4.14557 21.0686H13.8847C14.9648 21.0686 15.8674 20.2006 15.9074 19.1207L16.4711 3.9011C16.4867 3.48117 16.1589 3.12814 15.7389 3.11259C15.319 3.09704 14.966 3.42485 14.9504 3.84478Z" fill="#4989B7"/>
<path d="M8.40625 6.91631V17.2641C8.40625 17.6003 8.67877 17.8728 9.01495 17.8728C9.35112 17.8728 9.62364 17.6003 9.62364 17.2641V6.91631C9.62364 6.58014 9.35112 6.30762 9.01495 6.30762C8.67877 6.30762 8.40625 6.58014 8.40625 6.91631Z" fill="#4989B7"/>
<path d="M5.05984 6.93421L5.36419 17.282C5.37407 17.6181 5.65449 17.8825 5.99051 17.8726C6.32654 17.8627 6.59093 17.5823 6.58105 17.2462L6.2767 6.89842C6.26682 6.56239 5.9864 6.298 5.65038 6.30789C5.31435 6.31777 5.04996 6.59819 5.05984 6.93421Z" fill="#4989B7"/>
<path d="M11.7538 6.89842L11.4495 17.2462C11.4396 17.5823 11.704 17.8627 12.04 17.8726C12.3761 17.8825 12.6565 17.6181 12.6664 17.282L12.9707 6.93421C12.9806 6.59819 12.7162 6.31777 12.3802 6.30789C12.0441 6.298 11.7637 6.56239 11.7538 6.89842Z" fill="#4989B7"/>
<path d="M1.40638 4.17726H16.6238C17.044 4.17726 17.3846 3.8366 17.3846 3.41639C17.3846 2.99617 17.044 2.65552 16.6238 2.65552H1.40638C0.986161 2.65552 0.645508 2.99617 0.645508 3.41639C0.645508 3.8366 0.986161 4.17726 1.40638 4.17726Z" fill="#4989B7"/>
<path d="M6.70342 3.16894L7.02025 2.06004C7.08811 1.82253 7.39598 1.59034 7.64315 1.59034H10.3875C10.6348 1.59034 10.9424 1.82233 11.0104 2.06004L11.3272 3.16894L12.7904 2.75088L12.4736 1.64198C12.219 0.7509 11.3141 0.0686035 10.3875 0.0686035H7.64315C6.71661 0.0686035 5.81159 0.751145 5.55706 1.64198L5.24023 2.75088L6.70342 3.16894Z" fill="#4989B7"/>
</svg>
