<svg width="18" height="19" viewBox="0 0 18 19" fill="none" xmlns="http://www.w3.org/2000/svg">
<path d="M14.6285 0.790862L14.5578 0.720151L14.4871 0.790862L6.00644 9.27154L5.97715 9.30083V9.34225V12.3936V12.4922L6.07577 12.4936L9.16575 12.5363L9.20801 12.5369L9.23788 12.507L17.7165 4.0202L17.7872 3.94949L17.7165 3.87881L14.6285 0.790862ZM15.7773 3.9495L8.61754 11.1052L7.39361 11.0943V9.89021L14.5578 2.73003L15.7773 3.9495Z" fill="#4989B7" stroke="#4989B7" stroke-width="0.2"/>
<path d="M8.20476 4.06174H8.30476V3.96174V2.74121V2.64121H8.20476H0.643555H0.543555V2.74121V17.8616V17.9616H0.643555H15.766H15.866V17.8616V10.3024V10.2024H15.766H14.5454H14.4454V10.3024V16.5411H1.96409V4.06174H8.20476Z" fill="#4989B7" stroke="#4989B7" stroke-width="0.2"/>
</svg>
