<svg width="18" height="18" viewBox="0 0 18 18" fill="none" xmlns="http://www.w3.org/2000/svg">
<path d="M9.94102 0.416504V1.96156H2.18861V15.8715H16.0985V8.11904H17.6436V16.644C17.6255 17.0587 17.2866 17.3984 16.871 17.4165H1.41608C1.00134 17.3984 0.661654 17.0596 0.643555 16.644V1.18903C0.661654 0.774294 1.00046 0.434603 1.41608 0.416504H9.94102ZM11.7068 0.416504H16.871C16.8935 0.417387 16.9161 0.418491 16.9383 0.419373C17.3273 0.470581 17.6263 0.795263 17.6436 1.18903V6.35326H16.0985V1.96156H11.7068V0.416504Z" fill="#071446"/>
<path d="M17.182 1.9705L9.14335 10.0092L8.05078 8.91662L16.0895 0.87793C16.4537 1.24212 16.8179 1.60631 17.182 1.9705Z" fill="#071446"/>
</svg>
