<svg width="31" height="31" viewBox="0 0 31 31" fill="none" xmlns="http://www.w3.org/2000/svg">
<path d="M30.7336 7.07926L28.7196 2.58356C28.6816 2.50378 28.6223 2.43611 28.5481 2.38809C28.474 2.34006 28.3879 2.31355 28.2996 2.31152C28.2105 2.31267 28.1234 2.33876 28.0484 2.38684C27.9733 2.43492 27.9132 2.50307 27.8749 2.58356L25.8513 7.07449C25.8269 7.13187 25.8139 7.19348 25.8131 7.25584V10.0048V11.6704V28.2024C25.8087 28.3932 25.8424 28.583 25.9124 28.7606C25.9823 28.9381 26.0871 29.1 26.2205 29.2365C26.3539 29.373 26.5132 29.4814 26.6892 29.5555C26.8651 29.6295 27.054 29.6676 27.2449 29.6676H29.34C29.5309 29.6676 29.7198 29.6295 29.8958 29.5555C30.0717 29.4814 30.231 29.373 30.3644 29.2365C30.4978 29.1 30.6026 28.9381 30.6725 28.7606C30.7425 28.583 30.7762 28.3932 30.7718 28.2024V7.26062C30.771 7.19825 30.758 7.13664 30.7336 7.07926ZM28.2948 3.90077L29.593 6.79768H26.9919L28.2948 3.90077ZM29.8459 28.2024C29.8485 28.2711 29.8374 28.3396 29.8132 28.404C29.7891 28.4684 29.7525 28.5274 29.7055 28.5776C29.6584 28.6277 29.6019 28.668 29.5392 28.6962C29.4764 28.7244 29.4088 28.7398 29.34 28.7417H27.2497C27.1159 28.7307 26.9916 28.6685 26.9026 28.568C26.8137 28.4675 26.767 28.3365 26.7724 28.2024V26.6131H29.8698L29.8459 28.2024ZM29.8459 25.6873H26.7485V24.8998H29.8459V25.6873ZM29.8459 23.9739H26.7485V11.6943V10.0239V7.72355H29.8555L29.8459 23.9739Z" fill="#777DEF"/>
<path d="M21.4607 0.989746H2.54245C1.92895 0.991007 1.34094 1.23528 0.907127 1.66909C0.473315 2.1029 0.229044 2.69091 0.227783 3.30441L0.227783 28.6751C0.229044 29.2886 0.473315 29.8766 0.907127 30.3104C1.34094 30.7442 1.92895 30.9885 2.54245 30.9897H21.4607C22.0746 30.9897 22.6633 30.7459 23.0974 30.3118C23.5315 29.8777 23.7753 29.289 23.7753 28.6751V3.30441C23.7753 2.69053 23.5315 2.10178 23.0974 1.6677C22.6633 1.23361 22.0746 0.989746 21.4607 0.989746ZM22.8495 28.6703C22.8495 28.8527 22.8136 29.0333 22.7438 29.2018C22.674 29.3703 22.5717 29.5234 22.4427 29.6523C22.3137 29.7813 22.1606 29.8836 21.9922 29.9534C21.8237 30.0232 21.6431 30.0591 21.4607 30.0591H2.54245C2.17412 30.0591 1.82087 29.9128 1.56042 29.6523C1.29997 29.3919 1.15365 29.0386 1.15365 28.6703V3.30441C1.15365 2.93608 1.29997 2.58283 1.56042 2.32238C1.82087 2.06193 2.17412 1.91561 2.54245 1.91561H21.4607C21.829 1.91561 22.1823 2.06193 22.4427 2.32238C22.7032 2.58283 22.8495 2.93608 22.8495 3.30441V28.6703Z" fill="#777DEF"/>
<path d="M20.8021 2.96094H3.18672C3.06015 2.96094 2.93876 3.01122 2.84926 3.10072C2.75975 3.19022 2.70947 3.31161 2.70947 3.43819V10.4824C2.70947 10.609 2.75975 10.7304 2.84926 10.8199C2.93876 10.9094 3.06015 10.9597 3.18672 10.9597H20.8021C20.9286 10.9597 21.05 10.9094 21.1395 10.8199C21.229 10.7304 21.2793 10.609 21.2793 10.4824V3.42387C21.2756 3.29979 21.2237 3.18205 21.1346 3.09562C21.0455 3.00919 20.9262 2.96088 20.8021 2.96094ZM20.3248 10.0195H3.62102V3.8868H20.3248V10.0195Z" fill="#777DEF"/>
<path d="M7.20999 12.8828H3.56856C3.44198 12.8828 3.32059 12.9331 3.23109 13.0226C3.14159 13.1121 3.09131 13.2335 3.09131 13.3601V16.9919C3.09131 17.1185 3.14159 17.2399 3.23109 17.3294C3.32059 17.4189 3.44198 17.4692 3.56856 17.4692H7.20521C7.33179 17.4692 7.45318 17.4189 7.54268 17.3294C7.63218 17.2399 7.68246 17.1185 7.68246 16.9919V13.3457C7.67877 13.2225 7.62751 13.1054 7.53943 13.0191C7.45135 12.9328 7.33329 12.884 7.20999 12.8828ZM6.73273 16.5147H4.04581V13.8087H6.7566L6.73273 16.5147Z" fill="#777DEF"/>
<path d="M13.8103 12.8828H10.1784C10.0518 12.8828 9.93046 12.9331 9.84096 13.0226C9.75145 13.1121 9.70117 13.2335 9.70117 13.3601V16.9919C9.70117 17.1185 9.75145 17.2399 9.84096 17.3294C9.93046 17.4189 10.0518 17.4692 10.1784 17.4692H13.8103C13.9369 17.4692 14.0583 17.4189 14.1478 17.3294C14.2373 17.2399 14.2876 17.1185 14.2876 16.9919V13.3457C14.2838 13.2217 14.2319 13.1039 14.1428 13.0175C14.0537 12.9311 13.9344 12.8828 13.8103 12.8828ZM13.3331 16.5147H10.6414V13.8087H13.3474L13.3331 16.5147Z" fill="#777DEF"/>
<path d="M20.4155 12.8828H16.7836C16.6571 12.8828 16.5357 12.9331 16.4462 13.0226C16.3567 13.1121 16.3064 13.2335 16.3064 13.3601V16.9919C16.3064 17.1185 16.3567 17.2399 16.4462 17.3294C16.5357 17.4189 16.6571 17.4692 16.7836 17.4692H20.4155C20.5421 17.4692 20.6635 17.4189 20.753 17.3294C20.8425 17.2399 20.8928 17.1185 20.8928 16.9919V13.3457C20.8891 13.2217 20.8371 13.1039 20.748 13.0175C20.6589 12.9311 20.5397 12.8828 20.4155 12.8828ZM19.9383 16.5147H17.2466V13.8087H19.9526L19.9383 16.5147Z" fill="#777DEF"/>
<path d="M7.20999 18.6626H3.56856C3.44198 18.6626 3.32059 18.7129 3.23109 18.8024C3.14159 18.8919 3.09131 19.0133 3.09131 19.1398V22.7717C3.09131 22.8983 3.14159 23.0197 3.23109 23.1092C3.32059 23.1987 3.44198 23.249 3.56856 23.249H7.20521C7.33179 23.249 7.45318 23.1987 7.54268 23.1092C7.63218 23.0197 7.68246 22.8983 7.68246 22.7717V19.1255C7.67877 19.0023 7.62751 18.8852 7.53943 18.7989C7.45135 18.7126 7.33329 18.6638 7.20999 18.6626ZM6.73273 22.2945H4.04581V19.5885H6.7566L6.73273 22.2945Z" fill="#777DEF"/>
<path d="M13.8103 18.6626H10.1784C10.0518 18.6626 9.93046 18.7129 9.84096 18.8024C9.75145 18.8919 9.70117 19.0133 9.70117 19.1398V22.7717C9.70117 22.8983 9.75145 23.0197 9.84096 23.1092C9.93046 23.1987 10.0518 23.249 10.1784 23.249H13.8103C13.9369 23.249 14.0583 23.1987 14.1478 23.1092C14.2373 23.0197 14.2876 22.8983 14.2876 22.7717V19.1255C14.2838 19.0015 14.2319 18.8837 14.1428 18.7973C14.0537 18.7109 13.9344 18.6625 13.8103 18.6626ZM13.3331 22.2945H10.6414V19.5885H13.3474L13.3331 22.2945Z" fill="#777DEF"/>
<path d="M7.20999 24.4419H3.56856C3.44198 24.4419 3.32059 24.4922 3.23109 24.5817C3.14159 24.6712 3.09131 24.7926 3.09131 24.9191V28.551C3.09131 28.6776 3.14159 28.799 3.23109 28.8885C3.32059 28.978 3.44198 29.0283 3.56856 29.0283H7.20521C7.33179 29.0283 7.45318 28.978 7.54268 28.8885C7.63218 28.799 7.68246 28.6776 7.68246 28.551V24.9048C7.67877 24.7816 7.62751 24.6645 7.53943 24.5782C7.45135 24.4919 7.33329 24.4431 7.20999 24.4419ZM6.73273 28.0738H4.04581V25.3678H6.7566L6.73273 28.0738Z" fill="#777DEF"/>
<path d="M13.8103 24.4419H10.1784C10.0518 24.4419 9.93046 24.4922 9.84096 24.5817C9.75145 24.6712 9.70117 24.7926 9.70117 24.9191V28.551C9.70117 28.6776 9.75145 28.799 9.84096 28.8885C9.93046 28.978 10.0518 29.0283 10.1784 29.0283H13.8103C13.9369 29.0283 14.0583 28.978 14.1478 28.8885C14.2373 28.799 14.2876 28.6776 14.2876 28.551V24.9048C14.2838 24.7808 14.2319 24.663 14.1428 24.5766C14.0537 24.4901 13.9344 24.4418 13.8103 24.4419ZM13.3331 28.0738H10.6414V25.3678H13.3474L13.3331 28.0738Z" fill="#777DEF"/>
<path d="M20.4155 18.6626H16.7836C16.6571 18.6626 16.5357 18.7129 16.4462 18.8024C16.3567 18.8919 16.3064 19.0133 16.3064 19.1398V28.5369C16.3064 28.6635 16.3567 28.7849 16.4462 28.8744C16.5357 28.9639 16.6571 29.0142 16.7836 29.0142H20.4155C20.5421 29.0142 20.6635 28.9639 20.753 28.8744C20.8425 28.7849 20.8928 28.6635 20.8928 28.5369V19.1255C20.8891 19.0015 20.8371 18.8837 20.748 18.7973C20.6589 18.7109 20.5397 18.6625 20.4155 18.6626ZM19.9383 28.074H17.2466V19.5885H19.9526L19.9383 28.074Z" fill="#777DEF"/>
</svg>
