<svg width="25" height="35" viewBox="0 0 25 35" fill="none" xmlns="http://www.w3.org/2000/svg">
<path d="M17.9506 10.7253C17.8975 9.98128 17.2597 9.34353 16.4626 9.34353H14.7088V7.80231C14.7088 6.36737 13.5395 5.14502 12.1046 5.14502C11.7857 5.14502 11.5732 5.3576 11.5732 5.67648V8.12118L10.4571 9.34353C10.0851 9.39668 9.71305 9.50297 9.39417 9.66241C9.18159 9.29039 8.80957 9.07781 8.38441 9.07781H7.48093C6.73689 9.07781 6.15228 9.66241 6.15228 10.4065V16.6776C6.15228 17.4217 6.73689 18.0063 7.48093 18.0063H8.38441C8.80957 18.0063 9.18159 17.7406 9.39417 17.4217C9.81934 17.6343 10.2445 17.7406 10.7228 17.7406H15.4528C16.25 17.7406 16.8877 17.1028 16.8877 16.3056C16.8877 16.0399 16.8346 15.8273 16.7283 15.6147C16.994 15.4022 17.1535 15.1364 17.2597 14.7644C17.3129 14.3924 17.2597 14.0735 17.1003 13.7546C17.4192 13.4889 17.6318 13.1169 17.6318 12.7449C17.6318 12.4791 17.5786 12.2134 17.4723 11.9477C17.5255 11.8945 17.5786 11.8414 17.6318 11.8414C17.7912 11.5225 17.9506 11.1505 17.9506 10.7253ZM8.38441 16.8371C8.38441 16.8902 8.33126 16.8902 8.33126 16.8902H7.42778C7.26834 16.8902 7.16205 16.7839 7.16205 16.6245V10.3533C7.16205 10.1939 7.26834 10.0876 7.42778 10.0876H8.33126C8.3844 10.0876 8.38441 10.1407 8.38441 10.1407C8.38441 12.1603 8.38441 14.9238 8.38441 16.8371ZM16.7814 11.0442C16.7283 11.0973 16.622 11.1505 16.5157 11.1505H16.1437C15.8248 11.1505 15.6122 11.3631 15.6122 11.6819C15.6122 12.0008 15.8248 12.2134 16.1437 12.2134C16.25 12.2134 16.3563 12.2666 16.4094 12.3197C16.4626 12.3728 16.5157 12.4791 16.5157 12.5854C16.5157 12.798 16.3031 12.9574 16.0905 12.9574H15.7717C15.4528 12.9574 15.2402 13.17 15.2402 13.4889C15.2402 13.8078 15.4528 14.0204 15.7717 14.0204C15.878 14.0204 15.9842 14.0735 16.0905 14.1798C16.1437 14.2329 16.1968 14.3392 16.1437 14.4987C16.0905 14.6581 15.9311 14.8175 15.7185 14.8175H15.3996C15.0808 14.8175 14.8682 15.0301 14.8682 15.349C14.8682 15.6679 15.0808 15.8805 15.3996 15.8805C15.6122 15.8805 15.7717 16.0399 15.7717 16.2525C15.7717 16.4651 15.6122 16.6245 15.3996 16.6245H10.6697C10.2445 16.6245 9.81934 16.5182 9.50047 16.2525V10.7785C10.3508 10.1939 10.7228 10.619 11.0948 10.247L12.5298 8.70579C12.6361 8.59949 12.6892 8.4932 12.6892 8.33376V6.31423C13.2738 6.52681 13.699 7.11141 13.699 7.80231V9.87499C13.699 10.1939 13.9116 10.4065 14.2304 10.4065H16.5157C16.7283 10.4065 16.9409 10.5659 16.9409 10.7785C16.8877 10.8848 16.8346 10.9911 16.7814 11.0442Z" fill="#071446"/>
<path d="M24.4344 12.3194C24.4344 5.62302 19.0135 0.202148 12.3172 0.202148C5.62082 0.202148 0.199951 5.62302 0.199951 12.3194C0.199951 15.9333 1.79432 19.1752 4.29217 21.4073L0.731409 31.3987C0.571971 31.877 1.05028 32.3022 1.47545 32.0365L5.03621 30.0169L6.5243 33.8434C6.68373 34.3217 7.37463 34.2686 7.53407 33.8434L10.9354 24.3835C11.4137 24.4366 11.892 24.4898 12.3172 24.4898C12.6361 24.4898 12.9549 24.4898 13.2738 24.4366L16.622 33.8434C16.7814 34.3217 17.4192 34.3217 17.6318 33.8434L19.1198 30.0169L22.6806 32.0365C23.1589 32.3022 23.6904 31.7707 23.4246 31.2924L20.0233 21.673C22.7338 19.4941 24.4344 16.1459 24.4344 12.3194ZM9.81933 24.224L7.00261 32.1427L5.78026 29.0603C5.67396 28.7414 5.30194 28.6351 5.03621 28.7946L2.16634 30.4421L5.14251 22.1513C6.47115 23.108 8.11867 23.852 9.81933 24.224ZM21.9897 30.4421L19.1198 28.7946C18.9604 28.7414 18.801 28.6883 18.6947 28.7414C18.5352 28.7946 18.4289 28.9009 18.3758 29.0603L17.1534 32.1427L14.3367 24.2772C15.9842 24.0114 17.6318 23.3737 19.1198 22.3639L21.9897 30.4421ZM12.3172 23.4268C6.25857 23.4268 1.26287 18.4843 1.26287 12.3725C1.26287 6.20762 6.20542 1.26506 12.3172 1.26506C18.4289 1.26506 23.3715 6.20762 23.3715 12.3194C23.3715 18.4843 18.3227 23.4268 12.3172 23.4268Z" fill="#071446"/>
<path d="M12.3171 2.75391C7.00253 2.75391 2.69772 7.05871 2.69772 12.3733C2.69772 17.6879 7.00253 21.9927 12.3171 21.9927C17.6317 21.9927 21.9365 17.6879 21.9365 12.3733C21.9365 7.05871 17.6317 2.75391 12.3171 2.75391ZM12.3171 20.8766C7.58713 20.8766 3.76064 17.0501 3.76064 12.3201C3.76064 7.64331 7.58713 3.81682 12.3171 3.81682C17.0471 3.81682 20.8736 7.64331 20.8736 12.3733C20.8736 17.0501 17.0471 20.8766 12.3171 20.8766Z" fill="#071446"/>
</svg>
