<svg width="25" height="35" viewBox="0 0 25 35" fill="none" xmlns="http://www.w3.org/2000/svg">
<path d="M17.9507 10.7253C17.8976 9.98128 17.2598 9.34353 16.4626 9.34353H14.7088V7.80231C14.7088 6.36737 13.5396 5.14502 12.1047 5.14502C11.7858 5.14502 11.5732 5.3576 11.5732 5.67648V8.12118L10.4572 9.34353C10.0851 9.39668 9.71311 9.50297 9.39424 9.66241C9.18165 9.29039 8.80963 9.07781 8.38447 9.07781H7.48099C6.73695 9.07781 6.15234 9.66241 6.15234 10.4065V16.6776C6.15234 17.4217 6.73695 18.0063 7.48099 18.0063H8.38447C8.80963 18.0063 9.18165 17.7406 9.39424 17.4217C9.8194 17.6343 10.2446 17.7406 10.7229 17.7406H15.4529C16.25 17.7406 16.8878 17.1028 16.8878 16.3056C16.8878 16.0399 16.8346 15.8273 16.7283 15.6147C16.9941 15.4022 17.1535 15.1364 17.2598 14.7644C17.313 14.3924 17.2598 14.0735 17.1004 13.7546C17.4192 13.4889 17.6318 13.1169 17.6318 12.7449C17.6318 12.4791 17.5787 12.2134 17.4724 11.9477C17.5255 11.8945 17.5787 11.8414 17.6318 11.8414C17.7913 11.5225 17.9507 11.1505 17.9507 10.7253ZM8.38447 16.8371C8.38447 16.8902 8.33132 16.8902 8.33132 16.8902H7.42784C7.2684 16.8902 7.16211 16.7839 7.16211 16.6245V10.3533C7.16211 10.1939 7.2684 10.0876 7.42784 10.0876H8.33132C8.38447 10.0876 8.38447 10.1407 8.38447 10.1407C8.38447 12.1603 8.38447 14.9238 8.38447 16.8371ZM16.7815 11.0442C16.7284 11.0973 16.6221 11.1505 16.5158 11.1505H16.1437C15.8249 11.1505 15.6123 11.3631 15.6123 11.6819C15.6123 12.0008 15.8249 12.2134 16.1437 12.2134C16.25 12.2134 16.3563 12.2666 16.4095 12.3197C16.4626 12.3728 16.5158 12.4791 16.5158 12.5854C16.5158 12.798 16.3032 12.9574 16.0906 12.9574H15.7717C15.4529 12.9574 15.2403 13.17 15.2403 13.4889C15.2403 13.8078 15.4529 14.0204 15.7717 14.0204C15.878 14.0204 15.9843 14.0735 16.0906 14.1798C16.1437 14.2329 16.1969 14.3392 16.1437 14.4987C16.0906 14.6581 15.9312 14.8175 15.7186 14.8175H15.3997C15.0808 14.8175 14.8682 15.0301 14.8682 15.349C14.8682 15.6679 15.0808 15.8805 15.3997 15.8805C15.6123 15.8805 15.7717 16.0399 15.7717 16.2525C15.7717 16.4651 15.6123 16.6245 15.3997 16.6245H10.6697C10.2446 16.6245 9.8194 16.5182 9.50053 16.2525V10.7785C10.3509 10.1939 10.7229 10.619 11.0949 10.247L12.5298 8.70579C12.6361 8.59949 12.6893 8.4932 12.6893 8.33376V6.31423C13.2739 6.52681 13.699 7.11141 13.699 7.80231V9.87499C13.699 10.1939 13.9116 10.4065 14.2305 10.4065H16.5158C16.7284 10.4065 16.9409 10.5659 16.9409 10.7785C16.8878 10.8848 16.8346 10.9911 16.7815 11.0442Z" fill="#777DEF"/>
<path d="M24.4344 12.3194C24.4344 5.62302 19.0135 0.202148 12.3172 0.202148C5.62082 0.202148 0.199951 5.62302 0.199951 12.3194C0.199951 15.9333 1.79432 19.1752 4.29217 21.4073L0.731409 31.3987C0.571971 31.877 1.05028 32.3022 1.47545 32.0365L5.03621 30.0169L6.5243 33.8434C6.68373 34.3217 7.37463 34.2686 7.53407 33.8434L10.9354 24.3835C11.4137 24.4366 11.892 24.4898 12.3172 24.4898C12.6361 24.4898 12.9549 24.4898 13.2738 24.4366L16.622 33.8434C16.7814 34.3217 17.4192 34.3217 17.6318 33.8434L19.1198 30.0169L22.6806 32.0365C23.1589 32.3022 23.6904 31.7707 23.4246 31.2924L20.0233 21.673C22.7338 19.4941 24.4344 16.1459 24.4344 12.3194ZM9.81933 24.224L7.00261 32.1427L5.78026 29.0603C5.67396 28.7414 5.30194 28.6351 5.03621 28.7946L2.16634 30.4421L5.14251 22.1513C6.47115 23.108 8.11867 23.852 9.81933 24.224ZM21.9897 30.4421L19.1198 28.7946C18.9604 28.7414 18.801 28.6883 18.6947 28.7414C18.5352 28.7946 18.4289 28.9009 18.3758 29.0603L17.1534 32.1427L14.3367 24.2772C15.9842 24.0114 17.6318 23.3737 19.1198 22.3639L21.9897 30.4421ZM12.3172 23.4268C6.25857 23.4268 1.26287 18.4843 1.26287 12.3725C1.26287 6.20762 6.20542 1.26506 12.3172 1.26506C18.4289 1.26506 23.3715 6.20762 23.3715 12.3194C23.3715 18.4843 18.3227 23.4268 12.3172 23.4268Z" fill="#777DEF"/>
<path d="M12.3171 2.75391C7.00256 2.75391 2.69775 7.05871 2.69775 12.3733C2.69775 17.6879 7.00256 21.9927 12.3171 21.9927C17.6317 21.9927 21.9365 17.6879 21.9365 12.3733C21.9365 7.05871 17.6317 2.75391 12.3171 2.75391ZM12.3171 20.8766C7.58716 20.8766 3.76067 17.0501 3.76067 12.3201C3.76067 7.64331 7.58716 3.81682 12.3171 3.81682C17.0471 3.81682 20.8736 7.64331 20.8736 12.3733C20.8736 17.0501 17.0471 20.8766 12.3171 20.8766Z" fill="#777DEF"/>
</svg>
