<svg width="26" height="27" viewBox="0 0 26 27" fill="none" xmlns="http://www.w3.org/2000/svg">
<path d="M25.4157 24.8378H1.16854V0.590617C1.16854 0.2681 0.906787 0.00634766 0.58427 0.00634766C0.261753 0.00634766 0 0.2681 0 0.590617V25.4221C0 25.7446 0.261753 26.0063 0.58427 26.0063H25.4157C25.7382 26.0063 26 25.7446 26 25.4221C26 25.0996 25.7382 24.8378 25.4157 24.8378Z" fill="#071446"/>
<path d="M3.61515 23.6693H9.27527C9.59778 23.6693 9.85954 23.4075 9.85954 23.085V14.7957C9.85954 14.4732 9.59778 14.2114 9.27527 14.2114H3.61515C3.29264 14.2114 3.03088 14.4732 3.03088 14.7957V23.085C3.03088 23.4075 3.29264 23.6693 3.61515 23.6693ZM4.19942 15.38H8.691V22.5008H4.19942V15.38Z" fill="#071446"/>
<path d="M11.1011 9.68388V23.0856C11.1011 23.4081 11.3629 23.6698 11.6854 23.6698H17.3455C17.668 23.6698 17.9298 23.4081 17.9298 23.0856V9.68388C17.9298 9.36136 17.668 9.09961 17.3455 9.09961H11.6854C11.3629 9.09961 11.1011 9.36136 11.1011 9.68388ZM12.2696 10.2681H16.7612V22.5013H12.2696V10.2681Z" fill="#071446"/>
<path d="M25.4157 3.36523H19.7556C19.4331 3.36523 19.1713 3.62699 19.1713 3.9495V23.0843C19.1713 23.4069 19.4331 23.6686 19.7556 23.6686H25.4157C25.7382 23.6686 26 23.4069 26 23.0843V3.9495C26 3.62699 25.7382 3.36523 25.4157 3.36523ZM24.8314 22.5001H20.3399V4.53377H24.8314V22.5001Z" fill="#071446"/>
<path d="M4.25526 12.2006C4.40484 12.2006 4.55441 12.1437 4.66834 12.0294L14.6967 2.00104V4.57563C14.6967 4.89815 14.9585 5.1599 15.281 5.1599C15.6035 5.1599 15.8653 4.89815 15.8653 4.57563V0.590617C15.8653 0.552348 15.8612 0.514078 15.8536 0.4761C15.8501 0.458864 15.8437 0.442797 15.8387 0.426145C15.8329 0.406572 15.8282 0.386415 15.8203 0.367134C15.8121 0.347561 15.801 0.329741 15.7908 0.311044C15.7826 0.296145 15.7762 0.280662 15.7665 0.26664C15.7239 0.20237 15.6687 0.147449 15.6044 0.104505C15.591 0.0954488 15.5761 0.0893139 15.5618 0.0814263C15.5428 0.0709094 15.5241 0.059224 15.5036 0.0510442C15.4852 0.0434487 15.4656 0.0390668 15.4467 0.0332241C15.4291 0.0279656 15.4128 0.0212465 15.3947 0.0177409C15.3576 0.0104376 15.3202 0.00634766 15.2825 0.00634766C15.2819 0.00634766 15.2813 0.00634766 15.2804 0.00634766H11.296C10.9735 0.00634766 10.7117 0.2681 10.7117 0.590617C10.7117 0.913134 10.9735 1.17489 11.296 1.17489H13.8706L3.84218 11.2033C3.61403 11.4314 3.61403 11.8013 3.84218 12.0294C3.95612 12.1434 4.10569 12.2006 4.25526 12.2006Z" fill="#071446"/>
</svg>
