<svg width="32" height="31" viewBox="0 0 32 31" fill="none" xmlns="http://www.w3.org/2000/svg">
<path d="M15.4947 2.61229L15.9149 3.23341L16.3267 2.60672C16.9327 1.68458 17.9909 1.09961 19.1612 1.09961H30.377C30.4287 1.09961 30.477 1.12056 30.5159 1.16061C30.5568 1.20277 30.576 1.25486 30.576 1.2987V27.8944C30.576 28.0134 30.496 28.0935 30.377 28.0935H19.1612C17.5797 28.0935 16.6293 29.1719 16.2756 29.622L16.2755 29.6219L16.2688 29.6309L16.0005 29.9886C15.9674 30.0292 15.9325 30.0627 15.9028 30.0847C15.9026 30.0846 15.9025 30.0845 15.9023 30.0844C15.8623 30.0575 15.8126 30.012 15.7598 29.9505C15.7159 29.8995 15.6777 29.8468 15.649 29.8031V29.758L15.5422 29.622C15.1885 29.1719 14.238 28.0935 12.6566 28.0935H1.62316C1.50416 28.0935 1.42407 28.0134 1.42407 27.8944V1.2987C1.42407 1.1797 1.50417 1.09961 1.62316 1.09961H12.6566C13.8202 1.09961 14.8842 1.70978 15.4947 2.61229ZM1.82225 27.1954V27.6954H2.32225H15.2402H15.7685H16.0492H16.5776H29.6779H30.1779V27.1954V1.99779V1.49779H29.6779H19.1612C17.4868 1.49779 16.108 2.87666 16.108 4.55098H16.608C16.108 4.55098 16.108 4.55106 16.108 4.55123V4.55201V4.55509V4.56734L16.108 4.61575L16.108 4.80459L16.1079 5.52144L16.1075 8.0805C16.107 10.1986 16.1061 13.0234 16.1042 15.85C16.1023 18.6767 16.0994 21.5051 16.0951 23.6305C16.093 24.6933 16.0905 25.5799 16.0876 26.2026C16.0862 26.514 16.0846 26.7587 16.0829 26.9261C16.0824 26.984 16.0818 27.0321 16.0812 27.07L15.9089 27.4147L15.7365 27.07C15.736 27.0321 15.7354 26.984 15.7348 26.9261C15.7331 26.7587 15.7316 26.514 15.7301 26.2026C15.7272 25.5799 15.7247 24.6933 15.7226 23.6305C15.7183 21.5051 15.7155 18.6767 15.7136 15.85C15.7117 13.0234 15.7107 10.1986 15.7103 8.0805L15.7098 5.52144L15.7098 4.80459L15.7098 4.61575V4.56734L15.7098 4.55509V4.55201V4.55123C15.7098 4.55106 15.7098 4.55098 15.2098 4.55098H15.7098C15.7098 2.87666 14.3309 1.49779 12.6566 1.49779H2.32225H1.82225V1.99779V27.1954Z" fill="#777DEF" stroke="#777DEF"/>
<path d="M11.7447 11.4029H12.2447V10.9029V6.92113V6.42113H11.7447H5.78721H5.28721V6.92113V10.9029V11.4029H5.78721H11.7447ZM5.08813 6.02295H12.4437C12.4955 6.02295 12.5438 6.0439 12.5827 6.08395C12.6236 6.12612 12.6428 6.1782 12.6428 6.22204V11.602C12.6428 11.721 12.5627 11.8011 12.4437 11.8011H5.08813C4.96913 11.8011 4.88904 11.721 4.88904 11.602V6.22204C4.88904 6.10304 4.96913 6.02295 5.08813 6.02295Z" fill="#777DEF" stroke="#777DEF"/>
<path d="M5.05785 16.7842H12.4439C12.5629 16.7842 12.643 16.8643 12.643 16.9833C12.643 17.1023 12.5629 17.1824 12.4439 17.1824H5.05785C4.93886 17.1824 4.85876 17.1023 4.85876 16.9833C4.85876 16.8643 4.93886 16.7842 5.05785 16.7842Z" fill="#777DEF" stroke="#777DEF"/>
<path d="M19.8298 22.4683H27.2158C27.3348 22.4683 27.4149 22.5484 27.4149 22.6673C27.4149 22.7863 27.3348 22.8664 27.2158 22.8664H19.8298C19.7108 22.8664 19.6307 22.7863 19.6307 22.6673C19.6307 22.5484 19.7108 22.4683 19.8298 22.4683Z" fill="#777DEF" stroke="#777DEF"/>
<path d="M19.8298 17.0864H27.2158C27.3348 17.0864 27.4149 17.1665 27.4149 17.2855C27.4149 17.4045 27.3348 17.4846 27.2158 17.4846H19.8298C19.7108 17.4846 19.6307 17.4045 19.6307 17.2855C19.6307 17.1665 19.7108 17.0864 19.8298 17.0864Z" fill="#777DEF" stroke="#777DEF"/>
<path d="M19.8298 11.7373H27.2158C27.3348 11.7373 27.4149 11.8174 27.4149 11.9364C27.4149 12.0554 27.3348 12.1355 27.2158 12.1355H19.8298C19.7108 12.1355 19.6307 12.0554 19.6307 11.9364C19.6307 11.8174 19.7108 11.7373 19.8298 11.7373Z" fill="#777DEF" stroke="#777DEF"/>
<path d="M27.2158 6.75609H19.8298C19.7108 6.75609 19.6307 6.67599 19.6307 6.557C19.6307 6.438 19.7108 6.35791 19.8298 6.35791H27.2158C27.3348 6.35791 27.4149 6.438 27.4149 6.557C27.4149 6.67599 27.3348 6.75609 27.2158 6.75609Z" fill="#777DEF" stroke="#777DEF"/>
<path d="M5.05785 22.1333H12.4439C12.4956 22.1333 12.5439 22.1543 12.5828 22.1943C12.6237 22.2365 12.643 22.2885 12.643 22.3324C12.643 22.4514 12.5629 22.5315 12.4439 22.5315H5.05785C4.93886 22.5315 4.85876 22.4514 4.85876 22.3324C4.85876 22.2134 4.93886 22.1333 5.05785 22.1333Z" fill="#777DEF" stroke="#777DEF"/>
</svg>
