<svg width="32" height="31" viewBox="0 0 32 31" fill="none" xmlns="http://www.w3.org/2000/svg">
<path d="M30.3769 0.599609H19.1611C17.8237 0.599609 16.6079 1.2683 15.9088 2.33213C15.2097 1.2987 13.9939 0.599609 12.6565 0.599609H1.6231C1.22796 0.599609 0.924011 0.903561 0.924011 1.2987V27.8944C0.924011 28.2896 1.22796 28.5935 1.6231 28.5935H12.6565C13.9939 28.5935 14.8146 29.5054 15.1489 29.9309C15.1489 29.9613 15.5137 30.5996 15.9088 30.5996C16.0912 30.5996 16.2736 30.4476 16.3951 30.2957L16.6687 29.9309C17.003 29.5054 17.8237 28.5935 19.1611 28.5935H30.3769C30.772 28.5935 31.076 28.2896 31.076 27.8944V1.2987C31.076 0.933956 30.772 0.599609 30.3769 0.599609ZM2.32219 27.1954V1.99779H12.6565C14.0547 1.99779 15.2097 3.1528 15.2097 4.55098C15.2097 4.55098 15.2097 27.1346 15.2401 27.1954H2.32219ZM29.6778 27.1954H16.5775C16.6079 27.1346 16.6079 4.55098 16.6079 4.55098C16.6079 3.1528 17.7629 1.99779 19.1611 1.99779H29.6778V27.1954Z" fill="#071446"/>
<path d="M12.4436 5.52295H5.088C4.69287 5.52295 4.38892 5.8269 4.38892 6.22204V11.602C4.38892 11.9971 4.69287 12.3011 5.088 12.3011H12.4436C12.8388 12.3011 13.1427 11.9971 13.1427 11.602V6.22204C13.1427 5.8573 12.8388 5.52295 12.4436 5.52295ZM11.7445 10.9029H5.78709V6.92113H11.7445V10.9029Z" fill="#071446"/>
<path d="M12.4438 16.2842H5.05779C4.66266 16.2842 4.3587 16.5881 4.3587 16.9833C4.3587 17.3784 4.66266 17.6824 5.05779 17.6824H12.4438C12.8389 17.6824 13.1429 17.3784 13.1429 16.9833C13.1429 16.5881 12.8389 16.2842 12.4438 16.2842Z" fill="#071446"/>
<path d="M27.2157 21.9683H19.8297C19.4346 21.9683 19.1306 22.2722 19.1306 22.6673C19.1306 23.0625 19.4346 23.3664 19.8297 23.3664H27.2157C27.6109 23.3664 27.9148 23.0625 27.9148 22.6673C27.9148 22.2722 27.6109 21.9683 27.2157 21.9683Z" fill="#071446"/>
<path d="M27.2157 16.5864H19.8297C19.4346 16.5864 19.1306 16.8904 19.1306 17.2855C19.1306 17.6807 19.4346 17.9846 19.8297 17.9846H27.2157C27.6109 17.9846 27.9148 17.6807 27.9148 17.2855C27.9148 16.8904 27.6109 16.5864 27.2157 16.5864Z" fill="#071446"/>
<path d="M27.2157 11.2373H19.8297C19.4346 11.2373 19.1306 11.5413 19.1306 11.9364C19.1306 12.3315 19.4346 12.6355 19.8297 12.6355H27.2157C27.6109 12.6355 27.9148 12.3315 27.9148 11.9364C27.9148 11.5413 27.6109 11.2373 27.2157 11.2373Z" fill="#071446"/>
<path d="M19.8297 7.25609H27.2157C27.6109 7.25609 27.9148 6.95214 27.9148 6.557C27.9148 6.16186 27.6109 5.85791 27.2157 5.85791H19.8297C19.4346 5.85791 19.1306 6.16186 19.1306 6.557C19.1306 6.95214 19.4346 7.25609 19.8297 7.25609Z" fill="#071446"/>
<path d="M12.4438 21.6333H5.05779C4.66266 21.6333 4.3587 21.9373 4.3587 22.3324C4.3587 22.7275 4.66266 23.0315 5.05779 23.0315H12.4438C12.8389 23.0315 13.1429 22.7275 13.1429 22.3324C13.1429 21.9676 12.8389 21.6333 12.4438 21.6333Z" fill="#071446"/>
</svg>
