<svg width="37" height="33" viewBox="0 0 37 33" fill="none" xmlns="http://www.w3.org/2000/svg">
<path d="M8.16534 25.6816C7.9423 25.6816 7.71927 25.6346 7.50797 25.5407C7.11669 25.3646 6.81931 25.0477 6.66671 24.6486L3.66553 16.7367C3.51293 16.3376 3.52858 15.9033 3.70075 15.512C3.87683 15.1207 4.19377 14.8233 4.59288 14.6707L14.9972 10.7227L19.137 21.6278L8.73662 25.5759C8.55271 25.6463 8.36098 25.6816 8.16534 25.6816ZM14.3203 12.2409L5.01547 15.7742C4.90983 15.8133 4.82374 15.8955 4.77679 15.9972C4.72984 16.1029 4.72592 16.2163 4.76505 16.3259L7.76622 24.2377C7.80535 24.3434 7.88752 24.4294 7.98926 24.4764C8.0949 24.5234 8.20838 24.5273 8.31794 24.4881L17.6227 20.9548L14.3203 12.2409Z" fill="#071446"/>
<path d="M4.32286 25.2664C3.47768 25.2664 2.67946 24.7499 2.36252 23.9126L0.934318 20.1445C0.523466 19.0645 1.07127 17.8515 2.15122 17.4407L4.81589 16.4312L7.73489 24.116L5.0624 25.1295C4.8198 25.2234 4.56938 25.2664 4.32286 25.2664ZM4.12722 17.9454L2.56207 18.5402C2.08861 18.7202 1.84602 19.2523 2.02601 19.7297L3.45421 23.4978C3.6342 23.9713 4.16635 24.2139 4.64372 24.0339L6.20887 23.4391L4.12722 17.9454Z" fill="#071446"/>
<path d="M31.2239 24.1201C31.1691 24.1201 31.1143 24.1161 31.0595 24.1044L17.9553 21.8075L13.9916 11.3758L22.2712 0.963683C22.4864 0.693695 22.8308 0.556745 23.1751 0.611525C23.5155 0.666305 23.8051 0.897164 23.9264 1.22193L32.1199 22.8171C32.2412 23.1418 32.1825 23.5057 31.9634 23.7718C31.7834 23.9948 31.5056 24.1201 31.2239 24.1201ZM18.8122 20.7667L30.8952 22.8836L22.9638 1.98494L15.3298 11.5871L18.8122 20.7667Z" fill="#071446"/>
<path d="M13.5416 32.5994C13.2521 32.5994 12.9742 32.4389 12.8373 32.165L8.8266 24.2884L15.4276 21.7842L16.2102 23.8423C16.4997 24.6093 16.3863 25.4623 15.905 26.1275L15.5059 26.6792L17.3801 30.2516C17.4858 30.4512 17.5014 30.6899 17.4193 30.9012C17.3371 31.1125 17.1728 31.2807 16.9575 31.3629L13.8233 32.5524C13.7333 32.5837 13.6355 32.5994 13.5416 32.5994ZM10.4661 24.9184L13.7255 31.3277L16.1398 30.4121L14.1246 26.5774L14.9542 25.4349C15.2046 25.0945 15.2633 24.6523 15.1107 24.2571L14.7468 23.2985L10.4661 24.9184Z" fill="#071446"/>
<path d="M35.2153 9.91727L34.7988 8.81982L31.3273 10.1373L31.7437 11.2348L35.2153 9.91727Z" fill="#071446"/>
<path d="M31.2632 3.3388L30.416 2.52637L27.8433 5.20946L28.6906 6.02189L31.2632 3.3388Z" fill="#071446"/>
<path d="M36.2022 16.3677L32.5012 16.0674L32.4062 17.2374L36.1073 17.5377L36.2022 16.3677Z" fill="#071446"/>
<path d="M13.4471 15.8089L13.0306 14.7114L7.28364 16.8924L7.70012 17.9899L13.4471 15.8089Z" fill="#071446"/>
</svg>
