<svg width="37" height="33" viewBox="0 0 37 33" fill="none" xmlns="http://www.w3.org/2000/svg">
<path d="M8.16527 25.6816C7.94224 25.6816 7.71921 25.6346 7.50791 25.5407C7.11663 25.3646 6.81925 25.0477 6.66665 24.6486L3.66547 16.7367C3.51287 16.3376 3.52852 15.9033 3.70069 15.512C3.87677 15.1207 4.19371 14.8233 4.59282 14.6707L14.9971 10.7227L19.137 21.6278L8.73655 25.5759C8.55265 25.6463 8.36092 25.6816 8.16527 25.6816ZM14.3202 12.2409L5.01541 15.7742C4.90977 15.8133 4.82368 15.8955 4.77673 15.9972C4.72977 16.1029 4.72586 16.2163 4.76499 16.3259L7.76616 24.2377C7.80529 24.3434 7.88746 24.4294 7.9892 24.4764C8.09484 24.5234 8.20832 24.5273 8.31788 24.4881L17.6227 20.9548L14.3202 12.2409Z" fill="#777DEF"/>
<path d="M4.32286 25.2664C3.47768 25.2664 2.67946 24.7499 2.36252 23.9126L0.934318 20.1445C0.523466 19.0645 1.07127 17.8515 2.15122 17.4407L4.81589 16.4312L7.73489 24.116L5.0624 25.1295C4.8198 25.2234 4.56938 25.2664 4.32286 25.2664ZM4.12722 17.9454L2.56207 18.5402C2.08861 18.7202 1.84602 19.2523 2.02601 19.7297L3.45421 23.4978C3.6342 23.9713 4.16635 24.2139 4.64372 24.0339L6.20887 23.4391L4.12722 17.9454Z" fill="#777DEF"/>
<path d="M31.2239 24.1201C31.1691 24.1201 31.1143 24.1161 31.0595 24.1044L17.9553 21.8075L13.9916 11.3758L22.2712 0.963683C22.4864 0.693695 22.8308 0.556745 23.1751 0.611525C23.5155 0.666305 23.8051 0.897164 23.9264 1.22193L32.1199 22.8171C32.2412 23.1418 32.1825 23.5057 31.9634 23.7718C31.7834 23.9948 31.5056 24.1201 31.2239 24.1201ZM18.8122 20.7667L30.8952 22.8836L22.9638 1.98494L15.3298 11.5871L18.8122 20.7667Z" fill="#777DEF"/>
<path d="M13.5415 32.5994C13.252 32.5994 12.9742 32.4389 12.8372 32.165L8.82654 24.2884L15.4276 21.7842L16.2101 23.8423C16.4997 24.6093 16.3862 25.4623 15.9049 26.1275L15.5058 26.6792L17.3801 30.2516C17.4857 30.4512 17.5014 30.6899 17.4192 30.9012C17.337 31.1125 17.1727 31.2807 16.9575 31.3629L13.8233 32.5524C13.7333 32.5837 13.6355 32.5994 13.5415 32.5994ZM10.466 24.9184L13.7255 31.3277L16.1397 30.4121L14.1246 26.5774L14.9541 25.4349C15.2045 25.0945 15.2632 24.6523 15.1106 24.2571L14.7467 23.2985L10.466 24.9184Z" fill="#777DEF"/>
<path d="M35.2153 9.91727L34.7988 8.81982L31.3272 10.1373L31.7437 11.2347L35.2153 9.91727Z" fill="#777DEF"/>
<path d="M31.2633 3.33879L30.416 2.52637L27.8433 5.20945L28.6906 6.02187L31.2633 3.33879Z" fill="#777DEF"/>
<path d="M36.2023 16.3677L32.5012 16.0674L32.4063 17.2374L36.1073 17.5377L36.2023 16.3677Z" fill="#777DEF"/>
<path d="M13.447 15.8089L13.0305 14.7114L7.28357 16.8924L7.70006 17.9899L13.447 15.8089Z" fill="#777DEF"/>
</svg>
