<svg width="33" height="31" viewBox="0 0 33 31" fill="none" xmlns="http://www.w3.org/2000/svg">
<path d="M4.38039 30.5996H28.682C30.5561 30.5996 32.1179 29.0378 32.1179 27.1637V26.5389C32.1179 26.1641 31.8681 25.9142 31.4932 25.9142H30.5561V6.98521C30.5561 5.86071 29.6191 4.92363 28.4946 4.92363H23.2469C22.8721 4.1115 22.3098 3.29936 21.6227 2.67464C20.1233 1.23779 18.1867 0.488121 16.1251 0.613065C13.3764 0.738009 10.8775 2.48722 9.75298 4.92363H4.50533C3.38084 4.92363 2.44376 5.86071 2.44376 6.98521V25.9142H1.50668C1.13185 25.9142 0.881958 26.1641 0.881958 26.5389V27.1637C0.881958 29.0378 2.44376 30.5996 4.38039 30.5996ZM16.2501 1.8625C17.9368 1.80003 19.5611 2.42475 20.8105 3.61172C22.06 4.79869 22.6847 6.36049 22.6847 8.1097C22.6847 9.85892 21.9975 11.4832 20.6856 12.6702C19.4986 13.7947 18.624 15.2315 18.3741 16.7933H17.1247V10.1713C17.9993 9.92139 18.6865 9.04678 18.6865 8.1097C18.6865 6.92273 17.6869 5.92318 16.5 5.92318C15.313 5.92318 14.3134 6.92273 14.3134 8.1097C14.3134 9.10925 15.0006 9.92139 15.8752 10.1713V16.7933H14.6258C14.3134 15.2315 13.5013 13.7947 12.2519 12.6077C10.8775 11.3582 10.1903 9.54656 10.3152 7.6724C10.3777 7.04768 10.5026 6.42296 10.7525 5.79824C11.6271 3.61172 13.7512 1.98745 16.2501 1.8625ZM18.8739 19.2922H18.5615H14.4384H14.1885C14.0011 19.2922 13.8137 19.1048 13.8137 18.9174V18.3551C13.8137 18.1677 14.0011 17.9803 14.1885 17.9803H18.9364C19.1238 17.9803 19.3112 18.1677 19.3112 18.3551V18.9174C19.2487 19.1672 19.1238 19.2922 18.8739 19.2922ZM17.8119 20.5416C17.562 21.0414 17.0622 21.3538 16.5 21.3538C15.9377 21.3538 15.4379 20.9789 15.188 20.5416H17.8119ZM16.5 8.98431C16.0002 8.98431 15.5629 8.547 15.5629 8.04723C15.5629 7.54745 16.0002 7.11015 16.5 7.11015C16.9997 7.11015 17.437 7.54745 17.437 8.04723C17.437 8.547 16.9997 8.98431 16.5 8.98431ZM3.6932 6.98521C3.6932 6.5479 4.06803 6.17307 4.50533 6.17307H9.31567C9.19073 6.61037 9.12826 7.11015 9.06579 7.54745C8.94084 9.79644 9.81545 11.9205 11.4397 13.4198C12.4393 14.3569 13.1265 15.6063 13.3764 16.8558C12.8766 17.1057 12.5017 17.6679 12.5017 18.2926V18.8549C12.5017 19.667 13.1265 20.3542 13.8761 20.4792C14.126 21.6661 15.2505 22.6032 16.5 22.6032C17.8119 22.6032 18.8739 21.7286 19.1238 20.4792C19.8734 20.3542 20.4982 19.667 20.4982 18.8549V18.2926C20.4982 17.6679 20.1233 17.1057 19.6235 16.8558C19.8734 15.5439 20.5606 14.3569 21.5602 13.4198C23.0595 12.0454 23.9341 10.0463 23.9341 7.98476C23.9341 7.36004 23.8716 6.73532 23.6842 6.1106H28.4946C28.9319 6.1106 29.3067 6.48543 29.3067 6.92273V25.8517H3.6932V6.98521ZM3.06848 27.1637H29.9314H30.8685C30.8685 28.3506 29.869 29.3502 28.682 29.3502H4.38039C3.19342 29.3502 2.19387 28.3506 2.19387 27.1637H3.06848Z" fill="#777DEF"/>
</svg>
