<svg width="33" height="31" viewBox="0 0 33 31" fill="none" xmlns="http://www.w3.org/2000/svg">
<path d="M4.38045 30.5996H28.682C30.5562 30.5996 32.118 29.0378 32.118 27.1637V26.5389C32.118 26.1641 31.8681 25.9142 31.4933 25.9142H30.5562V6.98521C30.5562 5.86071 29.6191 4.92363 28.4946 4.92363H23.247C22.8722 4.1115 22.3099 3.29936 21.6227 2.67464C20.1234 1.23779 18.1868 0.488121 16.1252 0.613065C13.3764 0.738009 10.8775 2.48722 9.75304 4.92363H4.50539C3.3809 4.92363 2.44382 5.86071 2.44382 6.98521V25.9142H1.50674C1.13191 25.9142 0.882019 26.1641 0.882019 26.5389V27.1637C0.882019 29.0378 2.44382 30.5996 4.38045 30.5996ZM16.2501 1.8625C17.9369 1.80003 19.5611 2.42475 20.8106 3.61172C22.06 4.79869 22.6847 6.36049 22.6847 8.1097C22.6847 9.85892 21.9975 11.4832 20.6856 12.6702C19.4987 13.7947 18.6241 15.2315 18.3742 16.7933H17.1247V10.1713C17.9993 9.92139 18.6865 9.04678 18.6865 8.1097C18.6865 6.92273 17.687 5.92318 16.5 5.92318C15.313 5.92318 14.3135 6.92273 14.3135 8.1097C14.3135 9.10925 15.0007 9.92139 15.8753 10.1713V16.7933H14.6259C14.3135 15.2315 13.5014 13.7947 12.2519 12.6077C10.8775 11.3582 10.1903 9.54656 10.3153 7.6724C10.3778 7.04768 10.5027 6.42296 10.7526 5.79824C11.6272 3.61172 13.7512 1.98745 16.2501 1.8625ZM18.8739 19.2922H18.5616H14.4384H14.1885C14.0011 19.2922 13.8137 19.1048 13.8137 18.9174V18.3551C13.8137 18.1677 14.0011 17.9803 14.1885 17.9803H18.9364C19.1238 17.9803 19.3112 18.1677 19.3112 18.3551V18.9174C19.2488 19.1672 19.1238 19.2922 18.8739 19.2922ZM17.8119 20.5416C17.562 21.0414 17.0623 21.3538 16.5 21.3538C15.9378 21.3538 15.438 20.9789 15.1881 20.5416H17.8119ZM16.5 8.98431C16.0002 8.98431 15.5629 8.547 15.5629 8.04723C15.5629 7.54745 16.0002 7.11015 16.5 7.11015C16.9998 7.11015 17.4371 7.54745 17.4371 8.04723C17.4371 8.547 16.9998 8.98431 16.5 8.98431ZM3.69326 6.98521C3.69326 6.5479 4.06809 6.17307 4.50539 6.17307H9.31573C9.19079 6.61037 9.12832 7.11015 9.06585 7.54745C8.9409 9.79644 9.81551 11.9205 11.4398 13.4198C12.4393 14.3569 13.1265 15.6063 13.3764 16.8558C12.8766 17.1057 12.5018 17.6679 12.5018 18.2926V18.8549C12.5018 19.667 13.1265 20.3542 13.8762 20.4792C14.1261 21.6661 15.2506 22.6032 16.5 22.6032C17.8119 22.6032 18.8739 21.7286 19.1238 20.4792C19.8735 20.3542 20.4982 19.667 20.4982 18.8549V18.2926C20.4982 17.6679 20.1234 17.1057 19.6236 16.8558C19.8735 15.5439 20.5607 14.3569 21.5602 13.4198C23.0596 12.0454 23.9342 10.0463 23.9342 7.98476C23.9342 7.36004 23.8717 6.73532 23.6843 6.1106H28.4946C28.9319 6.1106 29.3068 6.48543 29.3068 6.92273V25.8517H3.69326V6.98521ZM3.06854 27.1637H29.9315H30.8686C30.8686 28.3506 29.869 29.3502 28.682 29.3502H4.38045C3.19348 29.3502 2.19393 28.3506 2.19393 27.1637H3.06854Z" fill="#071446"/>
</svg>
