<svg width="23" height="32" viewBox="0 0 23 32" fill="none" xmlns="http://www.w3.org/2000/svg">
<path d="M8.6182 9.16447V13.9889H3.67721C2.16558 13.9889 0.981445 15.3982 0.981445 17.1975V20.0595C0.981445 20.892 1.32795 21.6529 1.8799 22.1787V31.0225C1.8799 31.4025 2.18177 31.7104 2.55416 31.7104H20.9723C21.3447 31.7104 21.6466 31.4025 21.6466 31.0225V22.1984C22.2013 21.6772 22.545 20.9138 22.545 20.0595V16.7392C22.545 15.2227 21.3357 13.9889 19.8492 13.9889H14.9083V9.16447C14.9083 8.78454 14.6064 8.47656 14.234 8.47656H9.29253C8.92007 8.47656 8.6182 8.78454 8.6182 9.16447ZM3.22842 30.3346V26.7575H20.298V30.3346H3.22842ZM20.298 25.3817H3.22842V22.8699C3.30003 22.8826 3.37238 22.893 3.4458 22.8995C4.1939 22.9582 4.94314 22.689 5.50203 22.161C5.56912 22.0977 5.63271 22.0312 5.69278 21.9619C6.18722 22.5375 6.91286 22.9015 7.72022 22.9015C8.52434 22.9015 9.24736 22.5403 9.74172 21.9688C10.2361 22.5403 10.9591 22.9015 11.7632 22.9015C12.5674 22.9015 13.2904 22.5403 13.7847 21.9688C14.2791 22.5403 15.0021 22.9015 15.8062 22.9015C16.6018 22.9015 17.318 22.548 17.8119 21.987C17.886 22.0749 17.9658 22.1581 18.0511 22.2359C18.5365 22.6792 19.1468 22.9148 19.7954 22.9148C19.8942 22.9148 19.994 22.9093 20.0943 22.8983C20.1632 22.8921 20.2309 22.8826 20.298 22.8713V25.3817ZM21.1964 16.7392V20.0595C21.1964 20.8373 20.6704 21.4687 19.9729 21.528C19.9668 21.5285 19.9606 21.5291 19.9544 21.5298C19.5793 21.5724 19.2225 21.4591 18.9505 21.2107C18.6654 20.9504 18.502 20.5642 18.502 20.1511C18.502 19.7712 18.2001 19.4632 17.8277 19.4632C17.4553 19.4632 17.1535 19.7712 17.1535 20.1511C17.1535 20.9218 16.5617 21.5256 15.8062 21.5256C15.0508 21.5256 14.459 20.9218 14.459 20.1511C14.459 19.7712 14.1571 19.4632 13.7847 19.4632C13.4123 19.4632 13.1105 19.7712 13.1105 20.1511C13.1105 20.9218 12.5187 21.5256 11.7632 21.5256C11.0078 21.5256 10.416 20.9218 10.416 20.1511C10.416 19.7712 10.1141 19.4632 9.74172 19.4632C9.36933 19.4632 9.06746 19.7712 9.06746 20.1511C9.06746 20.9218 8.47566 21.5256 7.72022 21.5256C6.96478 21.5256 6.37298 20.9218 6.37298 20.1511C6.37298 19.7712 6.07111 19.4632 5.69872 19.4632C5.32632 19.4632 5.02445 19.7712 5.02445 20.1511C5.02445 20.529 4.86863 20.8842 4.58585 21.1514C4.30171 21.4199 3.92446 21.5568 3.55598 21.5282C2.87996 21.4682 2.33004 20.8093 2.33004 20.0595V17.1975C2.33004 16.1697 2.92184 15.3647 3.67728 15.3647H19.8492C20.5921 15.3647 21.1964 15.9813 21.1964 16.7392ZM13.5597 9.85238V13.9889H9.96679V9.85238H13.5597Z" fill="#071446"/>
<path d="M9.88893 6.30643C10.4145 6.84252 11.0888 7.1106 11.7632 7.1106C12.4376 7.1106 13.1119 6.84259 13.6374 6.30643C13.6411 6.30265 13.6448 6.29887 13.6484 6.29494C14.6479 5.22669 14.6478 3.48856 13.6484 2.42031C13.6468 2.41859 13.6451 2.4168 13.6435 2.41508L12.2459 0.952796C12.1191 0.82003 11.945 0.745117 11.7632 0.745117C11.5814 0.745117 11.4073 0.82003 11.2804 0.952796L9.88293 2.41515C9.88131 2.41687 9.87963 2.41866 9.87801 2.42038C8.87855 3.48856 8.87855 5.22669 9.87801 6.29501C9.88158 6.29887 9.88523 6.30265 9.88893 6.30643ZM10.8513 3.37265L11.7632 2.41845L12.675 3.37272C13.1719 3.90626 13.1729 4.80411 12.6783 5.3393C12.1552 5.86727 11.3711 5.86727 10.848 5.3393C10.3534 4.80411 10.3544 3.90619 10.8513 3.37265Z" fill="#071446"/>
</svg>
