<svg width="18" height="28" viewBox="0 0 18 28" fill="none" xmlns="http://www.w3.org/2000/svg">
<path d="M9.02664 26.6851L8.94622 26.7445L9.02685 26.8536L9.10721 26.7443L9.02664 26.6851ZM9.02664 26.6851C9.10721 26.7443 9.10725 26.7442 9.10732 26.7441L9.10762 26.7437L9.10877 26.7422L9.11329 26.736L9.13099 26.7117C9.14659 26.6903 9.1697 26.6585 9.19982 26.6167C9.26004 26.5332 9.3483 26.4099 9.46058 26.2508C9.68515 25.9326 10.0058 25.4709 10.3906 24.8965C11.16 23.7479 12.1861 22.1483 13.2123 20.3446C14.2384 18.5411 15.2655 16.5319 16.0364 14.5643C16.8067 12.5983 17.3242 10.6662 17.3242 9.01914C17.3242 4.35813 13.5991 0.585059 9.02664 0.585059C4.4537 0.585059 0.729102 4.38794 0.729102 9.04849C0.729102 10.7028 1.24658 12.6368 2.01687 14.6015C2.78776 16.5677 3.81494 18.5723 4.84102 20.3703C5.86725 22.1686 6.89334 23.7618 7.66281 24.9054C8.04758 25.4773 8.36826 25.9368 8.59283 26.2535C8.70512 26.4118 8.79338 26.5345 8.85361 26.6176C8.88373 26.6591 8.90683 26.6908 8.92244 26.7121L8.94015 26.7362L8.94466 26.7424L8.94581 26.7439L8.94611 26.7443C8.94618 26.7444 8.94622 26.7445 9.02664 26.6851ZM13.2873 16.7075C11.9526 19.424 10.3077 22.0994 9.02633 24.0118C7.74508 22.1139 6.10051 19.453 4.76592 16.7405C3.40018 13.9648 2.36727 11.151 2.36727 9.04849C2.36727 5.28692 5.34452 2.25233 9.02664 2.25233C12.7088 2.25233 15.686 5.28692 15.686 9.04849C15.686 11.1216 14.6532 13.9279 13.2873 16.7075Z" fill="#071446" stroke="#071446" stroke-width="0.2"/>
<path d="M9.02646 4.13584C6.43817 4.13584 4.32432 6.29537 4.32432 8.93109C4.32432 11.5668 6.43817 13.7263 9.02646 13.7263C11.6147 13.7263 13.7286 11.5668 13.7286 8.93109C13.7286 6.29537 11.6147 4.13584 9.02646 4.13584ZM9.02646 12.0591C7.329 12.0591 5.96249 10.6678 5.96249 8.93109C5.96249 7.19436 7.329 5.80311 9.02646 5.80311C10.7239 5.80311 12.0904 7.19436 12.0904 8.93109C12.0904 10.6385 10.6952 12.0591 9.02646 12.0591Z" fill="#071446" stroke="#071446" stroke-width="0.2"/>
</svg>
