<svg width="30" height="23" viewBox="0 0 30 23" fill="none" xmlns="http://www.w3.org/2000/svg">
<path d="M12.3981 10.0033C12.6685 9.50619 12.8364 8.94237 12.8364 8.33411C12.8364 6.42417 11.3137 4.87158 9.44253 4.87158C7.57138 4.87158 6.04869 6.42509 6.04869 8.33411C6.04869 8.94144 6.21657 9.50619 6.48699 10.0033C5.30186 10.2561 4.40894 11.33 4.40894 12.6123V15.8758C4.40894 16.3877 4.81547 16.8016 5.31638 16.8016H13.5687C14.0696 16.8016 14.4761 16.3877 14.4761 15.8758V12.6123C14.4761 11.3291 13.5832 10.2561 12.3981 10.0033ZM9.44253 6.7232C10.3128 6.7232 11.0215 7.44626 11.0215 8.33411C11.0215 9.22196 10.3128 9.94502 9.44253 9.94502C8.57229 9.94502 7.86358 9.22196 7.86358 8.33411C7.86358 7.44626 8.57229 6.7232 9.44253 6.7232ZM12.6612 14.95H6.22383V12.6123C6.22383 12.1623 6.58318 11.7966 7.02419 11.7966H11.8618C12.3028 11.7966 12.6612 12.1623 12.6612 12.6123V14.95Z" fill="#071446"/>
<path d="M25.8585 0.19873H4.39289C2.39107 0.19873 0.762207 1.86148 0.762207 3.90382V18.4946C0.762207 20.5369 2.39107 22.1987 4.39289 22.1987H25.8585C27.8612 22.1987 29.491 20.5369 29.491 18.4946V3.90382C29.491 1.86148 27.8612 0.19873 25.8585 0.19873ZM27.6761 18.4936C27.6761 19.5157 26.8612 20.3462 25.8585 20.3462H4.39289C3.39107 20.3462 2.57709 19.5157 2.57709 18.4936V3.90382C2.57709 2.88172 3.39107 2.05035 4.39289 2.05035H25.8585C26.8603 2.05035 27.6761 2.8808 27.6761 3.90382V18.4936Z" fill="#071446"/>
<path d="M25.1896 5.84668H16.3694V7.6983H25.1896V5.84668Z" fill="#071446"/>
<path d="M25.1896 9.94531H16.3694V11.7969H25.1896V9.94531Z" fill="#071446"/>
<path d="M21.7913 14.0425H16.3694V15.8941H21.7913V14.0425Z" fill="#071446"/>
</svg>
