<svg width="18" height="30" viewBox="0 0 18 30" fill="none" xmlns="http://www.w3.org/2000/svg">
<path d="M13.4065 1.09873H4.2588C2.10059 1.09873 0.347021 2.89069 0.347021 5.08766V25.3098C0.347021 27.5068 2.10059 29.2987 4.2588 29.2987H13.4065C15.5648 29.2987 17.3183 27.5068 17.3183 25.3098V5.08766C17.3183 2.8893 15.5647 1.09873 13.4065 1.09873ZM15.5941 25.3084C15.5941 26.5418 14.6106 27.5423 13.4065 27.5423H4.2588C3.05471 27.5423 2.0712 26.5418 2.0712 25.3084V5.08766C2.0712 3.85426 3.05471 2.85375 4.2588 2.85375H13.4065C14.6106 2.85375 15.5941 3.85426 15.5941 5.08766V25.3084Z" fill="#071446" stroke="black" stroke-width="0.2"/>
<path d="M8.83276 25.964C9.73165 25.964 10.4569 25.2211 10.4569 24.3089C10.4569 23.3968 9.73165 22.6539 8.83276 22.6539C7.93388 22.6539 7.20859 23.3968 7.20859 24.3089C7.20859 25.2211 7.93388 25.964 8.83276 25.964Z" fill="black" stroke="black" stroke-width="0.2"/>
<path d="M10.3567 4.43174H7.30702C6.82861 4.43174 6.44492 4.82609 6.44492 5.30923C6.44492 5.79238 6.82861 6.18673 7.30702 6.18673H10.3567C10.8351 6.18673 11.2188 5.79238 11.2188 5.30923C11.2188 4.82609 10.8351 4.43174 10.3567 4.43174Z" fill="black" stroke="black" stroke-width="0.2"/>
</svg>
