<svg width="20" height="21" viewBox="0 0 20 21" fill="none" xmlns="http://www.w3.org/2000/svg">
<path d="M9.83288 13.308C8.61068 13.308 7.41593 12.9383 6.3997 12.2455C5.38348 11.5528 4.59143 10.5681 4.12371 9.41607C3.656 8.26405 3.53362 6.99639 3.77206 5.77341C4.0105 4.55042 4.59905 3.42704 5.46328 2.54532C6.32751 1.6636 7.4286 1.06314 8.62732 0.819875C9.82604 0.576609 11.0685 0.701463 12.1977 1.17865C13.3269 1.65583 14.292 2.46392 14.971 3.50071C15.65 4.53751 16.0125 5.75645 16.0125 7.00339C16.0106 8.67492 15.359 10.2775 14.2005 11.4594C13.042 12.6414 11.4712 13.3062 9.83288 13.308ZM9.83288 2.68661C8.99605 2.68661 8.178 2.93979 7.4822 3.41412C6.78639 3.88846 6.24408 4.56265 5.92383 5.35143C5.60359 6.14022 5.5198 7.00818 5.68306 7.84555C5.84632 8.68293 6.24929 9.4521 6.84103 10.0558C7.43276 10.6595 8.18668 11.0707 9.00744 11.2372C9.82819 11.4038 10.6789 11.3183 11.4521 10.9916C12.2252 10.6648 12.886 10.1116 13.3509 9.40166C13.8159 8.69177 14.064 7.85717 14.064 7.00339C14.0628 5.8589 13.6166 4.76165 12.8234 3.95237C12.0301 3.1431 10.9547 2.68789 9.83288 2.68662V2.68661Z" fill="#071446"/>
<path d="M19.8692 20.6987H17.9208V18.98C17.9199 18.173 17.6053 17.3993 17.046 16.8286C16.4866 16.258 15.7282 15.937 14.9372 15.9361H5.31676C4.52574 15.937 3.76735 16.258 3.20801 16.8286C2.64867 17.3993 2.33406 18.173 2.33321 18.98V20.6987H0.384766V18.98C0.386285 17.646 0.906392 16.367 1.83099 15.4237C2.75559 14.4804 4.00918 13.9498 5.31676 13.9482H14.9372C16.2448 13.9498 17.4984 14.4804 18.423 15.4237C19.3476 16.367 19.8677 17.646 19.8692 18.98V20.6987Z" fill="#071446"/>
</svg>
