<svg width="395" height="516" viewBox="0 0 395 516" fill="none" xmlns="http://www.w3.org/2000/svg">
<path d="M0 20.3999C0 9.35418 8.9543 0.399902 20 0.399902H375C386.046 0.399902 395 9.35421 395 20.3999V515.8H0V20.3999Z" fill="#777DEF"/>
<rect x="40.1309" y="207.9" width="147.369" height="10" fill="#EBFAFF"/>
<rect x="40.1309" y="227.9" width="126.316" height="5" fill="#EBFAFF"/>
<rect x="40.1309" y="237.9" width="133.224" height="5" fill="#EBFAFF"/>
<rect x="40.1309" y="247.9" width="122.698" height="5" fill="#EBFAFF"/>
<path d="M40 50.3999C40 44.8771 44.4772 40.3999 50 40.3999H177.5C183.023 40.3999 187.5 44.8771 187.5 50.3999V187.9H40V50.3999Z" fill="#EBFAFF"/>
<rect width="147.5" height="6.02245" transform="matrix(1 0 0 -1 40 187.9)" fill="#071446"/>
<path d="M113.5 123.501C126.358 123.501 136.781 113.077 136.781 100.22C136.781 87.3619 126.358 76.9387 113.5 76.9387C100.642 76.9387 90.2189 87.3619 90.2189 100.22C90.2189 113.077 100.642 123.501 113.5 123.501Z" fill="white"/>
<path d="M128.225 121.126C124.057 124.069 118.979 125.806 113.5 125.806C108.021 125.806 102.943 124.07 98.7769 121.126C84.4469 123.056 74.3379 129.036 74.3379 145.455H152.662C152.662 129.036 142.555 123.056 128.225 121.126Z" fill="white"/>
<rect x="207.631" y="207.9" width="147.369" height="10" fill="#EBFAFF"/>
<rect x="207.631" y="227.9" width="126.316" height="5" fill="#EBFAFF"/>
<rect x="207.631" y="237.9" width="133.224" height="5" fill="#EBFAFF"/>
<rect x="207.631" y="247.9" width="122.698" height="5" fill="#EBFAFF"/>
<path d="M207.5 50.3999C207.5 44.8771 211.977 40.3999 217.5 40.3999H345C350.523 40.3999 355 44.8771 355 50.3999V187.9H207.5V50.3999Z" fill="#EBFAFF"/>
<rect width="147.5" height="6.02245" transform="matrix(1 0 0 -1 207.5 187.9)" fill="#071446"/>
<path d="M281 123.501C293.858 123.501 304.281 113.077 304.281 100.22C304.281 87.3619 293.858 76.9387 281 76.9387C268.142 76.9387 257.719 87.3619 257.719 100.22C257.719 113.077 268.142 123.501 281 123.501Z" fill="white"/>
<path d="M295.725 121.126C291.557 124.069 286.479 125.806 281 125.806C275.521 125.806 270.443 124.07 266.277 121.126C251.947 123.056 241.838 129.036 241.838 145.455H320.162C320.162 129.036 310.055 123.056 295.725 121.126Z" fill="white"/>
<rect x="40.1309" y="461.11" width="147.369" height="10" fill="#EBFAFF"/>
<rect x="40.1309" y="481.11" width="126.316" height="5" fill="#EBFAFF"/>
<rect x="40.1309" y="491.11" width="133.224" height="5" fill="#EBFAFF"/>
<rect x="40.1309" y="501.11" width="122.698" height="5" fill="#EBFAFF"/>
<path d="M40 303.61C40 298.087 44.4772 293.61 50 293.61H177.5C183.023 293.61 187.5 298.087 187.5 303.61V441.11H40V303.61Z" fill="#EBFAFF"/>
<rect width="147.5" height="6.02245" transform="matrix(1 0 0 -1 40 441.11)" fill="#071446"/>
<path d="M113.5 376.711C126.358 376.711 136.781 366.287 136.781 353.43C136.781 340.572 126.358 330.149 113.5 330.149C100.642 330.149 90.2189 340.572 90.2189 353.43C90.2189 366.287 100.642 376.711 113.5 376.711Z" fill="white"/>
<path d="M128.225 374.336C124.057 377.279 118.979 379.016 113.5 379.016C108.021 379.016 102.943 377.28 98.7769 374.336C84.4469 376.266 74.3379 382.246 74.3379 398.665H152.662C152.662 382.246 142.555 376.266 128.225 374.336Z" fill="white"/>
<rect x="207.631" y="461.11" width="147.369" height="10" fill="#EBFAFF"/>
<rect x="207.631" y="481.11" width="126.316" height="5" fill="#EBFAFF"/>
<rect x="207.631" y="491.11" width="133.224" height="5" fill="#EBFAFF"/>
<rect x="207.631" y="501.11" width="122.698" height="5" fill="#EBFAFF"/>
<path d="M207.5 303.61C207.5 298.087 211.977 293.61 217.5 293.61H345C350.523 293.61 355 298.087 355 303.61V441.11H207.5V303.61Z" fill="#EBFAFF"/>
<rect width="147.5" height="6.02245" transform="matrix(1 0 0 -1 207.5 441.11)" fill="#071446"/>
<path d="M281 376.711C293.858 376.711 304.281 366.287 304.281 353.43C304.281 340.572 293.858 330.149 281 330.149C268.142 330.149 257.719 340.572 257.719 353.43C257.719 366.287 268.142 376.711 281 376.711Z" fill="white"/>
<path d="M295.725 374.336C291.557 377.279 286.479 379.016 281 379.016C275.521 379.016 270.443 377.28 266.277 374.336C251.947 376.266 241.838 382.246 241.838 398.665H320.162C320.162 382.246 310.055 376.266 295.725 374.336Z" fill="white"/>
</svg>
