<svg width="395" height="516" viewBox="0 0 395 516" fill="none" xmlns="http://www.w3.org/2000/svg">
<path d="M0 20.6001C0 9.55438 8.9543 0.600098 20 0.600098H375C386.046 0.600098 395 9.5544 395 20.6001V516H0V20.6001Z" fill="#777DEF"/>
<path d="M43.5013 51.0679C43.5013 45.545 47.9784 41.0679 53.5013 41.0679H127.558C133.081 41.0679 137.558 45.545 137.558 51.0679V186.936H43.5013V51.0679Z" fill="#EBFAFF"/>
<rect x="57.2551" y="142.526" width="66.6415" height="6.83222" fill="white"/>
<rect x="57.2551" y="156.191" width="57.1213" height="3.41611" fill="white"/>
<rect x="57.2551" y="163.023" width="60.2451" height="3.41611" fill="white"/>
<rect x="57.2551" y="169.855" width="55.485" height="3.41611" fill="white"/>
<path fill-rule="evenodd" clip-rule="evenodd" d="M116.17 71.8136C109.168 68.7581 108.467 63.6655 108.467 57.9152C108.467 53.6502 123.894 53.6926 123.894 57.9152C123.894 63.6655 123.193 68.7581 116.17 71.8136ZM112.966 61.3526H115.3V59.0186H117.061V61.3526H119.395V63.1138H117.061V65.4691H115.3V63.1138H112.966V61.3526Z" fill="white"/>
<path d="M60.8032 60.0189C61.3292 60.0941 61.6449 60.3947 61.6299 60.8456H63.629C63.5538 59.3125 62.6369 58.4407 60.8032 58.1551V57.0879H60.0516V58.1551C58.3832 58.2002 57.1657 59.4477 57.1657 61.1011C57.1657 62.6042 57.9773 63.461 60.0516 64.1524V66.3169C59.4955 66.1665 59.2399 65.8359 59.255 65.3098H57.2108C57.2408 66.888 58.4132 68.0755 60.0516 68.1657V69.4583H60.8032V68.1657C61.5096 68.0755 61.8553 67.9853 62.2311 67.7899C63.148 67.3239 63.7793 66.2567 63.7793 65.1595C63.7793 64.2276 63.3283 63.446 62.5167 62.965C62.0207 62.6644 61.5998 62.484 60.8032 62.2285V60.0189ZM60.0516 61.9729C59.6909 61.8226 59.6157 61.7775 59.5105 61.7024C59.3301 61.5521 59.1798 61.2514 59.1798 60.9809C59.1798 60.4398 59.5105 60.0941 60.0516 60.0189V61.9729ZM60.8032 64.423C61.4495 64.6033 61.6599 64.8288 61.6599 65.3098C61.6599 65.8659 61.3593 66.2116 60.8032 66.3169V64.423Z" fill="#071446"/>
<path d="M151.222 51.0679C151.222 45.545 155.699 41.0679 161.222 41.0679H235.279C240.802 41.0679 245.279 45.545 245.279 51.0679V186.936H151.222V51.0679Z" fill="#EBFAFF"/>
<rect x="164.976" y="142.526" width="66.6415" height="6.83222" fill="white"/>
<rect x="164.976" y="156.191" width="57.1213" height="3.41611" fill="white"/>
<rect x="164.976" y="163.023" width="60.2451" height="3.41611" fill="white"/>
<rect x="164.976" y="169.855" width="55.485" height="3.41611" fill="white"/>
<path fill-rule="evenodd" clip-rule="evenodd" d="M223.891 71.8136C216.889 68.7581 216.188 63.6655 216.188 57.9152C216.188 53.6502 231.615 53.6926 231.615 57.9152C231.615 63.6655 230.914 68.7581 223.891 71.8136ZM220.687 61.3526H223.021V59.0186H224.782V61.3526H227.116V63.1138H224.782V65.4691H223.021V63.1138H220.687V61.3526Z" fill="white"/>
<path d="M168.524 60.0189C169.05 60.0941 169.366 60.3947 169.351 60.8456H171.35C171.275 59.3125 170.358 58.4407 168.524 58.1551V57.0879H167.773V58.1551C166.104 58.2002 164.887 59.4477 164.887 61.1011C164.887 62.6042 165.698 63.461 167.773 64.1524V66.3169C167.216 66.1665 166.961 65.8359 166.976 65.3098H164.932C164.962 66.888 166.134 68.0755 167.773 68.1657V69.4583H168.524V68.1657C169.231 68.0755 169.576 67.9853 169.952 67.7899C170.869 67.3239 171.5 66.2567 171.5 65.1595C171.5 64.2276 171.049 63.446 170.238 62.965C169.742 62.6644 169.321 62.484 168.524 62.2285V60.0189ZM167.773 61.9729C167.412 61.8226 167.337 61.7775 167.231 61.7024C167.051 61.5521 166.901 61.2514 166.901 60.9809C166.901 60.4398 167.231 60.0941 167.773 60.0189V61.9729ZM168.524 64.423C169.17 64.6033 169.381 64.8288 169.381 65.3098C169.381 65.8659 169.08 66.2116 168.524 66.3169V64.423Z" fill="#071446"/>
<path d="M258.943 51.0679C258.943 45.545 263.42 41.0679 268.943 41.0679H343C348.523 41.0679 353 45.545 353 51.0679V186.936H258.943V51.0679Z" fill="#EBFAFF"/>
<rect x="272.697" y="142.526" width="66.6415" height="6.83222" fill="white"/>
<rect x="272.697" y="156.191" width="57.1213" height="3.41611" fill="white"/>
<rect x="272.697" y="163.023" width="60.2451" height="3.41611" fill="white"/>
<rect x="272.697" y="169.855" width="55.485" height="3.41611" fill="white"/>
<path fill-rule="evenodd" clip-rule="evenodd" d="M331.612 71.8136C324.609 68.7581 323.909 63.6655 323.909 57.9152C323.909 53.6502 339.335 53.6926 339.335 57.9152C339.335 63.6655 338.635 68.7581 331.612 71.8136ZM328.408 61.3526H330.742V59.0186H332.503V61.3526H334.837V63.1138H332.503V65.4691H330.742V63.1138H328.408V61.3526Z" fill="white"/>
<path d="M276.245 60.0189C276.771 60.0941 277.087 60.3947 277.072 60.8456H279.071C278.996 59.3125 278.079 58.4407 276.245 58.1551V57.0879H275.493V58.1551C273.825 58.2002 272.608 59.4477 272.608 61.1011C272.608 62.6042 273.419 63.461 275.493 64.1524V66.3169C274.937 66.1665 274.682 65.8359 274.697 65.3098H272.653C272.683 66.888 273.855 68.0755 275.493 68.1657V69.4583H276.245V68.1657C276.951 68.0755 277.297 67.9853 277.673 67.7899C278.59 67.3239 279.221 66.2567 279.221 65.1595C279.221 64.2276 278.77 63.446 277.959 62.965C277.462 62.6644 277.042 62.484 276.245 62.2285V60.0189ZM275.493 61.9729C275.133 61.8226 275.058 61.7775 274.952 61.7024C274.772 61.5521 274.622 61.2514 274.622 60.9809C274.622 60.4398 274.952 60.0941 275.493 60.0189V61.9729ZM276.245 64.423C276.891 64.6033 277.102 64.8288 277.102 65.3098C277.102 65.8659 276.801 66.2116 276.245 66.3169V64.423Z" fill="#071446"/>
<path d="M43.5013 210.6C43.5013 205.077 47.9784 200.6 53.5013 200.6H127.558C133.081 200.6 137.558 205.077 137.558 210.6V346.468H43.5013V210.6Z" fill="#EBFAFF"/>
<rect x="57.2551" y="302.059" width="66.6415" height="6.83222" fill="white"/>
<rect x="57.2551" y="315.723" width="57.1213" height="3.41611" fill="white"/>
<rect x="57.2551" y="322.555" width="60.2451" height="3.41611" fill="white"/>
<rect x="57.2551" y="329.388" width="55.485" height="3.41611" fill="white"/>
<path fill-rule="evenodd" clip-rule="evenodd" d="M116.17 231.346C109.168 228.29 108.467 223.198 108.467 217.448C108.467 213.183 123.894 213.225 123.894 217.448C123.894 223.198 123.193 228.29 116.17 231.346ZM112.966 220.885H115.3V218.551H117.061V220.885H119.395V222.646H117.061V225.002H115.3V222.646H112.966V220.885Z" fill="white"/>
<path d="M60.8032 219.551C61.3292 219.626 61.6449 219.927 61.6299 220.378H63.629C63.5538 218.845 62.6369 217.973 60.8032 217.687V216.62H60.0516V217.687C58.3832 217.733 57.1657 218.98 57.1657 220.633C57.1657 222.137 57.9773 222.993 60.0516 223.685V225.849C59.4955 225.699 59.2399 225.368 59.255 224.842H57.2108C57.2408 226.42 58.4132 227.608 60.0516 227.698V228.991H60.8032V227.698C61.5096 227.608 61.8553 227.518 62.2311 227.322C63.148 226.856 63.7793 225.789 63.7793 224.692C63.7793 223.76 63.3283 222.978 62.5167 222.497C62.0207 222.197 61.5998 222.016 60.8032 221.761V219.551ZM60.0516 221.505C59.6909 221.355 59.6157 221.31 59.5105 221.235C59.3301 221.084 59.1798 220.784 59.1798 220.513C59.1798 219.972 59.5105 219.626 60.0516 219.551V221.505ZM60.8032 223.955C61.4495 224.136 61.6599 224.361 61.6599 224.842C61.6599 225.398 61.3593 225.744 60.8032 225.849V223.955Z" fill="#071446"/>
<path d="M151.222 210.6C151.222 205.077 155.699 200.6 161.222 200.6H235.279C240.802 200.6 245.279 205.077 245.279 210.6V346.468H151.222V210.6Z" fill="#EBFAFF"/>
<rect x="164.976" y="302.059" width="66.6415" height="6.83222" fill="white"/>
<rect x="164.976" y="315.723" width="57.1213" height="3.41611" fill="white"/>
<rect x="164.976" y="322.555" width="60.2451" height="3.41611" fill="white"/>
<rect x="164.976" y="329.388" width="55.485" height="3.41611" fill="white"/>
<path fill-rule="evenodd" clip-rule="evenodd" d="M223.891 231.346C216.889 228.29 216.188 223.198 216.188 217.448C216.188 213.183 231.615 213.225 231.615 217.448C231.615 223.198 230.914 228.29 223.891 231.346ZM220.687 220.885H223.021V218.551H224.782V220.885H227.116V222.646H224.782V225.002H223.021V222.646H220.687V220.885Z" fill="white"/>
<path d="M168.524 219.551C169.05 219.626 169.366 219.927 169.351 220.378H171.35C171.275 218.845 170.358 217.973 168.524 217.687V216.62H167.773V217.687C166.104 217.733 164.887 218.98 164.887 220.633C164.887 222.137 165.698 222.993 167.773 223.685V225.849C167.216 225.699 166.961 225.368 166.976 224.842H164.932C164.962 226.42 166.134 227.608 167.773 227.698V228.991H168.524V227.698C169.231 227.608 169.576 227.518 169.952 227.322C170.869 226.856 171.5 225.789 171.5 224.692C171.5 223.76 171.049 222.978 170.238 222.497C169.742 222.197 169.321 222.016 168.524 221.761V219.551ZM167.773 221.505C167.412 221.355 167.337 221.31 167.231 221.235C167.051 221.084 166.901 220.784 166.901 220.513C166.901 219.972 167.231 219.626 167.773 219.551V221.505ZM168.524 223.955C169.17 224.136 169.381 224.361 169.381 224.842C169.381 225.398 169.08 225.744 168.524 225.849V223.955Z" fill="#071446"/>
<path d="M258.943 210.6C258.943 205.077 263.42 200.6 268.943 200.6H343C348.523 200.6 353 205.077 353 210.6V346.468H258.943V210.6Z" fill="#EBFAFF"/>
<rect x="272.697" y="302.059" width="66.6415" height="6.83222" fill="white"/>
<rect x="272.697" y="315.723" width="57.1213" height="3.41611" fill="white"/>
<rect x="272.697" y="322.555" width="60.2451" height="3.41611" fill="white"/>
<rect x="272.697" y="329.388" width="55.485" height="3.41611" fill="white"/>
<path fill-rule="evenodd" clip-rule="evenodd" d="M331.612 231.346C324.609 228.29 323.909 223.198 323.909 217.448C323.909 213.183 339.335 213.225 339.335 217.448C339.335 223.198 338.635 228.29 331.612 231.346ZM328.408 220.885H330.742V218.551H332.503V220.885H334.837V222.646H332.503V225.002H330.742V222.646H328.408V220.885Z" fill="white"/>
<path d="M276.245 219.551C276.771 219.626 277.087 219.927 277.072 220.378H279.071C278.996 218.845 278.079 217.973 276.245 217.687V216.62H275.493V217.687C273.825 217.733 272.608 218.98 272.608 220.633C272.608 222.137 273.419 222.993 275.493 223.685V225.849C274.937 225.699 274.682 225.368 274.697 224.842H272.653C272.683 226.42 273.855 227.608 275.493 227.698V228.991H276.245V227.698C276.951 227.608 277.297 227.518 277.673 227.322C278.59 226.856 279.221 225.789 279.221 224.692C279.221 223.76 278.77 222.978 277.959 222.497C277.462 222.197 277.042 222.016 276.245 221.761V219.551ZM275.493 221.505C275.133 221.355 275.058 221.31 274.952 221.235C274.772 221.084 274.622 220.784 274.622 220.513C274.622 219.972 274.952 219.626 275.493 219.551V221.505ZM276.245 223.955C276.891 224.136 277.102 224.361 277.102 224.842C277.102 225.398 276.801 225.744 276.245 225.849V223.955Z" fill="#071446"/>
<path d="M43.5013 370.132C43.5013 364.609 47.9784 360.132 53.5013 360.132H127.558C133.081 360.132 137.558 364.609 137.558 370.132V506H43.5013V370.132Z" fill="#EBFAFF"/>
<rect x="57.2551" y="461.591" width="66.6415" height="6.83222" fill="white"/>
<rect x="57.2551" y="475.255" width="57.1213" height="3.41611" fill="white"/>
<rect x="57.2551" y="482.087" width="60.2451" height="3.41611" fill="white"/>
<rect x="57.2551" y="488.92" width="55.485" height="3.41611" fill="white"/>
<path fill-rule="evenodd" clip-rule="evenodd" d="M116.17 390.878C109.168 387.822 108.467 382.73 108.467 376.979C108.467 372.714 123.894 372.757 123.894 376.979C123.894 382.73 123.193 387.822 116.17 390.878ZM112.966 380.417H115.3V378.083H117.061V380.417H119.395V382.178H117.061V384.533H115.3V382.178H112.966V380.417Z" fill="white"/>
<path d="M60.8032 379.083C61.3292 379.158 61.6449 379.459 61.6299 379.91H63.629C63.5538 378.377 62.6369 377.505 60.8032 377.219V376.152H60.0516V377.219C58.3832 377.264 57.1657 378.512 57.1657 380.165C57.1657 381.668 57.9773 382.525 60.0516 383.217V385.381C59.4955 385.231 59.2399 384.9 59.255 384.374H57.2108C57.2408 385.952 58.4132 387.14 60.0516 387.23V388.523H60.8032V387.23C61.5096 387.14 61.8553 387.05 62.2311 386.854C63.148 386.388 63.7793 385.321 63.7793 384.224C63.7793 383.292 63.3283 382.51 62.5167 382.029C62.0207 381.729 61.5998 381.548 60.8032 381.293V379.083ZM60.0516 381.037C59.6909 380.887 59.6157 380.842 59.5105 380.767C59.3301 380.616 59.1798 380.316 59.1798 380.045C59.1798 379.504 59.5105 379.158 60.0516 379.083V381.037ZM60.8032 383.487C61.4495 383.668 61.6599 383.893 61.6599 384.374C61.6599 384.93 61.3593 385.276 60.8032 385.381V383.487Z" fill="#071446"/>
<path d="M151.222 370.132C151.222 364.609 155.699 360.132 161.222 360.132H235.279C240.802 360.132 245.279 364.609 245.279 370.132V506H151.222V370.132Z" fill="#EBFAFF"/>
<rect x="164.976" y="461.591" width="66.6415" height="6.83222" fill="white"/>
<rect x="164.976" y="475.255" width="57.1213" height="3.41611" fill="white"/>
<rect x="164.976" y="482.087" width="60.2451" height="3.41611" fill="white"/>
<rect x="164.976" y="488.92" width="55.485" height="3.41611" fill="white"/>
<path fill-rule="evenodd" clip-rule="evenodd" d="M223.891 390.878C216.889 387.822 216.188 382.73 216.188 376.979C216.188 372.714 231.615 372.757 231.615 376.979C231.615 382.73 230.914 387.822 223.891 390.878ZM220.687 380.417H223.021V378.083H224.782V380.417H227.116V382.178H224.782V384.533H223.021V382.178H220.687V380.417Z" fill="white"/>
<path d="M168.524 379.083C169.05 379.158 169.366 379.459 169.351 379.91H171.35C171.275 378.377 170.358 377.505 168.524 377.219V376.152H167.773V377.219C166.104 377.264 164.887 378.512 164.887 380.165C164.887 381.668 165.698 382.525 167.773 383.217V385.381C167.216 385.231 166.961 384.9 166.976 384.374H164.932C164.962 385.952 166.134 387.14 167.773 387.23V388.523H168.524V387.23C169.231 387.14 169.576 387.05 169.952 386.854C170.869 386.388 171.5 385.321 171.5 384.224C171.5 383.292 171.049 382.51 170.238 382.029C169.742 381.729 169.321 381.548 168.524 381.293V379.083ZM167.773 381.037C167.412 380.887 167.337 380.842 167.231 380.767C167.051 380.616 166.901 380.316 166.901 380.045C166.901 379.504 167.231 379.158 167.773 379.083V381.037ZM168.524 383.487C169.17 383.668 169.381 383.893 169.381 384.374C169.381 384.93 169.08 385.276 168.524 385.381V383.487Z" fill="#071446"/>
<path d="M258.943 370.132C258.943 364.609 263.42 360.132 268.943 360.132H343C348.523 360.132 353 364.609 353 370.132V506H258.943V370.132Z" fill="#EBFAFF"/>
<rect x="272.697" y="461.591" width="66.6415" height="6.83222" fill="white"/>
<rect x="272.697" y="475.255" width="57.1213" height="3.41611" fill="white"/>
<rect x="272.697" y="482.087" width="60.2451" height="3.41611" fill="white"/>
<rect x="272.697" y="488.92" width="55.485" height="3.41611" fill="white"/>
<path fill-rule="evenodd" clip-rule="evenodd" d="M331.612 390.878C324.609 387.822 323.909 382.73 323.909 376.979C323.909 372.714 339.335 372.757 339.335 376.979C339.335 382.73 338.635 387.822 331.612 390.878ZM328.408 380.417H330.742V378.083H332.503V380.417H334.837V382.178H332.503V384.533H330.742V382.178H328.408V380.417Z" fill="white"/>
<path d="M276.245 379.083C276.771 379.158 277.087 379.459 277.072 379.91H279.071C278.996 378.377 278.079 377.505 276.245 377.219V376.152H275.493V377.219C273.825 377.264 272.608 378.512 272.608 380.165C272.608 381.668 273.419 382.525 275.493 383.217V385.381C274.937 385.231 274.682 384.9 274.697 384.374H272.653C272.683 385.952 273.855 387.14 275.493 387.23V388.523H276.245V387.23C276.951 387.14 277.297 387.05 277.673 386.854C278.59 386.388 279.221 385.321 279.221 384.224C279.221 383.292 278.77 382.51 277.959 382.029C277.462 381.729 277.042 381.548 276.245 381.293V379.083ZM275.493 381.037C275.133 380.887 275.058 380.842 274.952 380.767C274.772 380.616 274.622 380.316 274.622 380.045C274.622 379.504 274.952 379.158 275.493 379.083V381.037ZM276.245 383.487C276.891 383.668 277.102 383.893 277.102 384.374C277.102 384.93 276.801 385.276 276.245 385.381V383.487Z" fill="#071446"/>
</svg>
