<svg width="395" height="395" viewBox="0 0 395 395" fill="none" xmlns="http://www.w3.org/2000/svg">
<path d="M0 20C0 8.9543 8.9543 0 20 0H375C386.046 0 395 8.9543 395 20V395H0V20Z" fill="white"/>
<mask id="mask0" mask-type="alpha" maskUnits="userSpaceOnUse" x="0" y="0" width="395" height="395">
<path d="M0 20C0 8.9543 8.9543 0 20 0H375C386.046 0 395 8.9543 395 20V395H0V20Z" fill="white"/>
</mask>
<g mask="url(#mask0)">
<rect x="40.1309" y="207.5" width="147.369" height="10" fill="#EBFAFF"/>
<rect x="40.1309" y="227.5" width="126.316" height="5" fill="#EBFAFF"/>
<rect x="40.1309" y="237.5" width="133.224" height="5" fill="#EBFAFF"/>
<rect x="40.1309" y="247.5" width="122.698" height="5" fill="#EBFAFF"/>
<path d="M40 50C40 44.4771 44.4772 40 50 40H177.5C183.023 40 187.5 44.4772 187.5 50V187.5H40V50Z" fill="#EBFAFF"/>
<rect width="147.5" height="6.02245" transform="matrix(1 0 0 -1 40 187.5)" fill="#071446"/>
<path d="M113.5 123.101C126.358 123.101 136.781 112.677 136.781 99.8197C136.781 86.962 126.358 76.5387 113.5 76.5387C100.642 76.5387 90.2189 86.962 90.2189 99.8197C90.2189 112.677 100.642 123.101 113.5 123.101Z" fill="white"/>
<path d="M128.225 120.726C124.057 123.669 118.979 125.406 113.5 125.406C108.021 125.406 102.943 123.67 98.7769 120.726C84.4469 122.656 74.3379 128.636 74.3379 145.055H152.662C152.662 128.636 142.555 122.656 128.225 120.726Z" fill="white"/>
<rect x="207.631" y="207.5" width="147.369" height="10" fill="#EBFAFF"/>
<rect x="207.631" y="227.5" width="126.316" height="5" fill="#EBFAFF"/>
<rect x="207.631" y="237.5" width="133.224" height="5" fill="#EBFAFF"/>
<rect x="207.631" y="247.5" width="122.698" height="5" fill="#EBFAFF"/>
<path d="M207.5 50C207.5 44.4771 211.977 40 217.5 40H345C350.523 40 355 44.4772 355 50V187.5H207.5V50Z" fill="#EBFAFF"/>
<rect width="147.5" height="6.02245" transform="matrix(1 0 0 -1 207.5 187.5)" fill="#071446"/>
<path d="M281 123.101C293.858 123.101 304.281 112.677 304.281 99.8197C304.281 86.962 293.858 76.5387 281 76.5387C268.142 76.5387 257.719 86.962 257.719 99.8197C257.719 112.677 268.142 123.101 281 123.101Z" fill="white"/>
<path d="M295.725 120.726C291.557 123.669 286.479 125.406 281 125.406C275.521 125.406 270.443 123.67 266.277 120.726C251.947 122.656 241.838 128.636 241.838 145.055H320.162C320.162 128.636 310.055 122.656 295.725 120.726Z" fill="white"/>
<path d="M40 303.21C40 297.687 44.4772 293.21 50 293.21H177.5C183.023 293.21 187.5 297.687 187.5 303.21V440.71H40V303.21Z" fill="#EBFAFF"/>
<path d="M113.5 376.311C126.358 376.311 136.781 365.887 136.781 353.03C136.781 340.172 126.358 329.749 113.5 329.749C100.642 329.749 90.2189 340.172 90.2189 353.03C90.2189 365.887 100.642 376.311 113.5 376.311Z" fill="white"/>
<path d="M128.225 373.936C124.057 376.879 118.979 378.616 113.5 378.616C108.021 378.616 102.943 376.88 98.7769 373.936C84.4469 375.866 74.3379 381.846 74.3379 398.265H152.662C152.662 381.846 142.555 375.866 128.225 373.936Z" fill="white"/>
<path d="M207.5 303.21C207.5 297.687 211.977 293.21 217.5 293.21H345C350.523 293.21 355 297.687 355 303.21V440.71H207.5V303.21Z" fill="#EBFAFF"/>
<path d="M281 376.311C293.858 376.311 304.281 365.887 304.281 353.03C304.281 340.172 293.858 329.749 281 329.749C268.142 329.749 257.719 340.172 257.719 353.03C257.719 365.887 268.142 376.311 281 376.311Z" fill="white"/>
<path d="M295.725 373.936C291.557 376.879 286.479 378.616 281 378.616C275.521 378.616 270.443 376.88 266.277 373.936C251.947 375.866 241.838 381.846 241.838 398.265H320.162C320.162 381.846 310.055 375.866 295.725 373.936Z" fill="white"/>
</g>
</svg>
