<svg width="1680" height="1041" viewBox="0 0 1680 1041" fill="none" xmlns="http://www.w3.org/2000/svg">
<g clip-path="url(#clip0)">
<rect width="1680" height="1040.51" fill="white"/>
<g filter="url(#filter0_f)">
<ellipse cx="1075.94" cy="1453.02" rx="959.582" ry="957.571" transform="rotate(-180 1075.94 1453.02)" fill="#80C6F1"/>
</g>
<g filter="url(#filter1_f)">
<ellipse cx="1510.47" cy="181.619" rx="1128.57" ry="1126.55" transform="rotate(-180 1510.47 181.619)" fill="#BAE5FF"/>
</g>
<g filter="url(#filter2_f)">
<circle cx="-221.984" cy="1497.02" r="1034.02" transform="rotate(-180 -221.984 1497.02)" fill="#7FD7F2"/>
</g>
<g filter="url(#filter3_f)">
<circle cx="766.016" cy="-254.984" r="1034.02" transform="rotate(-180 766.016 -254.984)" fill="#BAE5FF"/>
</g>
<g filter="url(#filter4_f)">
<path d="M633.994 807.512C633.994 188.667 1135.67 -313.006 1754.51 -313.006C2373.36 -313.006 2875.03 188.667 2875.03 807.513C2875.03 1426.36 2373.36 1928.03 1754.51 1928.03C1135.67 1928.03 633.994 1426.36 633.994 807.512Z" fill="#54A7D9"/>
</g>
</g>
<defs>
<filter id="filter0_f" x="-133.642" y="245.444" width="2419.17" height="2415.14" filterUnits="userSpaceOnUse" color-interpolation-filters="sRGB">
<feFlood flood-opacity="0" result="BackgroundImageFix"/>
<feBlend mode="normal" in="SourceGraphic" in2="BackgroundImageFix" result="shape"/>
<feGaussianBlur stdDeviation="125" result="effect1_foregroundBlur"/>
</filter>
<filter id="filter1_f" x="131.9" y="-1194.94" width="2757.13" height="2753.11" filterUnits="userSpaceOnUse" color-interpolation-filters="sRGB">
<feFlood flood-opacity="0" result="BackgroundImageFix"/>
<feBlend mode="normal" in="SourceGraphic" in2="BackgroundImageFix" result="shape"/>
<feGaussianBlur stdDeviation="125" result="effect1_foregroundBlur"/>
</filter>
<filter id="filter2_f" x="-1716" y="3" width="2988.03" height="2988.03" filterUnits="userSpaceOnUse" color-interpolation-filters="sRGB">
<feFlood flood-opacity="0" result="BackgroundImageFix"/>
<feBlend mode="normal" in="SourceGraphic" in2="BackgroundImageFix" result="shape"/>
<feGaussianBlur stdDeviation="230" result="effect1_foregroundBlur"/>
</filter>
<filter id="filter3_f" x="-728" y="-1749" width="2988.03" height="2988.03" filterUnits="userSpaceOnUse" color-interpolation-filters="sRGB">
<feFlood flood-opacity="0" result="BackgroundImageFix"/>
<feBlend mode="normal" in="SourceGraphic" in2="BackgroundImageFix" result="shape"/>
<feGaussianBlur stdDeviation="230" result="effect1_foregroundBlur"/>
</filter>
<filter id="filter4_f" x="383.994" y="-563.006" width="2741.04" height="2741.04" filterUnits="userSpaceOnUse" color-interpolation-filters="sRGB">
<feFlood flood-opacity="0" result="BackgroundImageFix"/>
<feBlend mode="normal" in="SourceGraphic" in2="BackgroundImageFix" result="shape"/>
<feGaussianBlur stdDeviation="125" result="effect1_foregroundBlur"/>
</filter>
<clipPath id="clip0">
<rect width="1680" height="1040.51" fill="white"/>
</clipPath>
</defs>
</svg>
